<svg width="513" height="512" viewBox="0 0 513 512" fill="none" xmlns="http://www.w3.org/2000/svg">
<g clip-path="url(#clip0_264_2)">
<path fill-rule="evenodd" clip-rule="evenodd" d="M256.5 0C397.79 0 512.5 114.71 512.5 256C512.5 397.29 397.79 512 256.5 512C115.21 512 0.5 397.29 0.5 256C0.5 114.71 115.21 0 256.5 0ZM176.463 399.871V199.95H109.999V399.871H176.463ZM416.083 399.871V285.225C416.083 223.816 383.296 195.249 339.574 195.249C304.319 195.249 288.527 214.638 279.685 228.256V199.95H213.238C214.119 218.707 213.238 399.871 213.238 399.871H279.684V288.221C279.684 282.245 280.114 276.271 281.875 272C286.67 260.065 297.612 247.701 315.97 247.701C340.004 247.701 349.633 266.041 349.633 292.905V399.871H416.083ZM143.68 103.55C120.94 103.55 106.083 118.5 106.083 138.095C106.083 157.277 120.488 172.639 142.8 172.639H143.229C166.404 172.639 180.829 157.277 180.829 138.095C180.399 118.5 166.405 103.55 143.68 103.55Z" fill="#C89F23"/>
</g>
<defs>
<clipPath id="clip0_264_2">
<rect width="512" height="512" fill="white" transform="translate(0.5)"/>
</clipPath>
</defs>
</svg>
