<svg width="50" height="50" viewBox="0 0 50 50" fill="none" xmlns="http://www.w3.org/2000/svg">
<path d="M24.4 29.1999C26.8301 29.1999 28.8 27.23 28.8 24.7999C28.8 22.3698 26.8301 20.3999 24.4 20.3999C21.9699 20.3999 20 22.3698 20 24.7999C20 27.23 21.9699 29.1999 24.4 29.1999Z" fill="#F4F3EE"/>
<path d="M29.9001 14H18.9001C17.3001 14 15.9001 14.5 15.0001 15.4C14.1001 16.3 13.6001 17.7 13.6001 19.3V30.3C13.6001 31.9 14.1001 33.3 15.1001 34.3C16.1001 35.2 17.4001 35.7 19.0001 35.7H29.9001C31.5001 35.7 32.9001 35.2 33.8001 34.3C34.8001 33.4 35.3001 32 35.3001 30.4V19.4C35.3001 17.8 34.8001 16.5 33.9001 15.5C32.9001 14.5 31.6001 14 29.9001 14ZM24.4001 31.6C20.6001 31.6 17.6001 28.5 17.6001 24.8C17.6001 21 20.7001 18 24.4001 18C28.1001 18 31.3001 21 31.3001 24.8C31.3001 28.6 28.2001 31.6 24.4001 31.6ZM31.5001 19.3C30.6001 19.3 29.9001 18.6 29.9001 17.7C29.9001 16.8 30.6001 16.1 31.5001 16.1C32.4001 16.1 33.1001 16.8 33.1001 17.7C33.1001 18.6 32.4001 19.3 31.5001 19.3Z" fill="#F4F3EE"/>
<path d="M24.6 0C11 0 0 11 0 24.6C0 38.2 11 49.2 24.6 49.2C38.2 49.2 49.2 38.2 49.2 24.6C49.3 11 38.2 0 24.6 0ZM37.7 30.4C37.7 32.7 36.9 34.7 35.5 36.1C34.1 37.5 32.1 38.2 29.9 38.2H19C16.8 38.2 14.8 37.5 13.4 36.1C11.9 34.7 11.2 32.7 11.2 30.4V19.4C11.2 14.8 14.3 11.6 19 11.6H30C32.3 11.6 34.2 12.4 35.6 13.8C37 15.2 37.7 17.1 37.7 19.4V30.4Z" fill="#F4F3EE"/>
</svg>
