<?xml version="1.0" encoding="utf-8" ?>
<svg xmlns="http://www.w3.org/2000/svg" xmlns:xlink="http://www.w3.org/1999/xlink" width="588" height="588">
	<path fill="#0B0C0E" fill-opacity="0.019607844" d="M257.526 0L263.464 0C262.781 0.670374 260.893 0.513584 259.903 0.583479L259.963 0.6801C258.714 0.690489 258.581 0.769934 257.526 0Z"/>
	<path fill="#0B0C0E" d="M288.072 5.31333Q291.512 5.25066 294.952 5.26958Q298.393 5.28849 301.832 5.38898Q305.271 5.48948 308.706 5.67149Q312.142 5.8535 315.572 6.11693Q319.003 6.38036 322.426 6.72506Q325.849 7.06976 329.263 7.49554Q332.677 7.92131 336.08 8.42792Q339.483 8.93454 342.873 9.5217Q346.263 10.1089 349.638 10.7762Q353.013 11.4436 356.372 12.1909Q359.73 12.9381 363.07 13.7647Q366.409 14.5914 369.729 15.497Q373.048 16.4026 376.345 17.3867Q379.641 18.3708 382.914 19.4327Q386.186 20.4947 389.433 21.634Q392.679 22.7732 395.897 23.9892Q399.116 25.2051 402.305 26.497Q405.493 27.7889 408.65 29.156Q411.808 30.5232 414.932 31.9648Q418.055 33.4065 421.144 34.9218Q424.233 36.4371 427.285 38.0252Q430.337 39.6133 433.35 41.2733Q436.364 42.9334 439.337 44.6644Q442.311 46.3955 445.242 48.1965Q448.173 49.9976 451.061 51.8676Q453.949 53.7377 456.792 55.6757Q459.634 57.6137 462.43 59.6186Q465.226 61.6235 467.974 63.6941Q470.722 65.7647 473.419 67.8999Q476.117 70.0351 478.763 72.2336Q481.41 74.4322 484.003 76.6929Q486.597 78.9536 489.136 81.2751Q491.773 83.6851 494.349 86.1592Q496.926 88.6334 499.441 91.1703Q501.956 93.7072 504.408 96.3052Q506.859 98.9033 509.246 101.561Q511.633 104.219 513.954 106.934Q516.275 109.65 518.528 112.422Q520.781 115.194 522.965 118.02Q525.15 120.847 527.264 123.726Q529.378 126.606 531.42 129.536Q533.463 132.467 535.432 135.447Q537.402 138.427 539.298 141.455Q541.193 144.483 543.014 147.556Q544.834 150.63 546.579 153.747Q548.323 156.864 549.99 160.024Q551.657 163.183 553.246 166.383Q554.835 169.582 556.344 172.82Q557.853 176.057 559.283 179.331Q560.712 182.605 562.06 185.913Q563.408 189.221 564.675 192.561Q565.941 195.902 567.125 199.272Q568.308 202.642 569.409 206.041Q570.509 209.439 571.525 212.864Q572.541 216.288 573.473 219.737Q574.405 223.186 575.251 226.656Q576.098 230.127 576.858 233.617Q577.619 237.107 578.294 240.615Q578.968 244.123 579.556 247.646Q580.144 251.17 580.645 254.707Q581.146 258.244 581.56 261.792Q581.974 265.34 582.3 268.897Q582.626 272.455 582.865 276.019Q583.103 279.583 583.254 283.152Q583.406 286.742 583.468 290.334Q583.531 293.927 583.504 297.52Q583.477 301.113 583.362 304.704Q583.246 308.295 583.042 311.882Q582.837 315.47 582.544 319.051Q582.251 322.632 581.869 326.205Q581.487 329.777 581.016 333.339Q580.546 336.901 579.987 340.451Q579.429 344 578.783 347.535Q578.137 351.069 577.403 354.587Q576.669 358.104 575.849 361.602Q575.029 365.1 574.122 368.577Q573.215 372.054 572.222 375.507Q571.229 378.96 570.151 382.387Q569.073 385.815 567.91 389.215Q566.748 392.615 565.501 395.984Q564.255 399.354 562.925 402.692Q561.596 406.03 560.184 409.334Q558.772 412.638 557.279 415.907Q555.785 419.175 554.212 422.405Q552.638 425.635 550.984 428.825Q549.331 432.015 547.599 435.163Q545.867 438.311 544.058 441.415Q542.249 444.52 540.363 447.578Q538.477 450.637 536.516 453.647Q534.556 456.658 532.521 459.619Q530.486 462.581 528.378 465.491Q526.271 468.401 524.092 471.258Q521.913 474.115 519.663 476.917Q517.414 479.719 515.096 482.464Q512.779 485.209 510.393 487.897Q508.008 490.584 505.557 493.211Q503.559 495.358 501.518 497.464Q499.478 499.57 497.394 501.634Q495.311 503.699 493.187 505.72Q491.062 507.742 488.897 509.72Q486.732 511.698 484.527 513.632Q482.322 515.566 480.079 517.454Q477.835 519.343 475.554 521.186Q473.273 523.029 470.955 524.825Q468.636 526.621 466.282 528.37Q463.928 530.119 461.539 531.819Q459.15 533.52 456.727 535.172Q454.303 536.824 451.847 538.427Q449.391 540.029 446.903 541.582Q444.415 543.134 441.896 544.636Q439.377 546.137 436.828 547.588Q434.279 549.038 431.701 550.436Q429.123 551.834 426.518 553.18Q423.912 554.526 421.28 555.818Q418.647 557.111 415.989 558.35Q413.331 559.589 410.648 560.774Q407.966 561.959 405.26 563.089Q402.553 564.219 399.825 565.294Q397.096 566.37 394.347 567.389Q391.597 568.409 388.827 569.373Q386.057 570.336 383.269 571.244Q380.48 572.151 377.673 573.001Q374.867 573.852 372.043 574.645Q369.22 575.439 366.381 576.175Q363.542 576.911 360.689 577.59Q357.836 578.268 354.97 578.888Q352.104 579.509 349.225 580.071Q346.347 580.633 343.458 581.137C328.596 583.718 313.849 584.716 298.796 585.364Q295.405 585.426 292.013 585.409Q288.621 585.392 285.231 585.296Q281.841 585.199 278.454 585.023Q275.066 584.847 271.684 584.592Q268.302 584.336 264.927 584.002Q261.552 583.667 258.185 583.254Q254.819 582.84 251.463 582.348Q248.107 581.856 244.764 581.285Q241.42 580.714 238.091 580.065Q234.762 579.416 231.449 578.689Q228.136 577.963 224.841 577.158Q221.546 576.354 218.271 575.473Q214.996 574.592 211.742 573.634Q208.488 572.676 205.258 571.643Q202.028 570.609 198.822 569.5Q195.617 568.391 192.439 567.207Q189.26 566.023 186.11 564.765Q182.961 563.507 179.841 562.175Q176.722 560.844 173.634 559.439Q170.547 558.035 167.493 556.559Q164.44 555.083 161.421 553.535Q158.403 551.988 155.422 550.37Q152.441 548.753 149.499 547.066Q146.556 545.379 143.654 543.623Q140.752 541.867 137.892 540.044Q135.032 538.221 132.215 536.332Q129.399 534.442 126.627 532.487Q123.855 530.532 121.13 528.512Q118.405 526.493 115.729 524.41Q113.052 522.327 110.424 520.182Q107.797 518.037 105.22 515.832Q102.644 513.626 100.12 511.36Q97.9784 509.442 95.8753 507.482Q93.7723 505.522 91.7086 503.52Q89.6449 501.519 87.6213 499.476Q85.5978 497.434 83.6152 495.352Q81.6327 493.27 79.6919 491.149Q77.7511 489.028 75.8528 486.869Q73.9546 484.71 72.0996 482.514Q70.2446 480.317 68.4336 478.085Q66.6226 475.852 64.8563 473.583Q63.09 471.315 61.3692 469.012Q59.6483 466.709 57.9736 464.372Q56.2988 462.036 54.6708 459.666Q53.0428 457.297 51.4622 454.895Q49.8816 452.494 48.349 450.061Q46.8165 447.629 45.3325 445.167Q43.8486 442.704 42.4139 440.213Q40.9791 437.722 39.5942 435.202Q38.2093 432.683 36.8746 430.137Q35.54 427.59 34.2563 425.018Q32.9725 422.446 31.7401 419.848Q30.5077 417.251 29.3272 414.63Q28.1467 412.008 27.0184 409.364Q25.8902 406.72 24.8147 404.053Q23.7393 401.387 22.717 398.7Q21.6947 396.013 20.726 393.306Q19.7574 390.6 18.8426 387.874Q17.9279 385.149 17.0675 382.405Q16.2072 379.662 15.4014 376.903Q14.5957 374.143 13.845 371.368Q13.0943 368.593 12.3989 365.803Q11.7034 363.014 11.0636 360.211Q10.4237 357.408 9.83966 354.593Q5.67174 334.679 4.43171 314.372Q3.25003 293.978 4.60148 273.595Q4.82271 270.638 5.10439 267.687Q5.38608 264.736 5.72811 261.791Q6.07014 258.846 6.47237 255.909Q6.8746 252.971 7.33687 250.043Q7.79913 247.114 8.32123 244.196Q8.84334 241.277 9.42506 238.37Q10.0068 235.463 10.6479 232.568Q11.289 229.674 11.9892 226.793Q12.6894 223.912 13.4484 221.046Q14.2074 218.18 15.025 215.33Q15.8425 212.48 16.7181 209.648Q17.5938 206.815 18.5273 204.001Q19.4607 201.187 20.4516 198.393Q21.4424 195.599 22.4903 192.825Q23.5381 190.052 24.6425 187.3Q25.7469 184.549 26.9073 181.821Q28.0678 179.093 29.2838 176.389Q30.4999 173.685 31.771 171.006Q33.0422 168.328 34.3678 165.676Q35.6935 163.024 37.0732 160.4Q38.4529 157.776 39.886 155.18Q41.3191 152.585 42.805 150.02Q44.2909 147.454 45.829 144.919Q47.3671 142.385 48.9568 139.882Q50.5465 137.38 52.187 134.91Q53.8276 132.441 55.5183 130.005Q57.2091 127.57 58.9493 125.17Q60.6895 122.769 62.4785 120.405Q64.2675 118.041 66.1046 115.714Q67.9416 113.387 69.8258 111.098Q71.7101 108.809 73.6408 106.559Q75.5715 104.309 77.5478 102.099Q79.5641 99.8412 81.6271 97.626Q83.69 95.4108 85.7989 93.2392Q87.9077 91.0676 90.0614 88.9406Q92.2151 86.8135 94.4128 84.7318Q96.6105 82.6502 98.8512 80.615Q101.092 78.5797 103.375 76.5917Q105.657 74.6037 107.981 72.6638Q110.305 70.7239 112.669 68.8329Q115.032 66.942 117.435 65.1009Q119.838 63.2597 122.278 61.4692Q124.719 59.6786 127.197 57.9395Q129.674 56.2003 132.188 54.5133Q134.701 52.8262 137.249 51.1921Q139.797 49.5579 142.379 47.9773Q144.96 46.3967 147.574 44.8704Q150.188 43.3441 152.834 41.8727Q155.479 40.4014 158.155 38.9856Q160.83 37.5698 163.535 36.2102Q166.239 34.8506 168.972 33.5478Q171.704 32.245 174.463 30.9996Q177.222 29.7541 180.006 28.5666Q182.791 27.3791 185.599 26.25Q188.408 25.1209 191.239 24.0507Q194.071 22.9805 196.924 21.9697Q199.777 20.9589 202.651 20.0079Q205.525 19.0569 208.418 18.1662Q211.311 17.2754 214.222 16.4453Q217.133 15.6152 220.061 14.846Q222.988 14.0769 225.931 13.3691Q228.875 12.6613 231.832 12.0151Q234.789 11.369 237.759 10.7847Q240.729 10.2005 243.711 9.67839C258.335 7.13138 273.263 6.08285 288.072 5.31333ZM283.672 12.186C207.172 15.727 136.773 47.1699 84.9045 103.978Q82.5486 106.549 80.2566 109.177Q77.9646 111.805 75.7378 114.489Q73.5111 117.172 71.3509 119.91Q69.1908 122.647 67.0986 125.437Q65.0064 128.226 62.9833 131.067Q60.9603 133.907 59.0076 136.796Q57.055 139.685 55.1739 142.622Q53.2928 145.558 51.4845 148.539Q49.6761 151.521 47.9416 154.546Q46.207 157.571 44.5473 160.638Q42.8876 163.705 41.3038 166.811Q39.72 169.918 38.2129 173.063Q36.7059 176.207 35.2766 179.388Q33.8473 182.569 32.4966 185.784Q31.1458 188.999 29.8745 192.246Q28.6032 195.493 27.412 198.77Q26.2209 202.047 25.1106 205.353Q24.0003 208.659 22.9716 211.991Q21.9429 215.323 20.9964 218.679Q20.0499 222.035 19.1861 225.413Q18.3223 228.792 17.5418 232.19Q16.7613 235.589 16.0645 239.006Q15.3677 242.423 14.7551 245.855Q14.1425 249.288 13.6145 252.735Q13.0864 256.182 12.6432 259.641Q12.2 263.1 11.8419 266.568Q11.4838 270.037 11.211 273.514Q10.9383 276.99 10.751 280.472Q10.5637 283.954 10.4621 287.44Q10.3604 290.925 10.3445 294.412Q10.3285 297.9 10.3982 301.386Q10.4679 304.872 10.6233 308.356Q10.7914 311.841 11.0449 315.321Q11.2984 318.8 11.6371 322.273Q11.9758 325.745 12.3995 329.209Q12.8232 332.672 13.3317 336.124Q13.8402 339.575 14.4332 343.014Q15.0261 346.452 15.7031 349.874Q16.3802 353.297 17.1409 356.702Q17.9017 360.107 18.7456 363.493Q19.5896 366.878 20.5163 370.242Q21.443 373.605 22.4519 376.945Q23.4608 380.285 24.5512 383.599Q25.6417 386.914 26.813 390.2Q27.9844 393.487 29.2359 396.743Q30.4875 400 31.8185 403.225Q33.1495 406.45 34.5592 409.642Q35.9689 412.833 37.4563 415.99Q38.9438 419.146 40.5082 422.264Q42.0726 425.383 43.713 428.462Q45.3533 431.541 47.0687 434.58Q48.7841 437.618 50.5734 440.613Q52.3627 443.608 54.2249 446.559Q56.0871 449.509 58.021 452.413Q59.955 455.317 61.9596 458.173Q63.9641 461.028 66.0381 463.834Q68.112 466.64 70.2541 469.394Q72.3962 472.148 74.6052 474.848Q76.8142 477.549 79.0887 480.195Q81.3632 482.84 83.7019 485.43Q86.0405 488.019 88.4419 490.55Q90.8434 493.081 93.3061 495.552Q95.7689 498.024 98.2915 500.434Q100.814 502.844 103.395 505.192C159.093 555.951 229.469 580.155 304.408 578.507C318.25 578.171 332.225 576.422 345.824 573.869Q348.539 573.362 351.243 572.801Q353.947 572.241 356.639 571.628Q359.332 571.015 362.012 570.349Q364.692 569.683 367.359 568.965Q370.025 568.247 372.677 567.478Q375.33 566.708 377.966 565.886Q380.603 565.065 383.223 564.192Q385.842 563.319 388.445 562.395Q391.047 561.471 393.631 560.496Q396.215 559.522 398.779 558.497Q401.344 557.472 403.887 556.397Q406.431 555.322 408.953 554.198Q411.476 553.073 413.976 551.9Q416.475 550.726 418.952 549.504Q421.428 548.282 423.88 547.012Q426.333 545.742 428.759 544.424Q431.186 543.106 433.587 541.741Q435.987 540.376 438.361 538.964Q440.734 537.552 443.079 536.095Q445.425 534.637 447.741 533.133Q450.058 531.63 452.344 530.082Q454.631 528.533 456.887 526.941Q459.143 525.348 461.367 523.711Q463.592 522.075 465.784 520.395Q467.976 518.715 470.134 516.993Q472.293 515.271 474.418 513.507Q476.543 511.743 478.632 509.937Q480.722 508.132 482.776 506.286Q484.83 504.441 486.848 502.555Q488.866 500.67 490.846 498.745Q492.826 496.82 494.769 494.857Q496.711 492.895 498.615 490.894Q501.005 488.387 503.333 485.821Q505.661 483.256 507.926 480.635Q510.19 478.013 512.39 475.337Q514.589 472.661 516.723 469.932Q518.856 467.203 520.922 464.422Q522.988 461.642 524.985 458.811Q526.983 455.981 528.91 453.102Q530.837 450.224 532.693 447.299Q534.55 444.374 536.334 441.405Q538.118 438.436 539.828 435.423Q541.539 432.411 543.176 429.358Q544.812 426.305 546.374 423.213Q547.935 420.12 549.42 416.991Q550.905 413.861 552.313 410.696Q553.721 407.531 555.051 404.332Q556.381 401.134 557.632 397.904Q558.883 394.673 560.055 391.413Q561.227 388.154 562.318 384.866Q563.41 381.578 564.421 378.265Q565.432 374.952 566.361 371.615Q567.29 368.277 568.137 364.919Q568.985 361.56 569.75 358.181Q570.514 354.802 571.196 351.406Q571.878 348.01 572.476 344.598Q573.075 341.186 573.589 337.76Q574.104 334.335 574.535 330.897Q574.965 327.46 575.312 324.013Q575.658 320.567 575.92 317.112Q576.181 313.658 576.359 310.199Q576.536 306.739 576.628 303.276Q576.72 299.813 576.728 296.349Q576.735 292.885 576.658 289.422Q576.587 285.935 576.429 282.45Q576.272 278.965 576.029 275.485Q575.786 272.006 575.457 268.533Q575.128 265.06 574.714 261.597Q574.299 258.133 573.799 254.681Q573.3 251.229 572.715 247.79Q572.13 244.351 571.461 240.928Q570.792 237.504 570.038 234.098Q569.285 230.692 568.447 227.306Q567.61 223.92 566.69 220.555Q565.769 217.191 564.766 213.85Q563.763 210.509 562.677 207.194Q561.592 203.879 560.425 200.592Q559.259 197.304 558.011 194.047Q556.764 190.789 555.437 187.563Q554.109 184.337 552.703 181.145Q551.296 177.953 549.811 174.797Q548.327 171.64 546.765 168.521Q545.202 165.403 543.564 162.323Q541.925 159.244 540.211 156.206Q538.497 153.168 536.709 150.173Q534.92 147.178 533.059 144.228Q531.197 141.278 529.263 138.375Q527.329 135.472 525.324 132.617Q523.319 129.763 521.245 126.959Q519.17 124.155 517.027 121.402Q514.884 118.65 512.673 115.952Q510.463 113.253 508.187 110.61Q505.91 107.967 503.57 105.381Q501.229 102.794 498.825 100.267Q496.421 97.7389 493.956 95.2712Q491.491 92.8035 488.965 90.3973Q486.438 87.9833 483.853 85.6324Q481.268 83.2815 478.625 80.9951Q475.983 78.7087 473.284 76.4883Q470.586 74.2679 467.834 72.1148Q465.082 69.9616 462.277 67.8771Q459.473 65.7926 456.617 63.7779Q453.762 61.7632 450.858 59.8197Q447.954 57.8761 445.003 56.0049Q442.052 54.1336 439.056 52.3357Q436.059 50.5379 433.019 48.8146Q429.979 47.0912 426.898 45.4435Q423.816 43.7957 420.695 42.2246Q417.574 40.6534 414.415 39.1598Q411.256 37.6661 408.061 36.2509Q404.866 34.8357 401.637 33.4998Q398.408 32.164 395.147 30.9082Q391.886 29.6524 388.595 28.4776Q385.304 27.3027 381.985 26.2094Q378.666 25.1162 375.321 24.1052Q371.976 23.0942 368.607 22.1661Q365.238 21.2379 361.847 20.3933Q358.457 19.5486 355.046 18.7879Q351.635 18.0272 348.207 17.351Q344.779 16.6747 341.335 16.0833Q337.891 15.4919 334.433 14.9857Q330.976 14.4795 327.507 14.0588Q324.038 13.6381 320.559 13.3032Q317.081 12.9682 313.596 12.7193Q310.11 12.4703 306.62 12.3075Q303.129 12.1447 299.635 12.068Q296.142 11.9914 292.647 12.0011Q289.153 12.0108 285.66 12.1067C284.996 12.1246 284.335 12.1395 283.672 12.186Z"/>
	<path fill="#0B0C0E" d="M311.413 26.5214Q315.638 26.8991 319.872 27.1583L316.428 67.6509C313.865 67.8375 310.787 67.5542 308.245 67.1651C308.326 59.5904 309.51 51.8468 310.074 44.2771C310.436 39.4111 310.158 30.7648 311.413 26.5214Z"/>
	<path fill="#0B0C0E" d="M391.053 44.5709C393.727 45.3449 396.401 46.6346 398.934 47.7847C397.034 53.1522 394.726 58.3917 392.569 63.6609L383.792 85.4973C381.057 84.5849 378.409 83.4341 375.748 82.3283C377.253 77.7032 379.344 73.1705 381.186 68.6681L391.053 44.5709Z"/>
	<path fill="#0B0C0E" d="M290.518 25.977L290.668 26.0238C291.643 27.1222 291.436 31.5358 291.508 33.1693C287.513 33.4852 283.516 33.5055 279.525 33.9298C279.766 45.0735 281.194 56.2551 281.755 67.4002C278.913 67.6442 276.267 67.9043 273.452 67.3325C272.8 63.9313 272.787 60.2585 272.588 56.7949C272.317 49.3963 271.561 41.9986 270.997 34.6157C266.973 34.8458 262.974 35.0453 258.956 35.3853C258.606 33.0024 258.505 30.5603 258.324 28.1582Q274.398 26.7296 290.518 25.977Z"/>
	<path fill="#0B0C0E" d="M462.827 455.295C464.286 456.157 464.96 459.918 465.339 461.46C466.952 468.028 467.925 479.117 471.922 484.394C474.51 487.811 477.834 490.037 479.88 493.956C478.344 496.352 476.166 498.097 473.859 499.703C468.947 492.373 463.26 488.473 455.161 485.515C448.94 483.26 442.599 481.302 436.338 479.157C438.919 476.923 441.416 474.585 443.978 472.327C449.925 474.585 455.741 477.238 461.662 479.578C460.531 473.444 457.791 467.271 456.029 461.259C458.258 459.235 460.454 457.152 462.827 455.295Z"/>
	<path fill="#0B0C0E" d="M343.42 30.517C352.894 32.5876 362.303 35.007 371.72 37.3238C371.195 39.563 370.722 41.7941 370.326 44.0597Q360.267 41.7676 350.244 39.3236C349.61 42.4039 348.804 45.4722 348.076 48.5332Q356.597 50.5426 365.081 52.7042C364.945 54.2369 364.654 55.7502 364.394 57.2661C364.195 57.8399 364.04 58.2375 363.642 58.7013C359.983 60.0969 350.167 56.6013 346.297 55.231C345.328 60.8792 343.992 66.6192 342.569 72.1718C339.804 71.452 337 70.8802 334.205 70.2925C334.972 65.441 336.286 60.6174 337.426 55.839Q340.504 43.1972 343.42 30.517Z"/>
	<path fill="#0B0C0E" d="M129.726 83.8734C130.182 83.8257 130.631 83.8036 131.09 83.7873C135.592 83.6278 139.578 85.3384 142.826 88.3856C140.625 90.1799 138.455 91.9782 136.369 93.9077C134.202 92.4719 131.586 91.5024 128.95 91.8372C127.037 92.0802 125.52 93.0363 124.415 94.6092C122.651 97.1213 122.273 100.496 122.889 103.446C123.846 108.028 127.077 112.939 131.052 115.438C133.661 117.078 136.654 117.592 139.643 116.801C141.82 116.226 143.859 115.026 144.959 113.001C146.603 109.976 145.716 106.767 144.719 103.719C146.074 102.433 147.558 100.763 149.135 99.7855C149.946 99.2831 150.576 99.164 151.522 99.3706C152.416 99.9729 152.561 100.882 152.864 101.856C152.897 101.941 152.937 102.024 152.965 102.11C154.345 106.45 154.531 110.942 152.434 115.114C150.334 119.293 145.981 123.07 141.541 124.569C137.078 126.076 132.436 125.539 128.266 123.467C122.224 120.465 116.99 114.311 114.929 107.889C113.439 103.246 113.52 97.9612 115.871 93.6103C118.806 88.178 124.092 85.6519 129.726 83.8734Z"/>
	<path fill="#0B0C0E" d="M138.627 474.37Q139.351 474.271 140.08 474.231Q140.81 474.191 141.54 474.21Q142.271 474.229 142.997 474.306Q143.723 474.383 144.441 474.519Q145.159 474.654 145.864 474.846Q146.569 475.039 147.256 475.288Q147.943 475.536 148.608 475.839Q149.273 476.142 149.911 476.497C154.305 478.904 157.95 482.929 159.277 487.821C160.449 492.146 159.725 496.203 157.585 500.058C154.934 498.882 153.032 497.23 150.9 495.286C151.225 491.784 151.771 488.109 149.451 485.096C148.227 483.505 146.396 482.659 144.419 482.484C140.652 482.149 137.015 483.896 134.196 486.276C130.812 489.132 127.91 493.584 127.618 498.09Q127.586 498.572 127.601 499.055Q127.617 499.538 127.681 500.017Q127.744 500.495 127.855 500.966Q127.966 501.436 128.124 501.893Q128.281 502.349 128.483 502.788Q128.684 503.227 128.929 503.644Q129.173 504.06 129.458 504.451Q129.743 504.841 130.065 505.201C131.237 506.197 132.5 507.13 133.998 507.56C137.178 508.473 139.844 506.889 142.516 505.391C144.806 507.098 147.019 508.825 149.171 510.709Q147.623 512.059 145.846 513.089Q144.068 514.118 142.127 514.789Q141.341 515.056 140.533 515.242Q139.724 515.429 138.901 515.533Q138.078 515.638 137.248 515.659Q136.418 515.68 135.591 515.617Q134.764 515.554 133.947 515.409Q133.13 515.263 132.331 515.036Q131.533 514.809 130.762 514.503Q129.991 514.197 129.254 513.815Q128.441 513.387 127.673 512.882Q126.904 512.376 126.189 511.799Q125.473 511.222 124.817 510.579Q124.16 509.935 123.569 509.231Q122.978 508.527 122.458 507.769Q121.938 507.011 121.493 506.207Q121.049 505.402 120.685 504.558Q120.32 503.714 120.039 502.839C118.425 497.704 119.587 492.304 122.038 487.647C125.632 480.818 131.33 476.609 138.627 474.37Z"/>
	<path fill="#0B0C0E" d="M180.508 50.5085L181.07 50.5003C182.574 51.0791 184.054 55.086 184.781 56.6065C178.623 60.0659 172.158 63.6933 165.663 66.4547C167.244 68.8496 168.456 71.5778 169.764 74.1342C175.685 71.2555 181.294 67.8495 187.147 64.8548C188.401 66.9078 189.376 69.2337 190.44 71.3961C184.554 74.1034 179.126 77.8571 173.155 80.404Q175.64 85.0462 178.01 89.7482C183.126 86.6865 188.493 84.0024 193.767 81.223C195.05 80.4558 196.366 79.8215 197.718 79.1899Q199.504 82.4587 201.418 85.6537C192.263 90.0194 182.984 95.1074 174.195 100.18C171.517 95.7303 169.203 90.9739 166.763 86.3844Q160.852 75.4033 155.091 64.3427C162.995 59.3874 172.202 54.8819 180.508 50.5085Z"/>
	<path fill="#0B0C0E" d="M420.751 58.0983C424.194 59.061 441.921 70.6436 446.485 73.3453Q444.574 76.5895 442.593 79.791C436.827 76.5666 429.474 72.2761 424.213 68.3892C422.992 70.9266 421.406 73.3554 419.947 75.7641Q428.462 80.7407 436.713 86.1431C435.569 88.1612 434.319 90.1227 433.103 92.0975C427.487 89.1191 422.115 85.6157 416.722 82.2549L416.153 82.3178C414.09 84.8017 412.447 87.7906 410.707 90.5119C416.926 94.6377 423.482 98.6072 429.959 102.315C428.959 104.516 427.547 106.643 426.375 108.768C417.247 104.068 408.487 98.1631 399.749 92.7713C406.512 81.1008 413.674 69.5842 420.751 58.0983Z"/>
	<path fill="#0B0C0E" d="M361.399 517.131C361.527 517.117 361.655 517.081 361.784 517.089C364.388 517.252 384.186 547.919 387.489 551.916Q382.952 553.45 378.339 554.739C376.74 552.244 375.075 549.771 373.639 547.178L369.489 548.472C366.105 549.492 362.642 550.566 359.152 551.149C359.162 554.172 359.007 557.202 358.904 560.223Q354.606 561.506 350.272 562.665C350.508 558.405 350.934 554.152 351.087 549.889C351.448 539.876 351.481 529.466 353.107 519.566C355.818 518.574 358.608 517.857 361.399 517.131ZM360.056 527.791C359.872 533.014 360.129 538.574 359.522 543.744C361.925 543.11 364.346 542.513 366.734 541.824C367.46 541.523 368.227 541.412 368.609 540.709C367.939 538.321 362.526 529.345 360.561 528.028C360.407 527.924 360.225 527.87 360.056 527.791Z"/>
	<path fill="#0B0C0E" d="M308.669 526.723Q309.023 526.686 309.377 526.659C314.005 526.328 319.256 526.194 322.927 529.548C325.652 532.038 326.858 535.813 327.004 539.422C327.14 542.814 326.309 546.281 323.883 548.772C319.687 553.081 311.143 553.166 305.493 553.215Q305.821 556.715 306.099 560.219C306.391 562.607 306.399 565.01 306.373 567.412C303.691 568.234 300.883 568.307 298.104 568.505C297.007 560.983 296.929 553.106 296.495 545.507C296.157 539.599 295.479 533.683 295.401 527.767C299.825 527.467 304.247 527.053 308.669 526.723ZM307.885 533.866C306.819 533.956 305.699 533.981 304.646 534.158C304.489 538.12 304.59 541.977 305.041 545.917C308.347 545.788 311.853 545.865 315.068 545.019C316.613 544.256 317.864 542.597 318.458 540.981C318.882 539.827 318.682 538.398 318.127 537.324C317.311 535.746 315.652 534.761 313.999 534.266C312.019 533.674 309.925 533.752 307.885 533.866Z"/>
	<path fill="#0B0C0E" d="M420.833 489.759L421.559 489.853C424.713 493.728 427.122 498.53 429.552 502.882Q435.677 513.878 441.506 525.033C439.097 526.528 436.605 527.902 434.147 529.315C424.868 523.341 415.4 517.971 405.846 512.473C407.753 515.338 409.233 518.505 410.888 521.521C413.791 526.812 416.802 532.049 419.758 537.311C417.85 538.39 415.98 539.543 414.1 540.67C413.564 540.944 413.522 540.931 412.923 540.844C410.37 538.146 408.519 534.069 406.661 530.82Q399.645 518.36 392.863 505.772C395.392 504.181 398.023 502.558 400.715 501.259C409.745 506.54 418.267 512.557 427.696 517.171C425.042 510.296 418.338 500.354 414.584 493.387C416.682 492.206 418.752 490.971 420.833 489.759Z"/>
	<path fill="#0B0C0E" d="M227.166 34.5454C229.424 34.1827 231.431 34.4549 233.486 35.4927Q234.001 35.7537 234.489 36.0639Q234.976 36.3742 235.431 36.7307Q235.886 37.0872 236.303 37.4865Q236.721 37.8859 237.097 38.3242Q237.473 38.7626 237.805 39.2357Q238.137 39.7088 238.42 40.2121Q238.704 40.7155 238.937 41.2442Q239.17 41.7729 239.35 42.3219C240.795 46.8071 239.103 49.7806 237.056 53.6464C238.258 54.517 239.694 55.2514 240.781 56.2514C244.113 59.3156 243.477 63.5079 245.379 67.2487C245.983 68.4362 246.998 69.492 247.866 70.4973C244.801 71.6695 241.783 72.4865 238.567 73.1526C237.23 69.5181 235.778 61.806 232.109 60.0995C228.745 58.5346 223.627 60.8561 220.32 61.9554C219.464 63.7082 223.24 74.679 223.995 77.2462C221.558 78.3678 218.742 78.9632 216.164 79.7054Q210.099 60.1262 204.991 40.276C212.388 38.3697 219.592 35.7266 227.166 34.5454ZM226.408 41.9797C222.483 42.8111 218.648 43.9996 214.8 45.1244L214.91 45.4424C215.705 47.8025 216.339 53.595 218.584 54.8894C219.055 55.1607 219.951 54.9015 220.486 54.8386C223.799 53.974 228.909 53.3397 230.867 50.2121C231.685 48.9054 231.874 47.2596 231.496 45.7758C231.123 44.3133 230.198 43.1456 228.864 42.434C228.078 42.0143 227.286 41.9501 226.408 41.9797Z"/>
	<path fill="#0B0C0E" d="M235.636 520.983Q241.797 521.854 247.924 522.942C248.808 533.636 249.289 544.533 249.621 555.26C254.43 545.686 258.426 535.345 262.266 525.337L274.38 527.443C271.829 540.781 269.765 554.272 267.692 567.693C265.053 567.306 262.423 566.823 259.793 566.383C261.022 558.432 262.716 550.563 263.692 542.568C264.141 539.714 264.751 536.878 265.304 534.042C263.549 537.16 262.247 540.588 260.846 543.88C257.862 550.89 255.108 557.968 252.365 565.075C249.616 564.574 246.832 564.279 244.077 563.784C243.395 557.715 243.605 551.389 243.395 545.28C243.235 540.629 242.681 535.981 242.21 531.354C241.117 534.669 240.736 538.483 240.16 541.929C239.023 548.732 237.998 555.57 236.684 562.341C234.103 561.858 231.48 561.634 228.87 561.359C230.504 547.841 233.883 534.475 235.636 520.983Z"/>
	<path fill="#0B0C0E" d="M466.134 89.1386C470.164 90.7598 478.537 99.2864 481.352 102.803C484.129 106.27 485.293 110.281 484.701 114.695C483.886 120.781 479.528 126.216 474.771 129.835C469.564 133.798 464.546 135.308 458.063 134.393C450.42 131.411 444.341 124.198 438.714 118.441C441.792 114.524 445.793 110.993 449.296 107.439Q458.115 98.6571 466.134 89.1386ZM467.254 100.029C463.442 105.949 455.141 114.184 449.722 118.915C452.964 121.687 455.719 124.617 459.446 126.777C464.663 126.489 468.735 124.334 472.209 120.469C474.521 117.898 476.595 114.458 476.352 110.886C476.144 107.824 474.407 105.116 472.095 103.179C470.789 102.086 468.859 100.549 467.254 100.029Z"/>
	<path fill="#0B0C0E" d="M188.175 504.192C192.676 503.848 197.147 504.61 201.17 506.72C205.463 508.971 208.809 512.705 210.218 517.385C212.081 523.568 210.671 530.22 207.66 535.795C204.701 541.274 199.944 545.477 193.932 547.247C189.29 547.6 184.542 546.932 180.382 544.752C176.048 542.482 172.742 538.731 171.325 534.018C169.499 527.944 170.934 521.23 173.863 515.743C177.007 509.854 181.814 506.099 188.175 504.192ZM190.491 511.922C185.583 514.031 182.409 517.173 180.446 522.158C179.014 525.794 178.467 530.083 180.135 533.73C181.175 536.005 183.056 537.98 185.421 538.875C186.918 539.442 189.419 539.952 190.997 539.564C196.074 537.341 199.316 534.157 201.324 528.964C202.697 525.414 203.216 521.261 201.659 517.682C200.604 515.257 198.713 513.552 196.225 512.676C194.408 512.036 192.41 511.741 190.491 511.922Z"/>
	<path fill="#0B0C0E" d="M288.654 78.2448C344.708 76.2003 400.545 98.5445 441.553 136.398Q443.479 138.187 445.361 140.021Q447.243 141.856 449.08 143.736Q450.917 145.616 452.708 147.54Q454.499 149.465 456.242 151.432Q457.986 153.399 459.681 155.408Q461.376 157.416 463.022 159.466Q464.668 161.515 466.263 163.604Q467.859 165.693 469.403 167.82Q470.947 169.947 472.44 172.111Q473.932 174.275 475.371 176.474Q476.81 178.674 478.195 180.908Q479.581 183.142 480.911 185.408Q482.242 187.675 483.517 189.974Q484.792 192.272 486.011 194.601Q487.23 196.93 488.391 199.288Q489.553 201.645 490.658 204.031Q491.762 206.416 492.808 208.827Q493.854 211.239 494.841 213.675Q495.828 216.111 496.756 218.57Q497.683 221.03 498.551 223.511Q499.418 225.992 500.225 228.494Q501.032 230.995 501.778 233.516Q502.524 236.036 503.209 238.574Q503.893 241.112 504.516 243.665Q505.138 246.219 505.699 248.787Q506.259 251.355 506.757 253.936Q507.255 256.517 507.69 259.109Q508.125 261.702 508.496 264.304Q508.868 266.906 509.177 269.516Q509.485 272.127 509.73 274.744Q509.975 277.361 510.156 279.983Q510.338 282.605 510.455 285.231Q510.583 287.929 510.644 290.629Q510.705 293.33 510.699 296.031Q510.692 298.732 510.619 301.432Q510.545 304.132 510.404 306.829Q510.263 309.527 510.055 312.22Q509.847 314.913 509.572 317.6Q509.297 320.287 508.955 322.966Q508.613 325.646 508.204 328.316Q507.796 330.986 507.321 333.645Q506.846 336.303 506.305 338.95Q505.763 341.596 505.157 344.228Q504.55 346.86 503.878 349.476Q503.205 352.092 502.468 354.691Q501.731 357.289 500.929 359.869Q500.127 362.448 499.262 365.007Q498.396 367.565 497.467 370.101Q496.537 372.637 495.545 375.15Q494.553 377.662 493.499 380.149Q492.444 382.636 491.328 385.095Q490.212 387.555 489.035 389.986Q487.858 392.417 486.621 394.818Q485.384 397.219 484.088 399.589Q482.791 401.958 481.436 404.295Q480.08 406.631 478.667 408.933Q477.254 411.235 475.785 413.501Q474.315 415.767 472.789 417.996Q471.263 420.225 469.682 422.415Q468.101 424.605 466.466 426.755Q464.831 428.905 463.142 431.013Q461.454 433.122 459.714 435.188Q457.974 437.254 456.183 439.276Q454.392 441.297 452.551 443.274Q451.052 444.893 449.52 446.481Q447.989 448.068 446.425 449.624Q444.861 451.18 443.266 452.704Q441.67 454.228 440.044 455.719Q438.418 457.209 436.761 458.667Q435.105 460.124 433.419 461.547Q431.733 462.97 430.018 464.358Q428.304 465.746 426.561 467.099Q424.818 468.451 423.048 469.768Q421.278 471.085 419.481 472.365Q417.685 473.645 415.862 474.889Q414.04 476.132 412.192 477.337Q410.345 478.543 408.473 479.711Q406.601 480.878 404.705 482.007Q402.81 483.136 400.892 484.226Q398.974 485.316 397.034 486.366Q395.094 487.417 393.133 488.427Q391.172 489.438 389.19 490.408Q387.209 491.378 385.208 492.308Q383.207 493.237 381.188 494.125Q379.169 495.014 377.131 495.86Q375.094 496.707 373.04 497.512Q370.986 498.317 368.916 499.079Q366.846 499.842 364.76 500.562Q362.675 501.282 360.575 501.959Q358.476 502.636 356.363 503.271Q354.25 503.905 352.124 504.495Q349.999 505.086 347.861 505.633Q345.724 506.18 343.576 506.683Q341.428 507.187 339.27 507.646Q337.112 508.105 334.946 508.52Q332.779 508.935 330.604 509.305C319.876 511.137 309.128 512.003 298.261 512.425L297.335 512.445Q294.696 512.491 292.056 512.472Q289.417 512.454 286.779 512.371Q284.141 512.288 281.505 512.142Q278.87 511.995 276.239 511.784Q273.608 511.574 270.982 511.299Q268.357 511.024 265.74 510.686Q263.122 510.348 260.513 509.946Q257.904 509.544 255.306 509.079Q252.708 508.614 250.122 508.085Q247.536 507.557 244.963 506.966Q242.391 506.375 239.833 505.722Q237.276 505.069 234.735 504.354Q232.195 503.638 229.672 502.862Q227.149 502.085 224.646 501.247Q222.143 500.409 219.662 499.511Q217.18 498.612 214.72 497.654Q212.261 496.695 209.826 495.677Q207.391 494.659 204.981 493.582Q202.571 492.505 200.188 491.37Q197.805 490.235 195.45 489.042Q193.096 487.85 190.771 486.6Q188.446 485.35 186.152 484.045Q183.858 482.739 181.597 481.378Q179.335 480.016 177.108 478.601Q174.88 477.185 172.687 475.716Q170.495 474.246 168.338 472.724Q166.182 471.201 164.064 469.627Q161.945 468.053 159.865 466.428Q157.785 464.802 155.746 463.127Q153.706 461.451 151.708 459.727Q149.71 458.003 147.754 456.23Q145.798 454.458 143.886 452.638Q141.951 450.792 140.063 448.9Q138.174 447.007 136.332 445.069Q134.491 443.131 132.697 441.148Q130.903 439.165 129.159 437.138Q127.415 435.112 125.721 433.043Q124.027 430.975 122.384 428.865Q120.742 426.755 119.151 424.606Q117.561 422.457 116.024 420.269Q114.487 418.081 113.004 415.856Q111.521 413.631 110.093 411.371Q108.666 409.11 107.294 406.815Q105.922 404.52 104.607 402.192Q103.292 399.864 102.035 397.504Q100.777 395.145 99.578 392.755Q98.3789 390.365 97.2388 387.947Q96.0988 385.528 95.0185 383.082Q93.9382 380.636 92.9183 378.165Q91.8984 375.693 90.9395 373.197Q89.9807 370.702 89.0834 368.183Q88.1861 365.664 87.351 363.124Q86.5158 360.584 85.7433 358.025Q84.9708 355.465 84.2614 352.887Q83.552 350.309 82.9061 347.714Q82.2603 345.12 81.6783 342.51Q81.0964 339.9 80.5787 337.277Q80.061 334.654 79.608 332.019Q79.1549 329.384 78.7667 326.739Q78.3784 324.093 78.0553 321.439Q77.7322 318.785 77.4744 316.124Q77.2165 313.462 77.0241 310.795Q76.8317 308.129 76.7049 305.458Q76.5781 302.787 76.5169 300.114Q76.4608 297.411 76.4719 294.708Q76.4829 292.005 76.5611 289.302Q76.6393 286.6 76.7846 283.901Q76.9299 281.201 77.1422 278.506Q77.3545 275.811 77.6337 273.122Q77.9129 270.433 78.2588 267.752Q78.6046 265.071 79.017 262.399Q79.4294 259.727 79.908 257.067Q80.3866 254.406 80.9312 251.758Q81.4757 249.11 82.0859 246.476Q82.696 243.843 83.3714 241.225Q84.0468 238.607 84.7869 236.007Q85.5271 233.407 86.3317 230.826Q87.1362 228.246 88.0046 225.685Q88.873 223.125 89.8047 220.588Q90.7365 218.05 91.7309 215.536Q92.7254 213.022 93.782 210.534Q94.8386 208.046 95.9567 205.584Q97.0747 203.123 98.2536 200.69Q99.4325 198.257 100.671 195.854Q101.91 193.452 103.209 191.08Q104.507 188.709 105.864 186.371Q107.22 184.033 108.635 181.729Q110.049 179.425 111.52 177.157Q112.991 174.889 114.518 172.658Q116.046 170.427 117.628 168.235Q119.21 166.043 120.845 163.891Q122.481 161.739 124.17 159.628Q125.859 157.517 127.6 155.449Q129.341 153.38 131.133 151.356Q132.924 149.331 134.766 147.352Q136.607 145.373 138.497 143.44Q140.014 141.892 141.562 140.376Q143.109 138.859 144.687 137.374Q146.265 135.888 147.872 134.435Q149.479 132.981 151.115 131.56Q152.752 130.139 154.416 128.752Q156.08 127.364 157.772 126.01Q159.464 124.656 161.182 123.336Q162.901 122.016 164.646 120.731Q166.39 119.445 168.161 118.195Q169.931 116.946 171.726 115.731Q173.521 114.517 175.339 113.339Q177.158 112.162 179.001 111.02Q180.843 109.879 182.707 108.775Q184.572 107.671 186.459 106.605Q188.345 105.539 190.253 104.51Q192.16 103.482 194.088 102.492Q196.015 101.502 197.963 100.552Q199.91 99.6006 201.876 98.6889Q203.842 97.7773 205.825 96.9052Q207.809 96.0332 209.81 95.2011Q211.811 94.369 213.828 93.5773Q215.845 92.7855 217.878 92.0344Q219.91 91.2833 221.958 90.5731Q224.005 89.8629 226.066 89.1939Q228.127 88.5249 230.201 87.8974Q232.276 87.2699 234.362 86.6842Q236.448 86.0984 238.546 85.5546Q240.644 85.0108 242.752 84.5093Q244.86 84.0077 246.978 83.5485Q249.095 83.0893 251.222 82.6727Q253.348 82.2561 255.483 81.8822Q257.617 81.5084 259.759 81.1774C269.248 79.6256 279.032 78.4129 288.654 78.2448Z"/>
	<path fill="#FEFDFE" d="M293.563 426.622C295.717 426.58 297.875 426.603 300.03 426.6C300.054 428.806 300.156 431.049 299.929 433.245L293.608 433.222C293.521 431.028 293.567 428.818 293.563 426.622Z"/>
	<path fill="#FEFDFE" d="M293.604 401.08L300.039 401.066L300.014 407.767L293.629 407.767C293.487 405.547 293.575 403.304 293.604 401.08Z"/>
	<path fill="#FEFDFE" d="M392.653 389.409C394 389.439 395.335 389.61 396.673 389.756C397.13 396.327 397.749 427.89 396.434 432.581C395.71 433.15 394.974 433.238 394.047 433.231C393.119 433.224 392.158 433.09 391.564 432.283C390.575 430.94 391.039 428.16 391.098 426.573L391.194 402.22C388.995 402.265 385.868 402.811 383.783 402.197C382.655 401.865 381.096 401.253 380.541 400.134C380.339 399.727 380.516 399.519 380.637 399.115C382.609 397.135 386.046 397.181 388.479 395.965C391.08 394.665 391.812 391.966 392.653 389.409Z"/>
	<path fill="#FEFDFE" d="M271.803 389.418C272.858 389.436 274.313 389.327 275.25 389.855C275.673 390.094 275.723 390.401 275.847 390.858C276.826 394.461 275.944 403.253 275.972 407.345C276.021 414.417 276.526 421.549 276.187 428.614C276.129 429.82 276.113 431.516 275.438 432.534C275.207 432.882 274.723 433.01 274.324 433.051C272.97 433.192 271.34 433.136 270.274 432.221C269.841 431.066 269.915 429.94 269.919 428.726C270.117 419.891 270.005 411.032 270.014 402.194C267.27 402.269 263.303 402.949 260.9 401.525C260.133 401.071 259.808 400.584 259.579 399.743C260.703 397.072 265.671 397.005 268.023 395.76C270.404 394.5 271.044 391.783 271.803 389.418Z"/>
	<path fill="#FEFDFE" d="M320.565 389.646C323.769 389.11 327.535 389.731 330.393 391.256C333.508 392.917 335.63 395.767 336.651 399.117C340.715 412.459 324.019 416.117 316.677 422.822C314.982 424.37 313.951 426.04 312.893 428.049C317.41 427.943 332.429 426.634 335.878 428.468C336.518 428.808 336.794 429.114 336.944 429.833C337.116 430.663 336.999 431.341 336.589 432.042C330.979 434.71 320.404 433.405 314.126 433.253L307.115 433.212C307.4 430.27 307.81 427.247 309.108 424.555C313.592 415.262 327.292 413.197 330.744 405.375C331.548 403.554 331.541 401.658 330.769 399.83C329.627 397.123 327.235 395.327 324.57 394.258C315.052 390.438 316.71 403.131 312.157 404.893C311.262 405.24 309.704 405.173 308.871 404.678C308.237 404.301 307.928 403.818 307.782 403.106C307.419 401.338 308.631 398.917 309.514 397.417C312.145 392.95 315.663 390.941 320.565 389.646Z"/>
	<path fill="#FEFDFE" d="M417.524 390.303C422.084 390.234 434.845 389.113 438.206 391.59C438.956 392.142 439.142 392.672 439.281 393.56C439.088 394.123 438.952 394.441 438.506 394.861C436.228 397.009 423.423 395.852 420.024 395.737C419.391 399.569 418.961 403.458 418.441 407.309C421.098 406.104 423.697 405.181 426.644 405.106C430.421 405.011 434.06 406.29 436.762 408.967C439.612 411.79 441.054 415.765 440.998 419.747C440.942 423.658 439.546 427.522 436.698 430.265C433.21 433.622 428.538 434.475 423.882 434.399C420.77 434.086 418.351 433.539 415.957 431.427C413.837 429.556 411.28 426.465 411.093 423.58C411.268 423.15 411.289 422.846 411.698 422.581C414.594 420.702 421.002 428.932 424.884 429.769C426.79 430.179 428.923 429.511 430.522 428.468C433.134 426.764 435.007 423.63 435.493 420.568C435.898 418.014 434.685 415.334 433.106 413.37C426.768 405.487 418.601 414.607 414.007 414.032C413.343 413.949 413.59 414.067 413.169 413.547C412.768 410.818 415.15 391.965 416.179 390.493L417.524 390.303Z"/>
	<path fill="#FEFDFE" d="M164.198 389.638C167.361 389.179 170.893 389.603 173.721 391.106C177.263 392.987 179.559 396.336 180.759 400.086C183.287 407.988 182.312 419.219 178.46 426.563C176.661 429.993 173.848 432.834 170.052 433.951C166.25 435.069 162.141 434.363 158.764 432.361C156.516 431.03 154.074 428.785 153.473 426.134C153.277 425.271 153.287 424.321 153.86 423.592C154.573 422.683 155.703 422.597 156.768 422.567C157.534 422.545 157.901 422.459 158.483 422.992C158.747 424.094 159.137 425.276 159.701 426.259C160.728 428.05 162.39 429.153 164.362 429.672C166.264 430.173 168.204 430.007 169.891 428.954C174.632 425.993 175.692 418.856 176.831 413.861C174.744 415.588 172.611 417.131 170.008 417.989C166.764 419.058 163.169 418.887 160.115 417.316C156.765 415.594 154.506 412.542 153.355 409.005C152.057 405.016 152.426 400.372 154.415 396.668C156.555 392.682 160.058 390.863 164.198 389.638Z"/>
	<path fill="#0B0C0E" d="M164.393 394.527C165.903 394.456 167.448 394.349 168.921 394.759Q169.365 394.88 169.794 395.044Q170.223 395.208 170.634 395.414Q171.045 395.621 171.434 395.867Q171.822 396.113 172.184 396.397Q172.545 396.681 172.877 396.999Q173.209 397.317 173.507 397.667Q173.805 398.017 174.067 398.395Q174.329 398.773 174.552 399.175Q174.795 399.62 174.994 400.087Q175.192 400.553 175.343 401.038Q175.494 401.522 175.596 402.018Q175.699 402.515 175.752 403.019Q175.805 403.524 175.808 404.031Q175.81 404.538 175.763 405.043Q175.716 405.548 175.619 406.046Q175.522 406.543 175.376 407.029C174.485 409.996 172.38 412.014 169.699 413.42C168.141 413.606 166.595 413.755 165.041 413.423Q164.628 413.337 164.225 413.21Q163.822 413.084 163.434 412.918Q163.046 412.752 162.676 412.549Q162.306 412.346 161.958 412.107Q161.61 411.868 161.287 411.596Q160.964 411.324 160.67 411.021Q160.376 410.718 160.113 410.388Q159.85 410.058 159.621 409.703C158.144 407.427 157.85 404.489 158.481 401.885C159.311 398.468 161.457 396.26 164.393 394.527Z"/>
	<path fill="#FEFDFE" d="M354.609 389.634C357.119 389.257 359.87 389.497 362.226 390.447C366.112 392.014 368.733 395.412 370.26 399.204C373.382 406.958 373.376 417.609 369.991 425.276C367.983 429.824 364.955 432.434 360.345 434.221C357.37 434.517 354.506 434.493 351.745 433.159C347.945 431.321 345.475 427.835 344.087 423.951C341.314 416.183 341.337 405.534 344.921 398.017C347.011 393.631 350.117 391.239 354.609 389.634Z"/>
	<path fill="#0B0C0E" d="M354.983 394.496C355.948 394.46 356.967 394.384 357.927 394.5C360.206 394.776 362.267 396.416 363.532 398.255C367.27 403.69 367.24 412.516 366 418.719C365.107 423.188 363.376 426.82 359.503 429.435C358.548 429.495 357.567 429.58 356.615 429.442C354.419 429.122 352.509 427.678 351.241 425.906C347.46 420.618 347.57 411.898 348.585 405.776C349.363 401.083 351.022 397.325 354.983 394.496Z"/>
	<path fill="#FEFDFE" d="M201.003 389.431C204.178 389.536 206.89 390.085 209.514 392.016C214.035 395.342 215.948 401.162 216.63 406.511C217.577 413.943 216.976 423.385 212.088 429.474Q211.677 429.994 211.216 430.47Q210.755 430.946 210.249 431.374Q209.742 431.802 209.196 432.176Q208.649 432.551 208.068 432.869Q207.487 433.188 206.876 433.446Q206.266 433.704 205.633 433.9Q205 434.096 204.35 434.228Q203.7 434.359 203.041 434.425C199.497 434.456 196.487 433.787 193.683 431.488C189.151 427.771 187.528 421.647 186.927 416.059C186.177 409.078 187.033 399.992 191.695 394.369C194.074 391.499 197.322 389.838 201.003 389.431Z"/>
	<path fill="#0B0C0E" d="M199.643 394.508C200.63 394.462 201.678 394.376 202.658 394.524C204.838 394.853 206.773 396.358 208.018 398.121C211.678 403.303 211.69 411.701 210.713 417.704C209.908 422.65 208.237 426.415 204.074 429.39C203.181 429.569 202.164 429.59 201.263 429.466C198.965 429.151 197.147 427.832 195.828 425.962C191.932 420.438 191.991 411.442 193.239 405.096C194.13 400.565 195.729 397.16 199.643 394.508Z"/>
	<path fill="#FEFDFE" d="M233.956 389.634C236.509 389.203 239.469 389.554 241.817 390.616C245.717 392.381 248.205 395.991 249.612 399.911C252.427 407.753 252.431 418.448 248.758 426.022C246.665 430.338 243.56 432.71 239.11 434.275C236.258 434.61 233.361 434.409 230.749 433.133C226.668 431.141 224.214 427.223 222.859 423.035C220.331 415.226 220.464 404.711 224.342 397.343C226.504 393.234 229.582 391.004 233.956 389.634Z"/>
	<path fill="#0B0C0E" d="M234.347 394.483C235.279 394.457 236.265 394.393 237.19 394.522C239.448 394.836 241.48 396.498 242.708 398.347C246.424 403.944 246.281 413.152 244.91 419.463C243.969 423.793 242.186 427.056 238.384 429.486C237.502 429.517 236.57 429.582 235.695 429.455C233.388 429.12 231.362 427.454 230.117 425.554C226.384 419.858 226.496 410.435 227.984 404.049C228.941 399.942 230.682 396.734 234.347 394.483Z"/>
	<path fill="#FEFDFE" d="M151.269 209.545C173.633 209.121 196.098 209.47 218.471 209.554L218.468 235.146L203.302 235.158L203.303 290.315Q210.888 290.29 218.472 290.344L218.47 315.936C196.102 316.401 173.633 315.979 151.253 315.989Q151.192 303.289 151.267 290.589C156.271 290.494 161.293 290.586 166.299 290.596L166.401 235.177L151.261 235.149L151.269 209.545Z"/>
	<path fill="#FEFDFE" d="M253.932 327.439C254.228 327.536 254.499 327.654 254.77 327.81C257.661 329.475 258.905 332.965 259.786 336.004C269.675 333.668 279.639 332.96 289.658 331.476Q289.78 330.718 289.942 329.967C290.198 328.835 290.629 328.429 291.596 327.841C292.323 327.791 292.769 327.805 293.359 328.299C294.165 328.975 294.249 330.369 294.422 331.366C299.656 332.474 304.961 332.586 310.252 333.251C314.987 333.846 319.581 334.934 324.22 336.021C325.061 333.622 325.987 330.32 328.084 328.732C328.721 328.249 329.081 328.187 329.853 328.27L330.374 328.918C331.002 331.826 329.433 334.715 328.239 337.284C334.936 339.202 341.666 342.283 347.845 345.471C351.667 340.57 356.173 332.197 361.008 328.647C361.931 327.969 362.986 328.043 364.05 328.222L364.325 328.736C363.447 333.577 355.518 342.917 352.179 346.941C355.472 350.481 360.011 352.933 364.032 355.574C374.069 347.672 382.005 338.212 389.558 327.995C391.222 327.942 392.904 328.047 394.568 328.099C380.426 350.062 360.913 365.927 336.905 376.022Q334.771 376.857 332.607 377.612Q330.443 378.368 328.253 379.042Q326.063 379.717 323.849 380.31Q321.636 380.903 319.402 381.414Q317.168 381.925 314.916 382.352Q312.665 382.78 310.399 383.124Q308.133 383.468 305.856 383.728Q303.579 383.988 301.294 384.163Q299.009 384.338 296.719 384.429Q294.429 384.519 292.137 384.525Q289.846 384.531 287.555 384.452Q285.265 384.373 282.979 384.209Q280.693 384.045 278.415 383.796Q276.137 383.548 273.869 383.215Q271.602 382.882 269.348 382.466Q267.095 382.05 264.858 381.55Q263.412 381.222 261.974 380.858Q260.537 380.494 259.108 380.095Q257.68 379.696 256.262 379.262Q254.844 378.828 253.437 378.36Q252.03 377.891 250.635 377.388Q249.241 376.885 247.858 376.347Q246.476 375.81 245.108 375.239Q243.739 374.668 242.385 374.063Q241.031 373.459 239.692 372.821Q238.354 372.183 237.031 371.513Q235.708 370.842 234.402 370.139Q233.097 369.437 231.808 368.702Q230.52 367.967 229.251 367.201Q227.981 366.435 226.73 365.638Q225.48 364.841 224.25 364.013Q223.019 363.186 221.809 362.328Q220.6 361.47 219.411 360.583Q218.223 359.696 217.057 358.78Q215.891 357.864 214.747 356.92Q213.604 355.975 212.485 355.003Q211.365 354.031 210.269 353.031Q209.174 352.031 208.103 351.005Q207.033 349.979 205.988 348.927Q204.943 347.875 203.924 346.797Q202.905 345.72 201.913 344.617Q200.922 343.515 199.957 342.389Q198.992 341.262 198.056 340.113Q197.119 338.963 196.211 337.791Q195.303 336.618 194.424 335.424Q193.545 334.229 192.696 333.014Q191.847 331.798 191.028 330.562Q190.208 329.326 189.42 328.07L194.334 328.032C199.221 334.514 204.176 340.74 209.921 346.494C213.05 349.629 216.466 352.442 219.624 355.54C223.91 353.028 227.911 350.024 232.213 347.507C228.506 343.143 224.78 338.497 221.71 333.654C220.871 332.331 219.101 329.884 219.455 328.302C220.596 327.877 221.772 327.948 222.973 327.933C225.937 330.602 227.904 334.65 230.173 337.909C231.999 340.533 234.08 342.983 236.126 345.437C242.366 342.161 249.023 339.572 255.68 337.282Q255.252 336.369 254.858 335.441C253.775 332.883 252.846 330.148 253.932 327.439Z"/>
	<path fill="#0B0C0E" d="M234.757 350.747C238.591 352.875 242.16 356.94 245.551 359.784C251.549 364.814 258.432 368.453 265.59 371.529C264.2 372.587 262.669 373.899 261.097 374.649C258.789 375.75 257.272 375.261 255.026 374.422Q249.448 372.474 244.075 370.015Q238.703 367.556 233.583 364.607C230.1 362.591 226.798 360.278 223.292 358.301C227.031 355.665 230.961 353.302 234.757 350.747Z"/>
	<path fill="#0B0C0E" d="M348.529 350.781C352.709 351.774 357.112 355.691 360.53 358.231C349.713 365.297 341.947 369.484 329.77 374.177Q327.115 374.981 324.45 375.754Q321.453 373.559 318.341 371.53C329.531 367.249 340.238 359.428 348.529 350.781Z"/>
	<path fill="#0B0C0E" d="M326.495 341.203C332.833 343.1 338.932 345.841 344.918 348.628C338.006 355.148 330.814 360.59 322.396 365.072C319.494 366.585 316.359 367.813 313.283 368.917C311.469 368.409 309.741 367.634 308.002 366.916C316.48 360.206 322.004 350.873 326.495 341.203Z"/>
	<path fill="#0B0C0E" d="M256.682 341.379C259.398 342.706 263.775 353.517 265.922 356.548C268.695 360.461 272.275 363.965 275.995 366.971C274.203 367.713 272.457 368.398 270.582 368.904C267.577 367.883 264.674 366.535 261.808 365.18C253.115 360.872 246.071 355.03 238.991 348.518C244.842 345.955 250.702 343.627 256.682 341.379Z"/>
	<path fill="#0B0C0E" d="M289.033 369.052C299.854 367.711 310.09 372.181 319.41 377.067C311.635 378.846 303.763 380.065 295.78 380.329C285.109 380.463 275.045 379.173 264.598 377.108C272.764 372.757 279.734 369.938 289.033 369.052Z"/>
	<path fill="#0B0C0E" d="M294.048 336.191C303.75 336.279 313.061 338.201 322.572 339.854C319.676 345.559 316.555 350.984 312.804 356.173C309.774 359.939 306.338 362.92 302.293 365.549Q298.203 364.886 294.066 364.671L294.048 336.191Z"/>
	<path fill="#0B0C0E" d="M284.999 336.33C286.626 336.211 288.303 336.253 289.936 336.223L289.936 364.554C287.115 364.821 284.296 365.229 281.483 365.574C278.711 363.618 276.195 361.568 273.837 359.124C268.611 353.359 265.205 346.706 261.354 340.041C269.058 338.116 277.066 336.756 284.999 336.33Z"/>
	<path fill="#FEFDFE" d="M286.166 141.656C296.913 139.886 317.072 143.727 327.589 146.953Q329.645 147.585 331.678 148.29Q333.711 148.995 335.717 149.771Q337.724 150.547 339.702 151.394Q341.679 152.241 343.626 153.158Q345.572 154.075 347.485 155.06Q349.398 156.044 351.275 157.097Q353.151 158.149 354.989 159.267Q356.828 160.385 358.625 161.567Q360.422 162.75 362.177 163.995Q363.931 165.24 365.64 166.547Q367.349 167.854 369.011 169.221Q370.673 170.587 372.285 172.012Q373.897 173.436 375.458 174.917Q377.019 176.398 378.526 177.933Q380.033 179.468 381.485 181.056Q382.937 182.644 384.332 184.282C388.031 188.606 391.582 193.022 394.258 198.068C392.806 198.117 391.349 198.046 389.898 198.007C385.457 194.968 382.489 188.26 378.731 184.163C374.369 179.408 369.378 175.273 364.629 170.918C360.579 173.878 356.319 176.549 352.071 179.211C355.826 182.82 361.901 190.643 363.8 195.361C364.148 196.226 364.333 196.933 363.956 197.83C363.272 198.224 362.9 198.351 362.099 198.225C358.883 197.715 350.709 184.461 348.462 181.298C341.902 184.321 335.453 187.127 328.596 189.419C329.452 191.457 330.556 193.769 330.555 196.011C330.555 196.799 330.425 197.341 329.873 197.928C329.244 198.044 329.087 198.078 328.493 197.759C326.221 196.54 325.161 192.952 324.512 190.618C314.703 193.376 304.855 194.529 294.708 195.068C294.299 195.614 294.394 195.385 294.211 195.991C293.97 196.786 293.9 197.502 293.283 198.104C289.136 198.321 291.415 195.799 286.589 194.987C282.626 194.32 278.549 194.265 274.561 193.756C269.459 193.103 264.519 191.877 259.542 190.621C259.476 190.873 259.412 191.126 259.335 191.374C258.548 193.914 257.476 196.639 255.022 197.961C254.191 197.977 254.248 198.011 253.649 197.437C252.849 194.713 254.402 191.885 255.493 189.444C248.553 187.454 242.008 184.269 235.453 181.289C233.358 183.919 231.229 186.555 229.338 189.337C227.734 191.697 226.325 194.23 224.558 196.472C224.143 196.998 223.599 197.698 222.935 197.92C222.023 198.224 220.482 198.146 219.596 197.816L219.462 197.281C221.852 190.719 227.184 184.39 231.883 179.274C227.617 176.742 223.364 174.01 219.453 170.954C211.241 177.685 204.13 185.112 197.949 193.738C196.688 195.498 194.459 198.176 192.096 198.331C191.246 198.387 190.845 198.21 190.175 197.716C190.137 195.257 196.588 187.984 198.391 185.804Q199.982 183.868 201.651 182Q203.32 180.132 205.066 178.334Q206.811 176.537 208.63 174.813Q210.448 173.089 212.337 171.443Q214.225 169.796 216.18 168.229Q218.135 166.662 220.153 165.177Q222.171 163.693 224.249 162.293Q226.328 160.893 228.462 159.581Q230.596 158.268 232.783 157.045Q234.97 155.823 237.205 154.692Q239.441 153.56 241.722 152.523Q244.002 151.485 246.324 150.543Q248.646 149.601 251.004 148.756Q253.363 147.911 255.755 147.165Q258.147 146.418 260.567 145.772Q262.988 145.125 265.433 144.579C272.303 143.056 279.169 142.317 286.166 141.656Z"/>
	<path fill="#0B0C0E" d="M257.861 151.041C260.401 151.264 262.726 153.288 264.826 154.634C258.285 157.893 251.647 161.152 245.983 165.843C242.111 169.05 238.838 173.054 234.485 175.645C233.604 175.177 232.738 174.67 231.867 174.182L222.888 168.387C233.003 161.318 245.952 154.36 257.861 151.041Z"/>
	<path fill="#0B0C0E" d="M324.679 150.945C332.753 150.393 353.846 163.576 360.924 168.38C358.544 170.086 356.103 171.684 353.649 173.28C352.227 174.188 350.73 175.006 349.274 175.86C339.657 166.451 331.214 160.721 319.138 154.664C321.104 153.603 322.877 152.257 324.679 150.945Z"/>
	<path fill="#0B0C0E" d="M269.393 157.646C270.972 157.502 273.745 158.886 275.281 159.45C267.226 167.569 262.207 175.504 257.031 185.585L248.485 182.439C245.118 181.054 241.853 179.514 238.581 177.92C241.195 175.706 243.604 173.263 246.264 171.097C253.364 165.316 261.003 161.181 269.393 157.646Z"/>
	<path fill="#0B0C0E" d="M313.644 157.651C314.803 157.623 316.265 158.254 317.367 158.609C328.167 162.084 337.154 170.283 345.322 177.859C342.529 179.304 339.739 180.658 336.851 181.905C333.544 183.241 330.18 184.373 326.801 185.509C323.454 175.603 316.01 166.827 308.739 159.542L313.644 157.651Z"/>
	<path fill="#0B0C0E" d="M284.82 146.253C296.85 145.61 308.307 146.825 320.08 149.256C313.409 153.331 306.753 155.895 299.089 157.447C285.1 158.98 275.993 155.875 263.776 149.281C270.76 147.796 277.698 146.769 284.82 146.253Z"/>
	<path fill="#0B0C0E" d="M280.342 161.104Q285.118 161.659 289.908 162.066L289.957 190.676C284.101 190.445 278.418 189.973 272.61 189.196C268.774 188.552 265.038 187.474 261.219 186.75C265.649 176.588 271.936 168.279 280.342 161.104Z"/>
	<path fill="#0B0C0E" d="M301.036 161.465C301.955 161.36 302.914 161.363 303.84 161.315C312.756 166.317 318.213 177.895 322.673 186.701C319.718 187.484 316.776 188.193 313.781 188.81C307.208 189.978 300.695 190.409 294.036 190.745C294.156 181.177 294.04 171.595 294.038 162.026L301.036 161.465Z"/>
	<path fill="#FEFDFE" d="M262.744 208.283C275.949 207.79 287.446 211.891 299.268 217.221L299.231 211.554Q310.406 211.485 321.581 211.547L321.563 246.985C314.359 247.088 307.138 246.96 299.932 246.928C293.472 239.721 286.019 234.5 276.349 232.767C271.455 231.89 262.3 230.765 258.037 233.969C257.229 234.576 256.555 235.433 256.545 236.492C256.527 238.409 258.654 239.796 260.133 240.577C264.435 242.851 269.851 243.91 274.528 245.16C283.238 247.489 292.093 249.577 300.473 252.948C306.15 255.232 311.347 258.094 315.659 262.496C321.646 268.608 325.427 276.891 325.27 285.524Q325.256 286.295 325.204 287.065Q325.152 287.835 325.061 288.601Q324.971 289.368 324.843 290.128Q324.715 290.889 324.549 291.643Q324.383 292.396 324.18 293.141Q323.977 293.885 323.738 294.619Q323.498 295.352 323.222 296.073Q322.947 296.793 322.636 297.5Q322.325 298.206 321.979 298.895Q321.633 299.585 321.254 300.257Q320.874 300.929 320.462 301.581Q320.05 302.233 319.605 302.864Q319.161 303.495 318.686 304.103Q318.211 304.711 317.707 305.295Q317.202 305.879 316.67 306.437Q316.137 306.995 315.577 307.526C306.87 315.774 294.034 318.599 282.368 318.243C270.068 317.637 259.619 313.648 248.568 308.668L248.586 315.947Q237.108 315.982 225.631 315.858C225.178 303.092 225.536 290.155 225.606 277.373Q236.078 277.209 246.55 277.347C247.629 279.095 248.762 280.774 250.113 282.327C256.478 289.64 266.582 293.29 276.059 293.931C280.297 294.217 288.679 294.128 291.977 291.058C292.591 290.486 292.773 289.996 292.831 289.162C292.495 288.12 292.003 287.572 291.077 286.976C286.113 283.783 279.291 281.931 273.655 280.179C264.24 277.251 254.44 274.713 245.358 270.851C241.643 269.272 238.224 267.346 235.177 264.68C228.935 259.22 224.967 252.048 224.467 243.708C223.971 235.415 226.364 226.945 231.936 220.672C239.711 211.918 251.479 208.934 262.744 208.283Z"/>
	<path fill="#FEFDFE" d="M380.464 208.27C396.039 207.243 413.782 211.098 425.878 221.483C436.339 230.465 440.671 243.71 441.615 257.119C442.703 272.566 440.21 289.883 429.647 301.887C420.151 312.68 404.122 317.453 390.128 318.29C374.51 318.541 357.817 315.902 345.41 305.724C335.128 297.289 329.883 284.827 328.591 271.795C327.07 256.444 329.456 238.209 339.586 225.971C349.477 214.023 365.608 209.646 380.464 208.27Z"/>
	<path fill="#0B0C0E" d="M383.004 234.682C387.625 234.375 392.863 234.725 396.728 237.548C400.811 240.529 401.984 245.764 402.676 250.492C403.978 259.384 404.974 279.643 399.368 286.734C396.455 290.42 391.513 291.439 387.096 291.843C382.784 292.084 378.049 291.763 374.356 289.285C370.43 286.649 369.24 282.282 368.478 277.882C366.925 268.915 365.666 247.281 371.032 240.102C373.767 236.443 378.744 235.347 383.004 234.682Z"/>
</svg>
