<?xml version="1.0" encoding="utf-8" ?>
<svg xmlns="http://www.w3.org/2000/svg" xmlns:xlink="http://www.w3.org/1999/xlink" width="667" height="667">
	<path transform="matrix(1.334 0 0 1.334 0 -7.62939e-06)" d="M231.134 2.34266C238.04 2.00556 245.054 2.22929 251.972 2.22664C258.654 2.22409 265.442 1.98935 272.109 2.36351C272.206 2.36897 272.304 2.36938 272.401 2.37681C273.594 2.46793 274.449 3.69938 275.661 3.92175C280.38 4.78813 285.24 5.25159 289.99 6.02348Q294.009 6.67482 298.004 7.45926Q301.999 8.24371 305.965 9.1604Q309.932 10.0771 313.866 11.125Q317.8 12.173 321.697 13.351Q325.594 14.529 329.45 15.8358Q333.306 17.1425 337.116 18.5767Q340.926 20.0108 344.687 21.5707Q348.447 23.1305 352.154 24.8145Q355.861 26.4984 359.509 28.3045Q363.158 30.1105 366.745 32.0368Q370.331 33.9631 373.852 36.0074Q377.373 38.0517 380.824 40.2119Q384.275 42.372 387.652 44.6455Q391.029 46.9191 394.329 49.3036Q397.629 51.688 400.848 54.1807Q404.067 56.6735 407.201 59.2718Q410.335 61.87 413.382 64.571Q416.428 67.2719 419.383 70.0725Q422.338 72.8731 425.198 75.7703Q428.058 78.6675 430.821 81.6581Q433.583 84.6487 436.245 87.7294Q438.906 90.8101 441.464 93.9775Q444.022 97.1449 446.473 100.396Q448.924 103.646 451.266 106.976Q453.608 110.307 455.838 113.713Q458.068 117.119 460.184 120.597Q462.299 124.076 464.298 127.622Q466.297 131.169 468.177 134.78Q470.057 138.391 471.816 142.063Q473.576 145.734 475.212 149.462Q476.848 153.19 478.359 156.97Q479.871 160.751 481.256 164.579Q485.611 176.647 488.706 189.098Q490.585 196.692 491.977 204.391C492.657 208.261 493.13 212.217 494.069 216.031C494.216 216.629 494.414 216.95 494.818 217.413C495.829 218.573 495.722 219.904 495.738 221.37C495.867 233.075 495.784 244.79 495.761 256.496C495.75 262.466 496.201 268.782 495.566 274.692C495.286 277.296 493.905 279.791 493.499 282.468Q493.16 284.826 492.776 287.177Q492.392 289.528 491.962 291.871Q491.532 294.214 491.057 296.548Q490.581 298.883 490.061 301.207Q489.541 303.532 488.975 305.846Q488.41 308.16 487.799 310.463Q487.189 312.765 486.534 315.056Q485.879 317.346 485.18 319.623Q484.481 321.901 483.738 324.164Q482.994 326.427 482.207 328.676Q481.42 330.924 480.59 333.157Q479.759 335.389 478.886 337.606Q478.012 339.822 477.096 342.021Q476.179 344.219 475.22 346.4Q474.261 348.581 473.26 350.742Q472.259 352.904 471.216 355.046Q470.173 357.187 469.089 359.308Q468.004 361.43 466.879 363.529Q465.754 365.629 464.588 367.706Q463.423 369.784 462.217 371.838Q461.011 373.893 459.765 375.923Q458.52 377.954 457.235 379.96Q455.951 381.966 454.627 383.947Q453.304 385.928 451.942 387.882Q450.581 389.837 449.182 391.765Q447.782 393.693 446.346 395.593Q444.91 397.494 443.437 399.366Q441.964 401.238 440.455 403.082Q438.946 404.925 437.401 406.738Q435.857 408.552 434.277 410.335Q432.698 412.119 431.084 413.871Q429.47 415.623 427.823 417.344C389.454 456.68 340.688 482.828 286.021 490.485C283.53 490.834 280.983 491.096 278.539 491.687C275.42 492.441 273.471 493.655 270.133 493.696C262.626 493.797 255.106 493.621 247.597 493.65C241.214 493.675 234.71 493.977 228.348 493.493C226.215 493.33 225.093 491.976 223.167 491.589C220.307 491.014 217.259 490.768 214.36 490.312Q211.644 489.902 208.938 489.432Q206.232 488.962 203.538 488.431Q200.843 487.9 198.161 487.309Q195.478 486.718 192.81 486.067Q190.142 485.417 187.489 484.706Q184.836 483.996 182.199 483.226Q179.563 482.456 176.944 481.627Q174.326 480.799 171.727 479.912Q169.127 479.025 166.548 478.08Q163.97 477.135 161.413 476.132Q158.856 475.13 156.322 474.07Q153.788 473.011 151.278 471.895Q148.769 470.779 146.285 469.607Q143.801 468.435 141.344 467.207Q138.887 465.98 136.458 464.698Q134.029 463.416 131.629 462.08Q129.23 460.744 126.86 459.354Q124.491 457.965 122.154 456.523Q119.817 455.081 117.512 453.586Q115.207 452.092 112.937 450.547Q110.667 449.001 108.431 447.406Q106.196 445.81 103.997 444.164Q101.798 442.519 99.6364 440.824Q97.4748 439.13 95.3517 437.388Q93.2286 435.645 91.1451 433.856Q89.0615 432.066 87.0186 430.231Q84.9756 428.395 82.9743 426.514Q80.9729 424.633 79.0143 422.708Q77.0555 420.782 75.1405 418.814Q73.2254 416.845 71.3548 414.834Q69.4843 412.823 67.6593 410.77Q65.8343 408.718 64.0557 406.625Q61.7166 403.874 59.4595 401.055Q57.2025 398.236 55.0295 395.351Q52.8566 392.467 50.7695 389.52Q48.6825 386.573 46.6833 383.565Q44.684 380.558 42.7743 377.493Q40.8645 374.428 39.0459 371.308Q37.2274 368.189 35.5015 365.016Q33.7757 361.844 32.1441 358.623Q30.5125 355.401 28.9765 352.133Q27.4406 348.864 26.0016 345.552Q24.5627 342.24 23.222 338.887Q21.8813 335.534 20.64 332.142Q19.3987 328.751 18.2578 325.325Q17.117 321.899 16.0777 318.44Q15.0384 314.982 14.1014 311.494Q13.1645 308.007 12.3307 304.493C10.3664 296.223 9.11732 287.936 7.75663 279.56C7.29066 276.692 5.91763 273.974 5.57518 271.129C5.24242 268.364 5.36246 265.469 5.3453 262.687L5.29977 248.351C5.31235 240.104 4.8517 231.55 5.52189 223.352C6.05042 222.885 6.53002 222.474 6.75005 221.779C7.91141 218.112 8.12061 213.608 8.70924 209.782Q10.017 201.579 11.8584 193.48Q13.5524 186.031 15.7083 178.703Q17.8641 171.374 20.4733 164.195Q23.0825 157.015 26.1349 150.013Q29.1873 143.01 32.671 136.212Q34.0736 133.473 35.5445 130.77Q37.0155 128.066 38.5539 125.401Q40.0923 122.736 41.6971 120.11Q43.302 117.484 44.9724 114.899Q46.6427 112.315 48.3775 109.773Q50.1123 107.231 51.9104 104.733Q53.7084 102.236 55.5687 99.7841Q57.429 97.3325 59.3503 94.9285Q61.2716 92.5244 63.2526 90.1694Q65.2337 87.8144 67.2733 85.5099Q69.313 83.2054 71.4098 80.9528Q73.5067 78.7003 75.6595 76.5012Q77.8123 74.3021 80.0197 72.1577Q82.2271 70.0134 84.4877 67.9252Q86.7483 65.837 89.0606 63.8062Q91.3729 61.7755 93.7355 59.8035Q96.0982 57.8314 98.5096 55.9194Q100.921 54.0074 103.38 52.1566Q105.838 50.3057 108.343 48.5173Q110.847 46.7288 113.396 45.0038Q115.944 43.2788 118.536 41.6184Q121.127 39.958 123.759 38.3632Q126.391 36.7685 129.062 35.2403Q131.733 33.7122 134.442 32.2516Q137.151 30.7911 139.895 29.3991Q142.64 28.0071 145.419 26.6844Q148.198 25.3618 151.009 24.1094Q153.82 22.857 156.661 21.6757Q159.503 20.4943 162.374 19.3847Q165.244 18.2752 168.142 17.238Q171.039 16.2009 173.962 15.2369Q176.884 14.273 179.83 13.3827Q194.097 9.03893 208.792 6.50038C214.631 5.49489 221.622 5.01556 227.211 3.67847C228.563 3.35499 229.813 2.76743 231.134 2.34266Z"/>
	<path fill="#FEFEFE" transform="matrix(1.334 0 0 1.334 0 -7.62939e-06)" d="M245.875 22.6212Q252.78 22.4844 259.681 22.739Q266.583 22.9936 273.459 23.6388Q280.335 24.284 287.164 25.3176Q293.992 26.3512 300.751 27.77C328.864 33.9642 359.71 48.3778 382.998 65.2452Q396.67 75.3493 408.814 87.2471Q410.783 89.1688 412.703 91.1383Q414.624 93.1078 416.496 95.124Q418.368 97.1402 420.189 99.2018Q422.011 101.263 423.781 103.369Q425.551 105.475 427.269 107.624Q428.987 109.773 430.652 111.963Q432.316 114.153 433.926 116.384Q435.536 118.615 437.091 120.884Q438.646 123.154 440.144 125.461Q441.643 127.768 443.084 130.111Q444.525 132.455 445.908 134.833Q447.292 137.211 448.616 139.622Q449.94 142.034 451.205 144.477Q452.469 146.92 453.673 149.394Q454.877 151.868 456.02 154.37Q457.162 156.872 458.243 159.402Q459.324 161.932 460.342 164.488Q461.361 167.044 462.316 169.624Q463.271 172.203 464.162 174.806Q465.053 177.409 465.88 180.033Q466.707 182.656 467.47 185.3Q468.232 187.943 468.929 190.605Q469.626 193.266 470.257 195.944Q470.888 198.621 471.453 201.314Q472.018 204.006 472.517 206.711Q473.016 209.417 473.448 212.134Q473.88 214.851 474.245 217.577Q474.61 220.304 474.908 223.039Q475.206 225.774 475.436 228.515Q475.667 231.257 475.83 234.003Q475.993 236.749 476.088 239.499Q476.183 242.248 476.211 244.999Q476.255 247.769 476.231 250.539Q476.207 253.309 476.114 256.078Q476.021 258.847 475.86 261.612Q475.698 264.378 475.469 267.138Q475.239 269.899 474.94 272.653Q474.642 275.407 474.275 278.153Q473.909 280.899 473.475 283.635Q473.04 286.371 472.538 289.096Q472.036 291.82 471.466 294.531Q470.897 297.242 470.26 299.938Q469.624 302.634 468.921 305.314Q468.218 307.993 467.448 310.655Q466.679 313.316 465.844 315.957Q465.009 318.599 464.108 321.219Q463.208 323.838 462.243 326.435Q461.278 329.032 460.249 331.604Q459.22 334.176 458.128 336.722Q457.035 339.268 455.88 341.785Q454.725 344.303 453.507 346.792Q452.29 349.28 451.011 351.738Q449.733 354.195 448.394 356.62Q447.054 359.046 445.656 361.437Q444.257 363.828 442.799 366.184Q441.341 368.539 439.826 370.858Q438.31 373.177 436.738 375.458Q435.165 377.738 433.536 379.979Q431.908 382.22 430.224 384.42Q428.54 386.62 426.802 388.777Q425.065 390.935 423.274 393.048Q421.483 395.162 419.641 397.231Q417.798 399.299 415.905 401.322Q414.012 403.344 412.069 405.319Q410.168 407.281 408.219 409.196Q406.27 411.11 404.275 412.977Q402.28 414.843 400.24 416.661Q398.2 418.478 396.117 420.245Q394.033 422.012 391.907 423.727Q389.78 425.443 387.613 427.106Q385.445 428.769 383.238 430.378Q381.03 431.988 378.784 433.543Q376.538 435.098 374.255 436.598Q371.971 438.098 369.652 439.542Q367.332 440.985 364.978 442.372Q362.624 443.758 360.237 445.087Q357.85 446.416 355.431 447.686Q353.012 448.956 350.563 450.166Q348.114 451.376 345.635 452.527Q343.157 453.677 340.652 454.766Q338.147 455.856 335.615 456.883Q333.084 457.911 330.528 458.877Q327.973 459.843 325.394 460.746Q322.816 461.649 320.216 462.488Q317.616 463.328 314.997 464.104Q312.377 464.88 309.74 465.592Q307.102 466.303 304.448 466.951Q301.793 467.598 299.124 468.18Q296.455 468.762 293.772 469.279Q291.089 469.795 288.395 470.246Q285.7 470.697 282.996 471.082Q280.291 471.467 277.578 471.786Q274.864 472.105 272.144 472.357Q269.424 472.61 266.698 472.796Q263.972 472.982 261.243 473.101Q258.513 473.22 255.782 473.273C237.137 473.524 218.24 472.032 200.021 467.926C172.453 461.711 142.543 447.675 119.554 431.315C111.177 425.354 103.207 418.584 95.7669 411.495Q93.7696 409.615 91.819 407.687Q89.8683 405.759 87.9656 403.784Q86.0629 401.809 84.2093 399.787Q82.3557 397.766 80.5522 395.7Q78.7487 393.633 76.9965 391.523Q75.2443 389.413 73.5444 387.261Q71.8445 385.109 70.1979 382.915Q68.5514 380.722 66.9591 378.489Q65.3669 376.256 63.83 373.984Q62.293 371.713 60.8123 369.404Q59.3316 367.095 57.908 364.751Q56.4843 362.407 55.1187 360.028Q53.753 357.65 52.4462 355.239Q51.1393 352.827 49.892 350.385Q48.6447 347.942 47.4578 345.47Q46.2708 342.997 45.1449 340.496Q44.019 337.995 42.9548 335.468Q41.8906 332.94 40.8887 330.387Q39.8869 327.834 38.948 325.257Q38.0092 322.68 37.1338 320.08Q36.2585 317.481 35.4472 314.861Q34.6359 312.241 33.8892 309.602Q33.1425 306.963 32.4607 304.307Q31.779 301.65 31.1627 298.978Q30.5463 296.305 29.9958 293.618Q29.4452 290.932 28.9608 288.232Q28.4764 285.532 28.0583 282.822Q27.6403 280.111 27.2889 277.391Q26.9375 274.671 26.653 271.943Q26.3685 269.215 26.151 266.481Q25.9336 263.747 25.7833 261.009Q25.6329 258.27 25.5499 255.529C25.0919 235.922 26.5372 215.996 30.8695 196.834C39.1659 160.138 60.3752 121.021 86.3561 93.7975Q93.6413 86.0861 101.571 79.0395Q109.501 71.993 118.016 65.665C141.072 48.7847 171.742 34.4524 199.603 28.0496C214.693 24.5816 230.413 22.9814 245.875 22.6212Z"/>
	<path transform="matrix(1.334 0 0 1.334 0 -7.62939e-06)" d="M187.472 249.074C190.224 249.145 193.945 249.991 196.533 249.594C201.207 258.658 205.471 268.59 208.346 278.388C207.568 278.436 206.76 278.53 205.982 278.463C205.645 277.253 204.476 275.694 203.835 274.553Q196.35 261.366 187.472 249.074Z"/>
	<path fill="#010101" transform="matrix(1.334 0 0 1.334 0 -7.62939e-06)" d="M291.831 368.276C293.812 368.274 301.472 367.845 302.595 368.305C303.461 368.659 303.801 369.107 304.167 369.913C304.09 370.551 304.047 370.576 303.608 371.052C302.507 371.543 300.81 371.29 299.607 371.267C299.73 380.859 299.506 390.456 299.689 400.047C300.939 400.003 302.422 399.738 303.512 400.352C303.944 401.149 303.792 402.102 303.754 402.982L291.822 402.992C291.798 401.998 291.842 400.994 291.853 399.999L296.179 400.023L296.195 371.283C294.974 371.315 293.11 371.65 292.094 370.94C291.618 370.121 291.781 369.185 291.831 368.276Z"/>
	<path fill="#010101" transform="matrix(1.334 0 0 1.334 0 -7.62939e-06)" d="M265.599 368.245L269.241 368.263L269.21 399.505L283.097 399.536L283.011 402.977L265.557 403.028L265.599 368.245Z"/>
	<path fill="#010101" transform="matrix(1.334 0 0 1.334 0 -7.62939e-06)" d="M380.714 368.242C387.149 368.424 393.613 368.234 400.054 368.337C400.103 369.39 400.072 370.452 400.069 371.506C397.438 371.56 394.799 371.537 392.166 371.549C392.401 379.613 392.201 387.741 392.208 395.812L392.198 402.988L388.526 403.047L388.562 371.517L380.601 371.596C380.607 370.48 380.674 369.358 380.714 368.242Z"/>
	<path fill="#010101" transform="matrix(1.334 0 0 1.334 0 -7.62939e-06)" d="M112.362 367.809C118.31 367.43 122.732 369.126 127.249 372.974L124.554 375.493Q123.338 374.279 121.878 373.372C118.636 371.324 114.858 370.671 111.119 371.526Q110.436 371.687 109.772 371.915Q109.109 372.143 108.471 372.435Q107.833 372.728 107.227 373.082Q106.622 373.437 106.054 373.85Q105.487 374.262 104.963 374.729Q104.439 375.197 103.964 375.713Q103.49 376.23 103.069 376.791Q102.647 377.353 102.284 377.953C100.258 381.241 99.6674 385.408 100.562 389.156Q100.733 389.856 100.972 390.536Q101.211 391.216 101.516 391.87Q101.821 392.523 102.189 393.143Q102.557 393.763 102.985 394.343Q103.412 394.924 103.895 395.459Q104.377 395.995 104.91 396.48Q105.443 396.965 106.022 397.396Q106.6 397.826 107.218 398.197C110.784 400.328 114.377 400.606 118.368 399.607C120.908 398.645 122.789 397.496 124.626 395.502Q126.019 396.92 127.437 398.312C124.427 400.586 121.465 402.522 117.699 403.25Q116.847 403.413 115.983 403.492Q115.119 403.57 114.252 403.564Q113.385 403.558 112.522 403.467Q111.66 403.376 110.81 403.201Q109.96 403.027 109.132 402.769Q108.304 402.512 107.504 402.175Q106.705 401.838 105.943 401.425Q105.18 401.011 104.462 400.525Q103.719 400.022 103.03 399.448Q102.34 398.874 101.711 398.235Q101.082 397.596 100.519 396.897Q99.9556 396.199 99.4643 395.449Q98.9729 394.698 98.558 393.903Q98.1432 393.107 97.809 392.275Q97.4747 391.443 97.2243 390.581Q96.974 389.72 96.8099 388.838Q96.6514 387.972 96.5787 387.095Q96.5061 386.217 96.5199 385.337Q96.5337 384.457 96.6339 383.582Q96.7341 382.708 96.9197 381.847Q97.1054 380.987 97.3746 380.149Q97.6438 379.311 97.994 378.503Q98.3443 377.695 98.7721 376.926Q99.2 376.157 99.7013 375.433C102.767 371.029 107.185 368.768 112.362 367.809Z"/>
	<path fill="#010101" transform="matrix(1.334 0 0 1.334 0 -7.62939e-06)" d="M348.441 368.239L352.296 368.255C356.604 375.124 362.069 381.308 366.47 388.142C365.974 381.583 366.261 374.85 366.245 368.265L369.76 368.263C369.604 379.828 369.721 391.41 369.722 402.977L366.271 403.034L366.277 397.187L366.318 393.662C361.285 387.206 356.555 380.458 351.711 373.855C352.04 383.535 351.834 393.279 351.86 402.968L348.41 403.04C348.568 391.445 348.432 379.836 348.441 368.239Z"/>
	<path fill="#010101" transform="matrix(1.334 0 0 1.334 0 -7.62939e-06)" d="M323.164 368.248L326.644 368.278C330.066 379.934 334.309 391.356 337.751 403.005L333.955 403.027Q332.277 397.403 330.481 391.816L327.062 391.85Q323.141 391.835 319.221 391.874Q317.559 397.474 315.749 403.028L311.978 403.022C313.003 398.973 314.535 394.928 315.822 390.946L323.164 368.248Z"/>
	<path fill="#FEFEFE" transform="matrix(1.334 0 0 1.334 0 -7.62939e-06)" d="M324.78 373.374C325.432 373.943 329.032 386.982 329.727 388.985L325.009 388.914L320.07 388.942Q322.498 381.18 324.78 373.374Z"/>
	<path fill="#010101" transform="matrix(1.334 0 0 1.334 0 -7.62939e-06)" d="M233.298 368.24C238.93 368.35 247.12 366.888 251.416 371.212C253.341 373.149 254.351 375.874 254.34 378.589C254.328 381.338 253.298 384.027 251.326 385.965C248.005 389.231 243.704 388.833 239.437 388.825L236.768 388.857L236.793 402.973L233.299 403.035L233.298 368.24Z"/>
	<path fill="#FEFEFE" transform="matrix(1.334 0 0 1.334 0 -7.62939e-06)" d="M236.765 371.588C240.375 371.489 245.537 370.855 248.509 373.223C249.808 374.257 250.457 375.714 250.652 377.338C250.95 379.819 250.42 381.772 248.863 383.709C245.484 386.34 240.797 385.613 236.776 385.515L236.765 371.588Z"/>
	<path fill="#010101" transform="matrix(1.334 0 0 1.334 0 -7.62939e-06)" d="M187.564 368.231L191.315 368.25C193.317 373.998 195.477 379.697 197.563 385.416C198.87 388.998 200.385 392.606 201.094 396.361L211.434 368.247L215.248 368.263C216.569 379.847 218.787 391.372 219.853 402.978L216.292 403.022C215.502 399.421 215.311 395.514 214.878 391.846C214.212 386.207 213.333 380.488 213.094 374.815L212.981 374.601L212.659 374.647C211.593 376.843 210.887 379.383 210.072 381.694L205.339 395.122C204.59 397.242 203.945 399.533 202.922 401.533C202.528 402.303 202.133 403.132 201.276 403.399C200.422 402.788 199.899 401.649 199.468 400.717C198.087 397.729 197.137 394.358 196.041 391.247L189.741 373.485C189.153 383.306 187.769 393.268 186.48 403.026L182.637 403.017C183.594 398.809 183.986 394.397 184.564 390.121L187.564 368.231Z"/>
	<path fill="#010101" transform="matrix(1.334 0 0 1.334 0 -7.62939e-06)" d="M152.195 367.825C156.433 367.274 160.956 368.455 164.459 370.869Q165.204 371.384 165.895 371.971Q166.585 372.559 167.213 373.212Q167.841 373.865 168.4 374.578Q168.96 375.291 169.445 376.056Q169.931 376.821 170.337 377.631Q170.744 378.441 171.067 379.287Q171.39 380.134 171.627 381.009Q171.865 381.883 172.013 382.777C172.803 387.318 171.628 392.181 168.966 395.931C165.909 400.237 161.619 402.587 156.474 403.424C152.119 403.719 148.168 403.045 144.459 400.617Q143.726 400.132 143.044 399.577Q142.362 399.022 141.738 398.403Q141.114 397.785 140.553 397.108Q139.992 396.431 139.5 395.702Q139.009 394.974 138.591 394.2Q138.172 393.427 137.832 392.616Q137.492 391.806 137.232 390.966Q136.973 390.126 136.797 389.265Q136.617 388.391 136.525 387.503Q136.433 386.615 136.43 385.723Q136.427 384.83 136.512 383.941Q136.597 383.053 136.77 382.177Q136.943 381.302 137.202 380.448Q137.461 379.593 137.803 378.769Q138.146 377.945 138.568 377.159Q138.991 376.372 139.489 375.632C142.553 371.133 146.931 368.783 152.195 367.825Z"/>
	<path fill="#FEFEFE" transform="matrix(1.334 0 0 1.334 0 -7.62939e-06)" d="M151.883 371.296C155.262 370.941 158.515 371.213 161.528 372.952Q162.141 373.308 162.716 373.723Q163.29 374.137 163.821 374.607Q164.352 375.076 164.834 375.595Q165.316 376.115 165.744 376.679Q166.173 377.244 166.543 377.848Q166.914 378.452 167.223 379.09Q167.531 379.728 167.776 380.393Q168.02 381.058 168.198 381.744C169.194 385.607 168.674 389.878 166.609 393.308C164.465 396.87 161.265 398.9 157.312 399.89C157.088 399.946 156.864 400.005 156.637 400.048C153.181 400.709 149.147 399.795 146.244 397.817C143.052 395.642 140.984 392.322 140.262 388.541C139.521 384.659 140.306 380.445 142.541 377.167C144.776 373.888 148.045 372.053 151.883 371.296Z"/>
	<path fill="#010101" transform="matrix(1.334 0 0 1.334 0 -7.62939e-06)" d="M365.749 248.587C368.427 248.271 371.246 248.314 373.916 248.684C382.799 249.915 388.889 254.677 394.162 261.672C389.53 265.68 384.721 269.649 380.304 273.892C377.958 270.607 375.11 267.803 370.996 267.016C369.073 266.648 366.799 267.566 365.266 268.72C363.838 269.795 362.994 271.429 362.76 273.19C361.916 279.515 371.497 284.9 375.959 287.87C378.875 289.81 381.815 291.721 384.624 293.815C388.705 296.857 392.495 300.184 395.502 304.322C400.297 310.919 402.019 318.494 400.704 326.529Q400.596 327.219 400.454 327.904Q400.312 328.588 400.136 329.264Q399.959 329.94 399.75 330.607Q399.54 331.274 399.298 331.929Q399.056 332.585 398.781 333.227Q398.506 333.87 398.2 334.498Q397.893 335.126 397.556 335.738Q397.219 336.35 396.851 336.945Q396.484 337.539 396.088 338.115Q395.691 338.69 395.266 339.245Q394.842 339.8 394.39 340.333Q393.938 340.866 393.461 341.376Q392.983 341.887 392.48 342.372Q391.978 342.858 391.452 343.318Q390.926 343.778 390.378 344.211Q389.829 344.645 389.26 345.05C380.551 351.213 369.985 351.833 359.765 350.04C347.721 347.044 341.83 342.21 335.363 331.813C337.643 330.503 339.785 328.813 341.923 327.284Q346.982 323.689 351.997 320.034C353.543 322.886 355.417 325.614 357.904 327.728C360.934 330.303 366.154 332.6 370.167 332.213C373.297 331.911 376.563 330.54 378.52 328.017C380.144 325.926 380.979 323.148 380.58 320.511C379.379 312.58 365.928 305.67 359.885 301.368C352.008 295.76 344.128 288.658 342.519 278.615C341.431 271.816 342.9 264.778 347.018 259.211C351.525 253.118 358.346 249.651 365.749 248.587Z"/>
	<path fill="#010101" transform="matrix(1.334 0 0 1.334 0 -7.62939e-06)" d="M208.346 278.388C209.159 278.506 209.779 278.549 210.59 278.404L212.303 278.564C218.876 279.685 224.792 281.461 230.222 285.477Q230.935 286.001 231.62 286.56Q232.306 287.119 232.963 287.712Q233.62 288.305 234.246 288.929Q234.873 289.554 235.467 290.209Q236.062 290.865 236.623 291.549Q237.184 292.233 237.71 292.944Q238.236 293.656 238.725 294.392Q239.215 295.129 239.668 295.89Q240.12 296.65 240.534 297.432Q240.947 298.214 241.322 299.016Q241.696 299.817 242.029 300.637Q242.363 301.456 242.655 302.291Q242.947 303.126 243.198 303.975Q243.448 304.824 243.655 305.684Q243.862 306.544 244.026 307.413Q244.191 308.283 244.311 309.159C245.698 318.984 243.386 329.086 237.352 337.02Q236.823 337.71 236.26 338.373Q235.698 339.036 235.103 339.671Q234.509 340.306 233.884 340.91Q233.259 341.515 232.606 342.089Q231.952 342.662 231.271 343.203Q230.59 343.743 229.883 344.25Q229.176 344.756 228.445 345.228Q227.715 345.699 226.962 346.134Q226.209 346.569 225.435 346.966Q224.662 347.363 223.87 347.722Q223.077 348.081 222.269 348.4Q221.46 348.72 220.637 349Q219.813 349.279 218.977 349.518Q218.141 349.757 217.294 349.954Q216.447 350.151 215.592 350.307Q214.736 350.463 213.874 350.576C203.931 351.88 193.652 349.723 185.672 343.477Q184.971 342.935 184.298 342.359Q183.625 341.782 182.982 341.173Q182.339 340.563 181.727 339.922Q181.115 339.281 180.537 338.61Q179.958 337.939 179.414 337.24Q178.87 336.541 178.361 335.815Q177.853 335.09 177.382 334.339Q176.911 333.589 176.478 332.816Q176.045 332.043 175.651 331.249Q175.258 330.455 174.905 329.643Q174.551 328.83 174.24 328.001Q173.928 327.171 173.658 326.327Q173.388 325.483 173.161 324.627Q172.934 323.77 172.751 322.904Q172.567 322.037 172.427 321.162Q172.288 320.287 172.192 319.406C171.051 309.393 173.599 299.453 179.943 291.558C186.492 283.408 195.791 279.53 205.982 278.463C206.76 278.53 207.568 278.436 208.346 278.388Z"/>
	<path fill="#FEFEFE" transform="matrix(1.334 0 0 1.334 0 -7.62939e-06)" d="M205.584 296.552C209.539 296.048 213.491 296.647 216.934 298.72C220.859 301.083 223.367 305.048 224.461 309.439C225.776 314.718 225.161 320.724 222.31 325.417C219.789 329.567 216.132 331.844 211.49 332.964Q210.701 333.117 209.901 333.195Q209.1 333.272 208.296 333.272Q207.492 333.273 206.692 333.196Q205.892 333.12 205.102 332.968Q204.313 332.815 203.542 332.588Q202.77 332.361 202.024 332.061Q201.278 331.761 200.564 331.392Q199.85 331.022 199.175 330.586C195.227 328 192.699 323.707 191.789 319.125C190.76 313.942 191.554 307.991 194.542 303.561C197.209 299.606 200.98 297.478 205.584 296.552Z"/>
	<path fill="#010101" transform="matrix(1.334 0 0 1.334 0 -7.62939e-06)" d="M255.487 249.735L276.183 249.767L276.042 284.313L306.269 284.306L306.285 249.755L326.768 249.746L326.768 315.843C326.768 327.105 326.642 338.384 326.823 349.645C322.852 349.787 318.85 349.695 314.875 349.702L306.234 349.706C306.434 334.236 306.274 318.743 306.28 303.271L276.019 303.277C276.273 318.734 276.069 334.199 276.201 349.659C269.276 349.801 262.33 349.706 255.403 349.719C255.609 338.13 255.467 326.518 255.467 314.926L255.487 249.735Z"/>
	<path fill="#010101" transform="matrix(1.334 0 0 1.334 0 -7.62939e-06)" d="M96.2898 249.748L121.092 249.733C126.905 249.728 132.86 249.456 138.628 250.254C146.532 251.349 153.817 254.994 158.658 261.458C164.574 269.356 165.866 280.061 164.441 289.607C163.047 298.938 158.577 305.094 151.169 310.588C157.129 323.54 162.379 336.821 168.426 349.732C161.367 349.277 154.026 349.698 146.938 349.708C146.602 349.729 146.41 349.743 146.093 349.602C145.68 349.418 133.161 318.287 132.016 315.42Q124.294 315.322 116.572 315.47C116.684 326.866 116.407 338.286 116.715 349.677L96.2497 349.711L96.2898 249.748Z"/>
	<path fill="#FEFEFE" transform="matrix(1.334 0 0 1.334 0 -7.62939e-06)" d="M116.571 268.484C123.806 268.357 135.602 267.11 141.26 272.225C144.09 274.784 145.333 278.568 145.446 282.302C145.57 286.41 144.209 289.873 141.376 292.84C135.108 298.174 124.409 296.727 116.6 296.687L116.571 268.484Z"/>
	<path transform="matrix(1.334 0 0 1.334 0 -7.62939e-06)" d="M187.472 249.074C187.336 249.049 187.199 249.024 187.063 249.001C185.561 248.754 183.845 248.889 182.313 248.859C179.399 248.804 176.475 248.684 173.587 248.274C158.242 246.098 145.489 236.207 136.488 224.026C124.194 207.388 119.757 187.995 110.759 169.746Q107.747 163.525 104.229 157.576C102.347 154.398 96.8629 147.022 96.085 144.056L96.3657 143.641C98.5305 143.327 111.541 147.447 114.696 148.223C123.483 150.385 132.366 151.813 141.188 153.771C157.913 157.483 175.066 163.436 188.906 173.792C200.437 182.419 209.21 194.556 211.28 209.048C211.694 211.944 212.06 215.356 211.441 218.24C211.089 219.879 210.477 221.373 210.339 223.063C203.18 217.911 194.051 212.973 186.397 208.332L171.262 199.126C168.923 197.701 166.606 196.095 164.2 194.802C174.509 206.97 182.385 221.481 189.691 235.587C192.05 240.142 194.698 244.803 196.533 249.594C193.945 249.991 190.224 249.145 187.472 249.074Z"/>
	<path transform="matrix(1.334 0 0 1.334 0 -7.62939e-06)" d="M218.157 206.793C220.201 200.235 221.514 193.748 224.238 187.38C236.817 157.97 262.766 136.602 290.498 122.036C308.249 112.713 327.262 105.798 346.566 100.474C357.515 97.4549 368.618 95.0423 379.566 92.0116C383.957 90.796 397.174 86.3098 400.51 86.2459L400.839 86.471C400.745 87.8703 393.939 94.9438 392.623 96.5561Q388.404 101.791 384.736 107.426Q381.067 113.061 377.987 119.037Q374.816 125.237 372.193 131.687Q369.569 138.137 367.512 144.79C365.673 150.663 364.177 156.636 362.292 162.497C355.253 184.377 343.999 206.007 326.485 221.324C311.413 234.506 293.157 241.514 273.307 243.225C267.794 243.7 262.258 243.582 256.734 243.774C249.167 244.037 241.638 244.683 234.054 244.807C227.824 252.143 222.086 259.889 217.435 268.333C215.592 271.68 214.078 275.187 212.303 278.564L210.59 278.404C212.255 269.8 215.342 261.26 218.81 253.231C222.724 244.171 227.362 235.144 232.806 226.905C245.576 207.582 266.098 187.475 283.407 172.097C293.856 162.814 304.622 153.338 316.216 145.51C318.874 143.715 321.64 142.01 324.15 140.013C320.645 141.457 317.262 143.227 313.855 144.893Q305.037 149.166 296.339 153.676C276.494 163.963 251.668 177.01 234.431 190.864C230.677 193.881 227.004 197.18 223.696 200.683C221.815 202.676 220.119 204.888 218.157 206.793Z"/>
</svg>
