<?xml version="1.0" encoding="utf-8" ?>
<svg xmlns="http://www.w3.org/2000/svg" xmlns:xlink="http://www.w3.org/1999/xlink" width="671" height="671">
	<path fill="#C89F23" transform="matrix(1.31055 0 0 1.31055 -6.10352e-05 -7.62939e-06)" d="M321.935 300.344C323.8 300.08 325.662 300.263 327.361 301.12C328.712 301.802 329.867 302.913 330.958 303.947C335.216 307.982 339.264 312.283 343.414 316.434L368.799 341.815L389.928 362.934C393.375 366.378 396.999 369.728 400.3 373.306C401.509 374.616 402.588 376.01 403.096 377.748C403.733 379.927 403.257 382.273 402.09 384.191C400.11 387.443 395.739 391.032 392.989 393.768L376.916 409.828L361.251 425.502C358.596 428.159 355.986 431.109 353.133 433.527C351.826 434.635 350.338 435.586 348.635 435.921C346.313 436.378 344.054 435.615 342.178 434.245C338.891 431.845 335.599 427.89 332.683 424.973L313.132 405.408L284.544 376.818C279.428 371.707 273.855 366.721 269.183 361.223C268.29 360.173 267.837 358.876 267.646 357.522C267.317 355.188 268.05 352.844 269.545 351.037C270.904 349.394 272.861 348.352 274.998 348.235C278.92 348.02 281.616 350.741 284.305 353.155C288.005 348.428 293.355 343.79 297.662 339.495C300.426 336.685 303.738 332.479 307.985 332.26Q308.418 332.237 308.851 332.259Q309.284 332.281 309.713 332.348Q310.141 332.415 310.561 332.525Q310.98 332.636 311.386 332.789Q311.792 332.942 312.179 333.137Q312.567 333.331 312.933 333.565Q313.298 333.798 313.638 334.068Q313.977 334.338 314.287 334.641C315.855 336.185 316.627 338.181 316.607 340.378C316.595 341.749 316.279 342.993 315.567 344.167C313.54 347.51 310.081 350.345 307.317 353.101L295.643 364.72C298.782 368.089 302.156 371.291 305.414 374.547C308.801 377.932 312.137 381.427 315.709 384.618C320.206 380.505 324.393 375.879 328.698 371.55C330.767 369.47 332.835 367.109 335.277 365.461C336.477 364.652 337.685 364.09 339.137 363.921Q339.573 363.874 340.012 363.873Q340.45 363.871 340.887 363.914Q341.323 363.958 341.753 364.046Q342.182 364.135 342.6 364.267Q343.018 364.399 343.421 364.574Q343.823 364.749 344.205 364.964Q344.587 365.179 344.945 365.433Q345.303 365.686 345.633 365.975Q345.916 366.226 346.173 366.504Q346.43 366.782 346.658 367.084Q346.886 367.386 347.083 367.709Q347.281 368.032 347.445 368.373Q347.609 368.713 347.739 369.069Q347.87 369.424 347.964 369.791Q348.058 370.157 348.116 370.531Q348.173 370.905 348.194 371.283C348.294 372.97 347.85 374.589 346.97 376.025C345.257 378.82 342.483 381.149 340.165 383.449C335.845 387.737 331.315 391.942 327.276 396.493C332.03 400.78 336.451 405.576 340.979 410.109C343.087 412.221 345.172 414.476 347.524 416.316C350.02 413.015 353.499 410.068 356.444 407.128L373.855 389.747C377.126 386.482 380.672 383.286 383.646 379.753C370.61 367.337 358.081 354.263 345.347 341.531L327.886 324.071C324.799 320.984 321.545 317.969 318.621 314.73C317.654 313.659 316.464 312.314 316.002 310.94C315.274 308.775 315.543 306.31 316.665 304.33C317.854 302.232 319.627 300.943 321.935 300.344Z"/>
	<path fill="#C89F23" transform="matrix(1.31055 0 0 1.31055 -6.10352e-05 -7.62939e-06)" d="M164.61 141.33C167.07 141.499 168.879 142.4 170.789 143.917C174.8 147.101 178.432 151.377 182.058 155.027L202.787 175.778L228.457 201.452C233.024 206.007 238.155 210.494 242.272 215.431C243.458 216.854 244.298 218.415 244.458 220.288Q244.49 220.694 244.48 221.101Q244.471 221.508 244.421 221.912Q244.371 222.316 244.281 222.713Q244.191 223.11 244.062 223.496Q243.932 223.883 243.765 224.254Q243.598 224.625 243.394 224.978Q243.19 225.33 242.953 225.661Q242.715 225.991 242.445 226.296Q242.185 226.599 241.897 226.874Q241.608 227.149 241.294 227.394Q240.98 227.64 240.643 227.853Q240.306 228.066 239.949 228.244Q239.593 228.423 239.22 228.565Q238.848 228.707 238.463 228.812Q238.078 228.916 237.685 228.982Q237.292 229.048 236.894 229.075C234.693 229.205 232.733 228.345 231.014 227.033C228.784 225.331 226.93 223.063 224.949 221.082Q219.834 216.038 214.772 210.942L182.652 178.809C176.737 172.889 170.94 166.611 164.665 161.08C156.171 170.255 146.696 179.013 137.795 187.839C134.591 191.016 131.298 194.142 128.276 197.492C133.029 201.781 137.451 206.576 141.979 211.109C144.088 213.221 146.172 215.476 148.524 217.317C150.779 214.307 153.927 211.65 156.595 208.973C159.931 205.626 163.203 201.96 166.801 198.904C168.76 197.241 170.83 196.206 173.465 196.48C175.588 196.701 177.865 197.848 179.176 199.555C180.738 201.588 180.93 204.001 180.538 206.443C180.176 207.583 179.659 208.599 178.937 209.555C176.93 212.209 174.29 214.533 171.934 216.885Q165.915 222.912 159.835 228.878C163.11 232.418 166.653 235.775 170.06 239.194C173.273 242.417 176.439 245.85 179.901 248.804C184.409 244.665 188.642 240.125 192.96 235.782C195.008 233.723 197.059 231.338 199.462 229.697C200.726 228.835 202.253 228.137 203.803 228.068C205.958 227.971 208.267 228.675 209.861 230.157Q210.153 230.432 210.417 230.735Q210.68 231.038 210.911 231.366Q211.143 231.693 211.34 232.043Q211.537 232.392 211.698 232.76Q211.859 233.127 211.983 233.509Q212.106 233.891 212.19 234.284Q212.274 234.676 212.319 235.075Q212.363 235.474 212.367 235.875C212.397 237.728 211.754 239.497 210.731 241.024C209.128 243.418 206.38 245.618 204.334 247.656Q197.859 254.089 191.457 260.594C193.339 262.377 195.645 264.475 196.206 267.106C196.665 269.258 196.344 271.575 195.125 273.426Q194.89 273.785 194.619 274.118Q194.348 274.451 194.044 274.754Q193.74 275.057 193.406 275.327Q193.072 275.596 192.711 275.829Q192.351 276.062 191.968 276.257Q191.585 276.451 191.184 276.605Q190.783 276.758 190.369 276.869Q189.954 276.98 189.53 277.047C187.134 277.435 185.127 276.623 183.223 275.216C179.58 272.526 176.333 268.653 173.126 265.426L155.558 247.833L126.198 218.46C121.35 213.615 116.127 208.922 111.572 203.815C110.231 202.312 108.965 200.809 108.691 198.744C108.34 196.098 109.121 193.926 110.719 191.859C113.348 188.46 116.794 185.475 119.852 182.459L136.143 166.379L151.304 151.301C153.864 148.754 156.422 145.78 159.29 143.595C161.056 142.249 162.375 141.61 164.61 141.33Z"/>
	<path fill="#C89F23" transform="matrix(1.31055 0 0 1.31055 -6.10352e-05 -7.62939e-06)" d="M362.181 142.097Q364.364 141.884 366.557 141.928Q368.75 141.973 370.923 142.276Q373.096 142.579 375.217 143.135Q377.339 143.691 379.381 144.493Q380.227 144.83 381.055 145.208Q381.884 145.586 382.693 146.004Q383.501 146.421 384.289 146.878Q385.077 147.335 385.841 147.83Q386.605 148.324 387.345 148.856Q388.084 149.387 388.796 149.954Q389.509 150.521 390.193 151.121Q390.877 151.722 391.531 152.356Q392.185 152.989 392.807 153.654Q393.429 154.319 394.018 155.013Q394.607 155.707 395.162 156.429Q395.716 157.151 396.235 157.9Q396.753 158.648 397.235 159.421Q397.716 160.194 398.16 160.989Q398.603 161.784 399.007 162.6Q399.41 163.416 399.774 164.251Q400.132 165.097 400.448 165.959Q400.764 166.821 401.038 167.697Q401.312 168.574 401.543 169.462Q401.774 170.351 401.961 171.25Q402.148 172.149 402.292 173.056Q402.435 173.963 402.534 174.876Q402.633 175.789 402.688 176.705Q402.742 177.622 402.752 178.54Q402.762 179.458 402.727 180.376Q402.692 181.294 402.613 182.208Q402.533 183.123 402.409 184.033Q402.285 184.943 402.117 185.846Q401.949 186.748 401.738 187.642Q401.526 188.535 401.271 189.417Q401.016 190.3 400.718 191.168Q400.421 192.037 400.081 192.89C398.227 197.449 395.637 201.151 392.328 204.761C387.358 210.183 381.933 215.294 376.73 220.497L348.643 248.585L262.647 334.584L214.654 382.565L201.796 395.455C199.188 398.084 196.599 401.097 193.633 403.307C190.601 405.567 181.387 408.928 177.48 410.598L141.377 426.004C135.034 428.716 128.733 431.575 122.345 434.174C119.798 435.21 116.569 436.104 113.941 434.859C112.042 433.959 110.091 431.934 109.457 429.906C108.985 428.398 109.031 426.913 109.471 425.409C110.686 421.259 112.691 417.224 114.39 413.243L123.139 392.777L134.216 366.834C136.343 361.85 138.31 356.684 140.785 351.864C141.057 351.334 141.31 350.896 141.688 350.433C144.756 346.67 148.655 343.263 152.093 339.828L172.766 319.175L239.453 252.476L308.146 183.763L329.149 162.758C333.571 158.337 337.898 153.594 342.794 149.693C348.363 145.255 355.138 142.799 362.181 142.097ZM324.34 190.984C317.498 197.254 311.068 204.079 304.502 210.645L268.86 246.289L159.416 355.738L179.838 376.164C182.567 378.888 185.949 382.943 189.012 385.071C200.03 373.718 211.352 362.638 222.536 351.448L285.083 288.901L329.677 244.323C337.679 236.324 345.546 228.065 353.79 220.321C347.42 213.403 340.505 206.868 333.853 200.214C331.462 197.822 326.835 192.527 324.34 190.984ZM363.043 158.582C354.483 159.611 349.7 165.397 343.94 171.178C341.275 173.854 338.414 176.49 335.991 179.386C339.07 182.128 341.922 185.148 344.837 188.065C350.821 194.052 356.733 200.135 362.82 206.015C363.706 206.889 364.573 207.777 365.545 208.557Q370.339 203.62 375.24 198.788C381.26 192.802 386.634 187.668 386.447 178.527Q386.437 178.015 386.402 177.505Q386.367 176.994 386.306 176.486Q386.246 175.978 386.16 175.474Q386.074 174.969 385.964 174.47Q385.853 173.97 385.718 173.477Q385.583 172.983 385.424 172.497Q385.264 172.011 385.081 171.533Q384.898 171.055 384.691 170.587Q384.484 170.119 384.254 169.662Q384.025 169.205 383.772 168.76Q383.52 168.314 383.246 167.882Q382.972 167.45 382.678 167.032Q382.383 166.614 382.067 166.211Q381.752 165.808 381.417 165.421Q381.082 165.034 380.728 164.664Q380.375 164.295 380.003 163.943C375.822 159.951 370.609 158.199 364.876 158.425Q363.956 158.468 363.043 158.582ZM150.404 370.324C149.026 374.346 147.132 378.284 145.46 382.199C141.239 392.084 136.686 401.944 132.848 411.978C138.555 409.091 144.657 407.001 150.44 404.277C158.432 400.937 166.703 397.743 174.484 393.96C171.312 390.703 152.528 371.256 150.404 370.324Z"/>
	<path fill="#C89F23" transform="matrix(1.31055 0 0 1.31055 -6.10352e-05 -7.62939e-06)" d="M0 0L512 0L512 31.2846L512 360.978C510.724 363.691 509.322 366.072 506.35 367.194C504.358 367.947 502.142 367.778 500.244 366.832C498.269 365.847 496.852 364.104 496.2 362.005C494.979 358.07 495.601 342.167 495.604 337.265L495.612 297.525L495.596 106.417Q472.28 106.178 448.962 106.282L374.669 106.281L150.505 106.284L56.1519 106.283L28.4725 106.293C24.5291 106.305 20.1758 106.813 16.293 106.313C16.5969 128.718 16.2889 151.174 16.2885 173.585L16.2892 309.273L16.2938 416.005C16.2944 434.314 16.6701 452.712 16.2527 471.01C33.625 471.49 51.0955 471.139 68.4785 471.137L162.585 471.13L495.704 471.158C495.316 466.208 495.591 461.063 495.6 456.09L495.608 429.207L495.601 405.366C495.6 401.203 495.306 396.824 495.744 392.692C495.985 390.411 496.245 388.532 497.834 386.755C499.302 385.112 501.342 384.215 503.541 384.192C505.736 384.169 507.873 384.823 509.433 386.411C510.673 387.672 511.355 389.172 512 390.783L512 480.917L512 512L0 512L0 481.197L0 30.8232L0 0ZM16.3148 40.9668L16.2939 72.5199C16.2965 78.2456 16.4591 84.0254 16.2265 89.7434C41.8096 90.1357 67.4354 89.8392 93.0224 89.836L232.261 89.8295L288.899 89.8309C298.704 89.8316 308.65 89.4622 318.433 89.916C318.689 84.8848 318.573 79.8071 318.573 74.7689C318.573 63.5257 318.371 52.2465 318.584 41.0074L108.734 40.9428L46.0434 40.9456L26.0604 40.9615C22.8351 40.9671 19.5304 41.1541 16.3148 40.9668ZM0 0L0 30.8232C1.35307 28.4203 2.62733 25.8929 5.48466 25.0596C10.0352 23.7326 27.3948 24.4558 33.3693 24.4581L84.6042 24.4487L324.669 24.4471L446.032 24.4472L484.703 24.4466C490.641 24.4464 497.598 24.007 503.403 24.5129C505.017 24.6537 506.624 25.0041 508.022 25.8568C510.111 27.1307 511.092 29.1222 512 31.2846L512 0L0 0ZM0 481.197L0 512L512 512L512 480.917C510.663 483.525 509.315 486.01 506.352 487.034C502.33 488.424 476.735 487.749 470.541 487.748L411.902 487.745L126.245 487.744L47.1978 487.743L22.8601 487.771C18.4915 487.784 13.9863 488.045 9.63708 487.735C7.73591 487.599 5.80052 487.193 4.12128 486.263C1.73531 484.943 1.3622 483.292 0 481.197ZM335.03 40.8721L334.996 89.8608C339.999 89.6132 345.08 89.8278 350.093 89.8295L379.055 89.8318L457.659 89.8325C470.263 89.8337 482.921 90.0914 495.519 89.864L495.625 41.0097L383.454 40.9476L351.212 40.9591C345.924 40.9653 340.264 41.4101 335.03 40.8721Z"/>
	<path fill="#C89F23" transform="matrix(1.31055 0 0 1.31055 -6.10352e-05 -7.62939e-06)" d="M459.845 56.8152C461.74 56.8774 463.486 57.2027 465.101 58.258C467.028 59.5179 468.288 61.559 468.662 63.8212Q468.735 64.2516 468.766 64.6872Q468.796 65.1228 468.784 65.5592Q468.771 65.9957 468.716 66.4288Q468.66 66.8619 468.562 67.2874Q468.464 67.7129 468.325 68.1267Q468.185 68.5405 468.006 68.9385Q467.827 69.3366 467.609 69.715Q467.391 70.0935 467.137 70.4486C465.566 72.6264 463.446 73.5547 460.895 74.0252C458.704 73.9234 456.842 73.588 455.022 72.2449Q454.688 71.9996 454.381 71.7222Q454.073 71.4447 453.795 71.1379Q453.517 70.8311 453.271 70.498Q453.024 70.1649 452.813 69.8089Q452.601 69.4528 452.426 69.0774Q452.251 68.702 452.115 68.3109Q451.978 67.9199 451.882 67.5171Q451.785 67.1144 451.729 66.704Q451.666 66.2677 451.646 65.8273Q451.627 65.3869 451.65 64.9467Q451.674 64.5065 451.742 64.0708Q451.809 63.6352 451.92 63.2083Q452.03 62.7815 452.182 62.3676Q452.334 61.9538 452.526 61.557Q452.718 61.1602 452.948 60.7843Q453.179 60.4085 453.445 60.0573C455.109 57.8919 457.252 57.1422 459.845 56.8152Z"/>
	<path fill="#C89F23" transform="matrix(1.31055 0 0 1.31055 -6.10352e-05 -7.62939e-06)" d="M370.269 56.8238C372.171 56.7895 374.054 57.1703 375.679 58.1979Q376.024 58.4184 376.345 58.672Q376.666 58.9257 376.96 59.21Q377.254 59.4943 377.519 59.8064Q377.783 60.1186 378.015 60.4555Q378.248 60.7925 378.445 61.1508Q378.643 61.5091 378.804 61.8853Q378.964 62.2615 379.087 62.6519Q379.21 63.0422 379.293 63.4428Q379.388 63.8718 379.439 64.3083Q379.491 64.7448 379.497 65.1842Q379.504 65.6236 379.466 66.0615Q379.429 66.4993 379.347 66.9311Q379.265 67.3628 379.14 67.7841Q379.014 68.2053 378.847 68.6117Q378.68 69.0181 378.472 69.4055Q378.265 69.7928 378.019 70.1572C376.486 72.4192 374.396 73.4394 371.814 73.9963C369.527 73.9695 367.652 73.6491 365.77 72.2579Q365.433 72.0117 365.122 71.7334Q364.811 71.4552 364.53 71.1476Q364.248 70.8399 363.998 70.5059Q363.748 70.172 363.532 69.8149Q363.316 69.4578 363.136 69.0812Q362.957 68.7045 362.816 68.312Q362.674 67.9195 362.572 67.5149Q362.47 67.1103 362.409 66.6976Q362.346 66.2619 362.327 65.8222Q362.307 65.3825 362.331 64.943Q362.355 64.5035 362.422 64.0685Q362.489 63.6334 362.598 63.2071Q362.707 62.7807 362.858 62.3672Q363.009 61.9536 363.199 61.5569Q363.39 61.1602 363.619 60.7841Q363.847 60.4081 364.112 60.0563C365.703 57.9671 367.77 57.1904 370.269 56.8238Z"/>
	<path fill="#C89F23" transform="matrix(1.31055 0 0 1.31055 -6.10352e-05 -7.62939e-06)" d="M415.035 56.8271C416.78 56.7922 418.513 57.1257 420.035 58.011Q420.392 58.2203 420.725 58.464Q421.059 58.7077 421.367 58.9835Q421.675 59.2593 421.954 59.5644Q422.233 59.8695 422.481 60.2008Q422.728 60.5322 422.941 60.8865Q423.154 61.2409 423.33 61.6147Q423.507 61.9885 423.645 62.378Q423.784 62.7675 423.883 63.1689Q423.99 63.5958 424.055 64.0313Q424.119 64.4669 424.14 64.9066Q424.16 65.3464 424.137 65.786Q424.113 66.2256 424.046 66.6607Q423.979 67.0958 423.869 67.522Q423.759 67.9482 423.607 68.3614Q423.454 68.7745 423.262 69.1703Q423.069 69.5662 422.838 69.9409C421.344 72.3458 419.166 73.4277 416.491 73.986C414.21 73.9852 412.275 73.6579 410.394 72.279Q410.064 72.0388 409.759 71.7671Q409.454 71.4954 409.178 71.1947Q408.901 70.8941 408.656 70.5675Q408.411 70.241 408.2 69.8917Q407.988 69.5424 407.812 69.1739Q407.636 68.8054 407.498 68.4212Q407.359 68.037 407.26 67.6411Q407.16 67.245 407.1 66.8411C406.747 64.4972 407.334 61.9547 408.775 60.0608C410.406 57.9173 412.476 57.1589 415.035 56.8271Z"/>
</svg>
