<?xml version="1.0" encoding="utf-8" ?>
<svg xmlns="http://www.w3.org/2000/svg" xmlns:xlink="http://www.w3.org/1999/xlink" width="671" height="671">
	<path fill="#C89F23" transform="matrix(1.31055 0 0 1.31055 0 -7.62939e-06)" d="M99.2008 444.085C100.751 444.053 102.218 444.281 103.625 444.965C105.203 445.732 106.787 447.126 107.317 448.851C107.705 450.118 107.873 451.557 107.955 452.876C108.377 459.649 108.037 466.622 108.034 473.425C108.032 479.542 108.401 485.92 107.904 492.012C107.789 493.429 107.615 494.718 106.886 495.971C105.572 498.229 103.568 499.341 101.115 499.995C99.0139 500.033 97.151 499.735 95.3412 498.58C93.622 497.482 92.8173 496.114 92.4183 494.163C91.7819 491.052 91.9981 487.727 91.9951 484.562L91.9858 471.578C91.9835 465.154 91.4827 457.202 92.2126 451.015C92.3818 449.581 92.712 448.456 93.5402 447.253C94.933 445.23 96.9085 444.52 99.2008 444.085Z"/>
	<path fill="#C89F23" transform="matrix(1.31055 0 0 1.31055 0 -7.62939e-06)" d="M278.7 204.085C284.946 203.702 291.47 203.962 297.698 204.574Q299.65 204.774 301.593 205.041Q303.537 205.308 305.47 205.641Q307.404 205.974 309.325 206.372Q311.246 206.771 313.152 207.235Q315.058 207.7 316.947 208.229Q318.836 208.758 320.707 209.351Q322.577 209.944 324.425 210.601Q326.274 211.258 328.099 211.978Q329.924 212.697 331.724 213.479Q333.523 214.26 335.295 215.103Q337.067 215.945 338.809 216.848Q340.551 217.75 342.261 218.712Q343.971 219.674 345.647 220.693Q347.323 221.712 348.964 222.788Q350.604 223.864 352.207 224.996Q353.81 226.127 355.373 227.313C358.951 230.017 362.962 233.079 365.814 236.55C360.003 237.549 355.066 240.598 350.389 244.029C348.527 242.477 346.691 240.89 344.68 239.532C328.584 226.651 306.116 220.233 285.752 220.104L264.235 220.052C260.646 220.029 256.924 220.226 253.366 219.802L252.995 219.756C259.671 217.485 266.435 212.698 272.148 208.649C274.262 207.151 276.264 205.025 278.7 204.085Z"/>
	<path fill="#C89F23" transform="matrix(1.31055 0 0 1.31055 0 -7.62939e-06)" d="M174.204 229.21C179.279 230.388 184.635 231.082 189.82 231.545C186.081 253.096 181.643 274.57 177.514 296.051C175.778 305.077 173.599 314.214 172.352 323.305C172.167 324.652 171.963 326.121 172.285 327.456C172.685 329.113 173.628 330.604 174.678 331.922C176.339 334.007 196.174 354.215 198.031 355.264C199.071 355.851 200.236 356.06 201.394 355.708C203.386 355.102 221.978 335.955 224.595 333.048C225.5 332.043 226.427 330.917 227.054 329.715C227.974 327.95 227.832 325.586 227.544 323.669C226.765 318.488 225.171 313.236 223.981 308.124L216.78 277.141L209.871 247.368C208.693 242.266 207.814 236.909 206.2 231.935C211.571 231.226 216.972 230.749 222.349 230.024C223.043 234.529 224.405 239.113 225.443 243.565L237.55 295.607L241.382 312.091C242.156 315.422 243.095 318.796 243.548 322.187C244.001 325.572 243.979 329.047 243.11 332.367Q242.811 333.491 242.406 334.582Q242.002 335.673 241.496 336.721Q240.991 337.769 240.388 338.765Q239.786 339.76 239.092 340.694C235.892 345.022 231.45 348.784 227.672 352.623C223.079 357.291 218.607 362.357 213.731 366.712Q212.033 368.257 210.045 369.406C205.322 372.108 199.564 372.637 194.351 371.164C191.998 370.499 189.935 369.457 187.996 367.973C183.801 364.766 180.087 360.377 176.372 356.62C171.703 351.899 166.659 347.262 162.338 342.227C161.121 340.81 160.064 339.34 159.169 337.699Q158.766 336.959 158.413 336.193Q158.061 335.427 157.76 334.639Q157.46 333.851 157.213 333.045Q156.967 332.239 156.775 331.418Q156.583 330.597 156.446 329.765Q156.31 328.933 156.23 328.094Q156.149 327.255 156.126 326.412Q156.102 325.569 156.135 324.727C156.332 318.912 157.974 312.824 159.071 307.107L164.943 276.557L170.824 245.847C171.869 240.362 172.602 234.546 174.204 229.21Z"/>
	<path fill="#C89F23" transform="matrix(1.31055 0 0 1.31055 0 -7.62939e-06)" d="M0 309.865C0.0577447 309.727 0.118304 309.591 0.173234 309.453C1.39869 306.364 1.28134 302.022 1.81517 298.712C2.53616 294.241 3.652 289.715 4.91604 285.366Q5.32049 283.944 5.76253 282.533Q6.20458 281.122 6.6839 279.723Q7.16323 278.324 7.6795 276.938Q8.19577 275.553 8.74862 274.181Q9.30147 272.81 9.89052 271.453Q10.4796 270.097 11.1044 268.757Q11.7292 267.417 12.3894 266.094Q13.0495 264.771 13.7445 263.465Q14.4396 262.16 15.169 260.874Q15.8984 259.588 16.6617 258.321Q17.425 257.055 18.2216 255.809Q19.0182 254.563 19.8476 253.339Q20.677 252.115 21.5385 250.913Q22.4001 249.712 23.2933 248.533Q24.1864 247.355 25.1105 246.2Q26.0346 245.046 26.989 243.916Q27.9434 242.787 28.9275 241.683Q29.9115 240.58 30.9245 239.502Q31.9375 238.425 32.9787 237.375Q34.0199 236.325 35.0885 235.303Q36.1572 234.281 37.2527 233.288Q38.3481 232.295 39.4695 231.331Q40.5909 230.367 41.7374 229.434Q42.884 228.5 44.0549 227.597Q45.2259 226.694 46.4204 225.822Q47.6148 224.951 48.832 224.111Q50.0492 223.271 51.2882 222.464Q52.5273 221.657 53.7873 220.884Q55.0473 220.11 56.3274 219.37Q57.6075 218.629 58.9068 217.923Q60.2061 217.217 61.5236 216.546Q62.8412 215.875 64.1761 215.239Q66.9762 213.93 69.8403 212.767Q72.7044 211.604 75.6248 210.591Q78.5453 209.578 81.5142 208.718Q84.4832 207.858 87.4927 207.152Q90.5022 206.447 93.5442 205.898Q96.5862 205.349 99.6525 204.958Q102.719 204.567 105.801 204.336Q108.884 204.105 111.974 204.033C114.984 203.938 118.803 203.525 121.688 204.475C123.333 205.016 129.609 209.997 131.701 211.363C136.644 214.592 141.622 217.48 146.953 220.016Q136.164 219.993 125.376 220.085C117.531 220.114 109.815 220.073 102.006 220.989Q100.014 221.214 98.0326 221.522Q96.0514 221.829 94.0846 222.218Q92.1179 222.608 90.169 223.078Q88.2201 223.549 86.2924 224.1Q84.3647 224.651 82.4615 225.281Q80.5583 225.912 78.6829 226.621Q76.8074 227.33 74.963 228.116Q73.1187 228.902 71.3084 229.764Q69.4982 230.625 67.7253 231.562Q65.9524 232.498 64.2198 233.507Q62.4873 234.516 60.798 235.596Q59.1088 236.675 57.4658 237.824Q55.8228 238.973 54.2289 240.19Q52.635 241.406 51.0929 242.687Q49.5507 243.968 48.0631 245.312Q46.5754 246.656 45.1448 248.061C24.8408 268.168 16.1073 294.285 16.0101 322.462L16.0171 438.677L16.0174 474.143C16.018 480.045 16.4474 486.244 15.8826 492.104C15.666 494.352 15.2104 496.142 13.5155 497.755Q13.2191 498.036 12.8961 498.287Q12.5732 498.538 12.2269 498.755Q11.8806 498.972 11.5145 499.154Q11.1483 499.335 10.7659 499.48Q10.3835 499.624 9.98861 499.73Q9.59374 499.835 9.19033 499.901Q8.78691 499.967 8.37895 499.992Q7.971 500.017 7.56254 500.002C5.3406 499.915 3.41354 498.962 1.97269 497.275C1.17453 496.34 0.673976 495.212 0 494.191L0 309.865Z"/>
	<path fill="#C89F23" transform="matrix(1.31055 0 0 1.31055 0 -7.62939e-06)" d="M190.649 0L208.641 0C211.872 1.23757 216.629 1.16571 220.138 1.86432Q224.044 2.63298 227.884 3.67827Q231.725 4.72356 235.482 6.04014Q239.238 7.35673 242.891 8.93791Q246.544 10.5191 250.075 12.3568Q251.252 12.9713 252.414 13.6147Q253.576 14.2581 254.721 14.9299Q255.867 15.6018 256.995 16.3017Q258.124 17.0016 259.235 17.7292Q260.346 18.4567 261.439 19.2115Q262.531 19.9663 263.605 20.7478Q264.679 21.5293 265.733 22.337Q266.787 23.1448 267.821 23.9784Q268.855 24.8119 269.868 25.6707Q270.881 26.5295 271.872 27.413Q272.863 28.2966 273.833 29.2043Q274.802 30.1121 275.749 31.0435Q276.695 31.9749 277.619 32.9293Q278.542 33.8838 279.442 34.8608Q280.341 35.8378 281.216 36.8367Q282.091 37.8355 282.942 38.8557Q283.792 39.8759 284.617 40.9167Q285.441 41.9576 286.24 43.0185Q287.039 44.0794 287.811 45.1597Q288.584 46.2399 289.329 47.339Q290.075 48.438 290.793 49.5551Q291.511 50.6722 292.202 51.8066Q292.892 52.9411 293.554 54.0923Q294.216 55.2434 294.85 56.4106Q295.483 57.5778 296.088 58.7602Q296.692 59.9426 297.267 61.1396Q297.843 62.3366 298.388 63.5475Q298.933 64.7583 299.449 65.9822Q299.964 67.2062 300.449 68.4424Q300.934 69.6787 301.389 70.9266Q301.843 72.1744 302.266 73.4331Q302.69 74.6918 303.082 75.9606Q303.475 77.2219 303.836 78.4924Q304.198 79.763 304.528 81.042Q304.859 82.321 305.158 83.6077Q305.457 84.8944 305.724 86.188Q305.991 87.4816 306.227 88.7814Q306.463 90.0812 306.667 91.3864Q306.87 92.6915 307.042 94.0013Q307.214 95.3111 307.354 96.6247Q307.493 97.9382 307.601 99.2548Q307.708 100.571 307.784 101.89Q307.859 103.209 307.902 104.529Q307.945 105.85 307.956 107.171Q307.966 108.492 307.945 109.812Q307.923 111.133 307.869 112.453Q307.815 113.773 307.729 115.091Q307.642 116.409 307.524 117.725Q307.405 119.041 307.254 120.353Q307.104 121.665 306.921 122.974Q306.738 124.282 306.524 125.585Q306.309 126.889 306.062 128.187Q305.816 129.484 305.537 130.776Q305.259 132.067 304.949 133.351Q304.64 134.635 304.299 135.911Q303.957 137.188 303.585 138.455Q303.213 139.723 302.81 140.981Q302.407 142.239 301.973 143.486Q301.539 144.734 301.075 145.971Q300.611 147.207 300.116 148.432Q299.622 149.657 299.098 150.87Q298.574 152.083 298.02 153.282Q297.466 154.481 296.884 155.667Q296.301 156.852 295.689 158.023Q295.066 159.206 294.414 160.373Q293.761 161.54 293.081 162.691Q292.4 163.842 291.692 164.976Q290.983 166.11 290.247 167.226Q289.511 168.342 288.748 169.439Q287.984 170.537 287.194 171.616Q286.404 172.694 285.588 173.753Q284.772 174.812 283.93 175.851Q283.088 176.89 282.221 177.907Q281.354 178.925 280.462 179.921Q279.57 180.917 278.654 181.891Q277.738 182.865 276.799 183.816Q275.859 184.768 274.896 185.695Q273.934 186.623 272.949 187.527Q271.964 188.431 270.957 189.311Q269.95 190.19 268.921 191.045Q267.893 191.9 266.844 192.729Q265.795 193.558 264.727 194.361Q263.658 195.164 262.569 195.941Q261.481 196.718 260.374 197.467Q259.267 198.217 258.142 198.94Q257.017 199.662 255.875 200.357Q254.732 201.051 253.573 201.718Q252.414 202.384 251.239 203.022Q250.064 203.66 248.873 204.268Q247.683 204.877 246.478 205.456Q245.273 206.036 244.054 206.586Q242.836 207.135 241.604 207.655Q240.372 208.174 239.127 208.664Q237.883 209.153 236.627 209.612Q235.371 210.07 234.105 210.498Q232.838 210.926 231.561 211.322Q230.298 211.709 229.025 212.065Q227.753 212.422 226.472 212.747Q225.191 213.071 223.902 213.365Q222.614 213.658 221.319 213.92Q220.023 214.181 218.722 214.411Q217.421 214.641 216.114 214.839Q214.808 215.037 213.497 215.202Q212.186 215.368 210.871 215.502Q209.556 215.635 208.239 215.736Q206.921 215.838 205.601 215.906Q204.282 215.975 202.961 216.012Q201.64 216.048 200.319 216.052Q198.997 216.056 197.676 216.028Q196.355 216 195.035 215.939Q193.715 215.878 192.397 215.785Q191.078 215.692 189.763 215.566Q188.447 215.441 187.135 215.283Q185.823 215.126 184.516 214.936Q183.208 214.746 181.905 214.524Q180.603 214.303 179.306 214.049Q178.009 213.795 176.719 213.51Q175.428 213.224 174.146 212.907Q172.863 212.59 171.588 212.242Q170.313 211.894 169.048 211.514Q167.782 211.135 166.526 210.724Q165.27 210.314 164.024 209.872Q162.778 209.431 161.544 208.96Q160.31 208.488 159.087 207.986Q157.865 207.485 156.655 206.953Q155.445 206.422 154.248 205.861Q153.052 205.3 151.87 204.709Q150.687 204.119 149.52 203.5Q148.345 202.879 147.186 202.229Q146.027 201.579 144.884 200.901Q143.741 200.223 142.615 199.517Q141.489 198.811 140.381 198.077Q139.273 197.344 138.183 196.583Q137.093 195.823 136.023 195.036Q134.952 194.249 133.901 193.435Q132.85 192.622 131.819 191.783Q130.788 190.945 129.778 190.081Q128.769 189.217 127.78 188.328Q126.792 187.44 125.826 186.527Q124.86 185.615 123.917 184.679Q122.973 183.743 122.053 182.784Q121.133 181.825 120.237 180.843Q119.341 179.862 118.469 178.859Q117.597 177.856 116.75 176.832Q115.903 175.808 115.082 174.763Q114.261 173.718 113.465 172.654Q112.67 171.589 111.901 170.506Q111.132 169.422 110.39 168.319Q109.647 167.217 108.933 166.097Q108.218 164.976 107.531 163.839Q106.844 162.701 106.185 161.547Q105.526 160.393 104.896 159.223Q104.266 158.053 103.664 156.868Q103.063 155.683 102.491 154.483Q101.919 153.284 101.377 152.07Q100.835 150.857 100.322 149.631Q99.81 148.405 99.328 147.166Q98.8461 145.928 98.3947 144.678Q97.9434 143.428 97.5229 142.167Q97.1024 140.907 96.7131 139.636Q96.3255 138.364 95.9693 137.083Q95.613 135.803 95.2883 134.513Q94.9637 133.224 94.6707 131.927Q94.3778 130.63 94.1168 129.327Q93.8559 128.023 93.627 126.714Q93.3981 125.404 93.2014 124.089Q93.0048 122.774 92.8405 121.455Q92.6762 120.136 92.5443 118.813Q92.4125 117.49 92.3131 116.164Q92.2138 114.838 92.1471 113.51Q92.0803 112.183 92.0462 110.854Q92.0121 109.525 92.0107 108.195Q92.0092 106.866 92.0404 105.537Q92.0716 104.207 92.1354 102.879Q92.1992 101.551 92.2957 100.226Q92.3921 98.8996 92.521 97.5763Q92.65 96.2531 92.8114 94.9335Q92.9728 93.6138 93.1666 92.2985Q93.3604 90.9833 93.5864 89.6731Q93.8124 88.363 94.0705 87.0588Q94.3286 85.7546 94.6187 84.4572Q94.9088 83.1597 95.2306 81.8698Q95.5525 80.5799 95.9059 79.2982Q96.2593 78.0166 96.6441 76.744Q97.0289 75.4714 97.4449 74.2087Q97.8608 72.946 98.3077 71.6938Q98.7545 70.4417 99.2319 69.2009Q99.7094 67.9601 100.217 66.7314Q100.725 65.5027 101.263 64.2868Q101.8 63.071 102.368 61.8687Q102.935 60.6664 103.532 59.4784Q104.129 58.2905 104.755 57.1175Q105.38 55.9377 106.035 54.7738Q106.69 53.6098 107.373 52.4626Q108.057 51.3153 108.768 50.1854Q109.48 49.0555 110.22 47.9437Q110.959 46.8318 111.726 45.7387Q112.493 44.6456 113.287 43.5719Q114.081 42.4982 114.902 41.4446Q115.722 40.391 116.569 39.3582Q117.415 38.3253 118.287 37.3138Q119.159 36.3023 120.056 35.3128Q120.952 34.3234 121.873 33.3565Q122.794 32.3896 123.739 31.446Q124.684 30.5023 125.652 29.5825Q126.62 28.6626 127.611 27.7671Q128.602 26.8716 129.614 26.0011Q130.627 25.1305 131.661 24.2854Q132.695 23.4403 133.749 22.6212Q134.804 21.8021 135.879 21.0094Q136.953 20.2168 138.047 19.4512Q139.141 18.6855 140.254 17.9473Q141.367 17.2091 142.498 16.4989Q143.629 15.7886 144.777 15.1067Q145.925 14.4247 147.09 13.7716Q148.254 13.1184 149.435 12.4945Q150.616 11.8705 151.811 11.2761Q153.007 10.6817 154.217 10.1172Q155.428 9.55274 156.652 9.01855Q157.875 8.48436 159.112 7.98078Q160.349 7.47721 161.598 7.00455Q162.847 6.5319 164.107 6.09046Q165.367 5.64903 166.638 5.23908Q167.909 4.82914 169.19 4.45094C172.874 3.35423 176.702 2.36558 180.491 1.72374C183.727 1.17571 187.309 1.06335 190.426 0.0748101C190.501 0.0510497 190.575 0.0249367 190.649 0ZM198.806 16.1188Q197.66 16.1318 196.515 16.1734Q195.37 16.215 194.226 16.2851Q193.082 16.3553 191.94 16.454Q190.798 16.5528 189.66 16.68Q188.521 16.8072 187.385 16.9628Q186.25 17.1185 185.119 17.3024Q183.988 17.4863 182.861 17.6985Q181.735 17.9106 180.615 18.1508Q179.494 18.391 178.38 18.6591Q177.266 18.9272 176.159 19.2231Q175.052 19.5189 173.952 19.8424Q172.853 20.1658 171.762 20.5166Q170.671 20.8673 169.589 21.2453Q168.507 21.6232 167.435 22.028Q166.363 22.4328 165.301 22.8643Q164.239 23.2958 163.189 23.7537Q162.138 24.2115 161.1 24.6955Q160.061 25.1794 159.034 25.6892Q158.008 26.1989 156.995 26.7342Q155.981 27.2694 154.982 27.8298Q153.982 28.3902 152.997 28.9753Q152.011 29.5605 151.041 30.1701Q150.071 30.7797 149.116 31.4134Q148.161 32.047 147.222 32.7043Q146.283 33.3616 145.361 34.0422Q144.439 34.7227 143.535 35.4261Q142.63 36.1294 141.743 36.8552Q140.856 37.5809 139.988 38.3286Q139.119 39.0763 138.269 39.8454Q137.42 40.6145 136.59 41.4046Q135.76 42.1947 134.95 43.0053Q134.14 43.8159 133.35 44.6465Q132.575 45.4589 131.821 46.29Q131.066 47.1211 130.332 47.9705Q129.598 48.8199 128.885 49.687Q128.172 50.5541 127.481 51.4384Q126.79 52.3227 126.12 53.2236Q125.45 54.1246 124.803 55.0417Q124.156 55.9588 123.531 56.8915Q122.906 57.8242 122.305 58.7719Q121.703 59.7196 121.125 60.6818Q120.547 61.644 119.992 62.6201Q119.438 63.5961 118.907 64.5854Q118.377 65.5748 117.871 66.5768Q117.365 67.5789 116.884 68.593Q116.403 69.6071 115.946 70.6328Q115.49 71.6584 115.059 72.6949Q114.628 73.7314 114.222 74.7782Q113.817 75.8249 113.437 76.8813Q113.057 77.9376 112.704 79.003Q112.35 80.0683 112.022 81.142Q111.695 82.2157 111.394 83.2971Q111.093 84.3786 110.818 85.467Q110.544 86.5555 110.296 87.6503Q110.048 88.7452 109.827 89.8458Q109.606 90.9464 109.412 92.052Q109.219 93.1577 109.052 94.2678Q108.885 95.3779 108.746 96.4918Q108.606 97.6056 108.494 98.7226Q108.382 99.8395 108.297 100.959Q108.212 102.078 108.155 103.199Q108.098 104.32 108.068 105.443Q108.038 106.565 108.036 107.687Q108.034 108.81 108.059 109.932Q108.083 111.062 108.135 112.192Q108.187 113.322 108.266 114.449Q108.346 115.577 108.453 116.703Q108.561 117.829 108.695 118.951Q108.83 120.074 108.993 121.193Q109.155 122.312 109.345 123.426Q109.535 124.541 109.752 125.651Q109.969 126.76 110.214 127.864Q110.458 128.968 110.73 130.066Q111.001 131.164 111.299 132.254Q111.598 133.345 111.923 134.428Q112.248 135.511 112.599 136.586Q112.951 137.66 113.328 138.726Q113.706 139.792 114.11 140.848Q114.514 141.904 114.944 142.95Q115.373 143.996 115.829 145.031Q116.284 146.066 116.764 147.089Q117.245 148.113 117.75 149.124Q118.256 150.136 118.786 151.134Q119.316 152.133 119.871 153.118Q120.426 154.104 121.004 155.075Q121.583 156.047 122.185 157.003Q122.787 157.96 123.413 158.902Q124.039 159.844 124.687 160.77Q125.336 161.696 126.007 162.606Q126.678 163.516 127.372 164.41Q128.065 165.303 128.78 166.179Q129.495 167.055 130.231 167.913Q130.968 168.771 131.725 169.611Q132.482 170.45 133.259 171.271Q134.037 172.092 134.835 172.894Q135.632 173.695 136.449 174.477Q137.258 175.251 138.086 176.004Q138.915 176.758 139.761 177.491Q140.607 178.225 141.471 178.937Q142.335 179.649 143.216 180.341Q144.097 181.032 144.994 181.701Q145.892 182.371 146.805 183.018Q147.719 183.665 148.648 184.29Q149.577 184.915 150.521 185.517Q151.465 186.119 152.424 186.698Q153.383 187.276 154.355 187.832Q155.327 188.387 156.313 188.918Q157.298 189.45 158.297 189.957Q159.295 190.464 160.305 190.946Q161.316 191.429 162.338 191.887Q163.359 192.345 164.392 192.777Q165.425 193.21 166.468 193.618Q167.511 194.025 168.563 194.407Q169.616 194.789 170.678 195.145Q171.739 195.501 172.809 195.831Q173.879 196.161 174.957 196.465Q176.034 196.769 177.119 197.046Q178.204 197.324 179.295 197.575Q180.386 197.826 181.483 198.05Q182.58 198.274 183.683 198.471Q184.785 198.669 185.891 198.839Q186.998 199.01 188.109 199.153Q189.219 199.297 190.333 199.413Q191.446 199.529 192.563 199.618Q193.679 199.707 194.797 199.769Q195.915 199.831 197.034 199.865Q198.153 199.9 199.273 199.907Q200.392 199.914 201.512 199.894C227.525 198.942 250.202 189.014 267.96 169.851Q268.708 169.031 269.435 168.193Q270.163 167.355 270.87 166.5Q271.577 165.645 272.263 164.773Q272.95 163.901 273.615 163.013Q274.28 162.124 274.923 161.22Q275.566 160.316 276.188 159.397Q276.809 158.478 277.408 157.543Q278.007 156.609 278.584 155.661Q279.16 154.713 279.713 153.751Q280.266 152.789 280.796 151.814Q281.326 150.839 281.832 149.852Q282.338 148.864 282.821 147.865Q283.303 146.865 283.761 145.855Q284.219 144.844 284.652 143.822Q285.086 142.801 285.494 141.769Q285.903 140.737 286.286 139.696Q286.67 138.655 287.028 137.605Q287.387 136.554 287.72 135.496Q288.052 134.437 288.36 133.371Q288.667 132.305 288.948 131.231Q289.23 130.158 289.485 129.078Q289.741 127.998 289.97 126.913Q290.199 125.827 290.402 124.736Q290.605 123.645 290.782 122.55Q290.958 121.454 291.109 120.355Q291.259 119.255 291.382 118.152Q291.506 117.05 291.603 115.944Q291.7 114.839 291.77 113.731Q291.84 112.624 291.883 111.515Q291.927 110.406 291.944 109.297Q291.96 108.187 291.95 107.078Q291.94 105.968 291.903 104.859Q291.862 103.713 291.793 102.568Q291.724 101.423 291.626 100.281Q291.528 99.1381 291.402 97.9982Q291.276 96.8583 291.121 95.7219Q290.967 94.5856 290.784 93.4534Q290.601 92.3212 290.39 91.1939Q290.18 90.0666 289.941 88.9449Q289.702 87.8232 289.435 86.7078Q289.168 85.5924 288.874 84.484Q288.58 83.3756 288.258 82.2748Q287.936 81.1741 287.587 80.0816Q287.238 78.9892 286.862 77.9059Q286.485 76.8225 286.082 75.7488Q285.679 74.6751 285.25 73.6118Q284.82 72.5485 284.364 71.4962Q283.908 70.4439 283.426 69.4033Q282.944 68.3626 282.436 67.3343Q281.929 66.306 281.396 65.2906Q280.862 64.2753 280.304 63.2735Q279.746 62.2717 279.163 61.2841Q278.58 60.2966 277.972 59.3238Q277.365 58.351 276.733 57.3937Q276.102 56.4363 275.447 55.495Q274.792 54.5537 274.113 53.6289Q273.435 52.7042 272.734 51.7966Q272.033 50.889 271.31 49.9992Q270.586 49.1093 269.841 48.2377Q269.095 47.3662 268.328 46.5134Q267.562 45.6606 266.774 44.8272Q265.986 43.9938 265.178 43.1803Q264.369 42.3667 263.541 41.5735Q262.713 40.7803 261.865 40.008C244.704 24.1584 222.027 16.0845 198.806 16.1188Z"/>
	<path fill="#C89F23" transform="matrix(1.31055 0 0 1.31055 0 -7.62939e-06)" d="M324.896 397.649C324.4 397.214 323.903 396.774 323.442 396.301C319.37 392.115 317.389 385.744 317.07 380.02C316.853 376.134 317.144 372.231 316.452 368.378C314.829 359.346 306.183 354.828 304.392 343.201C303.387 336.671 305.851 329.605 309.561 324.277C311.847 320.996 314.553 317.895 315.83 314.041C317.123 310.137 316.893 305.875 316.993 301.82C317.283 290.019 322.808 281.216 334.018 277.004C338.105 275.468 342.527 274.583 346.174 272.062C351.144 268.626 353.805 262.52 358.211 258.373C365.554 251.46 374.216 250.179 383.756 252.989C388.082 254.263 392.373 255.983 396.964 255.726C404.466 255.307 409.992 251.276 418.438 251.612C426.077 251.916 432.765 256.33 437.329 262.309C439.939 265.728 442.249 269.748 445.907 272.175C448.419 273.842 451.233 274.751 454.063 275.712C459.67 277.616 465.088 279.997 469.139 284.501C473.063 288.863 474.808 295.366 474.991 301.124C475.104 304.672 474.84 308.313 475.51 311.818C476.525 317.132 480.313 320.967 483.133 325.38C485.256 328.7 486.822 332.53 487.524 336.414C488.698 342.903 486.247 350.086 482.582 355.411C480.325 358.691 477.541 361.795 476.235 365.617C474.688 370.141 475.234 374.982 474.946 379.67C474.534 386.37 472.201 393.051 467.105 397.583C470.599 403.362 474.656 408.918 478.448 414.512L499.318 445.302C502.748 450.365 508.677 458.096 511.122 463.423L512 465.305L512 470.001L512 512L458.454 512L453.087 512L338.746 512L333.531 512C331.961 511.021 330.214 510.402 328.693 509.296C327.127 508.157 326.059 506.707 325.322 504.924C323.913 501.52 323.497 497.432 322.809 493.813C321.741 488.199 320.612 482.584 319.711 476.94C313.767 476.954 305.191 478.377 299.061 479.053C296.431 479.344 293.611 479.855 290.969 479.583C289.146 479.395 287.499 478.885 285.915 477.953C283.146 476.326 281.043 473.668 280.342 470.509C279.849 468.289 279.992 465.473 280.865 463.361C282.038 460.523 284.177 457.848 285.896 455.305L293.638 443.866L324.896 397.649ZM372.796 267.763C368.284 269.238 364.902 275.731 361.892 279.23C359.896 281.548 357.669 283.749 355.15 285.497C352.876 287.075 350.42 288.249 347.839 289.238C343.653 290.843 336.527 292.057 334.271 296.333C332.374 299.928 333.034 305.302 332.824 309.277C332.66 312.402 332.32 315.564 331.364 318.554C328.771 326.666 321.947 332.028 319.994 340.224C322.622 348.283 328.656 353.036 331.224 360.991C333.711 368.692 331.87 376.753 334.33 384.345C338.516 388.207 343.464 388.95 348.56 390.957C351.688 392.188 354.549 393.891 357.206 395.942C358.857 397.217 360.304 398.565 361.635 400.176C364.467 403.599 367.309 409.19 371.148 411.438C372.413 412.179 373.839 412.31 375.277 412.246C378.067 412.122 380.815 411.152 383.462 410.34C387.628 409.062 391.994 407.961 396.383 408.063C404.453 408.251 411.439 412.503 419.142 412.247C423.297 411.071 427.585 403.431 430.357 400.157Q433.075 396.989 436.443 394.523C438.515 393.03 440.975 391.85 443.353 390.937C447.584 389.312 455.101 388.175 457.493 383.968C457.561 383.848 457.627 383.725 457.689 383.601C460.095 378.817 458.478 368.142 460.539 361.632C463.116 353.494 469.766 348.105 471.917 339.988C469.672 331.95 463.166 326.56 460.581 318.595C458.445 312.015 460.09 301.087 457.738 296.386C457.026 294.964 455.828 293.992 454.468 293.212C448.499 289.789 441.619 289.337 435.627 284.713C433.401 282.995 431.361 280.881 429.581 278.711C426.591 275.067 423.95 270.22 419.766 267.877C418.019 267.89 416.245 267.863 414.518 268.15C407.998 269.233 402.898 272.027 395.938 271.972C387.899 271.908 380.743 267.816 372.796 267.763ZM338.746 512L453.087 512C451.141 510.79 449.037 510.228 447.371 508.537C444.014 505.126 439.564 497.566 436.617 493.251L408.758 452.637L401.023 441.337C399.395 438.963 397.822 436.296 395.837 434.213L360.754 485.333L350.778 499.935C348.889 502.703 347.061 505.802 344.796 508.27C343.123 510.093 341.131 510.642 339.076 511.81L338.746 512ZM339.37 404.882C326.368 424.124 313.021 443.196 300.349 462.654L313.852 461.175C317.253 460.797 320.972 460.089 324.39 460.545Q325.226 460.649 326.039 460.868Q326.852 461.087 327.627 461.416Q328.401 461.745 329.123 462.179Q329.845 462.612 330.5 463.141C331.988 464.354 333.078 465.875 333.834 467.635C335.207 470.832 337.35 488.16 338.634 489.101C338.942 488.856 339.127 488.653 339.339 488.32C353.018 468.028 366.829 447.727 380.923 427.72C373.783 429.084 368.139 428.77 361.991 424.598Q360.05 423.261 358.315 421.665Q356.58 420.069 355.085 418.247C350.373 412.517 347.338 406.451 339.37 404.882ZM452.238 405.005C449.761 405.822 447.48 406.634 445.371 408.207C441.974 410.74 439.812 414.449 437.237 417.734C430.187 426.726 422.186 429.921 411.063 427.716C415.894 434.143 420.246 441.035 424.795 447.671L452.941 488.631L453.483 488.934C454.298 488.197 454.378 486.108 454.565 484.988C455.107 481.746 455.769 478.537 456.362 475.305C458.013 466.321 460.111 459.841 471.092 460.458C477.905 460.842 484.814 461.891 491.602 462.668C482.314 448.352 472.496 434.329 462.923 420.201L455.454 409.177C454.695 408.056 453.813 406.272 452.86 405.352C452.632 405.133 452.501 405.106 452.238 405.005ZM512 470.001C510.385 473.706 508.509 477.227 504.487 478.793C502.961 479.388 501.148 479.608 499.513 479.593C494.853 479.549 489.957 478.654 485.3 478.171C481.077 477.733 476.535 477.634 472.396 476.794L469.282 493.15C468.532 497.089 468.122 501.667 466.432 505.322C465.587 507.149 464.383 508.558 462.716 509.691C461.364 510.61 459.781 511.119 458.454 512L512 512L512 470.001Z"/>
	<path fill="#C89F23" transform="matrix(1.31055 0 0 1.31055 0 -7.62939e-06)" d="M395.625 462.844C395.685 462.851 395.746 462.85 395.804 462.865C396.936 463.152 398.202 465.238 398.801 466.263C399.407 467.3 399.842 468.3 399.98 469.499C400.295 472.226 400.26 491.585 399.51 494.16C398.907 496.233 397.611 498.182 395.668 499.207C393.533 500.333 391.072 500.123 388.854 499.407Q387.995 498.958 387.202 498.402C385.481 497.194 384.501 495.491 384.176 493.428C383.749 490.712 383.581 482.258 384.355 479.836C385.406 476.549 393.21 466.306 395.625 462.844Z"/>
	<path fill="#C89F23" transform="matrix(1.31055 0 0 1.31055 0 -7.62939e-06)" d="M393.125 292.097C405.448 291.603 417.134 295.214 426.696 303.109Q427.609 303.87 428.483 304.674Q429.357 305.479 430.19 306.326Q431.023 307.174 431.813 308.061Q432.603 308.948 433.348 309.873Q434.093 310.799 434.792 311.76Q435.49 312.721 436.141 313.715Q436.791 314.71 437.391 315.735Q437.991 316.76 438.54 317.814Q439.088 318.868 439.584 319.948Q440.08 321.027 440.522 322.13Q440.963 323.233 441.35 324.357Q441.737 325.48 442.068 326.621Q442.398 327.762 442.672 328.918Q442.946 330.075 443.162 331.243Q443.378 332.411 443.536 333.589Q443.694 334.766 443.794 335.95Q443.893 337.128 443.934 338.309Q443.975 339.491 443.957 340.672Q443.94 341.854 443.865 343.034Q443.789 344.213 443.656 345.388Q443.523 346.562 443.332 347.729Q443.141 348.895 442.893 350.051Q442.645 351.207 442.341 352.349Q442.036 353.491 441.676 354.617Q441.315 355.742 440.9 356.849Q440.485 357.956 440.016 359.041Q439.547 360.126 439.025 361.186Q438.503 362.247 437.929 363.28Q437.356 364.314 436.732 365.318Q436.108 366.322 435.436 367.294Q434.764 368.267 434.045 369.205Q433.326 370.143 432.561 371.044C424.174 381.003 412.134 386.892 399.23 387.959C386.59 388.283 375.156 385.037 365.32 376.871Q364.416 376.123 363.551 375.332Q362.685 374.541 361.859 373.708Q361.033 372.875 360.249 372.003Q359.466 371.13 358.726 370.22Q357.986 369.31 357.292 368.365Q356.597 367.42 355.95 366.441Q355.303 365.463 354.705 364.454Q354.108 363.445 353.56 362.408Q353.012 361.371 352.516 360.308Q352.021 359.245 351.578 358.159Q351.135 357.073 350.746 355.966Q350.357 354.86 350.022 353.736Q349.688 352.611 349.41 351.472Q349.132 350.333 348.91 349.181Q348.688 348.029 348.523 346.868Q348.358 345.707 348.25 344.539Q348.137 343.338 348.083 342.132Q348.03 340.926 348.036 339.719Q348.043 338.513 348.11 337.308Q348.177 336.103 348.304 334.903Q348.431 333.703 348.618 332.51Q348.805 331.318 349.051 330.137Q349.297 328.955 349.602 327.788Q349.906 326.62 350.269 325.469Q350.632 324.318 351.051 323.186Q351.471 322.055 351.946 320.945Q352.422 319.836 352.952 318.752Q353.482 317.668 354.066 316.612Q354.65 315.556 355.285 314.53Q355.921 313.504 356.607 312.511Q357.293 311.518 358.028 310.561Q358.762 309.604 359.544 308.684C368.047 298.554 380.109 293.188 393.125 292.097ZM393.106 308.336C384.126 309.378 376.534 313.027 370.852 320.228Q370.368 320.85 369.915 321.495Q369.462 322.139 369.04 322.805Q368.619 323.471 368.231 324.157Q367.843 324.843 367.488 325.547Q367.134 326.251 366.814 326.971Q366.494 327.691 366.21 328.426Q365.926 329.161 365.678 329.909Q365.43 330.657 365.219 331.417Q365.008 332.176 364.834 332.945Q364.659 333.713 364.523 334.489Q364.387 335.266 364.288 336.047Q364.19 336.829 364.13 337.615Q364.07 338.401 364.048 339.189Q364.026 339.976 364.043 340.764Q364.06 341.552 364.115 342.338Q364.17 343.124 364.263 343.907Q364.359 344.687 364.493 345.462Q364.627 346.236 364.799 347.003Q364.971 347.77 365.181 348.527Q365.39 349.285 365.636 350.031Q365.883 350.778 366.165 351.511Q366.448 352.245 366.766 352.963Q367.085 353.682 367.438 354.384Q367.791 355.086 368.178 355.77Q368.565 356.454 368.986 357.118Q369.406 357.783 369.858 358.425Q370.311 359.068 370.794 359.688Q371.277 360.307 371.791 360.903Q372.304 361.498 372.846 362.068Q373.387 362.637 373.956 363.179Q374.526 363.721 375.121 364.235Q375.716 364.748 376.335 365.232C382.928 370.369 391.036 372.487 399.315 371.754C408.455 370.46 416.232 366.301 421.806 358.81Q422.268 358.179 422.698 357.526Q423.128 356.873 423.525 356.199Q423.923 355.526 424.286 354.834Q424.65 354.141 424.979 353.432Q425.309 352.723 425.603 351.998Q425.896 351.273 426.154 350.535Q426.412 349.797 426.634 349.047Q426.855 348.297 427.039 347.537Q427.223 346.777 427.369 346.009Q427.516 345.241 427.624 344.466Q427.732 343.692 427.803 342.913Q427.873 342.134 427.905 341.353Q427.936 340.572 427.929 339.79Q427.923 339.008 427.877 338.227Q427.832 337.446 427.748 336.669Q427.665 335.891 427.543 335.119Q427.424 334.335 427.265 333.558Q427.107 332.78 426.91 332.012Q426.714 331.243 426.479 330.486Q426.244 329.728 425.972 328.983Q425.7 328.238 425.391 327.507Q425.082 326.777 424.738 326.062Q424.393 325.348 424.013 324.652Q423.633 323.956 423.219 323.279Q422.805 322.602 422.357 321.947Q421.91 321.292 421.431 320.66Q420.952 320.028 420.441 319.421Q419.931 318.813 419.392 318.232Q418.852 317.651 418.284 317.097Q417.716 316.544 417.121 316.019Q416.526 315.494 415.906 315Q415.286 314.505 414.642 314.042C408.766 309.796 400.374 307.206 393.106 308.336Z"/>
</svg>
