<?xml version="1.0" encoding="utf-8" ?>
<svg xmlns="http://www.w3.org/2000/svg" xmlns:xlink="http://www.w3.org/1999/xlink" width="1026" height="683">
	<path fill="#FEFEFE" transform="matrix(0.667969 0 0 0.668297 0 -7.62939e-06)" d="M0 0L1534.69 0C1535.22 0.834055 1535.6 1.62774 1535.79 2.61043C1536.72 7.32233 1536 13.7279 1536 18.6181L1536 55.1776L1536.01 199.516L1536 748.576L1536 953.875L1535.99 1001.09C1535.99 1006.61 1536.97 1014.17 1535.79 1019.39C1535.57 1020.36 1535.21 1021.17 1534.69 1022L0 1022L0 0Z"/>
	<path transform="matrix(0.667969 0 0 0.668297 0 -7.62939e-06)" d="M996.766 788.013C1009.99 787.657 1023.29 787.961 1036.52 787.972C1036.66 788.423 1036.68 788.445 1036.77 788.972C1037.57 793.49 1029.45 812.582 1026.61 816.679C1026.93 821.417 993.929 906.575 989.301 919.243L945.04 919.258C929.717 875.117 911.394 831.913 895.517 787.954L937.808 787.959C940.801 795.681 942.814 803.998 945.215 811.93C949.063 824.646 953.327 837.225 957.197 849.936C960.545 860.929 963.445 872.281 967.642 882.979C971.943 872.178 974.647 860.332 978.053 849.177L996.766 788.013Z"/>
	<path transform="matrix(0.667969 0 0 0.668297 0 -7.62939e-06)" d="M488.428 787.871C501.097 787.278 514.025 787.786 526.718 787.783C540.78 787.779 556.175 786.573 569.998 789.16C576.467 790.371 582.721 792.586 587.722 796.987C595.829 804.122 599.709 813.929 600.273 824.562C600.93 836.952 598.221 848.369 589.629 857.651C579.936 868.123 566.185 869.947 552.654 870.475L529.167 870.512L529.063 919.261L488.388 919.316L488.428 787.871Z"/>
	<path fill="#FEFEFE" transform="matrix(0.667969 0 0 0.668297 0 -7.62939e-06)" d="M529.337 814.912C538.354 814.813 549.268 813.708 556.756 819.822C559.013 821.665 560.908 824.065 561.084 827.076C561.352 831.646 558.637 836.546 555.644 839.798C547.589 844.523 538.273 843.857 529.256 843.962C529.426 834.286 529.317 824.59 529.337 814.912Z"/>
	<path transform="matrix(0.667969 0 0 0.668297 0 -7.62939e-06)" d="M355.382 787.662L401.574 787.629C414.128 787.628 427.532 786.716 439.826 789.524C445.734 790.873 450.946 793.23 455.483 797.308C463.749 804.736 466.997 814.961 467.401 825.831C467.83 837.378 465.269 849.026 457.15 857.638C446.922 868.486 432.717 870.349 418.564 870.634L396.724 870.637L396.757 919.432L355.193 919.485C355.789 875.559 354.484 831.579 355.382 787.662Z"/>
	<path fill="#FEFEFE" transform="matrix(0.667969 0 0 0.668297 0 -7.62939e-06)" d="M396.732 814.891C406.103 814.788 416.527 813.867 424.305 820.179C426.518 821.974 428.345 824.213 428.531 827.16C428.817 831.682 426.061 836.049 423.134 839.231C415.049 844.608 406.086 843.878 396.745 843.998L396.732 814.891Z"/>
	<path transform="matrix(0.667969 0 0 0.668297 0 -7.62939e-06)" d="M1050.6 788.414C1060.93 786.462 1073.82 787.887 1084.41 787.892L1158.97 787.925C1159.33 788.659 1159.78 789.428 1159.99 790.222C1161.28 795.019 1161.54 811.715 1158.96 815.909L1090.79 815.917C1091.25 816.681 1091.57 817.204 1091.77 818.082C1092.7 822.151 1092.93 833.196 1090.74 836.871L1154.45 836.943C1154.51 837.061 1154.57 837.18 1154.63 837.296C1155.08 838.135 1155.4 838.859 1155.58 839.81C1156.46 844.635 1157.04 859.604 1154.41 863.75L1097.06 863.749C1096.29 863.722 1095.32 863.61 1094.57 863.76C1089.2 864.826 1093.79 885.187 1090.76 890L1161.11 890.133C1161.41 890.623 1161.72 891.174 1161.9 891.719C1163.22 895.738 1163.1 915.934 1161.18 919.26L1050.09 919.225C1050.16 919.084 1050.24 918.945 1050.31 918.8C1051.03 917.311 1051.25 915.971 1051.31 914.341C1052.26 890.206 1051.41 865.706 1051.41 841.537C1051.4 831.686 1052.8 795.522 1050.6 788.414Z"/>
	<path transform="matrix(0.667969 0 0 0.668297 0 -7.62939e-06)" d="M247.839 787.678L292.641 787.664C308.313 831.863 325.904 875.46 342.14 919.467L298.949 919.473L292.889 898.125C277.424 897.824 261.902 898.087 246.43 898.077C244.538 905.177 243.035 912.699 240.091 919.439L198.148 919.548C205.863 900.233 212.723 880.494 220.048 861.025C229.25 836.562 238.831 812.21 247.839 787.678Z"/>
	<path fill="#FEFEFE" transform="matrix(0.667969 0 0 0.668297 0 -7.62939e-06)" d="M269.321 823.018C273.948 829.648 281.015 859.362 283.8 869.062L270.375 869.058L255.651 869.038C261.133 854.251 264.888 838.197 269.321 823.018Z"/>
	<path transform="matrix(0.667969 0 0 0.668297 0 -7.62939e-06)" d="M622.707 787.923C643.386 787.901 707.966 785.059 723.957 792.868Q724.647 793.21 725.319 793.585Q725.991 793.96 726.645 794.367Q727.298 794.774 727.931 795.212Q728.564 795.65 729.174 796.118Q729.785 796.587 730.372 797.084Q730.96 797.582 731.522 798.107Q732.085 798.633 732.621 799.185Q733.157 799.737 733.666 800.314Q734.175 800.892 734.655 801.494Q735.135 802.095 735.586 802.719Q736.036 803.343 736.456 803.989Q736.875 804.634 737.263 805.299Q737.651 805.963 738.006 806.646Q738.361 807.329 738.682 808.028Q739.004 808.728 739.291 809.442Q739.578 810.156 739.83 810.883C743.049 820.248 742.631 831.988 738.243 840.913C732.475 852.646 722.12 857.527 710.408 861.556C713.684 863.08 717.433 864.454 720.319 866.635C736.309 878.718 741.828 903.071 752.682 919.271L729.375 919.244L707.061 919.24C697.344 905.445 689.649 882.155 679.045 870.703C674.733 866.046 669.608 866.2 663.698 865.897L663.712 919.256L622.689 919.248L622.707 787.923Z"/>
	<path fill="#FEFEFE" transform="matrix(0.667969 0 0 0.668297 0 -7.62939e-06)" d="M664.015 814.602C674.158 814.595 690.12 812.625 698.383 819.636C700.08 821.075 701.261 822.823 701.435 825.077C701.765 829.335 699.102 834.115 696.369 837.188C687.42 842.159 674.032 840.819 663.982 840.847L664.015 814.602Z"/>
	<path transform="matrix(0.667969 0 0 0.668297 0 -7.62939e-06)" d="M1185.29 788.429C1196.04 786.475 1254.9 787.441 1266.37 789.93C1279.17 792.71 1289.22 799.788 1296.32 810.896C1307.81 828.885 1309.11 856.795 1304.57 877.246C1302.45 886.784 1298.18 898.234 1289.5 903.682C1289.21 905.083 1287.79 906.277 1286.8 907.271C1272.22 921.826 1240.7 919.244 1221.87 919.25L1184.64 919.229C1184.79 918.96 1184.96 918.697 1185.11 918.421C1186.15 916.444 1186.84 793.757 1185.29 788.429Z"/>
	<path fill="#FEFEFE" transform="matrix(0.667969 0 0 0.668297 0 -7.62939e-06)" d="M1225.64 818.423C1231.18 817.239 1239.14 817.354 1244.74 818.314C1251.16 819.416 1256.9 822.324 1260.67 827.768C1267.86 838.137 1267.32 858.508 1264.89 870.603C1263.96 875.213 1262.86 879.644 1258.74 882.388C1258.54 883.331 1258.06 883.8 1257.37 884.453C1250.45 891.089 1234.24 889.343 1225.15 889.318C1225.29 889.08 1225.45 888.85 1225.59 888.605C1227.15 885.769 1226.91 823.087 1225.64 818.423Z"/>
	<path transform="matrix(0.667969 0 0 0.668297 0 -7.62939e-06)" d="M817.02 786.102C833.457 784.396 853.384 786.851 867.311 796.133C880.843 805.152 889.57 819.463 892.684 835.345C896.645 855.542 894.06 879.654 882.314 896.817C870.744 913.721 854.26 918.304 835.225 921.84C817.651 923.839 794.161 919.446 780.3 908.308C766.602 897.301 759.736 881.225 757.952 864.106C755.873 844.153 759.147 823.092 772.214 807.231C783.723 793.262 799.531 787.792 817.02 786.102Z"/>
	<path fill="#FEFEFE" transform="matrix(0.667969 0 0 0.668297 0 -7.62939e-06)" d="M822.833 816.728C829.018 816.391 835.098 817.212 840.414 820.575C846.815 824.625 850.282 831.247 851.872 838.488C854.497 850.443 854.272 870.454 847.454 880.844C843.351 887.098 836.078 889.882 829.07 891.424C822.576 891.699 816.293 890.58 810.839 886.868C804.062 882.256 800.83 875.079 799.452 867.204C797.285 854.824 797.4 837.083 804.892 826.56C809.498 820.09 815.255 817.972 822.833 816.728Z"/>
	<path transform="matrix(0.667969 0 0 0.668297 0 -7.62939e-06)" d="M1037.46 606.955C1050.32 605.417 1064.57 606.598 1077.59 606.603L1158.39 606.637L1426.31 606.607C1426.33 606.965 1426.39 607.528 1426.33 607.912C1425.73 611.686 1403.83 647.562 1400.88 649.717C1400.63 653.19 1388.33 672.381 1385.73 674.817C1317.08 675.688 1248.33 674.927 1179.66 674.867C1132.08 674.824 1084.32 675.9 1036.76 674.804C1036.83 674.68 1036.91 674.559 1036.99 674.431C1038.8 671.137 1038.64 611.361 1037.46 606.955Z"/>
	<path transform="matrix(0.667969 0 0 0.668297 0 -7.62939e-06)" d="M161.913 434.862L408.055 434.905L408.11 500.5L230.813 500.55L228.807 500.901C226.866 504.214 228.287 654.865 228.318 675.254C206.266 674.356 183.774 674.961 161.695 675.275C160.819 595.182 161.742 514.966 161.913 434.862Z"/>
	<path transform="matrix(0.667969 0 0 0.668297 0 -7.62939e-06)" d="M1131.71 109.388C1155.59 108.627 1179.66 109.181 1203.55 109.214C1204.88 110.173 1205.75 111.111 1206.63 112.473C1228.11 145.44 1248.07 179.642 1268.73 213.142L1389.01 407.787C1396.95 420.659 1467.66 532.983 1468.5 537.379C1468.54 537.601 1468.53 537.829 1468.54 538.054C1467.8 542.532 1446.18 577.371 1442.63 580.191C1442.38 584.761 1431.18 602.24 1427.37 605.578C1427.25 605.678 1427.13 605.767 1427.01 605.862C1426.97 604.011 1426.27 602.952 1425.36 601.376C1404.64 565.41 1382.87 529.963 1361.66 494.274L1215.39 247.941L1152.61 142.278C1148.32 135.123 1138.45 115.492 1133.25 110.628C1132.76 110.169 1132.26 109.771 1131.71 109.388Z"/>
	<path transform="matrix(0.667969 0 0 0.668297 0 -7.62939e-06)" d="M1131.51 176.579L1132.98 177.187C1143.9 192.36 1153.13 209.414 1162.89 225.38L1215.24 310.408L1321.15 482.696C1339.43 512.464 1358.12 542.034 1376.06 572.005C1377.53 574.459 1379.34 576.661 1379.29 579.611C1340.84 579.106 1302.32 579.582 1263.86 579.58L1036.73 579.574C1037.25 578.743 1037.61 577.932 1037.82 576.968C1038.98 571.832 1038.55 524.95 1037.91 517.691C1037.79 516.396 1037.39 515.339 1036.73 514.219L1259.21 514.143C1259.21 513.891 1259.21 513.639 1259.2 513.388C1259.08 510.772 1255.31 505.672 1253.94 503.377C1231.6 465.879 1208.37 428.774 1185.38 391.663C1180.02 383.025 1166.4 357.472 1159.99 352.039C1160.06 351.536 1160.11 351.412 1159.99 350.844C1159.12 346.774 1138.73 314.731 1135.25 310.08C1134.09 308.531 1132.81 307.294 1131.22 306.187C1131.34 311.102 941.846 638.414 922.271 674.879C892.516 675.907 860.07 675.42 830.254 674.763C841.133 655.464 853.198 636.629 864.742 617.706L914.606 535.463L1059.47 296.565L1113.11 208.05C1118.8 198.584 1128.2 186.683 1131.51 176.579Z"/>
	<path transform="matrix(0.667969 0 0 0.668297 0 -7.62939e-06)" d="M161.793 199.54L508.546 199.827L601.05 199.926C631.016 199.96 661.149 198.466 690.626 204.885Q693.841 205.618 697.03 206.46Q700.219 207.301 703.377 208.251Q706.535 209.2 709.659 210.257Q712.784 211.313 715.87 212.475Q718.957 213.637 722.002 214.902Q725.047 216.168 728.047 217.537Q731.048 218.906 734 220.376Q736.952 221.845 739.852 223.415Q742.753 224.984 745.598 226.651Q748.444 228.318 751.231 230.08Q754.018 231.843 756.744 233.699Q759.469 235.555 762.13 237.503Q764.791 239.451 767.385 241.488Q769.978 243.525 772.5 245.649Q775.023 247.773 777.472 249.981Q779.921 252.19 782.293 254.48C819.085 290.443 838.068 339.3 838.456 390.447Q838.493 392.749 838.472 395.051Q838.452 397.354 838.374 399.655Q838.296 401.956 838.161 404.254Q838.026 406.553 837.834 408.847Q837.641 411.142 837.392 413.431Q837.143 415.719 836.837 418.001Q836.531 420.284 836.168 422.557Q835.805 424.831 835.386 427.095Q834.967 429.359 834.491 431.612Q834.016 433.864 833.484 436.105Q832.953 438.345 832.366 440.571Q831.779 442.798 831.137 445.009Q830.495 447.22 829.798 449.414Q829.101 451.609 828.349 453.785Q827.598 455.962 826.793 458.119Q825.988 460.276 825.129 462.412Q824.27 464.549 823.359 466.663Q822.447 468.777 821.483 470.869Q820.519 472.96 819.503 475.026Q818.488 477.092 817.421 479.133Q816.354 481.174 815.237 483.187Q814.12 485.2 812.953 487.185Q811.786 489.17 810.57 491.126Q809.354 493.081 808.09 495.005Q806.826 496.93 805.514 498.822Q804.202 500.715 802.844 502.574Q801.485 504.433 800.081 506.258Q798.677 508.083 797.228 509.872Q795.779 511.662 794.285 513.415Q792.792 515.167 791.256 516.883Q789.719 518.598 788.141 520.274Q786.562 521.95 784.942 523.587C754.375 554.33 714.447 574.834 671.089 578.827C652.567 580.533 633.545 579.636 614.934 579.644L524.302 579.649L524.401 338.265L592.168 338.295C593.01 378.132 592.281 418.172 592.291 458.028L592.3 514.129L637.111 514.203C647.238 514.208 657.497 514.527 667.567 513.246C693.698 509.921 717.058 495.056 735.417 476.762Q736.485 475.698 737.527 474.608Q738.569 473.518 739.585 472.403Q740.6 471.288 741.588 470.149Q742.575 469.009 743.535 467.846Q744.495 466.683 745.426 465.497Q746.357 464.311 747.259 463.102Q748.161 461.894 749.033 460.664Q749.905 459.434 750.747 458.183Q751.589 456.932 752.4 455.661Q753.211 454.39 753.991 453.099Q754.771 451.809 755.519 450.5Q756.267 449.191 756.984 447.864Q757.7 446.537 758.383 445.193Q759.067 443.849 759.718 442.489Q760.368 441.128 760.986 439.753Q761.603 438.377 762.187 436.987Q762.77 435.597 763.32 434.193Q763.869 432.788 764.385 431.371Q764.9 429.954 765.38 428.525Q765.861 427.096 766.306 425.655Q766.752 424.215 767.162 422.764Q767.572 421.313 767.947 419.853Q768.322 418.392 768.661 416.923Q769 415.454 769.304 413.977Q769.607 412.5 769.874 411.016Q770.141 409.532 770.372 408.042Q770.603 406.552 770.797 405.057Q770.992 403.562 771.15 402.063Q771.308 400.563 771.429 399.06Q771.551 397.557 771.636 396.052Q771.72 394.547 771.769 393.04Q771.817 391.533 771.828 390.025C771.85 357.377 758.956 327.507 735.864 304.497C718.305 287.001 694.076 273.218 669.716 268.149C649.597 263.964 628.158 265.362 607.704 265.366L527.191 265.414L228.112 265.48L228.065 338.205L408.048 338.296L408.068 406.079L161.832 406.096C162.541 337.278 161.831 268.366 161.793 199.54Z"/>
	<path transform="matrix(0.667969 0 0 0.668297 0 -7.62939e-06)" d="M76.2438 108.752L477.379 109.134L589.389 109.153C627.67 109.148 667.27 107.781 704.932 115.761C758.991 127.216 806.266 149.929 845.65 189.317C874.036 217.706 897.035 254.641 910.762 292.353C915.293 304.802 918.159 317.781 922.574 330.238C935.983 309.409 1059.78 112.598 1060.39 109.188C1069.75 109.173 1127.19 107.911 1131.71 109.388C1126.17 120.502 1119.54 131.076 1113.33 141.831L1084.6 191.671L1015.06 311.718L946.319 429.577C915.948 482.002 886.005 536.26 844.668 580.988C811.336 617.055 770.046 646.034 723.286 661.706C677.185 677.157 629.379 674.565 581.62 675.039L432.742 675.039L432.863 338.269C454.699 338.273 476.568 338.036 498.401 338.303L498.598 606.545L597.871 606.614C619.735 606.622 642.393 607.846 664.13 605.79C714.904 600.988 765.969 575.781 801.944 539.86C842.826 499.04 862.307 444.47 862.19 387.213C862.073 330.285 842.176 279.875 801.644 239.679C770.664 208.956 716.909 181.462 673.303 175.972C657.111 173.933 640.499 174.677 624.204 174.687L551.25 174.764L140.064 175.13L140.17 675.336C118.932 675.111 97.3888 674.63 76.173 675.428L76.0796 305.055L76.082 175.972C76.083 153.67 75.284 131.02 76.2438 108.752Z"/>
</svg>
