<?xml version="1.0" encoding="utf-8" ?>
<svg xmlns="http://www.w3.org/2000/svg" xmlns:xlink="http://www.w3.org/1999/xlink" width="763" height="763">
	<path fill="#C89F23" transform="matrix(1.49023 0 0 1.49023 -6.10352e-05 -7.62939e-06)" d="M225.947 8.11662Q229.042 8.02735 232.138 8.02439Q235.234 8.02143 238.33 8.1048Q241.425 8.18816 244.516 8.35778Q247.608 8.5274 250.694 8.78315Q253.779 9.03889 256.857 9.38056Q259.934 9.72222 263.001 10.1495Q266.067 10.5769 269.121 11.0895Q272.174 11.6022 275.212 12.1998Q278.25 12.7973 281.271 13.4794Q284.291 14.1614 287.291 14.9274Q290.291 15.6934 293.268 16.5427Q296.246 17.392 299.199 18.324Q302.151 19.256 305.077 20.27Q308.002 21.2839 310.898 22.379Q313.794 23.4741 316.659 24.6495Q319.523 25.825 322.354 27.0798Q324.902 28.2093 327.42 29.4015Q329.939 30.5936 332.428 31.8478Q334.916 33.102 337.373 34.4174Q339.83 35.7328 342.253 37.1086Q344.676 38.4844 347.065 39.9197Q349.454 41.3551 351.806 42.8492Q354.158 44.3432 356.473 45.8951Q358.788 47.4469 361.063 49.0555Q363.339 50.6642 365.574 52.3287Q367.809 53.9932 370.002 55.7125Q372.195 57.4318 374.345 59.2048Q376.495 60.9779 378.6 62.8036Q380.705 64.6294 382.765 66.5067Q384.824 68.384 386.837 70.3117Q388.849 72.2394 390.813 74.2163Q392.777 76.1932 394.692 78.2182Q396.606 80.2431 398.47 82.3148Q400.334 84.3865 402.146 86.5038Q403.957 88.621 405.716 90.7824Q407.475 92.9438 409.18 95.1481Q410.885 97.3524 412.535 99.5982Q414.185 101.844 415.779 104.13Q417.372 106.416 418.909 108.741Q420.446 111.065 421.924 113.428Q423.403 115.79 424.823 118.188Q426.242 120.585 427.602 123.018Q428.962 125.45 430.262 127.915Q431.561 130.381 432.799 132.877Q434.037 135.374 435.212 137.901Q436.388 140.427 437.501 142.982Q438.614 145.537 439.663 148.119Q440.712 150.7 441.697 153.307Q442.658 155.863 443.556 158.442Q444.454 161.021 445.289 163.621Q446.124 166.221 446.895 168.84Q447.666 171.46 448.373 174.097Q449.08 176.735 449.722 179.389Q450.364 182.043 450.941 184.712Q451.519 187.381 452.03 190.064Q452.542 192.746 452.989 195.44Q453.435 198.134 453.815 200.838Q454.195 203.542 454.509 206.255Q454.824 208.967 455.071 211.687Q455.319 214.406 455.501 217.131Q455.682 219.855 455.797 222.584Q455.911 225.312 455.959 228.042Q456.007 230.773 455.989 233.503Q455.97 236.234 455.885 238.963Q455.799 241.693 455.647 244.419Q455.495 247.146 455.277 249.868Q455.058 252.589 454.774 255.305Q454.489 258.021 454.138 260.729Q453.786 263.437 453.369 266.136Q452.952 268.834 452.469 271.522Q451.986 274.21 451.438 276.885Q450.889 279.56 450.275 282.221Q449.662 284.882 448.983 287.527Q448.305 290.172 447.562 292.8Q446.819 295.427 446.012 298.036Q445.206 300.645 444.335 303.233Q443.465 305.822 442.532 308.388Q441.599 310.954 440.603 313.497Q439.607 316.04 438.55 318.557Q437.493 321.075 436.374 323.566C441.383 329.911 445.774 336.238 449.098 343.645C458.328 364.216 457.811 385.831 449.89 406.675C454.044 410.549 458.006 414.676 462.033 418.684C464.709 421.347 467.857 424.024 470.105 427.056C471.032 428.307 471.935 429.853 471.992 431.445C472.128 435.222 469.746 437.529 467.378 440.084L488.772 461.434C492.953 465.608 498.15 469.887 501.288 474.881C502.895 477.437 503.759 480.555 503.931 483.563Q503.958 484.042 503.962 484.522Q503.966 485.002 503.945 485.481Q503.925 485.96 503.881 486.438Q503.837 486.916 503.769 487.391Q503.701 487.866 503.609 488.337Q503.518 488.808 503.403 489.274Q503.288 489.74 503.15 490.199Q503.012 490.659 502.851 491.111Q502.691 491.563 502.508 492.007Q502.325 492.45 502.12 492.884Q501.915 493.318 501.688 493.741Q501.462 494.164 501.215 494.575Q500.968 494.987 500.701 495.385Q500.433 495.784 500.147 496.168Q499.86 496.553 499.554 496.923Q499.249 497.293 498.925 497.647Q498.607 498.002 498.272 498.341Q497.937 498.68 497.585 499.001Q497.233 499.323 496.866 499.627Q496.499 499.93 496.117 500.215Q495.735 500.5 495.339 500.766Q494.944 501.032 494.535 501.278Q494.127 501.523 493.707 501.748Q493.287 501.973 492.856 502.177Q492.425 502.381 491.985 502.563Q491.545 502.745 491.096 502.906Q490.647 503.065 490.19 503.203Q489.734 503.34 489.272 503.455Q488.809 503.57 488.341 503.661Q487.874 503.752 487.402 503.82Q486.93 503.888 486.456 503.933Q485.981 503.977 485.505 503.998Q484.817 504.027 484.128 504.007Q483.44 503.987 482.755 503.918Q482.07 503.848 481.391 503.73Q480.713 503.612 480.045 503.445Q479.376 503.279 478.722 503.065Q478.067 502.851 477.43 502.59Q476.792 502.33 476.175 502.024Q475.558 501.719 474.964 501.37C470.291 498.566 466.289 493.655 462.46 489.814C455.026 482.356 447.733 474.613 439.985 467.487C437.84 469.476 435.542 471.893 432.433 472.069C430.503 472.178 428.6 471.265 427.073 470.16C424.586 468.358 422.414 465.799 420.244 463.617C415.738 459.088 411.29 454.481 406.649 450.091C402.844 451.217 399.17 452.691 395.316 453.686C382.673 456.951 369.46 456.708 356.807 453.683C347.798 451.758 338.679 447.284 331.118 442.105C328.619 440.393 326.328 438.398 323.822 436.713L323.577 436.551C317.111 438.772 310.884 441.767 304.395 444.016Q296.759 446.664 288.948 448.74Q281.137 450.817 273.194 452.31Q265.251 453.804 257.219 454.706Q249.187 455.609 241.111 455.915Q238.366 456.024 235.619 456.065Q232.873 456.107 230.126 456.081Q227.379 456.055 224.634 455.962Q221.888 455.869 219.146 455.708Q216.404 455.547 213.666 455.32Q210.929 455.092 208.197 454.797Q205.466 454.502 202.743 454.14Q200.02 453.778 197.307 453.349Q194.593 452.921 191.891 452.426Q189.189 451.931 186.5 451.37Q183.811 450.808 181.137 450.181Q178.462 449.554 175.804 448.862Q173.146 448.169 170.505 447.412Q167.865 446.654 165.244 445.832Q162.623 445.01 160.022 444.124Q157.422 443.238 154.845 442.288Q152.267 441.339 149.713 440.326Q147.16 439.314 144.632 438.239Q142.104 437.164 139.603 436.027Q137.102 434.89 134.63 433.693Q132.158 432.495 129.716 431.237Q127.274 429.979 124.864 428.661Q122.453 427.344 120.076 425.967Q117.699 424.591 115.356 423.157Q113.013 421.723 110.706 420.231Q108.399 418.74 106.129 417.193Q103.86 415.645 101.629 414.043Q99.3975 412.44 97.2065 410.783Q95.0154 409.126 92.8657 407.416Q90.716 405.706 88.6089 403.943Q86.5018 402.181 84.4386 400.367Q82.3754 398.554 80.3573 396.69Q68.6612 385.89 58.5497 373.593Q57.1112 371.839 55.7087 370.056Q54.3062 368.273 52.9403 366.462Q51.5744 364.651 50.2457 362.812Q48.917 360.974 47.6261 359.109Q46.3351 357.243 45.0824 355.352Q43.8297 353.461 42.6157 351.545Q41.4018 349.629 40.2272 347.688Q39.0526 345.747 37.9177 343.783Q36.7828 341.819 35.6882 339.832Q34.5936 337.846 33.5397 335.837Q32.4858 333.828 31.473 331.798Q30.4602 329.769 29.489 327.719Q28.5178 325.669 27.5886 323.599Q26.6593 321.53 25.7724 319.442Q24.8855 317.354 24.0413 315.249Q23.1971 313.143 22.396 311.021Q21.5949 308.899 20.8371 306.761Q20.0794 304.623 19.3654 302.47Q18.6514 300.316 17.9814 298.149Q17.3114 295.982 16.6857 293.802Q16.06 291.621 15.4788 289.428Q14.8976 287.236 14.3612 285.032Q13.8249 282.828 13.3335 280.613Q12.8421 278.399 12.396 276.174Q11.9498 273.95 11.5491 271.718Q11.1483 269.485 10.7931 267.244Q10.4379 265.004 10.1285 262.757Q9.819 260.51 9.55537 258.257Q9.29174 256.004 9.07406 253.746Q8.85638 251.488 8.68474 249.226Q8.51311 246.964 8.38758 244.699Q8.26206 242.434 8.1827 240.167Q8.0938 237.789 8.0556 235.41Q8.0174 233.031 8.02992 230.651Q8.04243 228.272 8.10566 225.893Q8.16888 223.515 8.28279 221.138Q8.39669 218.761 8.56123 216.388Q8.72576 214.014 8.94085 211.644Q9.15594 209.274 9.42148 206.91Q9.68703 204.545 10.0029 202.187Q10.3188 199.828 10.6849 197.477Q11.0509 195.126 11.467 192.783Q11.8831 190.441 12.3491 188.107Q12.815 185.774 13.3306 183.451Q13.8462 181.128 14.4111 178.816Q14.9761 176.505 15.5902 174.206Q16.2042 171.907 16.8672 169.622Q17.5301 167.337 18.2416 165.066Q18.9531 162.796 19.7129 160.541Q20.4726 158.286 21.2802 156.048Q22.0878 153.809 22.943 151.589Q23.7981 149.368 24.7004 147.167Q25.6026 144.965 26.5516 142.783Q27.5006 140.601 28.4959 138.44Q29.4912 136.278 30.5323 134.139Q31.5734 131.999 32.6599 129.882Q33.7464 127.765 34.8777 125.672Q36.0091 123.579 37.1848 121.51Q38.3605 119.441 39.58 117.398Q40.7996 115.355 42.0624 113.338Q43.3252 111.321 44.6307 109.332Q45.9362 107.343 47.2838 105.382Q48.6314 103.42 50.0205 101.489Q51.4096 99.5567 52.8395 97.6548C58.7222 89.8263 65.1177 82.5838 71.8266 75.4679C78.5923 68.2918 86.2471 61.687 94.0077 55.6075Q95.7612 54.2316 97.5419 52.891Q99.3226 51.5504 101.13 50.2457Q102.937 48.941 104.77 47.6726Q106.603 46.4043 108.46 45.1728Q110.318 43.9414 112.2 42.7473Q114.082 41.5532 115.988 40.397Q117.893 39.2407 119.822 38.1228Q121.75 37.0049 123.7 35.9257Q125.651 34.8466 127.622 33.8066Q129.593 32.7667 131.585 31.7663Q133.577 30.766 135.588 29.8056Q137.6 28.8453 139.63 27.9253Q141.66 27.0054 143.708 26.1262Q145.757 25.247 147.822 24.4089Q149.887 23.5708 151.969 22.7742Q154.051 21.9776 156.148 21.2227Q158.245 20.4678 160.357 19.755Q162.469 19.0422 164.594 18.3718Q166.72 17.7013 168.859 17.0735Q170.997 16.4456 173.148 15.8607Q175.299 15.2757 177.461 14.7338Q179.623 14.192 181.795 13.6934Q183.968 13.1949 186.15 12.7398Q188.332 12.2848 190.522 11.8735Q192.713 11.4621 194.911 11.0947Q197.11 10.7272 199.315 10.4038Q201.52 10.0803 203.732 9.801Q205.943 9.52168 208.16 9.28662Q210.376 9.05156 212.597 8.86084Q214.817 8.67013 217.042 8.52383Q219.266 8.37754 221.492 8.27573Q223.719 8.17391 225.947 8.11662ZM212.736 25.088C201.556 26.3294 190.566 28.0556 179.659 30.8597Q177.635 31.3849 175.623 31.9507Q173.61 32.5165 171.609 33.1228Q169.608 33.7291 167.62 34.3755Q165.632 35.0219 163.657 35.7083Q161.682 36.3946 159.722 37.1206Q157.761 37.8466 155.815 38.6119Q153.87 39.3772 151.94 40.1816Q150.01 40.9859 148.097 41.829Q146.184 42.6721 144.288 43.5535Q142.392 44.4349 140.515 45.3543Q138.637 46.2738 136.778 47.2308Q134.919 48.1879 133.08 49.1822Q131.241 50.1765 129.422 51.2076Q127.604 52.2388 125.806 53.3063Q124.008 54.3739 122.233 55.4775Q120.457 56.581 118.704 57.7201Q116.951 58.8592 115.221 60.0334Q113.491 61.2076 111.785 62.4163Q110.079 63.6251 108.398 64.868Q106.717 66.1109 105.061 67.3874Q103.406 68.6639 101.776 69.9735Q100.146 71.2831 98.5432 72.6252Q96.9402 73.9674 95.3645 75.3415Q93.7889 76.7157 92.2412 78.1213Q90.6936 79.5269 89.1745 80.9634Q87.6555 82.3999 86.1657 83.8667Q84.6759 85.3336 83.216 86.8301Q81.756 88.3266 80.3265 89.8522Q78.897 91.3778 77.4985 92.9319Q76.1 94.486 74.7331 96.068Q73.3662 97.6499 72.0314 99.2591Q70.6967 100.868 69.3946 102.504Q66.8541 105.685 64.4406 108.963Q62.027 112.241 59.744 115.611Q57.461 118.981 55.3121 122.438Q53.1632 125.896 51.1517 129.435Q49.1402 132.974 47.2692 136.589Q45.3983 140.204 43.6707 143.89Q41.9432 147.576 40.3617 151.327Q38.7803 155.078 37.3473 158.888C35.2271 164.527 33.6357 170.288 31.6987 175.979L57.5828 175.983C74.3617 175.977 87.5716 174.902 100.45 187.947Q101.356 188.864 102.202 189.837Q103.047 190.811 103.827 191.837Q104.608 192.863 105.32 193.937Q106.033 195.012 106.674 196.13Q107.316 197.248 107.884 198.406Q108.451 199.563 108.943 200.755Q109.435 201.947 109.849 203.168Q110.262 204.389 110.596 205.634C111.923 210.638 111.546 215.665 112.515 220.655C114.889 232.876 125.227 239.85 137.247 239.987C141.519 240.035 145.863 239.821 150.121 240.146C159.877 240.892 168.923 244.928 175.811 251.92C187.004 263.282 187.134 275.643 188.786 290.44C189.405 295.987 190.455 301.863 190.399 307.439C190.342 313.142 188.195 318.23 184.102 322.228Q183.247 323.049 182.303 323.767Q181.358 324.484 180.337 325.086Q179.316 325.689 178.232 326.17Q177.148 326.65 176.016 327.002C172.426 328.123 165.317 327.442 165.021 332.593C164.94 333.999 165.718 335.194 166.664 336.16C176.271 345.96 188.098 352.465 202.093 352.254C207.072 352.179 211.476 350.968 216.263 349.863C215.284 340.43 217.096 331.254 223.183 323.781Q223.674 323.169 224.195 322.583Q224.716 321.997 225.266 321.437Q225.815 320.877 226.392 320.346Q226.969 319.814 227.572 319.312Q228.175 318.811 228.802 318.339Q229.429 317.868 230.079 317.429Q230.729 316.99 231.4 316.584Q232.071 316.177 232.762 315.805Q233.452 315.433 234.161 315.096Q234.869 314.759 235.593 314.458Q236.318 314.156 237.056 313.892Q237.794 313.627 238.545 313.4Q239.296 313.172 240.057 312.982Q240.818 312.793 241.588 312.641Q242.357 312.49 243.134 312.377Q243.91 312.265 244.691 312.191Q245.484 312.11 246.279 312.069Q247.075 312.028 247.871 312.026Q248.668 312.025 249.464 312.063Q250.259 312.101 251.052 312.179Q251.845 312.257 252.633 312.375Q253.421 312.492 254.202 312.649Q254.983 312.806 255.755 313.001Q256.528 313.196 257.289 313.43Q258.051 313.664 258.8 313.936Q259.549 314.207 260.283 314.516Q261.018 314.824 261.736 315.169Q262.454 315.514 263.154 315.894Q263.854 316.274 264.534 316.689Q265.214 317.104 265.873 317.552Q266.532 318 267.167 318.481Q267.802 318.961 268.413 319.473C270.763 321.446 272.586 323.767 274.601 326.051C277.404 326.363 280.231 326.428 283.026 326.787C291.905 327.926 299.558 331.114 307.358 335.328C316.805 317.909 334.517 304.867 353.338 299.291Q355.204 298.738 357.095 298.278Q358.986 297.817 360.898 297.449Q362.809 297.082 364.736 296.808Q366.663 296.535 368.601 296.356Q370.539 296.177 372.484 296.094Q374.429 296.01 376.375 296.022Q378.321 296.034 380.265 296.141Q382.208 296.248 384.144 296.45Q386.08 296.652 388.003 296.948Q389.927 297.245 391.834 297.635Q393.74 298.026 395.626 298.509Q397.511 298.993 399.371 299.568Q401.23 300.143 403.059 300.808Q404.888 301.474 406.682 302.228Q408.477 302.982 410.232 303.824Q411.987 304.665 413.699 305.591C417.27 307.53 420.64 309.757 423.967 312.087C431.474 292.89 436.216 275.471 438.679 254.957C445.239 202.27 428.821 146.551 396.34 104.825Q390.43 97.2561 383.897 90.2179C381.356 87.5089 378.483 85.0059 376.132 82.1404C375.9 87.9123 376.015 93.7197 376.013 99.4971L376.018 128.225C376.018 134.791 376.724 143.494 375.25 149.698Q375.049 150.545 374.786 151.375Q374.522 152.205 374.199 153.013Q373.875 153.821 373.492 154.603Q373.109 155.384 372.67 156.136Q372.231 156.887 371.737 157.604Q371.243 158.321 370.698 159Q370.152 159.678 369.558 160.315Q368.964 160.951 368.325 161.542C359.574 169.584 348.626 168.116 337.646 168.093C335.44 168.089 332.588 167.788 330.477 168.457C327.678 169.345 327.626 176.123 326.78 178.64C325.823 181.487 324.257 184.115 322.082 186.195C319.606 188.563 316.582 190.402 313.265 191.307C310.794 191.981 306.905 191.815 304.919 193.477C304.145 194.126 304.081 196.735 304.035 197.744C303.855 201.667 303.348 211.399 304.992 214.628C307.218 216.435 314.652 216.581 317.847 217.378C331.87 220.877 342.231 234.13 343.759 248.195Q343.852 249.054 343.903 249.916Q343.954 250.778 343.962 251.642Q343.97 252.506 343.935 253.369Q343.9 254.232 343.823 255.093Q343.746 255.953 343.626 256.809Q343.507 257.664 343.345 258.513Q343.183 259.361 342.98 260.201Q342.776 261.04 342.532 261.869Q342.287 262.697 342.002 263.513Q341.717 264.328 341.392 265.128Q341.067 265.929 340.702 266.712Q340.338 267.495 339.935 268.259Q339.533 269.024 339.093 269.767Q338.653 270.511 338.178 271.232Q337.702 271.953 337.191 272.649Q336.68 273.346 336.135 274.016Q335.544 274.741 334.918 275.436Q334.292 276.132 333.633 276.795Q332.973 277.459 332.282 278.089Q331.59 278.719 330.869 279.314Q330.147 279.91 329.397 280.469Q328.647 281.028 327.87 281.549Q327.094 282.071 326.292 282.554Q325.491 283.036 324.667 283.479Q323.842 283.921 322.997 284.322Q322.152 284.724 321.289 285.083Q320.425 285.442 319.544 285.758Q318.664 286.075 317.769 286.347Q316.874 286.62 315.967 286.848Q315.059 287.076 314.142 287.259Q313.225 287.442 312.299 287.579Q311.374 287.717 310.443 287.809C305.961 288.225 301.399 288.103 296.901 288.107L277.688 288.119L260.375 288.115C255.373 288.111 250.011 288.372 245.096 287.384Q244.03 287.181 242.98 286.91Q241.929 286.639 240.897 286.302Q239.866 285.965 238.858 285.563Q237.85 285.161 236.87 284.696Q235.89 284.23 234.941 283.704Q233.993 283.177 233.08 282.591Q232.167 282.005 231.292 281.362Q230.418 280.719 229.587 280.022C221.587 273.297 217.073 263.836 216.226 253.469C215.294 242.055 218.807 229.683 208.976 221.191C202.629 215.709 196.051 216.998 188.673 215.051Q188.159 214.912 187.651 214.754Q187.143 214.596 186.642 214.419Q186.14 214.242 185.646 214.045Q185.152 213.849 184.665 213.634Q184.178 213.419 183.7 213.186Q183.222 212.952 182.753 212.701Q182.285 212.449 181.826 212.18Q181.367 211.911 180.918 211.625Q180.47 211.338 180.033 211.035Q179.596 210.732 179.171 210.412Q178.745 210.092 178.333 209.757Q177.92 209.421 177.52 209.07Q177.121 208.719 176.735 208.353Q176.349 207.987 175.977 207.606Q175.605 207.226 175.248 206.831Q174.891 206.437 174.55 206.029Q174.208 205.621 173.882 205.201Q173.556 204.781 173.246 204.348Q172.937 203.915 172.644 203.471Q172.351 203.027 172.075 202.572Q171.799 202.118 171.541 201.653Q171.282 201.187 171.042 200.713Q170.802 200.238 170.579 199.755Q170.357 199.272 170.154 198.78Q169.95 198.289 169.765 197.79Q169.581 197.291 169.415 196.785Q169.25 196.28 169.103 195.768Q168.957 195.257 168.831 194.74Q168.704 194.223 168.597 193.702Q168.49 193.181 168.403 192.656Q168.316 192.131 168.25 191.604Q168.183 191.076 168.136 190.546C167.544 183.093 169.717 175.733 174.649 170.061C179.985 163.925 187.319 160.546 195.405 160.073C200.63 159.766 205.961 159.986 211.199 159.986L240.984 160.004C246.08 160.006 252.734 160.575 257.683 159.637C259.396 159.312 260.679 158.583 261.844 157.277C263.23 155.722 264.071 153.566 263.938 151.471C263.812 149.489 262.882 147.511 261.359 146.225C258.339 143.677 253.644 144.051 249.99 143.128C240.722 140.788 233.293 133.174 232.217 123.532C231.666 118.598 232.767 103.36 231.697 100.073C230.975 97.8569 227.292 94.7488 225.76 92.7968Q224.344 90.9967 223.121 89.0608Q221.898 87.1249 220.88 85.0735Q219.863 83.0222 219.061 80.8771Q218.259 78.7321 217.682 76.516C215.349 67.7705 215.996 58.4069 215.999 49.4268L216.015 24.883L212.736 25.088ZM232.054 23.948L232 49.5793C232.001 56.6775 231.274 64.4907 232.932 71.3983Q233.162 72.3953 233.459 73.3744Q233.756 74.3535 234.119 75.3102Q234.482 76.2669 234.909 77.1967Q235.336 78.1264 235.825 79.0251Q236.314 79.9237 236.864 80.787Q237.413 81.6503 238.019 82.4743Q238.626 83.2983 239.287 84.0792Q239.948 84.86 240.661 85.5942C246.011 91.0311 248.058 90.8367 248.051 99.4216L247.987 113.354C247.976 116.074 247.751 118.977 248.195 121.658C248.386 122.813 248.741 124.119 249.558 124.998C252.793 128.476 259.003 127.875 263.252 129.223C273.296 132.411 279.894 141.558 279.949 152.056Q279.948 152.647 279.918 153.238Q279.888 153.829 279.829 154.417Q279.77 155.006 279.682 155.591Q279.593 156.175 279.476 156.755Q279.359 157.335 279.213 157.908Q279.067 158.481 278.893 159.046Q278.719 159.612 278.517 160.168Q278.315 160.723 278.086 161.269Q277.857 161.814 277.601 162.347Q277.344 162.88 277.062 163.4Q276.78 163.92 276.472 164.425Q276.165 164.93 275.833 165.419Q275.5 165.909 275.144 166.381Q274.788 166.853 274.409 167.307Q274.03 167.761 273.628 168.195Q273.227 168.63 272.805 169.044C269.788 172.016 265.881 174.347 261.749 175.34C255.662 176.802 246.546 176.112 240.116 176.109L207.328 176.088C202.479 176.084 196.325 175.431 191.73 177.151Q191.313 177.303 190.909 177.486Q190.504 177.669 190.115 177.882Q189.726 178.095 189.354 178.337Q188.982 178.579 188.63 178.849Q188.277 179.119 187.946 179.415Q187.615 179.71 187.308 180.031Q187.001 180.351 186.718 180.693Q186.436 181.036 186.181 181.399Q185.926 181.762 185.699 182.143Q185.472 182.524 185.274 182.922Q185.077 183.319 184.91 183.731Q184.744 184.142 184.609 184.565Q184.474 184.988 184.372 185.42Q184.27 185.852 184.201 186.29Q184.132 186.728 184.096 187.171Q184.061 187.613 184.059 188.057C184.076 191.175 185.202 194.19 187.456 196.378C192.12 200.906 199.849 199.997 205.765 201.725Q206.452 201.92 207.131 202.142Q207.81 202.364 208.479 202.613Q209.149 202.862 209.808 203.137Q210.467 203.412 211.114 203.713Q211.762 204.014 212.397 204.341Q213.033 204.667 213.655 205.019Q214.276 205.37 214.884 205.745Q215.491 206.121 216.083 206.52Q216.676 206.92 217.251 207.342Q217.827 207.765 218.386 208.21Q218.945 208.654 219.485 209.121Q220.026 209.588 220.548 210.076Q221.07 210.563 221.572 211.071Q222.074 211.579 222.555 212.107Q223.037 212.634 223.497 213.18Q223.958 213.726 224.396 214.29Q224.834 214.854 225.25 215.435Q225.666 216.015 226.058 216.612Q226.451 217.209 226.819 217.821Q227.188 218.433 227.532 219.059Q227.876 219.684 228.194 220.324Q228.513 220.963 228.807 221.614Q229.1 222.265 229.368 222.927Q229.635 223.589 229.876 224.262Q230.117 224.934 230.331 225.615Q230.546 226.297 230.733 226.986Q230.92 227.675 231.079 228.371Q231.239 229.068 231.371 229.769Q231.503 230.471 231.607 231.178Q231.711 231.885 231.787 232.595Q231.863 233.305 231.911 234.017Q231.959 234.73 231.979 235.444C232.352 246.426 229.986 258.578 239.003 266.957C241.179 268.979 244.048 270.659 246.964 271.303C253.178 272.675 262.027 272.002 268.512 272.002L304.085 271.989C310.975 271.894 317.465 270.444 322.417 265.285C325.929 261.625 328.023 256.63 327.912 251.545Q327.904 251.049 327.871 250.555Q327.837 250.06 327.779 249.567Q327.722 249.075 327.639 248.586Q327.556 248.097 327.449 247.613Q327.342 247.129 327.211 246.651Q327.08 246.173 326.925 245.702Q326.77 245.231 326.592 244.768Q326.413 244.306 326.212 243.852Q326.01 243.399 325.786 242.957Q325.562 242.515 325.316 242.084Q325.071 241.653 324.803 241.236Q324.536 240.818 324.249 240.414Q323.961 240.011 323.653 239.622Q323.345 239.233 323.019 238.86Q322.692 238.487 322.347 238.131Q322.002 237.775 321.639 237.437C314.852 231.082 310.784 233.386 303.139 231.404C294.119 229.066 288.462 221.641 288.048 212.429C287.907 209.299 287.996 206.141 287.987 203.007C287.963 195.098 288.004 188.115 293.715 181.964C296.927 178.505 300.644 176.85 305.277 176.223C307.21 175.962 308.975 175.793 310.785 174.995C312.098 172.389 312.133 169.662 312.753 166.871C314.153 160.572 319.168 155.216 325.251 153.163C331.348 151.105 340.279 151.992 346.703 152.023C349.006 152.034 351.492 152.205 353.742 151.631C355.689 151.133 357.798 149.891 358.766 148.06C359.629 146.427 359.889 144.371 359.98 142.543C360.196 138.177 360.027 133.722 360.021 129.345L360.003 104.707C360.007 99.652 360.518 71.4404 359.783 68.9922C358.742 65.5197 337.209 52.6677 332.967 50.3045Q325.924 46.3939 318.614 43.0076Q314.806 41.2536 310.93 39.6563Q307.053 38.059 303.115 36.6211Q299.177 35.1831 295.184 33.9069Q291.19 32.6306 287.148 31.5182Q283.106 30.4058 279.022 29.459Q274.937 28.5123 270.818 27.7328Q266.699 26.9534 262.551 26.3425Q258.403 25.7315 254.234 25.2902Q246.953 24.5692 239.642 24.3012C237.148 24.2008 234.512 24.3802 232.054 23.948ZM28.0265 192C26.7312 196.451 26.3037 201.401 25.6992 206.004Q25.0407 211.126 24.6405 216.274Q24.2404 221.423 24.0996 226.585Q23.9589 231.746 24.0779 236.909Q24.1969 242.072 24.5754 247.222Q24.9538 252.372 25.5908 257.496Q26.2278 262.621 27.1216 267.706Q28.0155 272.792 29.1639 277.827Q30.3124 282.862 31.7126 287.832C37.6598 288.144 43.58 288.045 49.4959 288.859Q51.4365 289.125 53.3638 289.476Q55.291 289.826 57.2012 290.26Q59.1114 290.694 61.0009 291.21Q62.8904 291.727 64.7557 292.325Q66.6209 292.923 68.4584 293.601Q70.2959 294.28 72.1022 295.038Q73.9084 295.796 75.68 296.632Q77.4515 297.468 79.1851 298.38Q80.9186 299.292 82.6109 300.278Q84.3031 301.265 85.9509 302.324Q87.5986 303.383 89.1987 304.513Q90.7989 305.643 92.3484 306.841Q93.8978 308.04 95.3937 309.304Q96.8896 310.569 98.3291 311.897Q99.7686 313.226 101.149 314.616Q102.529 316.005 103.848 317.454Q109.542 323.71 113.955 330.927C119.925 340.644 122.405 347.516 131.334 355.85C137.975 362.048 146.118 366.365 153.867 371.003C161.524 375.586 169.611 379.914 176.743 385.289Q177.524 385.882 178.29 386.495Q179.056 387.108 179.807 387.739Q180.557 388.371 181.292 389.021Q182.027 389.671 182.745 390.339Q183.463 391.007 184.165 391.693Q184.866 392.378 185.551 393.081Q186.235 393.784 186.901 394.504Q187.568 395.223 188.217 395.959Q188.865 396.695 189.495 397.447Q190.125 398.199 190.736 398.966Q191.347 399.733 191.939 400.516Q192.531 401.298 193.104 402.095Q193.676 402.891 194.228 403.702Q194.78 404.513 195.312 405.337Q195.844 406.161 196.356 406.998Q196.867 407.835 197.358 408.685Q197.848 409.534 198.317 410.396Q198.786 411.257 199.234 412.13Q199.682 413.003 200.108 413.886Q200.533 414.77 200.937 415.664Q201.341 416.558 201.722 417.462Q202.104 418.366 202.462 419.279Q202.821 420.191 203.157 421.113Q203.493 422.035 203.806 422.964Q204.119 423.894 204.409 424.831Q204.699 425.768 204.966 426.712Q205.232 427.656 205.475 428.607Q205.718 429.557 205.937 430.513Q206.157 431.469 206.352 432.43Q206.548 433.392 206.719 434.357Q206.891 435.323 207.038 436.293Q207.186 437.263 207.309 438.236C217.388 439.865 227.741 440.144 237.936 439.816C263.79 438.985 288.217 433.626 312.157 423.886C299.602 408.135 294.314 386.741 296.576 366.884C297.302 360.505 299.095 355.908 300.285 349.946C292.972 345.119 288.318 344.391 280.063 342.4L279.961 346.142C279.112 355.047 276.988 359.212 272.48 366.79C279.651 371.426 285.435 377.81 287.309 386.351C288.858 393.414 287.411 400.543 283.515 406.601C277.874 415.372 267.973 420.941 257.935 423.052C245.995 425.563 232.724 423.373 222.496 416.639C215.706 412.168 210.236 405.485 208.594 397.387C207.062 389.835 208.879 382.632 213.16 376.328C214.771 373.955 216.721 371.69 219.007 369.951C220.144 369.086 221.496 368.274 222.494 367.258C222.952 366.792 223.008 366.68 223.042 366.06C222.73 365.614 222.574 365.3 222.035 365.133C219.631 365.321 217.195 366.292 214.856 366.885C212.967 367.363 210.968 367.643 209.033 367.88C189.847 370.23 174.389 364.036 159.922 351.676C154.345 346.911 149.739 342.138 149.179 334.449Q149.142 333.923 149.131 333.395Q149.12 332.868 149.135 332.34Q149.149 331.813 149.189 331.287Q149.23 330.76 149.296 330.237Q149.362 329.713 149.453 329.194Q149.544 328.674 149.661 328.16Q149.777 327.645 149.919 327.137Q150.061 326.628 150.227 326.127Q150.393 325.627 150.583 325.135Q150.774 324.642 150.988 324.16Q151.202 323.678 151.439 323.207Q151.677 322.736 151.937 322.276Q152.197 321.817 152.479 321.371Q152.761 320.926 153.065 320.494Q153.368 320.062 153.693 319.646Q154.017 319.23 154.361 318.83C157.511 315.222 161.591 313.101 166.301 312.417C168.362 312.118 170.412 311.971 172.371 311.228C172.485 311.185 172.599 311.146 172.713 311.104C174.725 308.602 174.442 306.2 174.115 303.165C173.565 298.068 172.879 292.987 172.337 287.889C171.256 277.72 171.013 268.225 162.341 261.28C147.051 249.036 127.089 265.4 106.241 242.662Q105.219 241.547 104.288 240.355Q103.357 239.163 102.522 237.901Q101.687 236.64 100.954 235.317Q100.22 233.994 99.5928 232.618Q98.9654 231.241 98.4478 229.82Q97.9302 228.398 97.5256 226.941Q97.121 225.483 96.8319 223.999Q96.5429 222.514 96.3711 221.011C96.0556 218.38 96.0411 215.718 95.7095 213.091C94.923 206.86 91.893 201.26 86.9721 197.329Q86.0206 196.553 84.9899 195.886Q83.9592 195.22 82.8617 194.67Q81.7643 194.119 80.6132 193.693Q79.4621 193.266 78.2713 192.968C72.4318 191.539 65.7419 192.074 59.7581 192.083L37.8992 192.123C34.6847 192.13 31.2075 192.416 28.0265 192ZM374.99 312.118C357.263 312.693 341.234 319.516 329.072 332.573Q327.993 333.732 326.973 334.943Q325.954 336.153 324.995 337.414Q324.037 338.674 323.142 339.98Q322.248 341.286 321.419 342.635Q320.591 343.984 319.83 345.373Q319.07 346.761 318.38 348.186Q317.689 349.61 317.071 351.068Q316.452 352.525 315.906 354.011Q315.361 355.497 314.89 357.009Q314.419 358.52 314.024 360.053Q313.629 361.586 313.31 363.137Q312.992 364.688 312.751 366.252Q312.51 367.817 312.347 369.392Q312.184 370.967 312.1 372.547Q312.015 374.128 312.01 375.711Q312.004 377.295 312.077 378.876Q312.147 380.448 312.295 382.014Q312.442 383.58 312.667 385.137Q312.892 386.694 313.193 388.238Q313.495 389.782 313.872 391.309Q314.249 392.836 314.702 394.343Q315.154 395.85 315.68 397.332Q316.206 398.815 316.805 400.27Q317.404 401.724 318.074 403.148Q318.744 404.571 319.483 405.96Q320.223 407.348 321.03 408.698Q321.837 410.049 322.71 411.357Q323.583 412.666 324.519 413.93Q325.456 415.194 326.454 416.411Q327.451 417.627 328.508 418.792Q329.565 419.958 330.678 421.07Q331.791 422.181 332.957 423.237Q334.076 424.266 335.243 425.24Q336.41 426.213 337.622 427.13Q338.835 428.047 340.089 428.905Q341.344 429.762 342.639 430.559Q343.933 431.355 345.265 432.089Q346.596 432.823 347.961 433.491Q349.325 434.16 350.721 434.763Q352.116 435.366 353.539 435.901Q354.961 436.436 356.408 436.903Q357.855 437.369 359.322 437.766Q360.789 438.162 362.274 438.488Q363.758 438.814 365.257 439.068Q366.755 439.322 368.264 439.504Q369.773 439.686 371.289 439.796Q372.805 439.905 374.325 439.942Q375.844 439.979 377.364 439.943C396.141 438.934 411.486 432.053 424.108 417.956Q425.13 416.8 426.095 415.596Q427.06 414.392 427.965 413.142Q428.87 411.892 429.713 410.599Q430.556 409.306 431.334 407.974Q432.113 406.642 432.826 405.273Q433.539 403.905 434.184 402.503Q434.829 401.101 435.405 399.669Q435.981 398.238 436.487 396.78Q436.992 395.322 437.426 393.841Q437.859 392.36 438.22 390.86Q438.581 389.359 438.869 387.843Q439.156 386.327 439.369 384.799Q439.582 383.27 439.72 381.733Q439.858 380.197 439.921 378.655Q439.984 377.113 439.972 375.57Q439.96 374.027 439.872 372.486Q439.783 370.889 439.615 369.298Q439.446 367.707 439.198 366.127Q438.95 364.546 438.623 362.98Q438.296 361.414 437.891 359.867Q437.485 358.319 437.003 356.794Q436.521 355.269 435.962 353.77Q435.404 352.27 434.771 350.801Q434.139 349.332 433.433 347.896Q432.727 346.461 431.951 345.062Q431.174 343.664 430.328 342.306Q429.482 340.948 428.569 339.635Q427.656 338.321 426.678 337.055Q425.7 335.789 424.66 334.573Q423.62 333.358 422.52 332.196Q421.421 331.034 420.264 329.929Q419.108 328.824 417.897 327.778C405.815 317.242 390.937 312.048 374.99 312.118ZM36.9852 304.022C55.127 354.883 94.9076 397.101 143.478 420.157Q152.516 424.432 161.925 427.811Q171.335 431.189 181.028 433.64C184.13 434.424 187.425 435.361 190.599 435.75C186.314 417.486 176.993 403.833 160.94 393.917C154.417 389.887 147.78 386.023 141.2 382.085C132.813 377.063 124.798 372.188 117.888 365.163Q114.581 361.772 111.697 358.016Q108.813 354.259 106.391 350.189C104.196 346.436 102.301 342.496 99.9936 338.81Q99.4946 338.011 98.9753 337.225Q98.4561 336.44 97.9169 335.667Q97.3777 334.895 96.819 334.137Q96.2603 333.378 95.6824 332.635Q95.1045 331.891 94.5077 331.162Q93.911 330.433 93.2958 329.72Q92.6807 329.007 92.0475 328.31Q91.4143 327.612 90.7635 326.932Q90.1127 326.251 89.4448 325.587Q88.7768 324.923 88.0921 324.276Q87.4073 323.629 86.7063 323Q86.0053 322.371 85.2884 321.76Q84.5715 321.149 83.8393 320.557Q83.1071 319.964 82.3599 319.391Q81.6128 318.817 80.8512 318.263Q80.0897 317.709 79.3142 317.174Q78.5387 316.64 77.7499 316.125Q76.961 315.61 76.1592 315.116Q75.3575 314.622 74.5434 314.148Q73.7292 313.674 72.9033 313.222Q72.0773 312.769 71.24 312.338Q70.4028 311.906 69.5548 311.496Q68.7067 311.086 67.8485 310.698Q66.9903 310.31 66.1225 309.944Q65.2546 309.578 64.3777 309.234Q63.5008 308.891 62.6154 308.57Q61.73 308.248 60.8366 307.95Q59.9433 307.651 59.0427 307.376Q58.142 307.1 57.2346 306.848Q56.3272 306.595 55.4136 306.366Q54.5 306.137 53.5809 305.931Q52.6618 305.725 51.7377 305.543C46.8158 304.567 41.9647 304.392 36.9852 304.022ZM245.925 328.328C241.747 328.836 238.09 330.752 235.469 334.082C232.549 337.795 231.547 342.622 232.153 347.258Q232.328 348.563 232.702 349.825Q233.077 351.087 233.643 352.276C235.713 356.684 238.679 360.905 241.206 365.078C243.325 368.578 245.257 372.419 247.697 375.695L248.019 375.83C248.564 375.45 248.807 375.136 249.166 374.595C251.696 370.021 254.502 365.578 257.202 361.103C261.376 354.182 265.724 347.978 263.307 339.514C262.175 335.548 259.276 332.034 255.674 330.048C252.785 328.455 249.191 327.851 245.925 328.328ZM264.388 380.439C261.262 385.006 256.886 394.242 253.53 397.55C252.382 398.682 250.984 399.548 249.387 399.86Q248.996 399.933 248.6 399.965Q248.204 399.998 247.806 399.989Q247.409 399.98 247.015 399.931Q246.62 399.881 246.233 399.791Q245.846 399.701 245.47 399.572Q245.094 399.442 244.734 399.275Q244.373 399.107 244.032 398.904Q243.69 398.7 243.372 398.462C239.344 395.454 234.042 381.905 231.308 380.671C227.957 383.042 224.98 385.923 224.171 390.149C223.59 393.178 224.447 396.07 226.208 398.553C229.83 403.664 236.353 406.508 242.371 407.468C250.335 408.738 258.949 407.432 265.575 402.633C268.19 400.739 270.148 398.449 271.352 395.439C272.183 392.163 272.047 389.234 270.268 386.253C268.849 383.875 266.661 381.976 264.388 380.439ZM441.737 421.452C435.817 429.872 429.318 435.626 421.297 441.933C423.912 444.617 429.214 450.769 432.196 452.349C435.413 449.7 438.337 446.33 441.288 443.373C445.031 439.622 449.038 435.946 452.558 431.992C449.857 429.043 444.915 423.526 441.737 421.452ZM455.666 451.626C454.219 453.094 452.716 454.532 451.331 456.057L471.691 476.399C475.096 479.808 478.422 483.582 482.107 486.66C482.825 487.26 483.541 487.625 484.417 487.929C485.699 487.581 486.963 487.205 487.63 485.945C488 485.243 487.979 484.383 487.663 483.667C487.275 482.789 486.566 481.978 485.924 481.27C482.817 477.841 457.327 452.276 455.929 451.705C455.844 451.67 455.754 451.653 455.666 451.626Z"/>
	<path fill="#C89F23" transform="matrix(1.49023 0 0 1.49023 -6.10352e-05 -7.62939e-06)" d="M373.441 320.106Q374.735 320.045 376.031 320.045Q377.326 320.045 378.62 320.105Q379.915 320.165 381.205 320.285Q382.495 320.405 383.778 320.584Q385.061 320.764 386.334 321.003Q387.607 321.243 388.868 321.541Q390.129 321.839 391.374 322.195Q392.62 322.552 393.848 322.965Q395.075 323.379 396.283 323.85Q397.49 324.32 398.674 324.846Q399.858 325.372 401.016 325.953Q402.174 326.533 403.304 327.167Q404.434 327.801 405.534 328.486Q406.633 329.172 407.699 329.907Q408.766 330.643 409.797 331.428Q410.828 332.212 411.821 333.044Q412.889 333.934 413.912 334.876Q414.935 335.818 415.91 336.809Q416.885 337.801 417.809 338.84Q418.734 339.878 419.605 340.962Q420.477 342.045 421.293 343.171Q422.11 344.296 422.87 345.461Q423.629 346.625 424.33 347.826Q425.031 349.027 425.671 350.262Q426.312 351.496 426.89 352.761Q427.468 354.025 427.982 355.317Q428.497 356.609 428.947 357.925Q429.396 359.241 429.78 360.577Q430.164 361.914 430.48 363.268Q430.797 364.622 431.046 365.99Q431.295 367.358 431.476 368.736Q431.657 370.115 431.769 371.501Q431.879 372.876 431.922 374.255Q431.964 375.634 431.938 377.014Q431.912 378.393 431.818 379.77Q431.724 381.146 431.562 382.516Q431.401 383.887 431.171 385.247Q430.942 386.608 430.646 387.955Q430.35 389.303 429.988 390.634Q429.626 391.965 429.198 393.277Q428.771 394.589 428.279 395.878Q427.787 397.167 427.232 398.43Q426.677 399.693 426.061 400.928Q425.444 402.162 424.768 403.364Q424.091 404.567 423.356 405.734Q422.621 406.902 421.829 408.031Q421.037 409.161 420.19 410.251Q419.344 411.34 418.444 412.386C408.349 424.2 394.403 430.774 379.026 431.954C364.137 432.311 350.37 427.899 339.057 418.034Q338.032 417.137 337.053 416.192Q336.073 415.246 335.141 414.254Q334.209 413.261 333.327 412.224Q332.444 411.187 331.613 410.109Q330.783 409.03 330.006 407.912Q329.229 406.794 328.507 405.639Q327.786 404.484 327.122 403.296Q326.458 402.107 325.853 400.887Q325.247 399.668 324.703 398.42Q324.158 397.172 323.675 395.899Q323.192 394.626 322.771 393.331Q322.351 392.036 321.994 390.722Q321.638 389.408 321.346 388.078Q321.054 386.749 320.828 385.406Q320.601 384.063 320.441 382.711Q320.28 381.359 320.186 380.001Q320.088 378.611 320.058 377.218Q320.029 375.825 320.068 374.432Q320.108 373.039 320.217 371.65Q320.325 370.261 320.503 368.879Q320.68 367.497 320.926 366.126Q321.171 364.754 321.485 363.397Q321.798 362.039 322.178 360.698Q322.558 359.358 323.004 358.038Q323.451 356.718 323.962 355.422Q324.473 354.125 325.047 352.856Q325.622 351.587 326.259 350.348Q326.896 349.108 327.593 347.902Q328.291 346.696 329.047 345.526Q329.803 344.356 330.617 343.224Q331.43 342.093 332.299 341.004Q333.167 339.914 334.089 338.869C344.283 327.37 358.188 321.024 373.441 320.106ZM372.55 336.343C361.43 337.575 351.918 342.171 344.808 350.99Q344.194 351.76 343.618 352.56Q343.042 353.359 342.506 354.186Q341.97 355.013 341.475 355.865Q340.98 356.717 340.528 357.592Q340.075 358.468 339.666 359.364Q339.257 360.26 338.892 361.176Q338.528 362.091 338.208 363.023Q337.889 363.955 337.616 364.902Q337.343 365.849 337.116 366.808Q336.89 367.767 336.711 368.736Q336.531 369.704 336.4 370.681Q336.268 371.658 336.185 372.639Q336.101 373.621 336.066 374.606Q336.031 375.59 336.044 376.576Q336.057 377.561 336.118 378.544Q336.18 379.528 336.289 380.507Q336.401 381.488 336.561 382.462Q336.722 383.436 336.93 384.4Q337.138 385.365 337.393 386.319Q337.649 387.272 337.951 388.212Q338.253 389.151 338.601 390.075Q338.95 390.999 339.343 391.904Q339.736 392.809 340.174 393.694Q340.611 394.579 341.092 395.441Q341.573 396.303 342.095 397.14Q342.618 397.977 343.181 398.788Q343.745 399.599 344.347 400.38Q344.95 401.162 345.59 401.913Q346.231 402.664 346.908 403.383Q347.584 404.101 348.296 404.785Q349.007 405.47 349.751 406.118Q350.496 406.766 351.271 407.377C359.447 413.86 369.412 416.485 379.738 415.739C391.173 414.269 400.691 409.224 407.832 400.026Q408.42 399.254 408.97 398.455Q409.52 397.655 410.03 396.829Q410.54 396.004 411.009 395.154Q411.478 394.304 411.905 393.433Q412.332 392.561 412.715 391.67Q413.099 390.778 413.438 389.869Q413.778 388.96 414.072 388.035Q414.367 387.11 414.616 386.172Q414.865 385.234 415.067 384.285Q415.27 383.336 415.426 382.378Q415.582 381.42 415.69 380.456Q415.799 379.492 415.861 378.523Q415.922 377.555 415.936 376.584Q415.95 375.614 415.916 374.644Q415.883 373.674 415.802 372.707Q415.72 371.74 415.592 370.778Q415.465 369.803 415.289 368.836Q415.114 367.868 414.891 366.91Q414.668 365.953 414.398 365.007Q414.128 364.062 413.811 363.131Q413.495 362.2 413.133 361.286Q412.771 360.372 412.364 359.476Q411.957 358.581 411.507 357.707Q411.056 356.833 410.563 355.983Q410.07 355.132 409.535 354.307Q409 353.482 408.426 352.684Q407.851 351.886 407.237 351.118Q406.624 350.349 405.973 349.612Q405.322 348.875 404.636 348.171Q403.95 347.467 403.229 346.798Q402.509 346.129 401.756 345.496Q401.004 344.863 400.221 344.268C392.593 338.436 382.363 335.199 372.743 336.314C372.678 336.322 372.614 336.333 372.55 336.343Z"/>
	<path fill="#C89F23" transform="matrix(1.49023 0 0 1.49023 -6.10352e-05 -7.62939e-06)" d="M374.963 344.08C376.369 343.989 377.959 344.174 379.246 344.774C382.851 346.455 386.991 350.21 390.211 352.625L412.672 369.505C409.899 373.994 406.301 378.033 403.288 382.376C402.124 381.637 401.136 380.797 400.107 379.886C399.897 384.789 401.251 394.103 397.492 397.833C394.125 401.173 382.498 400.107 377.812 400.106C372.751 400.077 363.251 400.756 358.699 399.813C357.024 399.466 355.442 398.777 354.2 397.58C350.871 394.372 352.059 384.623 351.965 380.052L348.882 382.42C345.428 378.458 342.288 373.865 339.248 369.568C341.754 367.847 344.134 365.846 346.565 364.01L362.702 351.857C365.768 349.553 368.871 346.888 372.206 344.99C373.073 344.496 373.995 344.284 374.963 344.08ZM375.495 362.447C373.041 364.218 370.398 365.967 368.159 368.003C367.671 373.223 368.011 378.693 368.014 383.941L376.875 383.99L383.959 383.973C383.996 378.82 384.456 373.236 383.87 368.129C382.234 366.542 377.697 362.502 375.495 362.447Z"/>
	<path fill="#C89F23" transform="matrix(1.49023 0 0 1.49023 -6.10352e-05 -7.62939e-06)" d="M389.749 176.107C396.349 175.772 402.662 177.152 408.369 180.543Q409.045 180.947 409.701 181.383Q410.356 181.819 410.99 182.287Q411.623 182.755 412.233 183.254Q412.842 183.753 413.426 184.281Q414.011 184.809 414.568 185.365Q415.126 185.921 415.655 186.504Q416.185 187.087 416.685 187.695Q417.185 188.303 417.655 188.936Q418.125 189.568 418.563 190.222Q419.001 190.877 419.406 191.552Q419.811 192.227 420.183 192.922Q420.554 193.616 420.891 194.328Q421.228 195.04 421.53 195.767Q421.831 196.495 422.096 197.236Q422.362 197.978 422.59 198.731Q422.819 199.485 423.01 200.249C425.95 212.347 422.612 220.572 416.482 230.751C417.983 231.726 419.439 232.724 420.813 233.875C426.921 238.99 431.164 245.854 431.855 253.89C432.485 261.215 429.783 268.299 425.093 273.864C417.564 282.798 406.317 287.061 394.927 287.972C390.966 288.079 387.022 287.933 383.117 287.215C372.861 285.329 362.768 279.985 356.808 271.218C352.675 265.139 351.142 257.958 352.587 250.732C354.333 242 360.25 235.52 367.433 230.692C363.934 224.958 360.922 219.564 360.215 212.744C359.287 203.794 361.41 194.844 367.16 187.808C372.994 180.67 380.666 177.001 389.749 176.107ZM389.931 192.328C385.752 192.83 382.101 194.759 379.476 198.082C376.567 201.765 375.547 206.532 376.119 211.145C376.344 212.963 376.92 214.711 377.706 216.362C378.774 218.607 390.614 238.669 391.651 239.606C391.752 239.696 391.874 239.759 391.986 239.836C392.553 239.473 392.787 239.147 393.158 238.603C395.628 234.132 398.373 229.788 401.014 225.415C405.255 218.391 409.802 211.996 407.271 203.384C406.117 199.46 403.204 195.973 399.623 194.018C396.804 192.479 393.108 191.796 389.931 192.328ZM408.388 244.439C405.279 248.982 400.831 258.283 397.535 261.546C396.378 262.692 394.986 263.548 393.375 263.867C391.293 264.28 389.088 263.72 387.389 262.467C383.418 259.537 377.912 245.784 375.306 244.669C371.952 247.016 368.968 249.942 368.167 254.15C367.59 257.177 368.451 260.07 370.209 262.552C373.829 267.664 380.353 270.509 386.371 271.469C394.347 272.74 402.937 271.431 409.575 266.63C412.191 264.738 414.148 262.451 415.351 259.438C416.16 256.206 416.07 253.316 414.328 250.353C412.893 247.914 410.702 246.019 408.388 244.439Z"/>
	<path fill="#C89F23" transform="matrix(1.49023 0 0 1.49023 -6.10352e-05 -7.62939e-06)" d="M133.941 64.0955C140.529 63.7879 146.885 65.2214 152.551 68.6535Q153.219 69.058 153.866 69.4946Q154.514 69.9312 155.139 70.3989Q155.765 70.8666 156.366 71.3642Q156.968 71.8619 157.545 72.3883Q158.122 72.9147 158.672 73.4686Q159.223 74.0225 159.745 74.6026Q160.268 75.1827 160.762 75.7876Q161.256 76.3926 161.719 77.0209Q162.183 77.6492 162.616 78.2993Q163.048 78.9495 163.448 79.62Q163.849 80.2905 164.216 80.9797Q164.583 81.669 164.916 82.3753Q165.249 83.0816 165.547 83.8033Q165.845 84.5251 166.108 85.2605Q166.371 85.9959 166.597 86.7432Q166.823 87.4906 167.013 88.2481C169.959 100.331 166.604 108.587 160.482 118.751C162.075 119.782 163.604 120.849 165.051 122.079C171.074 127.199 175.248 134.086 175.877 142.064C176.46 149.444 173.664 156.56 168.888 162.113C161.302 170.934 149.985 175.191 138.618 175.986C134.783 176.032 131.032 175.94 127.244 175.251C116.949 173.379 106.79 168.015 100.808 159.218C96.6688 153.132 95.1374 145.967 96.583 138.732C98.3271 130.003 104.254 123.518 111.433 118.693C107.889 112.937 104.888 107.473 104.202 100.619C103.306 91.6761 105.45 82.7428 111.227 75.7373C117.118 68.5931 124.818 64.9592 133.941 64.0955ZM133.925 80.3284C129.747 80.8355 126.089 82.7507 123.468 86.0819C120.574 89.7613 119.561 94.5425 120.139 99.1414Q120.304 100.448 120.67 101.712Q121.035 102.977 121.593 104.17C122.571 106.278 134.682 126.741 135.653 127.621C135.751 127.709 135.872 127.767 135.982 127.84C136.555 127.472 136.79 127.141 137.165 126.59C139.634 122.124 142.375 117.784 145.014 113.415C149.255 106.391 153.802 99.9963 151.271 91.3839C150.117 87.4596 147.204 83.9723 143.621 82.0172C140.8 80.4776 137.104 79.7959 133.925 80.3284ZM152.388 132.439C149.248 137.027 144.901 146.225 141.534 149.548C140.375 150.692 138.985 151.547 137.376 151.866C135.292 152.279 133.089 151.722 131.389 150.468C127.421 147.539 121.909 133.782 119.306 132.669C115.953 135.015 112.969 137.942 112.166 142.148C111.587 145.176 112.45 148.07 114.209 150.553C117.831 155.664 124.353 158.509 130.371 159.468C138.336 160.738 146.948 159.432 153.576 154.633C156.19 152.739 158.149 150.449 159.35 147.438C160.161 144.206 160.07 141.316 158.327 138.353C156.892 135.914 154.702 134.019 152.388 132.439Z"/>
</svg>
