<?xml version="1.0" encoding="utf-8" ?>
<svg xmlns="http://www.w3.org/2000/svg" xmlns:xlink="http://www.w3.org/1999/xlink" width="755" height="755">
	<path fill="#C89F23" transform="matrix(1.47461 0 0 1.47461 0 -7.62939e-06)" d="M0 0L512 0L512 222.304L512 226.497L512 512L0 512L0 233.132L0 228.092L0 0ZM0 0L0 228.092C0.894852 226.772 1.52281 225.298 2.46289 223.983C4.78869 220.729 7.46555 217.65 9.98253 214.541L23.0618 198.367L63.5036 148.27L86.8382 119.351C89.9339 115.515 94.6733 108.856 98.0611 105.759C100.434 103.589 103.325 102.762 106.473 103.394C111.067 104.318 118.549 109.984 122.726 112.64L151.197 130.747C156.041 133.839 160.904 137.418 165.975 140.081C168.603 141.461 172.098 142.05 174.971 142.835L191.515 147.342C195.713 148.488 223.067 156.543 225.457 156.086C225.578 156.063 225.698 156.033 225.819 156.009C230.59 155.064 235.314 153.373 239.997 152.027L268.015 143.958C272.945 142.53 278.216 140.494 283.307 139.974C292.908 138.992 352.643 140.856 355.68 139.474C355.772 139.432 355.861 139.384 355.952 139.34C360.298 137.245 364.429 134.159 368.51 131.561L397.662 113.017C401.559 110.539 407.052 106.559 410.988 104.541C413.443 103.282 416.43 102.71 419.103 103.593C421.106 104.254 422.732 105.398 424.105 106.982C426.369 109.594 428.414 112.455 430.523 115.196L441.645 129.661L476.057 174.368L498.484 203.488C502.947 209.28 508.834 215.768 512 222.304L512 0L0 0ZM512 226.497C511.205 228.183 510.508 229.81 509.261 231.217C505.8 235.122 501.055 238.454 497.106 241.866L469.227 265.875C466.281 268.425 462.51 270.958 460.09 273.984C457.272 277.507 451.909 290.326 449.57 295.197L435.315 324.982C432.551 330.764 429.626 336.527 427.102 342.416C432.256 351.265 434.169 360.884 431.489 370.918Q431.26 371.767 430.99 372.603Q430.719 373.439 430.407 374.261Q430.096 375.083 429.744 375.889Q429.391 376.694 429 377.481Q428.608 378.268 428.178 379.034Q427.747 379.801 427.28 380.545Q426.812 381.289 426.308 382.009Q425.803 382.729 425.264 383.423Q424.725 384.118 424.152 384.784Q423.579 385.451 422.973 386.088Q422.368 386.725 421.731 387.331Q421.095 387.938 420.429 388.512Q419.763 389.086 419.07 389.626Q418.377 390.166 417.657 390.672Q416.938 391.177 416.194 391.646Q415.451 392.115 414.685 392.546C409.378 395.565 402.921 397.452 396.777 397.184C396.196 407.681 393.003 416.788 385.018 423.999C378.64 429.758 369.455 433.66 360.763 433.195C360.197 443.754 356.921 452.963 348.839 460.152C342.36 465.916 333.48 469.514 324.749 469.201C324.192 479.761 320.914 488.959 312.837 496.151Q312.182 496.744 311.497 497.303Q310.813 497.863 310.101 498.386Q309.389 498.91 308.651 499.397Q307.914 499.884 307.153 500.334Q306.391 500.783 305.608 501.193Q304.825 501.603 304.023 501.972Q303.22 502.342 302.399 502.671Q301.579 503 300.743 503.286Q299.907 503.573 299.057 503.817Q298.208 504.061 297.347 504.262Q296.486 504.462 295.616 504.619Q294.746 504.776 293.87 504.888Q292.993 505.001 292.112 505.069Q291.231 505.137 290.347 505.16Q289.464 505.183 288.58 505.162Q287.696 505.14 286.815 505.074C280.201 504.639 273.903 502.458 268.564 498.506C266.42 496.919 264.445 495.117 262.318 493.515C259.579 496.075 256.969 498.865 254.067 501.234Q253.464 501.734 252.839 502.206Q252.214 502.678 251.568 503.121Q250.922 503.564 250.257 503.978Q249.592 504.391 248.909 504.774Q248.226 505.157 247.526 505.509Q246.826 505.861 246.111 506.181Q245.397 506.501 244.668 506.788Q243.939 507.075 243.198 507.329Q242.457 507.583 241.706 507.803Q240.954 508.023 240.193 508.209Q239.433 508.395 238.664 508.547Q237.896 508.698 237.121 508.815Q236.347 508.931 235.568 509.013Q234.789 509.094 234.007 509.14Q233.225 509.186 232.442 509.197Q231.659 509.208 230.876 509.183Q229.996 509.16 229.118 509.094Q228.239 509.028 227.366 508.918Q226.492 508.809 225.624 508.656Q224.757 508.504 223.898 508.309Q223.04 508.113 222.192 507.876Q221.344 507.638 220.509 507.359Q219.673 507.08 218.853 506.76Q218.033 506.44 217.229 506.079Q216.425 505.719 215.641 505.32Q214.856 504.92 214.092 504.482Q213.328 504.044 212.586 503.569Q211.845 503.094 211.128 502.583Q210.411 502.072 209.72 501.525Q209.029 500.979 208.366 500.4Q207.703 499.82 207.069 499.209Q206.436 498.597 205.833 497.955Q205.1 497.181 204.418 496.363Q203.735 495.545 203.105 494.685Q202.474 493.826 201.899 492.929Q201.324 492.032 200.806 491.1Q200.288 490.169 199.83 489.207Q199.372 488.245 198.974 487.256Q198.577 486.267 198.242 485.256Q197.908 484.244 197.637 483.213C197.142 481.313 196.884 479.345 196.334 477.466Q195.446 477.585 194.553 477.659Q193.66 477.734 192.765 477.765Q191.869 477.796 190.973 477.784Q190.077 477.771 189.183 477.714Q188.289 477.658 187.398 477.558Q186.508 477.457 185.623 477.314Q184.739 477.17 183.863 476.983Q182.986 476.796 182.12 476.567Q181.254 476.337 180.4 476.066Q179.546 475.794 178.707 475.481Q177.867 475.168 177.044 474.814Q176.221 474.46 175.416 474.067Q174.611 473.673 173.826 473.24Q173.041 472.808 172.279 472.338Q171.516 471.867 170.778 471.36Q170.039 470.853 169.326 470.31C161.592 464.329 156.885 455.79 155.712 446.122Q155.431 443.933 155.363 441.728C144.483 440.781 135.035 437.331 127.872 428.729C121.007 420.487 119.103 411.193 119.964 400.694C110.184 399.384 101.432 394.635 95.3984 386.781Q94.8687 386.089 94.3739 385.371Q93.8791 384.653 93.4205 383.912Q92.9619 383.17 92.5406 382.407Q92.1193 381.644 91.7363 380.861Q91.3534 380.078 91.0097 379.277Q90.666 378.476 90.3624 377.658Q90.0589 376.841 89.7962 376.01Q89.5335 375.179 89.3123 374.335Q89.0911 373.492 88.912 372.639Q88.7329 371.786 88.5962 370.925Q88.4596 370.064 88.3658 369.197Q88.272 368.331 88.2213 367.46Q88.1705 366.59 88.163 365.718Q88.1554 364.847 88.1911 363.976Q88.2267 363.105 88.3055 362.236Q88.3843 361.368 88.506 360.505C89.5051 352.881 92.8843 346.816 97.6462 340.922L67.2052 299.9L59.0512 288.895C56.999 286.101 55.0348 283.12 52.6174 280.632C48.9757 276.883 44.5963 273.601 40.6278 270.187L16.6466 249.548C12.2497 245.764 5.3628 240.642 1.88918 236.259C1.11322 235.28 0.688314 234.145 0 233.132L0 512L512 512L512 226.497ZM166.128 161.389C159.625 168.911 153.417 176.714 147.109 184.399L114.699 223.886L88.2416 256.118C83.2645 262.179 78.0835 268.163 73.3526 274.416L100.543 311.076C102.964 314.338 109.356 323.748 111.928 326.043C111.979 326.008 112.024 325.964 112.08 325.937C112.188 325.885 112.304 325.852 112.415 325.808C114.946 324.808 117.294 322.645 119.777 321.378Q120.625 320.946 121.494 320.561Q122.364 320.175 123.253 319.837Q124.143 319.499 125.049 319.209Q125.955 318.919 126.875 318.678Q127.796 318.437 128.728 318.246Q129.66 318.055 130.6 317.915Q131.541 317.774 132.488 317.684Q133.436 317.594 134.386 317.556Q135.337 317.517 136.288 317.529Q137.239 317.542 138.189 317.605Q139.138 317.669 140.082 317.783Q141.027 317.898 141.964 318.063Q142.9 318.228 143.827 318.443Q144.754 318.658 145.668 318.923Q146.581 319.188 147.48 319.501Q148.378 319.815 149.258 320.176Q150.062 320.504 150.849 320.871Q151.635 321.238 152.403 321.643Q153.171 322.049 153.917 322.492Q154.664 322.935 155.388 323.414Q156.111 323.894 156.81 324.408Q157.51 324.923 158.182 325.471Q158.855 326.02 159.5 326.601Q160.145 327.183 160.76 327.795Q161.375 328.408 161.96 329.05Q162.544 329.692 163.096 330.362Q163.647 331.032 164.165 331.729Q164.683 332.426 165.166 333.147Q165.648 333.869 166.095 334.614Q166.541 335.358 166.95 336.124Q167.359 336.89 167.73 337.675Q168.101 338.46 168.432 339.262C169.543 341.936 170.212 344.65 170.808 347.473C182.122 346.047 191.599 347.183 200.847 354.43C208.269 360.247 212.741 368.756 213.849 378.071C214.038 379.666 214.082 381.265 214.112 382.868C224.258 383.253 233.427 386.568 240.468 394.114Q241.058 394.75 241.617 395.415Q242.175 396.079 242.7 396.77Q243.225 397.462 243.716 398.178Q244.206 398.894 244.661 399.633Q245.116 400.372 245.534 401.133Q245.951 401.894 246.331 402.674Q246.711 403.455 247.053 404.253Q247.394 405.051 247.695 405.865Q247.997 406.679 248.258 407.506Q248.519 408.334 248.74 409.174Q248.96 410.013 249.139 410.863Q249.318 411.712 249.454 412.569Q249.591 413.426 249.686 414.289Q249.78 415.152 249.832 416.018Q249.884 416.885 249.894 417.753Q249.903 418.621 249.87 419.488C249.786 421.758 249.545 424.093 249.03 426.309C258.432 427.821 266.981 432.818 272.573 440.565Q273.088 441.282 273.567 442.024Q274.045 442.767 274.487 443.531Q274.928 444.296 275.331 445.082Q275.734 445.868 276.098 446.672Q276.461 447.477 276.785 448.299Q277.108 449.12 277.39 449.957Q277.673 450.794 277.913 451.643Q278.154 452.493 278.352 453.354Q278.55 454.214 278.706 455.083Q278.861 455.953 278.974 456.829Q279.086 457.705 279.154 458.585Q279.223 459.465 279.248 460.348Q279.273 461.231 279.255 462.114Q279.236 462.996 279.174 463.877Q279.112 464.758 279.006 465.635Q278.9 466.512 278.751 467.382C278.135 471.124 276.811 474.585 275.291 478.041C279.785 482.015 283.821 485.327 290.15 484.968Q290.903 484.928 291.648 484.813Q292.393 484.699 293.124 484.511Q293.854 484.324 294.562 484.065Q295.27 483.806 295.949 483.478Q296.628 483.151 297.272 482.758Q297.915 482.365 298.516 481.91Q299.117 481.455 299.671 480.943Q300.224 480.43 300.724 479.866C303.489 476.716 304.785 472.678 304.487 468.508C304.317 466.119 303.613 463.866 302.347 461.829C300.024 458.088 296.362 454.928 293.275 451.806L280.908 439.339C278.539 436.974 275.533 434.53 274.155 431.438C272.595 427.935 273.471 423.686 275.964 420.837Q276.286 420.474 276.643 420.145Q277 419.816 277.388 419.524Q277.775 419.233 278.19 418.981Q278.606 418.729 279.044 418.52Q279.482 418.311 279.938 418.147Q280.395 417.983 280.866 417.865Q281.337 417.747 281.817 417.677Q282.297 417.607 282.782 417.585C286.171 417.405 288.962 419.081 291.347 421.319C297.155 426.768 302.588 432.727 308.191 438.399C311.032 441.275 313.901 444.758 317.392 446.851Q318.308 447.396 319.291 447.809Q320.274 448.222 321.305 448.495Q322.336 448.767 323.394 448.894Q324.453 449.022 325.519 449.001C329.327 448.929 333.553 447.292 336.171 444.488C339.204 441.238 340.74 437.143 340.507 432.695C340.383 430.34 339.776 427.946 338.5 425.945C335.351 421.009 328.844 415.343 324.622 411.084L300.272 386.481C297.094 383.281 292.299 379.706 290.407 375.606C288.742 371.998 289.696 367.426 292.353 364.55C294.198 362.552 296.753 361.547 299.46 361.542C301.659 361.537 303.611 362.289 305.411 363.513C309.258 366.128 312.932 370.794 316.234 374.152Q326.961 384.848 337.567 395.663L345.246 403.427C349.758 408 353.915 412.879 360.857 413.025Q361.637 413.038 362.414 412.973Q363.191 412.908 363.957 412.766Q364.724 412.624 365.473 412.405Q366.221 412.187 366.944 411.895Q367.667 411.603 368.358 411.24Q369.048 410.877 369.698 410.447Q370.349 410.017 370.953 409.524Q371.557 409.031 372.109 408.48C375.005 405.616 376.537 401.765 376.535 397.708C376.533 395.077 375.888 392.015 374.469 389.772C372.692 386.963 369.911 384.535 367.58 382.177L357.582 372.065L316.332 330.442C313.265 327.305 306.375 321.474 304.765 317.748C303.072 313.828 304.212 309.463 307.144 306.521C308.99 304.669 311.43 303.775 314.036 303.815C315.595 303.84 317.595 304.162 318.906 305.072C322.063 307.264 324.718 310.263 327.408 312.99L337.464 323.19L374.075 360.211C378.362 364.548 385.926 373.43 391.37 375.821C396.832 378.221 403.433 376.895 407.743 372.845Q408.299 372.325 408.799 371.752Q409.3 371.178 409.741 370.558Q410.182 369.938 410.559 369.276Q410.935 368.615 411.244 367.919Q411.553 367.223 411.79 366.5Q412.028 365.777 412.192 365.034Q412.356 364.291 412.445 363.535Q412.534 362.779 412.547 362.018C412.652 357.13 410.679 353.391 407.35 349.96C401.902 344.346 396.245 338.915 390.716 333.379L352.891 295.535C331.613 274.272 310.548 252.747 289.044 231.716C284.043 230.981 279.037 230.798 274.001 230.45L254.4 229.036C250.954 228.781 247.387 228.898 243.982 228.315C237.692 238.517 231.975 249.221 226.081 259.662C222.243 266.462 218.693 274.285 213.204 279.901Q212.324 280.796 211.383 281.627Q210.442 282.458 209.446 283.222Q208.45 283.985 207.402 284.677Q206.355 285.369 205.262 285.987Q204.169 286.604 203.036 287.143Q201.902 287.683 200.734 288.142Q199.566 288.601 198.368 288.978Q197.171 289.354 195.95 289.646Q195.101 289.846 194.243 290.003Q193.385 290.161 192.521 290.275Q191.656 290.39 190.787 290.461Q189.917 290.532 189.045 290.56Q188.174 290.588 187.302 290.572Q186.429 290.556 185.559 290.497Q184.689 290.438 183.823 290.336Q182.957 290.233 182.097 290.088Q181.237 289.942 180.385 289.754Q179.533 289.566 178.692 289.336Q177.851 289.105 177.022 288.833Q176.193 288.561 175.379 288.249Q174.565 287.936 173.767 287.583Q172.97 287.229 172.191 286.837Q171.412 286.445 170.653 286.014Q169.895 285.583 169.159 285.115C161.195 280.084 155.48 272.303 153.397 263.078Q153.127 261.911 152.936 260.729Q152.746 259.547 152.635 258.355Q152.524 257.163 152.494 255.966Q152.463 254.769 152.513 253.572Q152.563 252.376 152.694 251.186Q152.824 249.996 153.035 248.817Q153.245 247.638 153.534 246.476Q153.823 245.314 154.189 244.174C155.733 239.41 158.421 235.099 160.88 230.767L168.268 217.761L195.717 169.278C188.643 167.714 181.625 165.513 174.634 163.602C171.841 162.838 168.974 161.906 166.128 161.389ZM285.645 160.115C280.604 160.823 275.465 162.739 270.571 164.16L244.527 171.699L223.529 177.767C219.839 178.828 215.666 179.607 212.215 181.249C209.376 185.256 207.117 189.912 204.7 194.193L191.45 217.589L178.77 239.981C177.094 243.002 175.062 245.981 173.777 249.186C172.683 251.915 172.279 254.845 172.827 257.753Q172.964 258.508 173.175 259.246Q173.387 259.984 173.671 260.696Q173.956 261.409 174.31 262.09Q174.665 262.77 175.086 263.412Q175.507 264.054 175.99 264.65Q176.473 265.246 177.014 265.791Q177.555 266.336 178.147 266.823Q178.74 267.311 179.378 267.737Q180.009 268.161 180.679 268.521Q181.349 268.881 182.051 269.173Q182.753 269.465 183.48 269.686Q184.207 269.907 184.953 270.056Q185.699 270.204 186.455 270.278Q187.212 270.352 187.972 270.351Q188.733 270.35 189.489 270.274Q190.246 270.198 190.991 270.048C195.391 269.135 198.878 266.399 201.269 262.661C203.763 258.761 205.855 254.561 208.15 250.539L222.877 224.573C225.185 220.489 228.11 214.161 231.11 210.766C232.366 209.344 234.167 208.476 236 208.076C237.35 207.782 238.736 207.734 240.113 207.776C250.173 208.083 260.615 209.226 270.705 209.939L285.514 210.995C288.4 211.199 291.372 211.266 294.231 211.708C295.935 211.971 297.166 212.369 298.61 213.343C302.863 216.21 308.097 222.264 311.893 226.063L337.739 251.934L388.682 302.883L404.238 318.442C406.909 321.113 409.589 324.177 412.541 326.524L412.672 326.164C415.849 317.598 439.353 272.139 439.265 269.149C437.611 265.844 432.812 260.557 430.41 257.507L409.894 231.451L372.281 183.612L360.236 168.303C358.121 165.616 356.087 162.748 353.804 160.211C350.244 159.847 346.582 160.004 343.005 160.005L326.084 160.021C312.653 160.032 299.054 159.577 285.645 160.115ZM106.904 126.722C101.008 133.424 95.5549 140.59 89.9483 147.54L60.515 184L36.9049 213.232C32.5846 218.58 27.9404 223.842 23.9856 229.457C32.4964 236.169 40.5851 243.616 48.7997 250.695C52.1486 253.581 55.7593 257.366 59.5846 259.536Q60.6501 258.158 61.6963 256.766L118.021 188.142L137.221 164.738C140.617 160.604 143.916 156.275 147.515 152.324Q134.222 143.687 120.808 135.24C117.323 133.014 110.551 128.061 106.904 126.722ZM413.358 126.981Q393.285 139.583 373.36 152.416L450.456 250.454C451.257 251.416 452.031 252.445 452.916 253.329C456.874 250.003 486.835 224.713 487.622 223.054C487.302 221.194 472.601 202.802 470.212 199.706L426.953 143.549C425.465 141.617 415.405 128.042 414.362 127.285C413.982 127.01 413.804 126.957 413.358 126.981ZM213.343 403.335C211.002 403.596 208.89 403.991 206.829 405.236C202.572 407.809 195.035 416.206 191.29 419.949C187.296 423.942 182.74 427.901 179.209 432.299C176.501 435.673 175.252 439.534 175.723 443.861Q175.8 444.608 175.951 445.344Q176.101 446.081 176.324 446.798Q176.547 447.516 176.84 448.207Q177.133 448.899 177.493 449.559Q177.853 450.218 178.276 450.839Q178.7 451.459 179.183 452.035Q179.666 452.61 180.203 453.135Q180.741 453.66 181.328 454.129C184.615 456.726 188.237 457.518 192.343 457.444C194.94 457.013 197.235 456.317 199.446 454.837C203.425 452.173 208.821 445.996 212.382 442.439C216.593 438.233 223.563 432.062 226.88 427.402C229.386 423.882 230.338 419.929 229.607 415.661C228.922 411.661 226.755 408.123 223.4 405.815C220.614 403.898 216.747 402.811 213.343 403.335ZM176.957 367.116C174.457 367.574 172.347 368.107 170.198 369.562C166.123 372.323 160.131 379.089 156.442 382.782C152.25 386.979 145.519 392.882 142.298 397.513C140.055 400.737 139.324 405.078 140.068 408.915Q140.207 409.646 140.416 410.36Q140.626 411.073 140.904 411.763Q141.182 412.453 141.526 413.113Q141.87 413.772 142.277 414.395Q142.684 415.017 143.15 415.597Q143.616 416.177 144.136 416.709Q144.656 417.241 145.226 417.719Q145.795 418.198 146.409 418.618C149.5 420.706 152.882 421.381 156.567 421.246C159.066 420.85 161.34 420.184 163.467 418.748C167.726 415.87 172.996 409.792 176.767 406.026C181.037 401.762 187.593 395.994 191.022 391.246C193.46 387.87 194.452 383.812 193.789 379.686C193.15 375.71 190.953 371.993 187.648 369.659C184.439 367.392 180.786 366.882 176.957 367.116ZM132.514 338.065C130.536 338.616 128.845 339.228 127.138 340.409C124.069 342.532 111.921 354.605 110.201 357.731Q109.829 358.413 109.525 359.128Q109.222 359.844 108.991 360.585Q108.759 361.327 108.602 362.088Q108.445 362.849 108.363 363.622Q108.282 364.394 108.276 365.171Q108.271 365.948 108.343 366.722Q108.414 367.496 108.561 368.258Q108.708 369.021 108.93 369.766Q109.153 370.502 109.448 371.211Q109.744 371.92 110.11 372.596Q110.475 373.272 110.907 373.908Q111.339 374.544 111.832 375.133Q112.326 375.722 112.876 376.258Q113.426 376.795 114.028 377.273Q114.63 377.751 115.276 378.167Q115.923 378.582 116.608 378.93C119.497 380.41 123.114 380.885 126.301 380.318C128.426 379.878 130.145 379.188 131.957 377.99C135.62 375.568 145.973 365.195 148.419 361.49Q148.851 360.828 149.216 360.126Q149.58 359.424 149.873 358.69Q150.167 357.955 150.385 357.195Q150.604 356.435 150.747 355.657Q150.889 354.879 150.954 354.091Q151.019 353.303 151.005 352.512Q150.991 351.721 150.899 350.936Q150.807 350.15 150.637 349.378Q150.491 348.677 150.276 347.995Q150.061 347.312 149.779 346.655Q149.498 345.997 149.152 345.371Q148.806 344.744 148.399 344.155Q147.993 343.567 147.53 343.021Q147.067 342.475 146.552 341.979Q146.037 341.482 145.475 341.039Q144.913 340.596 144.31 340.211C140.539 337.774 136.817 337.72 132.514 338.065ZM242.657 446.338C240.316 446.605 238.301 447.009 236.228 448.229C233.005 450.125 222.351 460.905 219.828 464.102C217.197 467.438 216.059 471.513 216.577 475.74Q216.668 476.488 216.834 477.224Q217 477.959 217.238 478.674Q217.477 479.389 217.786 480.077Q218.094 480.764 218.47 481.418Q218.846 482.071 219.285 482.684Q219.724 483.296 220.223 483.862Q220.721 484.428 221.273 484.941Q221.825 485.454 222.426 485.909C225.759 488.434 229.454 489.121 233.532 488.94C235.545 488.534 237.465 488.114 239.265 487.064C242.702 485.058 254.424 473.183 256.696 469.734Q257.113 469.093 257.464 468.414Q257.816 467.734 258.098 467.024Q258.38 466.313 258.59 465.578Q258.801 464.842 258.937 464.09Q259.073 463.337 259.134 462.575Q259.196 461.813 259.181 461.048Q259.166 460.283 259.075 459.524Q258.984 458.765 258.819 458.018Q258.663 457.284 258.435 456.569Q258.208 455.854 257.91 455.166Q257.612 454.477 257.247 453.821Q256.883 453.166 256.455 452.55Q256.027 451.933 255.54 451.363Q255.053 450.792 254.511 450.273Q253.97 449.753 253.38 449.29Q252.789 448.827 252.156 448.425C249.567 446.796 245.734 445.827 242.657 446.338Z"/>
	<path fill="#C89F23" transform="matrix(1.47461 0 0 1.47461 0 -7.62939e-06)" d="M254.86 4.07172C257.123 3.95848 259.378 4.36784 261.327 5.56393Q261.745 5.82149 262.134 6.11991Q262.524 6.41833 262.882 6.75457Q263.239 7.09081 263.561 7.46143Q263.883 7.83205 264.166 8.23326Q264.449 8.63447 264.689 9.06218Q264.93 9.48989 265.127 9.93972Q265.323 10.3896 265.473 10.8569Q265.623 11.3243 265.725 11.8044Q265.833 12.2916 265.892 12.7869Q265.951 13.2823 265.961 13.7811Q265.972 14.2799 265.933 14.7773Q265.894 15.2747 265.807 15.7659Q265.719 16.2571 265.584 16.7373Q265.449 17.2175 265.267 17.6822Q265.085 18.1468 264.859 18.5913Q264.632 19.0358 264.363 19.4559C262.701 22.0137 260.239 23.3537 257.335 23.9966C254.821 24.0964 252.577 23.7787 250.418 22.3708Q250.002 22.1032 249.616 21.7944Q249.231 21.4855 248.878 21.1386Q248.526 20.7917 248.212 20.4104Q247.897 20.0292 247.623 19.6176Q247.349 19.2061 247.119 18.7686Q246.889 18.331 246.705 17.8722Q246.522 17.4134 246.386 16.938Q246.25 16.4627 246.164 15.976C245.694 13.2888 246.299 10.3478 247.872 8.11033C249.643 5.59285 251.956 4.61324 254.86 4.07172Z"/>
	<path fill="#C89F23" transform="matrix(1.47461 0 0 1.47461 0 -7.62939e-06)" d="M254.613 44.3164C257.032 44.1892 259.229 44.5559 261.34 45.8064C263.267 46.9477 264.865 48.7323 265.382 50.9423C266.482 55.6519 266.047 60.8621 266.049 65.682L266.053 83.7745L266.049 101.018C266.047 104.55 266.206 108.169 265.873 111.684C265.702 113.494 265.365 114.904 264.349 116.458C262.716 118.956 260.29 120.338 257.426 120.958C255.101 121.09 252.975 120.821 250.909 119.669C249.265 118.752 247.167 116.874 246.709 114.982C245.496 109.97 245.975 104.432 245.972 99.3019L245.963 80.3038L245.964 63.7361C245.965 60.1944 245.817 56.5835 246.185 53.0602C246.369 51.2978 246.735 50.0037 247.744 48.4996C249.401 46.0313 251.765 44.8553 254.613 44.3164Z"/>
	<path fill="#C89F23" transform="matrix(1.47461 0 0 1.47461 0 -7.62939e-06)" d="M131.356 32.5425C133.837 32.2559 136.232 32.5636 138.395 33.8876C141.559 35.8231 144.468 39.4282 147.097 42.0558L161.565 56.5229L192.046 86.9914C197.31 92.2532 202.767 97.4172 207.856 102.844C209.043 104.11 210.943 105.92 211.315 107.647C211.342 107.773 211.361 107.9 211.386 108.026C211.894 110.557 211.94 112.914 210.806 115.303C209.438 118.183 206.995 119.837 204.062 120.835C201.752 121.063 199.428 121.135 197.313 119.991C193.913 118.15 183.931 107.316 180.705 104.078L151.235 74.6083L134.632 58.0118C131.602 54.9822 128.331 52.0086 125.517 48.7817C124.63 47.7651 123.941 46.5743 123.574 45.2715Q123.438 44.7945 123.349 44.3064Q123.26 43.8183 123.22 43.3239Q123.179 42.8295 123.187 42.3335Q123.195 41.8375 123.251 41.3446Q123.308 40.8518 123.413 40.3668Q123.517 39.8819 123.669 39.4095Q123.82 38.9371 124.017 38.4818Q124.214 38.0266 124.455 37.5928C126.012 34.8176 128.359 33.3174 131.356 32.5425Z"/>
	<path fill="#C89F23" transform="matrix(1.47461 0 0 1.47461 0 -7.62939e-06)" d="M376.85 32.543C378.884 32.325 380.718 32.4346 382.632 33.2445C385.082 34.2812 387.132 36.2958 388.11 38.7805Q388.29 39.2503 388.422 39.7358Q388.554 40.2213 388.636 40.7176Q388.718 41.214 388.75 41.716Q388.782 42.2181 388.763 42.7209Q388.744 43.2236 388.675 43.7219Q388.605 44.2202 388.486 44.7089Q388.367 45.1977 388.199 45.672Q388.032 46.1463 387.817 46.6013C386.104 50.1715 372.048 63.2888 368.287 67.0473L340.094 95.2036L325.446 109.894C322.813 112.539 320.238 115.348 317.448 117.82C315.864 119.223 314.441 120.164 312.405 120.826C309.981 121.097 307.891 121.036 305.648 119.912C303.199 118.684 301.27 116.5 300.502 113.856Q300.366 113.372 300.28 112.876Q300.193 112.381 300.156 111.879Q300.12 111.378 300.134 110.875Q300.147 110.372 300.211 109.873Q300.276 109.374 300.389 108.884Q300.503 108.394 300.665 107.918Q300.827 107.442 301.036 106.985Q301.245 106.527 301.499 106.093C303.787 102.118 310.861 96.003 314.307 92.5657L335.761 71.1209L358.761 48.1001C362.913 43.9306 366.985 39.3805 371.411 35.5212C373.143 34.011 374.628 33.1351 376.85 32.543Z"/>
</svg>
