<?xml version="1.0" encoding="utf-8" ?>
<svg xmlns="http://www.w3.org/2000/svg" xmlns:xlink="http://www.w3.org/1999/xlink" width="754" height="754">
	<path fill="#C89F23" transform="matrix(1.47266 0 0 1.47266 -6.10352e-05 -7.62939e-06)" d="M0 0L110.875 0L111.837 0L512 0L512 140.997L512 145.707L512 512L277.691 512L236.812 512L0 512L0 318.659L0 280.523L0 0ZM353.441 305.372C357.196 309.437 360.847 313.582 364.553 317.69C364.485 317.764 364.417 317.838 364.348 317.911C354.41 328.392 339.783 333.581 331.753 345.933C325.357 355.772 325.029 366.032 325.041 377.355L325.062 393.825C325.072 404.085 324.927 412.442 318.64 421.141C315.697 425.213 312.063 427.705 308.216 430.797L308.185 431.142C307.814 435.497 308.059 440.05 308.064 444.426L308.086 467.919C308.088 474.123 308.431 480.573 306.825 486.624Q306.498 487.854 306.08 489.055Q305.662 490.257 305.155 491.424Q304.648 492.59 304.056 493.716Q303.463 494.842 302.788 495.92Q302.112 496.998 301.358 498.023Q300.604 499.047 299.775 500.012Q298.946 500.978 298.047 501.878Q297.149 502.778 296.185 503.609C292.229 506.995 287.982 509.231 282.973 510.593C281.275 511.055 279.299 511.319 277.691 512L512 512L512 145.707C511.975 145.777 511.949 145.845 511.925 145.915C510.432 150.302 510.219 155.791 509.588 160.395L506.074 185.249C505.568 188.846 505.393 193.23 503.951 196.6C503.197 198.361 501.724 199.963 500.037 200.871C498.612 201.637 497.023 201.766 495.433 201.747C492.233 201.709 488.82 200.921 485.653 200.446L470.157 198.218C466.546 197.681 461.93 196.588 458.362 197.508C455.744 198.184 453.624 200.266 452.813 202.834C452.045 205.268 452.559 207.629 453.743 209.829C455.205 212.546 457.412 215.06 459.274 217.521L469.557 231.105C471.435 233.587 473.702 236.15 474.897 239.044C475.641 240.846 475.864 242.798 475.325 244.689C474.792 246.558 473.347 248.039 471.938 249.312C469.329 251.67 466.306 253.685 463.489 255.796L447.634 267.661Q442.959 271.139 438.321 274.666C435.91 276.508 433.486 278.634 430.802 280.065C428.662 281.206 426.328 281.689 423.972 280.94C422.627 280.513 421.465 279.739 420.464 278.754C418.135 276.465 416.229 273.451 414.276 270.833L404.014 257.093C402.03 254.442 399.874 250.906 396.988 249.182C394.875 247.92 391.296 247.855 389.093 248.928C386.948 249.972 385.512 252.156 384.801 254.367C383.796 257.494 383.585 261.147 383.134 264.405L380.812 281.155C380.41 284.041 380.218 287.253 379.117 289.971C378.326 291.924 376.997 293.599 375.109 294.586C373.671 295.337 372.167 295.566 370.56 295.49C367.452 295.342 364.281 294.721 361.203 294.271L345.307 291.957L328.88 289.648C325.432 289.172 321.639 288.969 318.34 287.851C316.235 287.137 314.468 285.768 313.473 283.753C312.738 282.263 312.538 280.677 312.536 279.033C312.532 275.923 313.281 272.583 313.731 269.501L316.165 252.824C316.652 249.466 317.622 245.44 316.74 242.108C316.039 239.465 314.258 237.587 311.682 236.686C309.149 235.801 306.634 236.209 304.281 237.395C301.413 238.841 298.756 241.216 296.191 243.155L282.443 253.554C280.182 255.263 277.879 257.28 275.268 258.422C273.505 259.194 271.534 259.452 269.665 258.917C267.852 258.399 266.263 257.081 265.008 255.714C262.954 253.473 261.214 250.868 259.399 248.428L249.853 235.624L239.775 222.262C237.804 219.649 235.393 216.956 233.92 214.039C232.85 211.921 232.626 209.523 233.434 207.275C233.918 205.93 234.768 204.727 235.759 203.707C238.03 201.366 240.971 199.486 243.583 197.541L257.174 187.439C259.84 185.458 263.189 183.439 264.946 180.561C266.437 178.12 266.459 175.265 265.28 172.687C264.295 170.533 262.279 169.223 260.102 168.481C256.87 167.379 253.086 167.184 249.7 166.717L233.322 164.437C230.323 164.027 227.062 163.819 224.229 162.69C222.445 161.979 220.693 160.804 219.751 159.083C218.832 157.405 218.848 155.122 218.939 153.247C219.104 149.843 219.76 146.388 220.242 143.014L222.79 125.213L224.767 111.362C225.213 108.151 225.426 104.685 226.484 101.61C227.206 99.5115 228.442 97.8733 230.503 96.9656C232.003 96.3046 233.618 96.1217 235.242 96.1317C238.617 96.1525 242.156 96.8972 245.499 97.3808L262.19 99.7899C265.245 100.228 268.981 101.129 272.005 100.376C274.504 99.7539 276.667 97.766 277.609 95.385C278.46 93.2358 278.391 91.0964 277.447 89.0008C275.935 85.6418 273.08 82.5428 270.865 79.6111L260.533 65.9242C258.667 63.4502 256.343 60.8384 255.318 57.8786C254.846 56.5163 254.992 54.8744 255.006 53.4463C247.227 54.0449 239.903 54.1666 232.132 55.4414Q230.571 55.6955 229.016 55.9841Q227.462 56.2727 225.914 56.5956Q224.366 56.9185 222.825 57.2755Q221.285 57.6325 219.753 58.0235Q218.22 58.4145 216.697 58.8393Q215.174 59.2641 213.661 59.7224Q212.147 60.1808 210.644 60.6725Q209.141 61.1642 207.65 61.689Q206.158 62.2138 204.678 62.7714Q203.198 63.329 201.731 63.9193Q200.264 64.5095 198.811 65.132Q197.357 65.7545 195.918 66.409Q194.478 67.0635 193.053 67.7497Q191.629 68.4358 190.22 69.1533Q188.81 69.8708 187.417 70.6193Q186.024 71.3677 184.648 72.1468Q183.272 72.9259 181.914 73.7352Q180.555 74.5445 179.215 75.3837Q177.875 76.2228 176.553 77.0914Q175.232 77.9599 173.93 78.8575Q172.628 79.7551 171.346 80.6812Q170.065 81.6073 168.804 82.5616Q167.543 83.5158 166.303 84.4977Q165.064 85.4796 163.846 86.4887Q162.629 87.4977 161.434 88.5334Q160.239 89.5691 159.067 90.631Q157.895 91.6929 156.747 92.7804Q155.599 93.868 154.476 94.9806Q153.352 96.0933 152.253 97.2305Q151.155 98.3677 150.081 99.5289Q149.008 100.69 147.96 101.875Q146.913 103.059 145.892 104.267C122.165 131.977 109.386 170.343 112.246 206.749C114.686 237.805 125.931 267.181 146.422 290.884C152.02 297.36 158.159 303.08 164.656 308.624C170.759 313.831 177.779 317.86 184.113 322.769Q185.28 323.674 186.398 324.639Q187.516 325.603 188.582 326.625Q189.648 327.646 190.659 328.722Q191.671 329.798 192.625 330.925Q193.579 332.052 194.472 333.227Q195.366 334.402 196.198 335.622Q197.029 336.843 197.796 338.104Q198.562 339.366 199.262 340.667Q199.962 341.967 200.593 343.302Q201.224 344.636 201.785 346.002Q202.345 347.368 202.834 348.762Q203.323 350.155 203.738 351.572Q204.153 352.989 204.494 354.426Q204.835 355.862 205.101 357.315Q205.366 358.767 205.556 360.231Q205.745 361.696 205.858 363.168C206.608 372.518 206.123 382.206 206.111 391.603C206.105 396.243 205.559 401.448 206.787 405.951C207.713 409.344 209.685 412.245 212.346 414.521C214.691 416.527 217.607 417.715 220.643 418.173C224.288 418.722 228.253 418.445 231.945 418.443L251.249 418.424L277.544 418.431C282.466 418.43 287.515 418.673 292.412 418.255C297.148 417.85 301.177 415.684 304.232 412.027C308.528 406.883 308.093 400.593 308.087 394.302C308.061 368.97 305.294 348.365 324.218 328.105C329.953 321.965 337.449 317.506 344.226 312.615C347.387 310.333 350.131 307.437 353.441 305.372ZM0 0L0 280.523C0.582508 279.48 1.15413 278.403 1.81935 277.412C2.65193 276.171 3.69247 275.432 5.05617 274.857C8.45549 273.424 12.5099 272.93 16.1184 272.179L34.4249 268.358C31.1555 262.689 18.6376 246.837 17.3063 242.282C16.7332 240.321 17.1306 237.746 18.1114 235.973C20.1435 232.301 29.1347 224.16 32.4585 220.836C36.5778 216.716 40.6599 212.1 45.1674 208.411C46.236 207.537 47.264 206.822 48.6262 206.49C50.5215 206.028 52.2272 206.192 54.033 206.912C57.3733 208.243 60.4176 210.78 63.3677 212.827C68.625 216.476 73.8425 220.309 79.2925 223.661L82.9949 205.995C83.691 202.662 84.1998 199.144 85.237 195.908C85.7102 194.431 86.3519 192.813 87.3882 191.647C89.5443 189.219 92.9732 189.173 95.9609 189.019Q96.0608 187.195 96.2017 185.373Q96.3425 183.552 96.5243 181.734Q96.7061 179.916 96.9287 178.103Q97.1513 176.29 97.4145 174.482Q97.6778 172.674 97.9816 170.873Q98.2855 169.071 98.6297 167.277Q98.9739 165.483 99.3584 163.697Q99.7429 161.911 100.167 160.134Q100.592 158.358 101.056 156.591Q101.521 154.824 102.024 153.068Q102.528 151.312 103.072 149.568Q103.615 147.823 104.197 146.092Q104.78 144.36 105.401 142.642Q106.022 140.924 106.681 139.221Q107.341 137.517 108.038 135.828Q108.736 134.14 109.471 132.468Q110.207 130.795 110.98 129.14Q111.753 127.485 112.562 125.847Q113.372 124.21 114.219 122.591Q115.065 120.972 115.948 119.372Q116.83 117.773 117.748 116.193Q118.667 114.614 119.62 113.056Q120.574 111.498 121.562 109.961Q122.551 108.425 123.573 106.911Q124.596 105.397 125.652 103.907Q126.709 102.416 127.798 100.95Q128.888 99.4835 130.01 98.042Q131.132 96.6005 132.287 95.1846Q133.441 93.7687 134.627 92.3791Q135.813 90.9895 137.03 89.6269Q138.247 88.2643 139.494 86.9294Q140.741 85.5945 142.018 84.2879C166.982 58.6546 203.406 40.5676 239.127 37.1879C245.437 36.5909 251.969 36.1601 258.309 36.3339C263.263 36.4698 268.257 37.1173 273.208 37.0079L273.615 36.9971L290.163 24.5215C293.439 22.0523 296.875 18.954 300.602 17.2275C303.153 16.0458 305.847 16.1547 308.26 17.6257C311.267 19.4577 313.347 22.8477 315.408 25.616L325.321 38.9487C327.241 41.5317 329.102 44.4404 331.388 46.7053C332.485 47.7917 333.755 48.7101 335.227 49.2076C337.371 49.9317 339.93 49.6601 341.901 48.5596C343.648 47.5846 344.824 45.9802 345.541 44.1405C346.604 41.4158 346.803 38.2103 347.208 35.3269L349.576 18.4138C350.012 15.2925 350.22 11.8396 351.129 8.82988C351.842 6.47212 353.038 4.42343 355.288 3.2571C356.963 2.38871 358.979 2.31223 360.831 2.39593C364.076 2.54256 367.391 3.20633 370.606 3.67285L387.895 6.18233L402.345 8.18859C405.455 8.61743 408.804 8.8753 411.797 9.83912C414.665 10.7625 416.836 12.4768 417.715 15.4397C418.695 18.7435 417.662 22.9313 417.174 26.2801L414.712 43.0938C414.237 46.3559 413.484 49.8043 413.518 53.1062C413.533 54.6185 413.831 56.0762 414.549 57.4164C415.562 59.3061 417.483 60.8389 419.557 61.3909C421.444 61.8933 423.405 61.6281 425.181 60.8593C427.894 59.6852 430.28 57.5872 432.625 55.8146L446.153 45.5904C448.646 43.7071 451.2 41.4581 453.946 39.9827C456.233 38.7541 458.78 38.0577 461.325 38.9086C463.098 39.5012 464.62 40.9055 465.848 42.2818C467.701 44.3568 469.301 46.7364 470.965 48.9688L480.206 61.3629L490.376 74.8555C492.624 77.8352 495.469 80.9851 496.997 84.3948C498.097 86.8488 497.918 89.5061 496.541 91.81C494.762 94.7861 491.271 96.8955 488.547 98.926L474.91 109.081C472.362 110.978 469.406 112.836 467.21 115.135C466.181 116.213 465.282 117.446 464.805 118.871C464.103 120.965 464.366 123.138 465.382 125.082C466.329 126.893 467.8 128.154 469.675 128.947C472.545 130.16 475.946 130.365 479.01 130.792L495.502 133.084C498.774 133.536 502.261 133.785 505.428 134.738C509.065 135.832 510.31 137.836 512 140.997L512 0L111.837 0L110.875 0L0 0ZM366.575 20.4617Q365.315 28.4029 364.247 36.3724C362.805 46.5886 361.499 55.6115 352.484 62.0373Q351.974 62.4067 351.447 62.75Q350.919 63.0933 350.375 63.4098Q349.831 63.7262 349.271 64.015Q348.712 64.3038 348.139 64.5641Q347.566 64.8245 346.981 65.0558Q346.395 65.287 345.799 65.4887Q345.203 65.6903 344.597 65.8618Q343.991 66.0333 343.378 66.1742Q342.764 66.3151 342.144 66.4251Q341.525 66.5351 340.9 66.6138Q340.276 66.6926 339.648 66.7399Q339.02 66.7873 338.391 66.8031Q337.762 66.8189 337.133 66.8031Q336.503 66.7874 335.876 66.7401Q335.248 66.6928 334.623 66.614Q333.999 66.5353 333.379 66.4254C329.734 65.7672 326.081 64.2939 323.084 62.1008C317.005 57.6528 307.447 43.5262 302.52 36.8747C297.34 39.9735 292.466 44.1636 287.624 47.7977C283.606 50.8132 278.894 53.7902 275.317 57.2911C278.38 60.9873 281.193 64.9311 284.077 68.7693C290.327 77.0868 296.09 83.5589 295.094 94.6958Q295.038 95.314 294.952 95.9287Q294.865 96.5434 294.749 97.1532Q294.633 97.7629 294.487 98.3662Q294.341 98.9696 294.165 99.565Q293.99 100.16 293.786 100.747Q293.581 101.333 293.348 101.908Q293.115 102.483 292.854 103.047Q292.594 103.61 292.306 104.16Q292.017 104.71 291.703 105.245Q291.388 105.78 291.047 106.299Q290.707 106.818 290.341 107.319Q289.976 107.821 289.586 108.304Q289.196 108.787 288.783 109.251Q288.37 109.714 287.935 110.157Q287.5 110.599 287.044 111.02Q286.587 111.441 286.111 111.839C280.435 116.571 273.685 118.296 266.404 117.602C260.974 117.085 255.531 116.103 250.125 115.336C247.334 114.94 244.3 114.852 241.581 114.153C239.995 125.311 238.198 136.482 236.881 147.673L252.439 149.854C262.494 151.286 271.572 152.482 278.146 161.147Q278.523 161.651 278.875 162.173Q279.227 162.695 279.553 163.234Q279.879 163.773 280.177 164.328Q280.476 164.882 280.746 165.451Q281.017 166.02 281.259 166.601Q281.501 167.182 281.714 167.775Q281.927 168.368 282.111 168.97Q282.294 169.573 282.447 170.183Q282.6 170.794 282.723 171.412Q282.846 172.03 282.938 172.653Q283.03 173.276 283.091 173.902Q283.152 174.529 283.182 175.158Q283.211 175.787 283.21 176.417Q283.209 177.047 283.176 177.676Q283.143 178.304 283.08 178.931Q283.016 179.557 282.921 180.18C281.46 190.453 274.556 195.747 266.795 201.576L255.511 210.023Q254.417 210.839 253.308 211.636C256.325 216.473 260.17 221.025 263.603 225.59C266.864 229.927 270.018 234.664 273.612 238.713C278.543 235.442 283.205 231.626 287.929 228.061C296.15 221.856 303.036 217.378 313.816 219.515Q314.432 219.638 315.041 219.792Q315.65 219.945 316.25 220.128Q316.851 220.312 317.442 220.524Q318.033 220.737 318.613 220.978Q319.192 221.219 319.76 221.489Q320.327 221.759 320.88 222.056Q321.433 222.353 321.971 222.677Q322.509 223.001 323.03 223.351Q323.552 223.701 324.055 224.077Q324.559 224.452 325.043 224.852Q325.527 225.252 325.991 225.675Q326.456 226.098 326.898 226.543Q327.341 226.988 327.761 227.455Q328.182 227.922 328.578 228.408Q328.975 228.895 329.348 229.401Q329.72 229.907 330.067 230.43C335.963 239.362 333.932 248.848 332.526 258.753C331.894 263.213 331.453 267.813 330.511 272.215L330.445 272.511C341.574 274.42 352.828 275.568 363.962 277.44C364.003 277.324 364.047 277.209 364.086 277.093C364.863 274.821 364.958 271.825 365.287 269.426C367.179 255.639 366.996 241.104 381.067 233.761C386.916 230.709 394.43 230.18 400.68 232.224Q401.872 232.616 403.02 233.123Q404.167 233.631 405.259 234.25Q406.351 234.868 407.376 235.592Q408.401 236.316 409.35 237.137C412.572 239.932 415.037 243.474 417.575 246.87C421.078 251.556 424.492 256.373 428.23 260.874C437.222 254.092 446.148 247.172 455.287 240.592L445.798 227.972C439.719 219.872 434.087 212.702 435.62 201.93C436.561 195.315 440.185 188.895 445.598 184.924C454.088 178.696 462.98 179.899 472.754 181.309C478.151 182.087 483.55 182.969 488.96 183.648C490.714 172.487 491.933 161.2 493.859 150.075Q486.074 149.072 478.31 147.918C468.242 146.477 459.443 145.429 452.722 136.882Q452.342 136.395 451.986 135.89Q451.63 135.385 451.299 134.863Q450.969 134.341 450.664 133.803Q450.36 133.265 450.083 132.713Q449.805 132.161 449.555 131.596Q449.305 131.031 449.084 130.454Q448.862 129.877 448.669 129.29Q448.476 128.703 448.312 128.108Q448.149 127.512 448.014 126.909Q447.88 126.305 447.776 125.696Q447.672 125.087 447.597 124.474Q447.523 123.861 447.48 123.244Q447.436 122.628 447.423 122.01Q447.409 121.392 447.427 120.775Q447.444 120.157 447.491 119.541Q447.539 118.925 447.617 118.312C448.669 110.034 453.041 104.266 459.513 99.3245C465.407 94.8244 471.74 90.6663 477.385 85.8728C472.617 79.8667 468.125 73.6125 463.527 67.4748C461.418 64.6599 459.356 61.5204 456.928 58.979Q450.319 63.7603 443.837 68.7117C435.646 74.8677 428.51 80.3418 417.648 78.4614Q417.018 78.3522 416.394 78.2118Q415.77 78.0714 415.154 77.9002Q414.538 77.729 413.931 77.5274Q413.324 77.3258 412.727 77.0943Q412.131 76.8628 411.547 76.602Q410.963 76.3412 410.393 76.0517Q409.823 75.7622 409.268 75.4447Q408.712 75.1273 408.174 74.7826Q407.635 74.438 407.114 74.067Q406.593 73.696 406.091 73.2997Q405.589 72.9033 405.108 72.4824Q404.626 72.0616 404.166 71.6174Q403.706 71.1732 403.268 70.7066Q402.831 70.2401 402.417 69.7524Q402.003 69.2648 401.614 68.7571Q401.225 68.2495 400.862 67.7232C395.034 59.2656 396.515 50.5149 397.874 40.9939L400.144 25.1216L377.718 21.975C374.016 21.4548 370.246 21.1495 366.575 20.4617ZM0 318.659L0 512L236.812 512C234.849 511.353 232.75 510.996 230.752 510.446C225.345 508.96 220.732 506.298 216.661 502.437Q215.842 501.661 215.077 500.83Q214.313 500 213.608 499.119Q212.902 498.238 212.258 497.312Q211.614 496.385 211.035 495.416Q210.456 494.447 209.944 493.441Q209.433 492.435 208.991 491.397Q208.55 490.358 208.18 489.292Q207.811 488.225 207.515 487.136C205.354 479.146 206.082 470.189 206.087 461.958C206.094 451.617 206.273 441.242 206.018 430.906C204.015 429.191 201.769 427.817 199.82 426.007C185.385 412.596 189.81 394.873 189.08 377.423C185.017 381.041 176.23 391.748 171.581 392.795C170.089 393.13 168.633 392.971 167.214 392.423C163.859 391.127 160.785 388.599 157.842 386.559C152.499 382.855 147.214 378.958 141.678 375.551C140.171 381.777 139.001 388.115 137.691 394.387C136.957 397.901 136.472 401.832 134.972 405.101C134.046 407.12 132.229 408.877 130.079 409.549C126.818 410.569 97.6294 410.414 93.0242 409.917C91.6905 409.773 90.4928 409.533 89.3117 408.859C87.9064 408.057 86.7233 406.886 86.0302 405.416C84.5207 402.213 84.0658 398.239 83.347 394.776C82.0179 388.373 80.8555 381.88 79.2683 375.537C72.771 378.808 57.8624 391.684 52.4051 392.825C50.3809 393.248 48.0223 392.671 46.35 391.483C44.0959 389.881 42.1127 387.644 40.1569 385.69L30.8869 376.418C28.3322 373.86 18.9966 365.276 17.8315 362.576C17.0411 360.744 16.892 359.032 17.4248 357.105C18.7598 352.278 34.3685 332.53 34.0723 330.788C32.0183 329.823 29.2231 329.589 26.9937 329.131C20.524 327.8 13.7539 326.784 7.40929 325.01C3.38146 323.883 2.02212 322.249 0 318.659ZM97.5114 221.375C97.4792 221.448 97.4459 221.52 97.4148 221.594C96.5251 223.692 96.1657 226.053 95.5476 228.246C94.0544 233.543 90.4474 237.552 85.3526 239.644C81.3096 241.305 76.9048 241.167 72.9003 239.48C67.0365 237.009 57.7728 229.44 51.8923 225.753C49.3005 228.298 37.9185 238.825 37.0247 241.169C37.2303 242.979 38.9467 244.789 39.9911 246.236C46.9359 255.858 57.2678 267.246 47.8013 278.988Q47.2288 279.7 46.5832 280.346Q45.9376 280.992 45.2264 281.565Q44.5151 282.137 43.7465 282.631Q42.9779 283.124 42.1608 283.532C37.4963 285.828 22.886 288.5 17.1316 289.468C16.766 296.038 16.7948 303.037 17.0628 309.617L29.9272 312.321C37.2027 313.84 44.548 314.803 48.9393 321.548C51.4028 325.333 52.1306 330.206 51.1396 334.591C49.5208 341.756 40.2145 351.256 36.5312 358.147C40.0317 361.382 43.3553 364.818 46.7315 368.182C48.4846 369.929 50.2235 371.831 52.1777 373.354C55.3479 370.887 58.7326 368.672 62.0376 366.388C67.9776 362.284 73.5421 357.568 81.2211 358.512C85.7541 359.069 89.8118 361.258 92.6069 364.899C93.7963 366.448 94.6621 368.173 95.3117 370.009C96.7422 374.054 97.3687 378.601 98.2406 382.804C98.9252 386.105 99.8431 389.487 100.207 392.828C106.895 393.183 113.662 393.016 120.361 392.985C121.41 389.261 121.996 385.44 122.906 381.686C124.423 374.201 125.182 365.792 132.097 361.163C135.861 358.643 140.741 357.773 145.161 358.707C151.604 360.069 162.706 369.568 168.962 373.35Q174.209 367.851 179.626 362.521C182 360.149 184.351 357.566 186.971 355.47C182.624 339.112 167.183 332.844 155.432 322.916C148.844 335.263 138.055 344.409 124.628 348.519Q123.446 348.879 122.247 349.179Q121.048 349.479 119.836 349.72Q118.623 349.96 117.401 350.141Q116.178 350.321 114.948 350.44Q113.718 350.559 112.483 350.617Q111.248 350.675 110.013 350.671Q108.777 350.668 107.542 350.603Q106.308 350.538 105.079 350.412Q103.849 350.286 102.628 350.099Q101.406 349.912 100.195 349.665Q98.984 349.418 97.7868 349.111Q96.5897 348.803 95.4093 348.437Q94.2289 348.071 93.0681 347.647Q91.9073 347.222 90.769 346.741Q89.6307 346.26 88.5177 345.722Q87.4047 345.185 86.3198 344.593Q85.201 343.994 84.1129 343.342Q83.0247 342.689 81.97 341.983Q80.9152 341.278 79.8964 340.522Q78.8775 339.765 77.897 338.96Q76.9166 338.154 75.9768 337.302Q75.037 336.449 74.1403 335.551Q73.2435 334.654 72.3919 333.713Q71.5403 332.772 70.7358 331.791Q69.9314 330.81 69.1762 329.79Q68.4209 328.77 67.7166 327.715Q67.0123 326.659 66.3607 325.571Q65.7091 324.482 65.1117 323.362Q64.5143 322.243 63.9726 321.095Q63.4309 319.948 62.9461 318.775Q62.4614 317.603 62.0349 316.408Q61.6083 315.213 61.2409 313.998Q60.8927 312.803 60.6034 311.593Q60.3141 310.383 60.0845 309.16Q59.8548 307.937 59.6852 306.705Q59.5157 305.472 59.4068 304.233Q59.2978 302.993 59.2496 301.75Q59.2015 300.506 59.2143 299.262Q59.2271 298.018 59.3008 296.776Q59.3745 295.534 59.5089 294.297Q59.6433 293.06 59.8382 291.831Q60.033 290.602 60.2878 289.384Q60.5425 288.166 60.8566 286.962Q61.1707 285.759 61.5434 284.571Q61.9161 283.384 62.3464 282.217Q62.7768 281.049 63.2638 279.904Q63.7508 278.759 64.2933 277.64Q64.8357 276.52 65.4324 275.428C72.0776 263.36 82.9642 254.347 96.2871 250.616Q100.164 249.545 104.154 249.036C102.434 244.37 101.132 239.17 100.035 234.314C99.4961 231.93 98.325 222.731 97.5114 221.375ZM108.881 265.841C99.55 266.393 91.2669 269.968 84.9944 277.021Q84.4458 277.649 83.9284 278.304Q83.411 278.958 82.9261 279.637Q82.4412 280.316 81.99 281.017Q81.5388 281.719 81.1223 282.442Q80.7057 283.164 80.3249 283.907Q79.9441 284.649 79.5999 285.409Q79.2557 286.169 78.9489 286.944Q78.6421 287.72 78.3735 288.51Q78.1048 289.3 77.875 290.102Q77.6451 290.903 77.4546 291.716Q77.2641 292.528 77.1134 293.348Q76.9626 294.169 76.8521 294.995Q76.7415 295.822 76.6713 296.654Q76.6012 297.485 76.5716 298.318Q76.542 299.152 76.5531 299.986Q76.5641 300.82 76.6158 301.653Q76.6707 302.477 76.7655 303.297Q76.8603 304.118 76.9948 304.933Q77.1292 305.747 77.3031 306.555Q77.4769 307.362 77.6897 308.16Q77.9025 308.958 78.1537 309.745Q78.4049 310.532 78.694 311.305Q78.9831 312.079 79.3093 312.838Q79.6356 313.596 79.9982 314.338Q80.3609 315.08 80.7591 315.804Q81.1573 316.527 81.5901 317.231Q82.0229 317.934 82.4894 318.615Q82.9558 319.297 83.4547 319.955Q83.9537 320.613 84.4839 321.246Q85.0142 321.879 85.5745 322.486Q86.1348 323.093 86.7239 323.672Q87.313 324.25 87.9295 324.8C94.336 330.42 101.875 332.944 110.302 333.281C119.209 333.381 127.837 329.616 134.162 323.416C137.842 319.809 140.118 315.644 142.25 311.02C139.63 307.828 136.688 304.914 133.973 301.804C130.686 298.041 127.477 293.843 124.659 289.717C121.895 285.67 119.05 281.417 116.699 277.117C114.978 273.968 113.555 270.639 111.732 267.548C111.289 266.798 111.071 266.279 110.303 265.827L108.881 265.841ZM223.21 469.483C222.945 476.714 222.483 484.041 227.865 489.68C231.969 493.978 237.056 494.84 242.748 494.917C249.382 495.008 256.025 494.942 262.659 494.935C267.605 494.93 273.614 495.516 278.402 494.271C281.18 493.548 283.891 491.977 285.939 489.967C285.989 489.918 286.038 489.868 286.087 489.818C291.629 483.876 291.124 477.258 291.047 469.65C285.449 469.869 279.803 469.699 274.199 469.684L245.647 469.662L232.238 469.717C229.462 469.741 226.346 470.078 223.618 469.558L223.21 469.483ZM223.291 435.534C222.687 440.674 222.934 447.109 223.112 452.335Q247.026 452.508 270.94 452.42C277.598 452.419 284.37 452.156 291.016 452.459Q291.124 444.069 291.046 435.678C285.457 435.91 279.815 435.742 274.219 435.727L245.774 435.698L232.488 435.752C229.598 435.778 226.096 436.255 223.291 435.534Z"/>
	<path fill="#C89F23" transform="matrix(1.47266 0 0 1.47266 -6.10352e-05 -7.62939e-06)" d="M360.643 81.0976C377.683 80.3151 393.797 84.8955 407.299 95.5273Q408.616 96.5599 409.88 97.6563Q411.145 98.7528 412.353 99.9106Q413.562 101.068 414.711 102.284Q415.861 103.501 416.949 104.772Q418.037 106.044 419.061 107.367Q420.085 108.691 421.042 110.064Q421.999 111.437 422.887 112.856Q423.775 114.274 424.591 115.735Q425.408 117.196 426.151 118.695Q426.894 120.195 427.563 121.729Q428.231 123.263 428.822 124.829Q429.414 126.394 429.927 127.987Q430.44 129.58 430.874 131.197Q431.307 132.813 431.661 134.449Q432.014 136.085 432.286 137.736Q432.557 139.387 432.747 141.05Q432.944 142.721 433.057 144.401Q433.17 146.08 433.199 147.762Q433.229 149.445 433.175 151.127Q433.12 152.809 432.982 154.486Q432.844 156.164 432.623 157.832Q432.402 159.5 432.098 161.156Q431.794 162.811 431.408 164.449Q431.022 166.087 430.555 167.704Q430.088 169.321 429.541 170.912Q428.995 172.504 428.369 174.066Q427.744 175.629 427.042 177.158Q426.339 178.687 425.562 180.18Q424.784 181.673 423.933 183.125Q423.082 184.577 422.16 185.984Q421.238 187.392 420.247 188.753Q419.256 190.113 418.199 191.422C406.245 206.367 389.327 214.674 370.502 216.729C352.901 217.497 335.884 212.806 322.181 201.358Q320.868 200.281 319.61 199.14Q318.352 197.999 317.153 196.796Q315.954 195.593 314.817 194.332Q313.68 193.07 312.608 191.753Q311.535 190.437 310.53 189.068Q309.525 187.699 308.59 186.281Q307.655 184.864 306.792 183.401Q305.929 181.938 305.14 180.434Q304.352 178.93 303.639 177.388Q302.927 175.847 302.293 174.271Q301.659 172.695 301.105 171.09Q300.551 169.485 300.078 167.854Q299.604 166.223 299.214 164.57Q298.823 162.917 298.516 161.247Q298.208 159.577 297.985 157.893Q297.762 156.21 297.623 154.517Q297.484 152.829 297.428 151.135Q297.372 149.442 297.401 147.748Q297.429 146.054 297.542 144.363Q297.654 142.673 297.85 140.99Q298.046 139.307 298.325 137.636Q298.604 135.965 298.966 134.31Q299.328 132.655 299.771 131.019Q300.214 129.384 300.738 127.773Q301.262 126.162 301.865 124.578Q302.468 122.995 303.148 121.443Q303.829 119.892 304.586 118.376Q305.343 116.86 306.174 115.384Q307.005 113.907 307.908 112.474Q308.811 111.041 309.784 109.654Q310.757 108.267 311.798 106.93Q312.838 105.593 313.944 104.309C325.661 90.4457 342.7 82.5437 360.643 81.0976ZM362.833 98.0949C348.292 99.3834 336.031 104.696 326.531 116.021C317.695 126.554 313.414 139.629 314.583 153.366Q314.699 154.609 314.875 155.846Q315.052 157.082 315.289 158.308Q315.526 159.534 315.823 160.747Q316.119 161.96 316.475 163.157Q316.831 164.354 317.245 165.532Q317.659 166.71 318.13 167.866Q318.601 169.023 319.129 170.155Q319.656 171.287 320.238 172.391Q320.82 173.496 321.456 174.571Q322.091 175.646 322.779 176.688Q323.466 177.731 324.204 178.738Q324.942 179.746 325.728 180.716Q326.514 181.686 327.347 182.617Q328.18 183.547 329.057 184.436Q329.934 185.324 330.854 186.169Q331.774 187.014 332.734 187.812C342.282 195.777 355.274 200.765 367.829 199.644Q369.075 199.578 370.316 199.452Q371.557 199.325 372.79 199.138Q374.023 198.95 375.246 198.703Q376.468 198.455 377.677 198.147Q378.886 197.84 380.078 197.473Q381.271 197.107 382.443 196.682Q383.616 196.258 384.767 195.776Q385.918 195.294 387.043 194.757Q388.169 194.219 389.267 193.627Q390.364 193.035 391.432 192.389Q392.499 191.744 393.534 191.047Q394.568 190.35 395.567 189.603Q396.566 188.856 397.527 188.061Q398.488 187.266 399.409 186.424Q400.33 185.583 401.209 184.697Q402.087 183.812 402.921 182.884C412.046 172.637 416.943 159.68 416.121 145.907Q416.047 144.677 415.914 143.452Q415.78 142.227 415.587 141.011Q415.394 139.794 415.143 138.588Q414.891 137.381 414.581 136.189Q414.271 134.997 413.903 133.821Q413.535 132.645 413.111 131.488Q412.686 130.331 412.206 129.197Q411.726 128.062 411.191 126.952Q410.657 125.842 410.069 124.759Q409.481 123.676 408.841 122.624Q408.201 121.571 407.51 120.55Q406.82 119.53 406.081 118.544Q405.342 117.558 404.556 116.609Q403.769 115.661 402.938 114.751Q402.107 113.842 401.232 112.974Q400.358 112.106 399.442 111.282C389.066 102.11 376.718 97.5619 362.833 98.0949Z"/>
	<path fill="#C89F23" transform="matrix(1.47266 0 0 1.47266 -6.10352e-05 -7.62939e-06)" d="M110.875 0L111.837 0C113.602 4.88894 129.184 66.0854 129.043 67.7693C127.657 69.1479 115.623 71.6132 112.841 72.297C109.872 58.9366 106.135 45.6668 102.744 32.4051L98.0216 13.9185C97.2042 10.694 96.5257 7.39408 95.5403 4.21931C98.5506 3.58133 108.849 1.4092 110.875 0Z"/>
	<path fill="#C89F23" transform="matrix(1.47266 0 0 1.47266 -6.10352e-05 -7.62939e-06)" d="M75.1494 130.291C75.1995 130.285 75.2493 130.276 75.2996 130.273C76.0157 130.228 76.2568 130.152 76.811 130.617C77.5341 133.081 80.6392 144.356 80.3089 146.208C79.2218 147.229 20.2659 161.742 14.308 162.938C13.5778 163.058 13.3425 163.189 12.6631 162.858C11.0547 158.755 9.75006 151.259 8.74216 146.778C30.9181 141.47 52.9341 135.427 75.1494 130.291Z"/>
	<path fill="#C89F23" transform="matrix(1.47266 0 0 1.47266 -6.10352e-05 -7.62939e-06)" d="M32.3876 46.5995C34.8748 47.0419 85.1362 83.959 91.9186 88.4936C89.5569 93.4255 85.3927 97.7652 82.4452 102.404C78.9408 100.941 71.7291 95.0882 68.1835 92.5441L39.2313 71.8434C33.8467 67.9875 28.4595 63.6628 22.7763 60.2835C25.3761 55.524 29.2032 51.0039 32.3876 46.5995Z"/>
	<path fill="#C89F23" transform="matrix(1.47266 0 0 1.47266 -6.10352e-05 -7.62939e-06)" d="M248.923 376.11C254.434 375.719 260.117 375.994 265.648 376.044C265.163 383.996 266.048 392.063 265.544 400.013C265.497 400.755 265.505 401.119 264.952 401.632C259.492 401.886 254.021 401.435 248.579 401.665C248.559 398.22 248.014 377.34 248.923 376.11Z"/>
	<path fill="#C89F23" transform="matrix(1.47266 0 0 1.47266 -6.10352e-05 -7.62939e-06)" d="M367.601 384.478Q376.045 384.416 384.488 384.48C384.69 404.312 384.751 424.21 384.48 444.04L367.453 444.031C368.174 424.218 366.854 404.293 367.601 384.478Z"/>
	<path fill="#C89F23" transform="matrix(1.47266 0 0 1.47266 -6.10352e-05 -7.62939e-06)" d="M418.575 316.493L477.978 316.493C478.025 322.116 478.453 328.063 477.863 333.644C472.075 333.949 466.235 333.792 460.44 333.786L430.611 333.791C426.555 333.795 422.484 333.645 418.432 333.736C418.603 327.992 418.319 322.235 418.575 316.493Z"/>
	<path fill="#C89F23" transform="matrix(1.47266 0 0 1.47266 -6.10352e-05 -7.62939e-06)" d="M415.342 361.168C418.544 362.775 428.064 371.482 431.419 374.275L453.664 392.787C457.91 396.321 462.256 399.782 466.36 403.478C462.709 407.708 459.209 412.093 455.606 416.368C452.739 414.822 444.549 407.369 441.492 404.823C429.184 394.572 416.958 384.203 404.543 374.084Q409.8 367.507 415.342 361.168Z"/>
	<path fill="#C89F23" transform="matrix(1.47266 0 0 1.47266 -6.10352e-05 -7.62939e-06)" d="M193.303 97.1764C194.794 97.8758 201.671 109.434 202.523 111.313C200.191 113.46 197.136 115.143 194.6 117.109Q189.865 120.761 185.592 124.945Q181.32 129.129 177.569 133.787Q176.776 134.778 176.008 135.788Q175.24 136.797 174.497 137.826Q173.754 138.855 173.037 139.902Q172.32 140.949 171.629 142.013Q170.938 143.077 170.274 144.159Q169.61 145.24 168.973 146.337Q168.336 147.435 167.726 148.547Q167.116 149.66 166.534 150.788Q165.953 151.916 165.399 153.057Q164.845 154.199 164.32 155.354Q163.795 156.509 163.299 157.677Q162.803 158.845 162.336 160.025Q161.869 161.205 161.431 162.396Q160.994 163.587 160.586 164.788Q160.178 165.99 159.8 167.201Q159.422 168.413 159.074 169.633Q158.727 170.853 158.41 172.082Q158.092 173.311 157.806 174.547Q157.519 175.783 157.263 177.026Q157.007 178.269 156.783 179.517Q156.558 180.766 156.364 182.02Q156.17 183.274 156.008 184.533Q155.845 185.791 155.714 187.053Q155.583 188.315 155.483 189.58Q155.383 190.845 155.315 192.112Q155.246 193.379 155.209 194.648Q155.172 195.916 155.167 197.185Q155.162 198.454 155.188 199.723Q155.214 200.991 155.272 202.259Q155.33 203.526 155.419 204.792Q155.508 206.058 155.628 207.321Q155.749 208.584 155.901 209.844Q156.082 211.338 156.307 212.825Q156.533 214.313 156.802 215.793Q157.071 217.274 157.383 218.746Q157.696 220.218 158.052 221.679Q158.408 223.141 158.807 224.592Q159.206 226.043 159.647 227.481Q160.089 228.92 160.573 230.344Q161.057 231.769 161.582 233.179Q162.108 234.589 162.675 235.982Q163.243 237.376 163.851 238.752Q164.459 240.129 165.107 241.486Q165.756 242.844 166.444 244.182Q167.132 245.52 167.86 246.837Q168.587 248.154 169.353 249.449Q170.119 250.744 170.923 252.016Q171.727 253.288 172.569 254.535Q173.41 255.783 174.287 257.005Q175.165 258.227 176.079 259.423Q176.992 260.619 177.94 261.787Q178.888 262.955 179.871 264.095Q180.853 265.234 181.869 266.345Q182.884 267.455 183.932 268.535Q184.98 269.614 186.06 270.663Q187.139 271.711 188.249 272.727Q189.359 273.743 190.498 274.725Q191.638 275.708 192.805 276.657Q193.973 277.606 195.169 278.519Q196.364 279.433 197.586 280.311Q198.808 281.189 200.055 282.031Q201.302 282.872 202.574 283.677Q203.846 284.481 205.14 285.248Q206.435 286.014 207.752 286.742C218.596 292.847 228.738 295.467 238.908 303.564C252.8 314.623 261.68 330.463 264.623 347.894C265.241 351.555 265.235 355.36 265.641 359.058L258.094 359.076L248.464 359.037C248.711 339.858 237.849 321.541 221.275 312.09C216.757 309.513 211.816 307.628 207.088 305.477Q200.188 302.302 193.764 298.25Q191.148 296.604 188.621 294.825Q186.094 293.045 183.663 291.137Q181.232 289.229 178.903 287.197Q176.574 285.165 174.354 283.015Q172.134 280.866 170.028 278.604Q167.922 276.341 165.936 273.973Q163.951 271.605 162.091 269.137Q160.231 266.668 158.501 264.107C140.264 237.219 134.54 205.149 140.659 173.457C145.083 150.543 157.526 128.346 174.227 112.167C180.115 106.463 186.527 101.753 193.303 97.1764Z"/>
</svg>
