<?xml version="1.0" encoding="utf-8" ?>
<svg xmlns="http://www.w3.org/2000/svg" xmlns:xlink="http://www.w3.org/1999/xlink" width="1026" height="684">
	<path fill="#FEFEFE" transform="matrix(0.855 0 0 0.855 0 -7.62939e-06)" d="M0 0L1198.97 0C1199.64 1.05026 1199.87 1.95975 1199.93 3.19694C1200.45 14.4587 1200 25.9077 1200 37.1906L1200 103.493L1200.01 305.797L1200 676.492L1200 766.539C1200 772.758 1200.93 793.124 1199.84 797.96C1199.67 798.715 1199.38 799.351 1198.97 800L0 800L0 0Z"/>
	<path fill="#101216" transform="matrix(0.855 0 0 0.855 0 -7.62939e-06)" d="M592.116 65.8935C605.239 65.1837 618.706 66.2955 631.782 67.5625Q635.116 67.8771 638.443 68.2579Q641.77 68.6386 645.089 69.0853Q648.408 69.532 651.718 70.0445Q655.027 70.557 658.326 71.1351Q661.624 71.7132 664.911 72.3566Q668.197 73.0001 671.47 73.7087Q674.744 74.4172 678.002 75.1906Q681.26 75.964 684.503 76.8019Q687.745 77.6399 690.97 78.542Q694.195 79.4441 697.402 80.4101Q700.609 81.376 703.795 82.4054Q706.982 83.4349 710.148 84.5273Q713.314 85.6198 716.457 86.7749Q719.601 87.93 722.721 89.1473Q725.841 90.3645 728.936 91.6435Q732.031 92.9225 735.1 94.2626Q738.169 95.6028 741.211 97.0036Q744.253 98.4044 747.267 99.8653Q750.28 101.326 753.264 102.847Q756.248 104.367 759.202 105.946Q762.155 107.526 765.076 109.164Q767.997 110.801 770.886 112.497Q773.774 114.192 776.628 115.944Q779.482 117.697 782.301 119.505Q785.12 121.314 787.902 123.178Q790.684 125.042 793.429 126.962Q796.174 128.881 798.88 130.854Q801.586 132.827 804.252 134.854Q806.919 136.88 809.545 138.959Q812.17 141.038 814.754 143.169Q817.338 145.3 819.879 147.482Q822.421 149.663 824.918 151.895Q828.065 154.696 831.142 157.574Q834.218 160.451 837.222 163.405Q840.226 166.359 843.156 169.386Q846.086 172.414 848.939 175.513Q851.793 178.612 854.568 181.782Q857.344 184.951 860.04 188.189Q862.736 191.426 865.35 194.729Q867.965 198.033 870.497 201.401Q873.028 204.768 875.475 208.198Q877.922 211.627 880.284 215.116Q882.645 218.606 884.918 222.152Q887.192 225.699 889.377 229.302Q891.561 232.904 893.656 236.56Q895.75 240.215 897.753 243.922Q899.756 247.629 901.666 251.384Q903.577 255.139 905.393 258.941Q907.209 262.742 908.93 266.588Q910.651 270.434 912.276 274.321Q913.901 278.208 915.429 282.135Q916.957 286.061 918.387 290.025Q919.816 293.988 921.147 297.985Q922.478 301.983 923.709 306.012Q924.94 310.042 926.07 314.101Q927.201 318.16 928.23 322.245Q929.259 326.331 930.186 330.441Q931.113 334.551 931.938 338.683Q932.763 342.815 933.484 346.966Q934.206 351.117 934.825 355.285Q935.443 359.452 935.957 363.634Q936.472 367.816 936.882 372.01Q937.292 376.203 937.598 380.405Q937.904 384.607 938.106 388.816Q938.308 392.95 938.408 397.089Q938.509 401.227 938.508 405.366Q938.507 409.505 938.406 413.643Q938.304 417.781 938.101 421.916Q937.898 426.05 937.595 430.178Q937.291 434.306 936.886 438.426Q936.482 442.545 935.977 446.654Q935.472 450.762 934.867 454.857Q934.261 458.952 933.556 463.031Q932.851 467.109 932.047 471.17Q931.242 475.23 930.339 479.27Q929.435 483.309 928.433 487.325Q927.431 491.341 926.332 495.332Q925.232 499.322 924.035 503.285Q922.838 507.247 921.545 511.179Q920.252 515.111 918.863 519.01Q917.474 522.91 915.99 526.774Q914.506 530.638 912.928 534.464Q911.35 538.291 909.68 542.078Q908.009 545.865 906.246 549.61Q904.483 553.355 902.629 557.056Q900.776 560.757 898.832 564.411Q896.888 568.065 894.856 571.671Q892.824 575.277 890.704 578.832Q888.584 582.387 886.378 585.889Q884.172 589.391 881.881 592.838Q879.59 596.285 877.216 599.676Q874.841 603.066 872.385 606.397Q869.928 609.728 867.391 612.998Q864.853 616.268 862.237 619.475Q859.621 622.682 856.927 625.824Q854.233 628.967 851.463 632.042Q848.995 634.789 846.468 637.482Q843.941 640.174 841.355 642.811Q838.77 645.448 836.128 648.027Q833.486 650.607 830.788 653.129Q828.09 655.65 825.338 658.112Q822.586 660.574 819.781 662.976Q816.976 665.377 814.119 667.717Q811.262 670.057 808.355 672.333Q805.448 674.61 802.492 676.823Q799.535 679.036 796.532 681.184Q793.528 683.331 790.478 685.413Q787.429 687.495 784.334 689.51Q781.24 691.525 778.102 693.471Q774.964 695.418 771.785 697.296Q768.606 699.174 765.386 700.982Q762.167 702.79 758.909 704.527Q755.65 706.265 752.355 707.931Q749.06 709.597 745.729 711.19Q742.398 712.784 739.033 714.305Q735.668 715.825 732.271 717.272Q728.874 718.719 725.446 720.091Q722.018 721.464 718.561 722.761Q715.105 724.059 711.62 725.28Q708.136 726.502 704.625 727.647Q701.115 728.792 697.581 729.861Q694.046 730.929 690.49 731.92Q686.933 732.912 683.355 733.825Q679.777 734.738 676.181 735.573Q672.584 736.408 668.97 737.164Q665.356 737.921 661.726 738.598Q658.097 739.276 654.453 739.874Q650.81 740.472 647.154 740.99C634.493 742.831 621.828 743.577 609.067 744.246Q605.027 744.359 600.985 744.375Q596.943 744.391 592.901 744.311Q588.86 744.23 584.822 744.054Q580.784 743.877 576.751 743.604Q572.718 743.331 568.693 742.961Q564.668 742.592 560.653 742.127Q556.638 741.661 552.635 741.1Q548.632 740.539 544.643 739.883Q540.655 739.227 536.683 738.475Q532.712 737.724 528.759 736.878Q524.807 736.032 520.876 735.092Q516.944 734.151 513.037 733.118Q509.129 732.084 505.247 730.957Q501.365 729.83 497.511 728.611Q493.657 727.392 489.834 726.081Q486.01 724.771 482.219 723.369Q478.427 721.967 474.671 720.476Q470.914 718.984 467.194 717.403Q463.473 715.822 459.792 714.152Q456.111 712.483 452.47 710.726Q448.83 708.969 445.232 707.126Q441.635 705.283 438.082 703.354Q434.53 701.426 431.024 699.413Q427.519 697.4 424.062 695.304Q420.606 693.208 417.2 691.03Q413.795 688.853 410.442 686.594Q407.09 684.336 403.792 681.998Q400.494 679.66 397.253 677.244Q394.012 674.828 390.83 672.335Q387.648 669.842 384.526 667.274Q381.404 664.706 378.344 662.065Q375.284 659.423 372.288 656.709Q369.184 653.905 366.151 651.026Q363.118 648.146 360.156 645.193Q357.195 642.239 354.307 639.213Q351.42 636.187 348.608 633.091Q345.796 629.994 343.061 626.829Q340.327 623.665 337.671 620.433Q335.016 617.201 332.441 613.905Q329.866 610.609 327.373 607.25Q324.881 603.892 322.472 600.472Q320.063 597.053 317.739 593.575Q315.415 590.097 313.178 586.563Q310.94 583.029 308.791 579.441Q306.642 575.852 304.582 572.212Q302.522 568.572 300.553 564.881Q298.583 561.191 296.706 557.453Q294.828 553.716 293.043 549.933Q291.258 546.15 289.568 542.324Q287.877 538.498 286.281 534.631Q284.685 530.765 283.185 526.86Q281.686 522.955 280.283 519.015Q278.88 515.074 277.575 511.1Q276.27 507.126 275.063 503.12Q273.856 499.115 272.749 495.081Q271.642 491.048 270.635 486.988Q269.627 482.928 268.72 478.844Q267.814 474.761 267.008 470.656Q266.203 466.551 265.499 462.428Q264.795 458.305 264.193 454.165Q263.591 450.026 263.091 445.873Q262.592 441.719 262.195 437.555Q261.798 433.391 261.504 429.218Q261.211 425.046 261.02 420.867Q260.825 416.728 260.731 412.586Q260.638 408.444 260.646 404.3Q260.653 400.157 260.762 396.015Q260.872 391.873 261.082 387.735Q261.292 383.597 261.604 379.466Q261.915 375.334 262.328 371.211Q262.741 367.089 263.254 362.977Q263.767 358.866 264.381 354.768Q264.995 350.671 265.708 346.589Q266.422 342.508 267.236 338.445Q268.049 334.382 268.962 330.341Q269.874 326.299 270.885 322.281Q271.897 318.263 273.006 314.271Q274.115 310.279 275.322 306.316Q276.528 302.352 277.831 298.419Q279.134 294.486 280.533 290.586Q281.932 286.686 283.426 282.822Q284.92 278.957 286.508 275.13Q288.096 271.304 289.777 267.517Q291.458 263.73 293.232 259.986Q295.005 256.241 296.87 252.541Q298.734 248.841 300.688 245.188Q302.643 241.535 304.686 237.931Q306.729 234.326 308.86 230.773Q310.99 227.22 313.207 223.72Q315.424 220.22 317.726 216.775Q320.028 213.331 322.414 209.944Q324.799 206.556 327.267 203.228Q329.735 199.901 332.283 196.634Q334.832 193.368 337.459 190.164Q340.087 186.961 342.792 183.824Q345.497 180.686 348.278 177.615Q350.544 175.106 352.86 172.643Q355.176 170.18 357.541 167.763Q359.906 165.347 362.318 162.978Q364.73 160.609 367.19 158.289Q369.649 155.969 372.154 153.698Q374.659 151.427 377.208 149.207Q379.758 146.987 382.352 144.818Q384.945 142.649 387.582 140.533Q390.218 138.416 392.896 136.352Q395.574 134.289 398.293 132.279Q401.011 130.269 403.769 128.314Q406.528 126.359 409.324 124.459Q412.121 122.56 414.955 120.716Q417.789 118.873 420.659 117.086Q423.529 115.3 426.435 113.571Q429.34 111.842 432.279 110.171Q435.218 108.501 438.19 106.889Q441.162 105.278 444.166 103.726Q447.169 102.174 450.203 100.682Q453.237 99.1908 456.3 97.76Q459.363 96.3292 462.454 94.9599Q465.545 93.5905 468.662 92.2831Q471.78 90.9757 474.923 89.7308Q478.066 88.4859 481.234 87.304Q484.401 86.1221 487.591 85.0036Q490.781 83.8852 493.993 82.8306Q497.205 81.776 500.438 80.7858Q503.67 79.7956 506.922 78.87Q510.173 77.9445 513.442 77.0841Q516.712 76.2236 519.997 75.4286Q523.283 74.6336 526.584 73.9043Q529.885 73.175 533.2 72.5118C552.661 68.675 572.331 66.8767 592.116 65.8935Z"/>
	<path fill="#FEFEFE" transform="matrix(0.855 0 0 0.855 0 -7.62939e-06)" d="M583.359 74.0994C583.927 74.0411 584.485 73.9866 585.055 73.9616Q589.077 73.7852 593.102 73.7067Q597.127 73.6282 601.153 73.6476Q605.178 73.6671 609.202 73.7845Q613.226 73.9019 617.246 74.1172Q621.266 74.3325 625.28 74.6455Q629.293 74.9585 633.298 75.3692Q637.303 75.7798 641.296 76.2877Q645.29 76.7957 649.27 77.4006Q653.25 78.0056 657.214 78.7072Q661.178 79.4089 665.124 80.2068Q669.07 81.0046 672.995 81.8983Q676.921 82.792 680.823 83.7809Q684.726 84.7698 688.603 85.8534Q692.48 86.937 696.33 88.1146Q700.18 89.2922 704 90.5631Q707.819 91.8341 711.607 93.1976Q715.395 94.5611 719.149 96.0164Q722.902 97.4717 726.62 99.0179Q730.337 100.564 734.015 102.2Q737.694 103.836 741.331 105.562Q744.969 107.287 748.563 109.1Q752.158 110.913 755.707 112.813Q759.256 114.714 762.758 116.699Q766.26 118.685 769.713 120.756Q773.166 122.827 776.567 124.98Q779.969 127.134 783.317 129.371Q786.665 131.607 789.957 133.924Q793.25 136.24 796.485 138.637Q799.72 141.033 802.896 143.508Q806.072 145.982 809.187 148.533Q812.302 151.084 815.354 153.71Q818.406 156.336 821.393 159.035Q824.392 161.737 827.324 164.511Q830.256 167.285 833.12 170.13Q835.983 172.975 838.777 175.889Q841.57 178.802 844.292 181.784Q847.013 184.765 849.661 187.811Q852.309 190.858 854.882 193.968Q857.455 197.079 859.951 200.251Q862.448 203.423 864.866 206.655Q867.284 209.887 869.623 213.178Q871.961 216.468 874.219 219.814Q876.477 223.16 878.652 226.561Q880.828 229.961 882.92 233.414Q885.011 236.866 887.019 240.368Q889.026 243.871 890.947 247.421Q892.868 250.972 894.702 254.568Q896.535 258.164 898.281 261.804Q900.027 265.444 901.683 269.125Q903.339 272.807 904.906 276.527Q906.472 280.248 907.947 284.006Q909.422 287.763 910.804 291.556Q912.187 295.349 913.477 299.174Q914.767 302.999 915.963 306.855Q917.159 310.711 918.261 314.594Q919.363 318.478 920.37 322.387Q921.377 326.297 922.288 330.229Q923.199 334.162 924.014 338.116Q924.829 342.07 925.548 346.042Q926.266 350.015 926.887 354.004Q927.509 357.993 928.032 361.996Q928.556 365.998 928.982 370.013Q929.408 374.027 929.736 378.051Q930.064 382.075 930.294 386.105Q930.532 390.207 930.669 394.314Q930.805 398.421 930.839 402.53Q930.874 406.64 930.806 410.748Q930.738 414.857 930.569 418.963Q930.399 423.068 930.127 427.169Q929.856 431.269 929.483 435.361Q929.109 439.454 928.635 443.535Q928.16 447.617 927.584 451.686Q927.008 455.754 926.331 459.808Q925.655 463.861 924.878 467.896Q924.101 471.931 923.224 475.945Q922.346 479.96 921.37 483.952Q920.394 487.943 919.318 491.909Q918.243 495.875 917.07 499.813Q915.897 503.751 914.626 507.659Q913.355 511.567 911.988 515.442Q910.62 519.317 909.157 523.157Q907.694 526.996 906.136 530.799Q904.578 534.601 902.926 538.363Q901.275 542.126 899.53 545.846Q897.785 549.566 895.948 553.242Q894.112 556.918 892.185 560.547Q890.257 564.176 888.24 567.756Q886.224 571.336 884.119 574.865Q882.014 578.394 879.822 581.869Q877.63 585.345 875.352 588.765Q873.075 592.185 870.713 595.547Q868.351 598.909 865.907 602.212Q863.462 605.515 860.936 608.756Q858.411 611.997 855.805 615.174Q853.2 618.351 850.516 621.463Q847.833 624.574 845.073 627.618Q842.356 630.628 839.567 633.571Q836.777 636.514 833.916 639.387Q831.054 642.261 828.124 645.063Q825.193 647.865 822.194 650.594Q819.195 653.324 816.13 655.979Q813.065 658.634 809.936 661.212Q806.807 663.791 803.616 666.292Q800.424 668.794 797.172 671.216Q793.92 673.638 790.61 675.979Q787.3 678.321 783.933 680.58Q780.566 682.84 777.145 685.016Q773.723 687.192 770.249 689.283Q766.776 691.375 763.252 693.38Q759.728 695.386 756.156 697.304Q752.583 699.222 748.965 701.052Q745.347 702.882 741.685 704.623Q738.023 706.363 734.319 708.013Q730.616 709.663 726.873 711.222Q723.13 712.781 719.349 714.247Q715.569 715.713 711.754 717.086Q707.939 718.459 704.092 719.738Q700.244 721.017 696.366 722.201Q692.489 723.385 688.583 724.473Q684.677 725.562 680.746 726.554Q676.815 727.546 672.86 728.441Q668.906 729.336 664.931 730.134Q660.955 730.932 656.962 731.632Q652.968 732.332 648.959 732.934Q644.949 733.536 640.926 734.039Q636.903 734.542 632.868 734.946Q628.834 735.35 624.791 735.655Q620.748 735.96 616.699 736.165C528.879 739.669 446.141 711.915 379.955 653.283Q376.89 650.569 373.892 647.781Q370.895 644.992 367.967 642.13Q365.04 639.268 362.184 636.335Q359.328 633.401 356.546 630.398Q353.763 627.395 351.055 624.324Q348.348 621.253 345.717 618.116Q343.086 614.979 340.534 611.778Q337.982 608.577 335.509 605.314Q333.036 602.051 330.645 598.728Q328.254 595.404 325.946 592.023Q323.637 588.641 321.413 585.204Q319.189 581.767 317.051 578.275Q314.912 574.784 312.861 571.241Q310.809 567.697 308.846 564.104Q306.883 560.512 305.009 556.871Q303.135 553.231 301.352 549.546Q299.568 545.86 297.876 542.132Q296.184 538.403 294.585 534.634Q292.986 530.865 291.481 527.057Q289.975 523.25 288.564 519.406Q287.153 515.563 285.838 511.685Q284.522 507.808 283.303 503.899Q282.083 499.991 280.961 496.053Q279.839 492.116 278.814 488.152Q277.789 484.187 276.863 480.199Q275.936 476.211 275.109 472.201Q274.281 468.191 273.553 464.162Q272.825 460.133 272.196 456.087Q271.568 452.041 271.039 447.98Q270.511 443.92 270.083 439.848Q269.655 435.776 269.328 431.695Q269.001 427.613 268.775 423.525Q268.55 419.475 268.424 415.42Q268.298 411.365 268.272 407.309Q268.245 403.252 268.318 399.196Q268.391 395.14 268.563 391.087Q268.735 387.034 269.006 382.986Q269.278 378.939 269.648 374.899Q270.018 370.859 270.488 366.83Q270.957 362.801 271.525 358.784Q272.092 354.767 272.758 350.765Q273.424 346.764 274.188 342.78Q274.951 338.796 275.812 334.831Q276.673 330.867 277.631 326.925Q278.589 322.983 279.643 319.066Q280.697 315.149 281.847 311.259Q282.996 307.368 284.241 303.507Q285.486 299.646 286.824 295.817Q288.163 291.988 289.595 288.193Q291.027 284.397 292.552 280.638Q294.076 276.879 295.693 273.158Q297.309 269.438 299.016 265.758Q300.723 262.078 302.519 258.441Q304.315 254.804 306.2 251.212Q308.085 247.62 310.058 244.075Q312.03 240.531 314.089 237.036Q316.147 233.54 318.291 230.096Q320.434 226.653 322.662 223.262Q324.889 219.872 327.198 216.538Q329.508 213.203 331.898 209.926Q334.289 206.649 336.759 203.431Q339.229 200.214 341.777 197.058Q344.325 193.902 346.95 190.809Q349.574 187.716 352.274 184.689Q355.004 181.615 357.81 178.611Q360.616 175.606 363.496 172.672Q366.376 169.738 369.328 166.877Q372.28 164.016 375.302 161.229Q378.324 158.442 381.415 155.731Q384.505 153.02 387.662 150.387Q390.819 147.753 394.041 145.2Q397.263 142.646 400.547 140.173Q403.831 137.7 407.175 135.31Q410.52 132.919 413.923 130.613Q417.326 128.306 420.785 126.085Q424.244 123.864 427.758 121.73Q431.271 119.596 434.836 117.55Q438.402 115.504 442.017 113.547Q445.632 111.59 449.295 109.724Q452.958 107.857 456.666 106.083Q460.374 104.308 464.125 102.627Q467.876 100.945 471.668 99.3569Q475.459 97.769 479.289 96.276Q483.119 94.783 486.985 93.3857Q490.851 91.9884 494.751 90.6878Q498.65 89.3872 502.581 88.184Q506.512 86.9808 510.471 85.8757Q514.43 84.7707 518.416 83.7645Q522.402 82.7584 526.411 81.8517Q530.421 80.945 534.451 80.1384Q538.482 79.3318 542.532 78.6257Q546.581 77.9196 550.647 77.3145Q554.713 76.7094 558.792 76.2057Q562.872 75.7019 566.963 75.2998Q571.054 74.8978 575.154 74.5976Q579.253 74.2975 583.359 74.0994Z"/>
	<path fill="#101216" transform="matrix(0.855 0 0 0.855 0 -7.62939e-06)" d="M620.245 90.7313C623.629 90.9074 627.02 91.2623 630.398 91.5371C628.208 107.071 627.658 123.309 626.301 138.955C623.006 138.851 619.672 138.428 616.384 138.144C618.368 122.502 619.024 106.462 620.245 90.7313Z"/>
	<path fill="#101216" transform="matrix(0.855 0 0 0.855 0 -7.62939e-06)" d="M713.58 111.778L722.866 115.558Q713.707 137.544 704.881 159.666L695.563 155.84L713.58 111.778Z"/>
	<path fill="#101216" transform="matrix(0.855 0 0 0.855 0 -7.62939e-06)" d="M587.299 90.4987C590.29 90.0961 593.479 90.1334 596.502 89.9676C596.781 92.7778 596.963 95.604 597.186 98.4196C592.477 98.4985 587.717 98.9702 583.015 99.2854L585.763 138.235C582.652 138.657 578.636 139.762 575.807 138.128L575.536 136.116C575.185 124.191 574.174 112.016 573.086 100.134C568.405 100.181 563.702 100.621 559.03 100.932L558.275 92.5952C567.907 91.6072 577.637 91.151 587.299 90.4987Z"/>
	<path fill="#101216" transform="matrix(0.855 0 0 0.855 0 -7.62939e-06)" d="M797.744 591.78C801.206 597.857 802.685 615.403 806.257 623.673C808.519 628.909 815.66 632.133 817.345 637.415C815.918 640.132 812.685 642.503 810.104 644.121C810.051 643.909 810.032 643.686 809.945 643.486C809.414 642.263 807.693 640.635 806.817 639.587C801.451 633.173 797.104 630.301 789.269 627.727Q777.947 623.954 766.664 620.067L775.354 612.067C782.278 615.197 789.426 617.864 796.414 620.862C794.287 613.614 791.854 606.43 789.569 599.228L797.744 591.78Z"/>
	<path fill="#101216" transform="matrix(0.855 0 0 0.855 0 -7.62939e-06)" d="M657.904 95.3263C668.842 98.1253 679.889 100.571 690.861 103.245L689.067 111.209Q677.447 108.565 665.88 105.701L663.183 116.368C669.688 118.165 676.346 119.466 682.873 121.218C683.525 122.756 682.698 124.866 682.322 126.444C682.129 127.401 682.022 127.865 681.332 128.572C675.678 129.339 666.92 125.884 661.293 124.365C659.667 130.892 658.256 137.488 656.745 144.044L646.936 141.66L657.904 95.3263Z"/>
	<path fill="#101216" transform="matrix(0.855 0 0 0.855 0 -7.62939e-06)" d="M418.918 614.322C424.649 613.839 429.879 615.479 434.464 618.965C438.879 622.323 442.255 627.283 442.912 632.87C443.338 636.489 442.691 641.348 440.353 644.246C438.499 644.362 434.127 640.071 432.467 638.761C433.528 634.906 433.929 631.778 431.849 628.169C430.556 625.927 428.427 624.559 425.908 624.057C422.274 623.331 418.646 624.467 415.617 626.457C411 629.49 406.649 634.825 405.553 640.339C404.756 644.354 405.701 647.26 407.964 650.55C409.753 651.887 411.464 653.191 413.714 653.634C417.203 654.321 419.988 652.549 422.801 650.789C425.495 652.796 428.113 654.926 430.762 656.994C428.108 659.019 425.162 660.795 421.97 661.815C416.915 663.43 411.787 663.005 407.112 660.466C402.016 657.698 397.93 652.683 396.369 647.085C394.653 640.926 396.36 634.469 399.477 629.054C403.968 621.254 410.36 616.697 418.918 614.322Z"/>
	<path fill="#101216" transform="matrix(0.855 0 0 0.855 0 -7.62939e-06)" d="M407.601 157.691C407.857 157.672 408.113 157.648 408.369 157.632C414.251 157.267 418.829 159.045 423.214 162.894L415.593 169.373C412.758 167.404 409.735 166.537 406.295 167.272C404.042 167.753 402.321 169.08 401.14 171.036C399.314 174.058 398.971 177.681 399.818 181.073C401.15 186.403 405.281 192.205 410.034 195.001C413.094 196.801 416.629 197.298 420.059 196.27C422.679 195.486 424.863 193.834 426.009 191.309C427.7 187.585 426.807 184.686 425.359 181.107C427.626 179.098 429.991 176.567 432.732 175.268L433.887 176.005Q434.061 176.412 434.221 176.825C436.315 182.282 437.21 188.121 434.736 193.617C432.423 198.757 427.32 203.287 422.057 205.219C416.919 207.106 411.4 206.592 406.512 204.229C399.206 200.696 393.058 193.332 390.491 185.674C388.703 180.339 388.901 174.633 391.483 169.588C394.742 163.223 401.021 159.75 407.601 157.691Z"/>
	<path fill="#101216" transform="matrix(0.855 0 0 0.855 0 -7.62939e-06)" d="M468.022 118.377C469.699 120.547 470.873 123.408 472.132 125.857L449.973 137.561C451.472 140.549 453.176 143.462 454.784 146.395C461.639 143.228 468.398 139.171 474.984 135.483L478.9 142.943C472.234 146.722 465.375 150.216 458.617 153.83L464.297 164.522L483.813 154.108L487.437 152.168L491.554 159.733L459.758 176.735L437.478 134.795Q452.676 126.448 468.022 118.377Z"/>
	<path fill="#101216" transform="matrix(0.855 0 0 0.855 0 -7.62939e-06)" d="M748.4 127.445Q763.288 136.603 778.297 145.558L773.763 152.914C766.757 148.393 759.495 144.177 752.372 139.837L747.264 148.336L766.898 160.328L762.609 167.515L743.236 155.622C740.544 158.101 738.472 162.616 736.521 165.763C743.864 170.513 751.509 174.902 758.988 179.444L754.613 186.833C744.178 180.874 733.991 174.374 723.722 168.127L748.4 127.445Z"/>
	<path fill="#101216" transform="matrix(0.855 0 0 0.855 0 -7.62939e-06)" d="M679.735 664.142C690.249 677.086 699.485 691.621 709.123 705.256L698.76 708.403L693.04 699.621L688.218 701.139L676.198 704.394L675.933 714.831L665.712 717.706C667.756 700.972 666.845 683.772 669.242 667.073Q674.51 665.686 679.735 664.142Z"/>
	<path fill="#FEFEFE" transform="matrix(0.855 0 0 0.855 0 -7.62939e-06)" d="M677.387 676.724C679.649 678.463 686.896 689.469 687.465 692.34L685.997 693.177L676.721 695.672C676.781 689.361 677.142 683.032 677.387 676.724Z"/>
	<path fill="#101216" transform="matrix(0.855 0 0 0.855 0 -7.62939e-06)" d="M622.146 675.425C626.025 675.142 629.987 675.918 633.031 678.457C636.499 681.351 638.243 685.615 638.559 690.056C638.841 694.016 638.097 698.089 635.332 701.11C630.227 706.688 620.329 706.247 613.439 706.746L614.424 720.152C614.585 721.335 614.755 722.1 614.15 723.202C611.535 724.607 607.627 724.263 604.687 724.407L601.627 677.029C608.414 676.201 615.324 675.913 622.146 675.425Z"/>
	<path fill="#FEFEFE" transform="matrix(0.855 0 0 0.855 0 -7.62939e-06)" d="M612.975 684.268C617.528 683.97 623.756 683.06 627.412 686.491C628.342 687.364 628.844 688.467 628.855 689.747C628.876 692.269 627.557 694.839 625.939 696.68C621.946 698.317 617.222 698.107 612.971 698.263C612.581 694.695 611.13 687.19 612.975 684.268Z"/>
	<path fill="#101216" transform="matrix(0.855 0 0 0.855 0 -7.62939e-06)" d="M748.762 632.293C751.603 634.28 769.376 668.072 772.505 673.745L763.886 678.676C753.177 671.463 741.526 665.26 730.475 658.527C735.784 668.476 741.535 678.233 747.006 688.099L739.365 692.533C737.151 690.99 718.46 656.074 715.682 651.205L724.717 645.888C735.282 653.05 746.802 659.202 757.695 665.916C752.048 656.284 746.651 646.49 741.156 636.77L748.762 632.293Z"/>
	<path fill="#101216" transform="matrix(0.855 0 0 0.855 0 -7.62939e-06)" d="M523.025 99.7881Q523.893 99.7536 524.758 99.8395Q525.623 99.9254 526.467 100.13Q527.312 100.335 528.12 100.654Q528.928 100.974 529.684 101.402Q530.308 101.767 530.893 102.192Q531.478 102.618 532.017 103.099Q532.557 103.581 533.046 104.114Q533.534 104.647 533.968 105.226Q534.401 105.805 534.774 106.425Q535.147 107.044 535.457 107.698Q535.766 108.351 536.009 109.033Q536.252 109.714 536.426 110.416C537.643 115.195 535.751 117.937 533.407 121.979C534.604 124.262 537.991 124.665 539.544 127.224C542.013 131.293 540.932 136.739 544.528 140.287C545.174 140.924 545.59 141.143 545.758 142.079C542.743 143.836 538.615 144.398 535.234 145.228C533.291 141.23 532.012 132.257 528.055 130.019C524.167 127.821 517.445 130.988 513.557 132.251C512.941 134.947 517.337 146.77 518.342 150.092L508.968 152.836C504.148 137.751 500.284 122.195 495.96 106.946C504.776 104.489 514.005 101.08 523.025 99.7881Z"/>
	<path fill="#FEFEFE" transform="matrix(0.855 0 0 0.855 0 -7.62939e-06)" d="M521.543 108.55C522.079 108.671 522.615 108.796 523.133 108.983C524.876 109.614 526.186 111.37 526.851 113.046C527.516 114.719 527.507 116.745 526.656 118.356C524.938 121.606 516.899 123.032 513.452 124.053C512.706 124.265 512.197 124.179 511.439 124.056C509.298 121.113 508.481 115.962 507.489 112.412C512.148 110.997 516.772 109.549 521.543 108.55Z"/>
	<path fill="#101216" transform="matrix(0.855 0 0 0.855 0 -7.62939e-06)" d="M531.871 668.936C536.602 669.583 541.324 670.53 546.029 671.356C547.033 684.057 547.543 696.845 548.061 709.576C553.628 698.109 558.109 685.905 562.976 674.113C567.67 674.896 572.352 675.773 577.036 676.614C574.553 692.269 571.306 707.878 569.247 723.588L559.89 722.024C562.068 712.734 563.209 702.889 564.828 693.463L566.63 683.642C560.547 695.304 556.164 708.442 551.123 720.643C547.91 719.991 544.674 719.427 541.452 718.822C541.43 706.123 540.99 692.286 539.212 679.725C537.306 692.267 535.016 704.773 532.971 717.296C529.9 716.785 526.797 716.4 523.715 715.955C526.973 700.415 528.623 684.505 531.871 668.936Z"/>
	<path fill="#101216" transform="matrix(0.855 0 0 0.855 0 -7.62939e-06)" d="M801.252 163.738C804.01 164.291 818.437 178.927 820.12 181.228C822.821 184.921 823.793 189.557 823.015 194.053C821.72 201.542 816.14 208.22 810.071 212.487C804.38 216.488 798.827 218.158 791.974 216.921C783.547 213.76 775.796 204.288 769.323 198.07C775.706 191.357 797.723 169.861 801.252 163.738Z"/>
	<path fill="#FEFEFE" transform="matrix(0.855 0 0 0.855 0 -7.62939e-06)" d="M802.679 176.646C804.735 177.06 807.781 180.037 809.404 181.481C811.82 183.632 813.362 186.614 813.409 189.892C813.473 194.352 810.593 198.474 807.592 201.525C803.729 205.453 799.144 207.98 793.582 207.989C789.156 205.96 785.636 202.069 782.129 198.773C787.328 193.411 799.246 182.512 802.679 176.646Z"/>
	<path fill="#101216" transform="matrix(0.855 0 0 0.855 0 -7.62939e-06)" d="M475.459 649.5C479.911 648.8 484.512 649.517 488.711 651.1C494.391 653.243 499.01 657.289 501.409 662.914C504.276 669.638 503.15 676.943 500.371 683.49C496.993 691.447 491.767 696.368 483.841 699.594C478.502 700.132 473.624 699.718 468.673 697.477C463.287 695.038 458.919 690.868 456.904 685.242C454.477 678.463 455.79 670.707 458.82 664.341C462.477 656.656 467.55 652.341 475.459 649.5Z"/>
	<path fill="#FEFEFE" transform="matrix(0.855 0 0 0.855 0 -7.62939e-06)" d="M479.608 658.238C482.005 658.363 484.219 658.606 486.432 659.605C489.383 660.935 491.429 663.209 492.484 666.268C494.058 670.833 492.752 676.396 490.678 680.582C487.983 686.021 484.527 689.106 478.828 691.02C476.38 690.912 473.827 690.385 471.643 689.232Q471.125 688.963 470.637 688.641Q470.15 688.32 469.698 687.95Q469.247 687.58 468.836 687.165Q468.425 686.75 468.06 686.294Q467.694 685.839 467.377 685.348Q467.061 684.858 466.797 684.337Q466.533 683.816 466.324 683.271Q466.115 682.725 465.964 682.161C464.619 677.214 466.098 671.835 468.526 667.465C471.128 662.782 474.48 659.764 479.608 658.238Z"/>
	<path fill="#101216" transform="matrix(0.855 0 0 0.855 0 -7.62939e-06)" d="M587.86 151.455C588.492 151.387 589.11 151.326 589.745 151.295C656.051 148.039 722.9 173.51 771.513 218.34Q773.833 220.474 776.098 222.665Q778.364 224.857 780.575 227.104Q782.786 229.351 784.94 231.652Q787.094 233.953 789.19 236.307Q791.286 238.661 793.323 241.067Q795.36 243.472 797.337 245.927Q799.314 248.383 801.229 250.887Q803.144 253.39 804.996 255.941Q806.848 258.492 808.637 261.088Q810.425 263.683 812.148 266.323Q813.871 268.963 815.528 271.644Q817.185 274.326 818.775 277.048Q820.365 279.77 821.887 282.53Q823.409 285.291 824.861 288.089Q826.314 290.886 827.696 293.719Q829.079 296.552 830.391 299.419Q831.703 302.285 832.943 305.183Q834.183 308.081 835.351 311.009Q836.518 313.938 837.613 316.894Q838.708 319.85 839.728 322.833Q840.749 325.815 841.695 328.822Q842.642 331.829 843.513 334.859Q844.384 337.888 845.18 340.939Q845.976 343.989 846.695 347.058Q847.415 350.127 848.058 353.213Q848.701 356.3 849.268 359.401Q849.834 362.502 850.323 365.616Q850.812 368.731 851.223 371.856Q851.635 374.982 851.968 378.116Q852.302 381.251 852.557 384.393Q852.813 387.535 852.99 390.683Q853.168 393.83 853.267 396.981Q853.369 400.096 853.395 403.212Q853.421 406.328 853.37 409.444Q853.319 412.56 853.192 415.674Q853.064 418.788 852.861 421.897Q852.657 425.007 852.377 428.111Q852.097 431.215 851.741 434.311Q851.385 437.407 850.953 440.493Q850.521 443.579 850.013 446.654Q849.505 449.729 848.922 452.79Q848.339 455.851 847.682 458.897Q847.024 461.943 846.291 464.973Q845.558 468.002 844.752 471.012Q843.945 474.022 843.065 477.011Q842.185 480.001 841.231 482.967Q840.278 485.934 839.252 488.877Q838.226 491.819 837.128 494.736Q836.03 497.652 834.861 500.541Q833.692 503.43 832.452 506.289Q831.212 509.148 829.902 511.975Q828.593 514.803 827.214 517.598Q825.836 520.392 824.389 523.152Q822.942 525.912 821.428 528.636Q819.914 531.36 818.333 534.045Q816.753 536.731 815.107 539.377Q813.461 542.023 811.751 544.628Q810.04 547.233 808.266 549.795Q806.493 552.357 804.656 554.874Q802.82 557.392 800.923 559.864Q799.025 562.335 797.068 564.76Q795.11 567.184 793.094 569.56Q791.077 571.936 789.003 574.261Q786.929 576.586 784.798 578.86Q782.705 581.101 780.558 583.29Q778.411 585.48 776.212 587.617Q774.013 589.753 771.762 591.836Q769.512 593.919 767.211 595.946Q764.911 597.974 762.562 599.945Q760.214 601.916 757.818 603.829Q755.422 605.743 752.98 607.598Q750.538 609.452 748.052 611.247Q745.567 613.042 743.038 614.777Q740.509 616.511 737.939 618.183Q735.369 619.855 732.759 621.465Q730.15 623.074 727.501 624.62Q724.853 626.165 722.169 627.646Q719.484 629.127 716.764 630.542Q714.044 631.958 711.29 633.307Q708.537 634.656 705.752 635.937Q702.966 637.219 700.151 638.433Q697.335 639.646 694.491 640.791Q691.646 641.936 688.775 643.012Q685.904 644.088 683.008 645.094Q680.111 646.099 677.191 647.034Q674.271 647.969 671.33 648.833Q668.388 649.697 665.426 650.49Q662.464 651.282 659.484 652.002Q656.504 652.722 653.507 653.37Q650.51 654.018 647.498 654.593Q644.487 655.167 641.462 655.669Q638.437 656.171 635.401 656.599Q632.365 657.026 629.32 657.381Q626.275 657.735 623.221 658.015Q620.168 658.295 617.109 658.501Q614.05 658.707 610.987 658.839C546.431 662.602 480.789 638.83 432.373 596.296Q430.038 594.253 427.754 592.153Q425.47 590.053 423.238 587.898Q421.005 585.743 418.827 583.534Q416.648 581.325 414.524 579.064Q412.4 576.802 410.331 574.489Q408.263 572.176 406.252 569.814Q404.241 567.451 402.289 565.039Q400.336 562.628 398.443 560.17Q396.55 557.711 394.717 555.208Q392.885 552.704 391.114 550.156Q389.344 547.608 387.636 545.017Q385.928 542.427 384.284 539.795Q382.64 537.163 381.061 534.492Q379.482 531.821 377.969 529.112Q376.456 526.404 375.009 523.659Q373.563 520.914 372.184 518.134Q370.805 515.354 369.494 512.542Q368.183 509.729 366.942 506.885Q365.7 504.042 364.529 501.168Q363.357 498.295 362.256 495.394Q361.155 492.493 360.126 489.566Q359.096 486.639 358.138 483.687Q357.18 480.736 356.295 477.762Q355.41 474.788 354.597 471.793Q353.785 468.798 353.046 465.784Q352.307 462.771 351.642 459.74Q350.978 456.709 350.387 453.662Q349.796 450.616 349.28 447.556Q348.764 444.496 348.323 441.425Q347.883 438.353 347.517 435.272Q347.151 432.19 346.861 429.101Q346.571 426.012 346.356 422.916Q346.134 419.771 345.989 416.621Q345.845 413.472 345.779 410.32Q345.713 407.167 345.726 404.015Q345.738 400.862 345.829 397.71Q345.919 394.559 346.089 391.41Q346.258 388.262 346.505 385.119Q346.752 381.976 347.077 378.84Q347.402 375.704 347.805 372.577Q348.209 369.45 348.689 366.334Q349.17 363.218 349.728 360.115Q350.286 357.011 350.92 353.923Q351.555 350.835 352.267 347.763Q352.978 344.692 353.765 341.639Q354.553 338.586 355.416 335.554Q356.279 332.521 357.217 329.511Q358.155 326.501 359.168 323.516Q360.181 320.53 361.267 317.57Q362.354 314.611 363.513 311.679Q364.673 308.747 365.905 305.845Q367.138 302.943 368.442 300.073Q369.746 297.202 371.12 294.365Q372.495 291.528 373.94 288.726Q375.385 285.924 376.899 283.159Q378.413 280.393 379.996 277.666Q381.578 274.94 383.228 272.253Q384.877 269.566 386.593 266.922Q388.309 264.277 390.09 261.675Q391.871 259.074 393.716 256.518Q395.562 253.962 397.47 251.452Q399.378 248.942 401.348 246.481Q403.318 244.02 405.348 241.608Q407.378 239.196 409.468 236.836C455.78 184.324 518.459 155.818 587.86 151.455Z"/>
	<path fill="#FEFEFE" transform="matrix(0.855 0 0 0.855 0 -7.62939e-06)" d="M599.547 558.634L607.042 558.62L607.024 566.321L599.549 566.285L599.547 558.634Z"/>
	<path fill="#FEFEFE" transform="matrix(0.855 0 0 0.855 0 -7.62939e-06)" d="M599.57 528.758L607.034 528.714L606.98 536.581L599.526 536.585L599.57 528.758Z"/>
	<path fill="#FEFEFE" transform="matrix(0.855 0 0 0.855 0 -7.62939e-06)" d="M715.373 515.167C717.1 515.115 718.453 515.043 720.074 515.785C720.88 524.232 720.377 533.064 720.375 541.554C720.373 549.442 720.892 557.732 720.038 565.569C719.726 565.821 719.592 565.97 719.157 566.087C717.65 566.49 715.533 566.41 714.164 565.691C712.969 563.801 713.519 560.996 713.621 558.828L713.63 529.955C710.494 529.956 705.539 530.805 702.699 529.494C701.608 528.26 701.598 528.017 701.383 526.367C702.254 524.384 707.832 524.449 710.204 523.197C713.454 521.481 714.371 518.425 715.373 515.167Z"/>
	<path fill="#FEFEFE" transform="matrix(0.855 0 0 0.855 0 -7.62939e-06)" d="M574.069 515.133C575.561 515.165 577.653 514.918 578.75 515.918C579.347 522.841 578.841 529.957 578.889 536.91C578.944 545.127 579.458 553.53 579.099 561.727C579.028 563.34 579.064 565.034 577.845 566.135C575.962 566.192 574.223 566.413 572.479 565.577C571.34 563.856 571.913 560.867 571.995 558.853L571.991 529.917C569.069 529.902 563.107 530.772 560.706 529.441C560.291 527.992 560.198 527.151 560.491 525.666C563.47 524.014 566.739 524.113 569.665 522.742C572.25 521.531 573.233 517.589 574.069 515.133Z"/>
	<path fill="#FEFEFE" transform="matrix(0.855 0 0 0.855 0 -7.62939e-06)" d="M631.675 515.283C635.628 515.068 639.375 515.468 642.928 517.357C646.624 519.321 648.688 522.67 649.853 526.596C654.626 542.671 634.228 546.532 625.705 554.796C624.109 556.344 623.088 558.38 622.06 560.326C627.292 560.358 646.622 558.787 650.093 561.212C650.321 562.573 650.531 563.534 650.043 564.85C645.897 567.744 629.375 566.356 623.651 566.304L615.273 566.273C615.469 564.721 615.679 563.159 615.946 561.617C618.106 549.127 629.243 545.883 638.215 539.401C640.751 537.569 643.15 534.992 643.573 531.769Q643.633 531.297 643.645 530.82Q643.656 530.344 643.619 529.869Q643.581 529.395 643.495 528.926Q643.409 528.458 643.275 528.001Q643.141 527.544 642.96 527.103Q642.78 526.662 642.555 526.242Q642.331 525.822 642.064 525.428Q641.797 525.033 641.491 524.668C639.633 522.489 636.119 520.253 633.22 520.127C624.59 519.749 625.389 530.29 622.139 533.117C620.738 533.258 619.181 533.531 617.804 533.159C616.765 532.879 616.668 532.274 616.128 531.406C615.794 528.442 617.233 525.784 618.858 523.4C622.251 518.422 625.841 516.327 631.675 515.283Z"/>
	<path fill="#FEFEFE" transform="matrix(0.855 0 0 0.855 0 -7.62939e-06)" d="M742.612 516.238C749.094 516.219 755.617 515.841 762.095 516.046C764.875 516.133 767.568 516.229 769.574 518.392C769.949 520.127 769.755 520.419 769.088 522.095C766.604 523.394 751.212 522.572 747.354 522.559C746.848 527.132 746.096 531.702 745.449 536.258C748.01 534.807 750.664 533.81 753.602 533.5C758.058 533.03 762.451 534.151 765.944 537.013C769.453 539.889 771.54 544.084 771.924 548.587C772.325 553.29 771.015 558.178 767.942 561.809C764.124 566.321 759.317 567.322 753.691 567.812C752.379 567.718 751.06 567.613 749.758 567.422C745.176 566.751 742.637 565.094 739.924 561.415C738.388 559.332 736.739 556.759 737.111 554.119C737.279 554.01 737.439 553.887 737.615 553.792C741.842 551.537 747.364 561.109 752.15 562.17C754.857 562.771 757.487 562.257 759.816 560.775C762.542 559.04 764.578 555.696 765.273 552.562Q765.397 552.026 765.463 551.479Q765.529 550.933 765.538 550.383Q765.546 549.833 765.497 549.285Q765.447 548.737 765.34 548.197Q765.233 547.657 765.07 547.132Q764.907 546.606 764.689 546.101Q764.471 545.596 764.202 545.116Q763.932 544.636 763.613 544.188C761.853 541.696 759.022 540.02 756.02 539.542C751.735 538.861 748.644 540.378 745.345 542.782C743.288 544.281 741.539 544.009 739.134 543.618C739.198 534.683 741.72 525.212 742.612 516.238Z"/>
	<path fill="#FEFEFE" transform="matrix(0.855 0 0 0.855 0 -7.62939e-06)" d="M448.693 515.247C451.516 515.146 454.323 515.196 457.036 516.084C461.113 517.419 464.255 520.264 466.186 524.072C470.447 532.479 469.561 545.431 466.721 554.132C465.093 559.12 462.219 564.002 457.331 566.351C453.462 568.21 448.698 568.222 444.701 566.754C441.183 565.462 437.378 562.641 435.873 559.118C435.205 557.553 435.404 556.467 436.032 554.94C437.813 553.621 439.315 553.975 441.478 553.927C441.707 555.301 441.966 556.611 442.621 557.856C443.826 560.144 446.015 561.735 448.521 562.337Q448.929 562.432 449.344 562.486Q449.76 562.541 450.179 562.554Q450.597 562.567 451.015 562.539Q451.433 562.511 451.847 562.442Q452.26 562.373 452.664 562.264Q453.069 562.155 453.46 562.006Q453.852 561.858 454.228 561.672Q454.603 561.485 454.958 561.263C460.621 557.679 461.592 549.578 462.904 543.605C460.34 545.948 457.847 547.795 454.461 548.745C450.499 549.856 446.35 549.464 442.751 547.424C438.961 545.276 436.315 541.534 435.26 537.337C434.048 532.517 434.62 526.927 437.268 522.665C439.962 518.328 443.883 516.417 448.693 515.247Z"/>
	<path fill="#101216" transform="matrix(0.855 0 0 0.855 0 -7.62939e-06)" d="M448.216 521.139C450.049 520.997 452.007 520.86 453.816 521.265C456.457 521.856 458.794 523.862 460.166 526.145C461.763 528.8 462.217 532.259 461.421 535.254C460.374 539.189 458.204 541.333 454.711 543.239C452.645 543.465 450.531 543.603 448.485 543.128C446.006 542.552 443.817 540.717 442.562 538.533C441.011 535.836 440.742 532.524 441.486 529.539C442.499 525.478 444.665 523.213 448.216 521.139Z"/>
	<path fill="#FEFEFE" transform="matrix(0.855 0 0 0.855 0 -7.62939e-06)" d="M671.193 515.273C674.467 515.057 677.663 515.203 680.666 516.651C685.141 518.807 688.056 523.104 689.645 527.683C692.713 536.527 692.641 549.502 688.487 557.998C686.003 563.078 682.921 565.729 677.621 567.536C674.188 567.832 670.746 567.932 667.572 566.353C662.762 563.96 659.839 559.657 658.263 554.619C655.467 545.676 655.519 532.691 659.955 524.264C662.6 519.24 665.873 516.942 671.193 515.273Z"/>
	<path fill="#101216" transform="matrix(0.855 0 0 0.855 0 -7.62939e-06)" d="M671.402 521.057C672.791 521.006 674.329 520.878 675.7 521.133C678.163 521.592 680.201 523.616 681.522 525.647C685.788 532.203 685.626 543.57 683.909 550.899C682.758 555.814 681.058 559.154 676.703 561.887C675.266 561.964 673.625 562.137 672.213 561.822C669.749 561.273 667.801 559.247 666.503 557.184C662.337 550.562 662.545 539.143 664.274 531.819C665.414 526.993 667.078 523.687 671.402 521.057Z"/>
	<path fill="#FEFEFE" transform="matrix(0.855 0 0 0.855 0 -7.62939e-06)" d="M530.062 515.266C533.282 515.088 536.353 515.193 539.303 516.639C543.996 518.939 546.88 523.409 548.41 528.271C551.224 537.213 551.219 550.201 546.764 558.647C544.172 563.562 540.956 566.009 535.714 567.625C532.416 567.847 529.076 567.846 526.053 566.32C521.164 563.852 518.297 559.348 516.716 554.234C513.955 545.304 514.087 532.255 518.717 523.928C521.463 518.99 524.703 516.74 530.062 515.266Z"/>
	<path fill="#101216" transform="matrix(0.855 0 0 0.855 0 -7.62939e-06)" d="M530.196 521.037C531.603 520.99 533.163 520.872 534.542 521.188C537.214 521.801 539.209 523.992 540.514 526.292C544.39 533.124 544.155 544.778 542.165 552.126C540.914 556.745 539.211 559.567 534.999 561.985C533.621 562.017 532.077 562.123 530.73 561.795C528.149 561.168 526.128 558.974 524.844 556.747C520.836 549.794 521.066 537.882 523.214 530.398C524.47 526.022 526.149 523.282 530.196 521.037Z"/>
	<path fill="#FEFEFE" transform="matrix(0.855 0 0 0.855 0 -7.62939e-06)" d="M489.571 515.255C492.803 515.049 496.123 515.236 499.048 516.746C503.828 519.211 506.681 523.788 508.194 528.817C510.93 537.91 510.745 550.609 506.127 559.095C503.583 563.77 500.329 566.164 495.283 567.625C491.945 567.864 488.586 567.836 485.543 566.261C480.725 563.767 477.854 559.323 476.326 554.232C473.629 545.24 473.713 532.362 478.275 523.949C480.959 519 484.266 516.789 489.571 515.255Z"/>
	<path fill="#101216" transform="matrix(0.855 0 0 0.855 0 -7.62939e-06)" d="M489.685 521.054C491.098 521.01 492.677 520.884 494.067 521.163C496.778 521.708 498.908 524.141 500.206 526.453C504.034 533.27 503.814 545.082 501.72 552.387C500.438 556.858 498.637 559.681 494.521 561.989C493.09 562.054 491.646 562.122 490.249 561.744C487.604 561.027 485.799 559.038 484.443 556.762C480.422 550.008 480.738 537.997 482.742 530.672C483.952 526.249 485.616 523.36 489.685 521.054Z"/>
	<path fill="#FEFEFE" transform="matrix(0.855 0 0 0.855 0 -7.62939e-06)" d="M432.999 304.731L511.631 304.734L511.628 334.638L493.86 334.653L493.887 399.234L511.629 399.189L511.622 429.182L432.986 429.194L432.993 399.519L450.679 399.59L450.734 334.69L433.011 334.681L432.999 304.731Z"/>
	<path fill="#FEFEFE" transform="matrix(0.855 0 0 0.855 0 -7.62939e-06)" d="M560.134 452.726C572.199 449.145 582.878 449.458 594.858 447.395C595.218 446.408 595.354 445.576 595.44 444.527L595.468 444.15L596.62 443.31C597.572 443.209 598.571 442.998 599.479 443.387C600.025 443.621 600.152 446.288 600.448 447.141C605.374 448.739 611.866 448.539 617.065 449.133C623.289 449.843 629.267 451.093 635.32 452.684C635.991 451.004 636.587 449.304 637.247 447.623C638.152 445.315 639.411 443.993 641.699 442.969L642.504 443.37C643.74 447.056 641.474 450.742 640.056 454.115C648.054 456.751 655.506 459.87 663.029 463.664C667.74 458.102 673.571 447.252 678.984 443.503C680.428 443.169 681.005 443.196 682.416 443.651C682.332 447.576 672.206 460.325 669.347 463.859L668.245 465.355C668.973 467.923 679.189 473.474 681.95 475.512C693.699 466.097 703.124 455.613 711.776 443.319C713.669 443.196 715.718 443.38 717.623 443.421Q715.48 446.793 713.152 450.041Q710.825 453.289 708.321 456.402Q705.816 459.515 703.142 462.484Q700.469 465.453 697.634 468.269Q694.799 471.085 691.812 473.738Q688.825 476.392 685.695 478.875Q682.565 481.358 679.302 483.663Q676.038 485.968 672.652 488.088C640.055 508.476 601.038 514.174 563.755 505.441C528.648 497.216 496.654 473.92 477.653 443.337L483.429 443.336C492.241 455.568 501.571 465.869 513.214 475.46C517.901 472.076 522.799 469.067 527.719 466.037C523.657 461.073 514.002 449.636 512.419 443.826C513.782 442.912 515.574 443.265 517.143 443.343C520.093 445.922 522.012 450.343 524.282 453.573C526.746 457.077 529.536 460.351 532.275 463.641C539.723 459.829 547.21 456.88 555.116 454.139C553.773 450.693 551.718 446.985 552.803 443.247L553.713 442.749C557.692 444.99 558.617 448.735 560.134 452.726Z"/>
	<path fill="#101216" transform="matrix(0.855 0 0 0.855 0 -7.62939e-06)" d="M530.8 469.943C532.543 470.571 543.441 480.855 546.517 483.06C552.921 487.649 559.534 491.159 566.754 494.283C564.738 495.676 562.58 497.429 560.341 498.424C558.357 499.306 556.39 498.32 554.492 497.628C540.997 492.913 529.113 486.683 517.344 478.577C521.738 475.559 526.281 472.768 530.8 469.943Z"/>
	<path fill="#101216" transform="matrix(0.855 0 0 0.855 0 -7.62939e-06)" d="M664.029 469.838C668.739 471.618 673.655 475.707 677.824 478.533C666.815 486.665 654.949 492.413 642.176 497.196L635.68 499.166C633.448 497.381 630.904 495.859 628.524 494.269C642.422 488.466 653.349 480.368 664.029 469.838Z"/>
	<path fill="#101216" transform="matrix(0.855 0 0 0.855 0 -7.62939e-06)" d="M556.554 458.93C558.975 460.421 564.351 472.501 566.433 475.622C569.799 480.667 574.299 484.948 578.845 488.911L572.832 491.261C569.661 490.146 566.6 488.727 563.525 487.375C552.867 482.432 544.147 475.374 535.682 467.346C542.418 464 549.442 461.347 556.554 458.93Z"/>
	<path fill="#101216" transform="matrix(0.855 0 0 0.855 0 -7.62939e-06)" d="M638.118 458.669C645.423 461.223 652.629 463.844 659.478 467.48C651.668 475.201 643.278 481.386 633.576 486.506C629.897 488.329 626.194 489.826 622.356 491.268L616.42 488.899C626.399 480.73 632.723 470.195 638.118 458.669Z"/>
	<path fill="#101216" transform="matrix(0.855 0 0 0.855 0 -7.62939e-06)" d="M592.606 491.361C605.899 489.865 618.194 493.915 629.447 500.665C621.144 502.977 612.687 503.776 604.126 504.477C591.051 504.856 578.484 503.763 565.755 500.709C574.29 495.508 582.631 492.409 592.606 491.361Z"/>
	<path fill="#101216" transform="matrix(0.855 0 0 0.855 0 -7.62939e-06)" d="M584.714 453.276C588.162 452.86 591.804 452.96 595.284 452.84L595.265 486.066C591.954 486.323 588.66 486.797 585.367 487.221C582.873 485.631 580.681 483.808 578.442 481.879C571.168 474.471 566.57 466.476 561.901 457.287C569.419 455.408 577.024 454.183 584.714 453.276Z"/>
	<path fill="#101216" transform="matrix(0.855 0 0 0.855 0 -7.62939e-06)" d="M600.038 452.78C611.478 452.984 622.176 454.821 633.354 457.204C629.947 464.169 626.367 470.499 621.684 476.694C618.184 480.905 614.493 484.325 609.799 487.15C606.585 486.565 603.295 486.417 600.04 486.18L600.038 452.78Z"/>
	<path fill="#FEFEFE" transform="matrix(0.855 0 0 0.855 0 -7.62939e-06)" d="M585.32 225.877C604.07 223.273 625.893 226.883 643.689 232.928Q645.998 233.725 648.277 234.6Q650.557 235.475 652.806 236.428Q655.054 237.38 657.269 238.41Q659.484 239.439 661.662 240.544Q663.84 241.648 665.979 242.827Q668.118 244.005 670.215 245.256Q672.312 246.508 674.365 247.83Q676.419 249.152 678.425 250.544Q680.432 251.936 682.39 253.396Q684.348 254.856 686.255 256.382Q688.161 257.908 690.015 259.498Q691.868 261.089 693.666 262.742Q695.464 264.395 697.204 266.109Q698.944 267.822 700.624 269.595Q702.305 271.367 703.923 273.196Q705.542 275.025 707.097 276.908C710.654 281.176 714.628 285.935 717.097 290.931L716.423 291.285C715.423 291.234 712.819 291.427 712.022 291.06C709.156 289.739 704.781 282.044 702.703 279.328C697.103 272.007 689.47 265.664 682.573 259.616C677.84 263.015 673.019 266.143 668.045 269.176C671.858 273.659 680.481 284.102 682.135 289.415C682.441 290.398 682.232 290.337 681.783 291.184L679.997 291.553C679.129 291.376 678.264 291.142 677.581 290.544C674.026 287.426 667.631 276.457 663.605 271.754C656.006 275.342 648.464 278.754 640.417 281.221C641.451 283.805 643.657 287.816 642.711 290.543C642.384 291.485 642.309 291.307 641.489 291.703C637.576 289.708 636.964 286.452 635.633 282.617C626.214 285.329 616.69 286.675 606.96 287.646C605.349 287.666 602.626 287.409 601.117 287.812C599.612 288.213 600.314 290.062 599.436 291.308C597.965 291.455 597.014 291.392 595.628 290.865C595.414 290.254 595.238 289.676 595.098 289.041C595.054 288.843 595.015 288.644 594.974 288.446C590.073 286.973 584.176 287.132 579.066 286.541C572.445 285.774 566.168 284.383 559.743 282.627C558.466 286.223 557.833 289.38 554.312 291.422C553.719 291.765 553.577 291.555 552.946 291.387C552.847 291.195 552.739 291.008 552.649 290.812C551.48 288.251 553.932 283.764 554.943 281.261C546.848 278.896 539.244 275.284 531.625 271.719C528.619 275.185 525.669 278.848 523.148 282.678C521.56 285.091 520.071 288.167 518.204 290.329C517.031 291.687 514.813 291.243 513.169 291.261L512.699 290.721C515.405 282.999 522.13 275.488 527.273 269.228C522.203 266.38 517.455 262.946 512.67 259.647C505.335 265.807 498.493 272.383 492.33 279.724C490.119 282.357 486.241 289.043 483.745 290.583C482.18 291.549 479.998 291.461 478.273 291.084C478.364 288.713 486.531 278.9 488.6 276.425Q489.718 275.078 490.87 273.759Q492.021 272.44 493.205 271.15Q494.389 269.859 495.604 268.599Q496.819 267.339 498.065 266.109Q499.312 264.879 500.588 263.68Q501.864 262.481 503.169 261.315Q504.475 260.148 505.809 259.014Q507.143 257.88 508.505 256.779Q509.866 255.679 511.255 254.612Q512.643 253.546 514.058 252.514Q515.472 251.482 516.912 250.486Q518.351 249.489 519.815 248.529Q521.279 247.568 522.766 246.644Q524.253 245.721 525.763 244.834Q527.273 243.947 528.804 243.098Q530.335 242.249 531.886 241.438Q533.438 240.627 535.009 239.855Q536.58 239.082 538.17 238.349Q539.76 237.616 541.368 236.923Q542.975 236.229 544.599 235.576Q546.224 234.923 547.864 234.31Q549.503 233.697 551.158 233.125Q552.813 232.552 554.481 232.021Q556.149 231.49 557.83 231.001Q559.511 230.511 561.203 230.064Q562.896 229.616 564.599 229.21Q566.302 228.805 568.014 228.441Q569.727 228.078 571.448 227.757Q573.169 227.436 574.898 227.158Q576.626 226.88 578.361 226.645Q580.095 226.41 581.836 226.218Q583.576 226.026 585.32 225.877Z"/>
	<path fill="#101216" transform="matrix(0.855 0 0 0.855 0 -7.62939e-06)" d="M636.123 236.067C645.566 236.127 670.243 250.919 678.308 256.525C675.579 258.689 672.509 260.523 669.602 262.446L664.661 265.348C654.157 254.744 643.062 246.717 629.398 240.674C631.729 239.294 633.916 237.637 636.123 236.067Z"/>
	<path fill="#101216" transform="matrix(0.855 0 0 0.855 0 -7.62939e-06)" d="M557.605 236.177C560.324 236.214 563.562 239.089 565.792 240.627C557.789 244.299 550.261 248.33 543.416 253.914C540.174 256.56 533.564 263.95 530.288 265.032L528.25 263.987C524.341 261.649 520.613 259.093 516.869 256.503C530.002 247.633 542.62 241.344 557.605 236.177Z"/>
	<path fill="#101216" transform="matrix(0.855 0 0 0.855 0 -7.62939e-06)" d="M623.254 243.957C636.739 247.07 650.487 258.157 659.976 267.779C657.124 269.243 654.202 270.582 651.307 271.958C647.071 273.724 642.811 275.189 638.444 276.588C633.484 264.878 626.505 254.898 617.202 246.28L623.254 243.957Z"/>
	<path fill="#101216" transform="matrix(0.855 0 0 0.855 0 -7.62939e-06)" d="M571.664 243.864C573.763 244.73 575.964 245.436 578.101 246.213C568.383 255.398 562.614 264.692 556.777 276.665C552.913 275.418 549.126 273.959 545.328 272.528C541.914 271.12 538.587 269.41 535.247 267.832C545.984 256.991 557.413 249.328 571.664 243.864Z"/>
	<path fill="#101216" transform="matrix(0.855 0 0 0.855 0 -7.62939e-06)" d="M589.914 230.577C603.604 229.777 617.026 231.199 630.396 234.16C623.009 239.216 615.08 242.029 606.37 243.78C591.636 246.46 577.307 241.914 564.861 234.23C573.188 232.266 581.389 231.224 589.914 230.577Z"/>
	<path fill="#101216" transform="matrix(0.855 0 0 0.855 0 -7.62939e-06)" d="M610.582 248.192C610.796 248.236 611.017 248.255 611.224 248.324C619.385 251.032 629.999 270.269 633.545 278.003C630.013 279.106 626.428 279.829 622.808 280.569C615.313 282.042 607.654 282.422 600.046 282.848L600.015 249.237C603.539 249.087 607.076 248.58 610.582 248.192Z"/>
	<path fill="#101216" transform="matrix(0.855 0 0 0.855 0 -7.62939e-06)" d="M584.211 247.984C587.886 248.63 591.546 248.963 595.259 249.275L595.281 282.761C588.738 282.505 582.315 282.076 575.832 281.125C570.998 280.327 566.36 279.298 561.642 277.979C567.138 266.111 573.737 256.062 584.211 247.984Z"/>
	<path fill="#FEFEFE" transform="matrix(0.855 0 0 0.855 0 -7.62939e-06)" d="M556.657 303.78C574.959 301.53 589.904 305.856 606.179 313.802L606.12 307.09L632.251 307.05L632.242 348.509L606.977 348.488C601.156 341.702 594.293 336.397 585.76 333.467C578.996 331.145 564.518 329.315 558.303 332.846C556.828 333.683 556.572 334.353 556.088 335.851C556.371 337.806 556.741 338.707 558.384 339.858C562.327 342.623 567.728 343.752 572.307 345.081C587.041 349.357 608.827 353.411 620.75 362.578C628.876 368.827 634.932 378.062 636.259 388.335Q636.375 389.242 636.445 390.153Q636.515 391.065 636.54 391.979Q636.564 392.893 636.543 393.807Q636.522 394.721 636.455 395.632Q636.387 396.544 636.275 397.451Q636.162 398.359 636.004 399.259Q635.846 400.159 635.642 401.051Q635.439 401.942 635.192 402.822Q634.944 403.702 634.653 404.569Q634.362 405.435 634.027 406.286Q633.693 407.137 633.316 407.97Q632.94 408.803 632.522 409.616Q632.104 410.429 631.646 411.22Q631.187 412.011 630.69 412.778Q630.193 413.545 629.658 414.286Q629.123 415.028 628.551 415.741C619.692 426.845 606.94 430.332 593.44 431.948C575.246 432.329 563.099 428.397 546.807 420.576L546.882 429.132L520.018 429.118L520.017 384.043C528.113 383.853 536.256 383.999 544.357 383.99C546.269 387.038 548.364 389.916 551 392.388C559.222 400.101 573.054 404.123 584.165 403.624C587.672 403.467 596.32 402.349 598.592 399.469C599.218 398.676 598.962 398.382 598.878 397.435C593.891 389.712 547.673 381.395 534.858 372.143C526.661 366.226 520.607 358.292 519.017 348.15C517.487 338.387 519.758 327.778 525.665 319.795C532.875 310.054 545.026 305.424 556.657 303.78Z"/>
	<path fill="#FEFEFE" transform="matrix(0.855 0 0 0.855 0 -7.62939e-06)" d="M700.629 303.251C717.47 301.377 739.033 306.859 752.412 317.161C764.511 326.477 770.121 340.002 772.093 354.776C774.565 373.306 772.199 395.432 760.424 410.625C749.175 425.141 731.386 429.685 714.08 431.907C694.902 432.297 675.424 429.703 660 417.169C647.913 407.347 641.994 392.822 640.451 377.628C638.646 359.848 641.618 338.048 653.29 323.953C664.612 310.282 683.53 304.754 700.629 303.251Z"/>
	<path fill="#101216" transform="matrix(0.855 0 0 0.855 0 -7.62939e-06)" d="M703.211 334.171C708.542 333.752 714.353 333.943 719.087 336.723C723.298 339.196 725.073 343.017 726.222 347.597C728.704 357.489 729.623 385.109 724.215 393.748C721.261 398.466 716.567 399.801 711.423 400.905C706.047 401.539 699.724 401.317 694.888 398.605C690.879 396.356 689.083 393.212 687.963 388.884C685.175 378.118 683.732 350.544 689.527 341.182C692.448 336.46 698.206 335.258 703.211 334.171Z"/>
</svg>
