<?xml version="1.0" encoding="utf-8" ?>
<svg xmlns="http://www.w3.org/2000/svg" xmlns:xlink="http://www.w3.org/1999/xlink" width="500" height="500">
	<path fill="#FEFEFE" d="M0 0L500 0L500 500L0 500L0 0Z"/>
	<path fill="#CAA025" d="M238.712 213.613C256.638 212.98 314.942 213.366 328.833 222.413C310.339 229.892 282.101 231.604 261.872 231.976C235.904 232.007 194.729 232.429 171.175 222.33C183.573 214.6 223.496 214.08 238.712 213.613Z"/>
	<path d="M146.183 249.614C153.363 249.552 160.681 250.335 167.476 252.745C178.312 256.589 184.587 263.049 189.471 273.235L176.165 273.25C173.126 268.428 168.153 264.901 162.919 262.813C153.648 259.115 141.696 259.14 132.544 263.183C125.487 266.301 119.636 271.868 116.864 279.144C114.002 286.658 114.134 295.66 117.475 303.002C120.77 310.243 127.184 315.518 134.57 318.237C144.347 321.836 155.97 321.088 165.365 316.721C169.814 314.602 173.339 311.328 176.203 307.36C180.593 307.346 185.121 307.647 189.492 307.289C187.69 311.164 185.742 314.721 182.859 317.916C174.643 327.025 162.587 330.375 150.711 330.965C137.702 331.61 123.939 328.735 114.096 319.713C106.199 312.474 102.446 302.687 102.024 292.116C101.596 281.419 104.683 270.848 112.078 262.929C120.947 253.432 133.591 250.08 146.183 249.614Z"/>
	<path d="M206.628 250.663C214.911 250.915 223.257 250.701 231.549 250.699L282.254 250.726L282.261 261.241L219.492 261.262L219.501 284.9C235.467 284.865 251.457 284.728 267.421 284.959L267.44 295.517L232.875 295.526L219.494 295.533L219.503 319.338C240.399 319.358 261.373 319.745 282.26 319.361L282.268 329.994L206.531 330.001C206.692 303.573 206.04 277.08 206.628 250.663Z"/>
	<path d="M340.9 250.687L351.78 250.702C353.861 258.074 356.347 265.376 358.651 272.683L371.548 313.525L383.178 277.006C385.96 268.237 388.869 259.488 391.476 250.666C396.024 250.782 400.607 250.725 405.157 250.685Q403.588 255.827 401.958 260.951C400.903 263.755 400.106 266.736 399.194 269.598L393.466 287.565C388.963 301.694 384.204 315.791 380.016 330.015L365.476 329.987C363.505 322.817 360.98 315.729 358.695 308.651L346.415 270.615L333.977 308.978C331.712 315.955 329.205 322.941 327.237 330.004L312.648 329.992C312.086 326.981 310.862 323.942 309.928 321.017L304.578 304.255L287.496 250.649C291.954 250.987 296.626 250.698 301.107 250.693C302.588 256.45 304.695 262.183 306.486 267.858C311.335 283.222 316.563 298.562 321.024 314.038C322.489 308.617 324.401 303.243 326.094 297.886L335.983 266.59C337.643 261.332 339.564 256.035 340.9 250.687Z"/>
	<path fill="#CAA025" d="M249.804 135.422C251.26 136.892 254.341 145.826 255.34 148.356C254.198 148.845 253.046 149.458 252.108 150.281C251.274 151.013 250.918 151.844 250.878 152.949C250.74 156.669 253.552 162.517 256.101 165.204C258.374 167.6 261.66 168.552 264.889 168.565C269.318 168.582 272.4 166.519 275.397 163.514Q275.55 163.814 275.711 164.109C277.266 166.935 279.753 168.966 282.877 169.81C286.307 170.737 290.4 170.521 293.475 168.649C297.245 166.353 299.579 161.288 300.662 157.178C299.849 155.052 299.03 153.739 297.231 152.354C299.861 148.229 302.775 144.26 305.598 140.264C305.276 144.802 306.015 149.803 306.408 154.346C303.87 155.086 302.52 155.814 301.003 158.082C300.869 162.238 301.197 168.258 303.591 171.822C304.955 173.853 307.235 175.16 309.619 175.59C313.067 176.211 315.831 174.991 318.602 173.099C319.183 175.338 319.64 177.011 321.233 178.8C322.772 180.527 325.111 181.93 327.468 182.017C328.634 182.06 329.775 181.736 330.827 181.254C332.711 180.392 339.989 175.392 341.521 173.959C342.827 172.737 342.747 171.458 342.807 169.805C346.449 167.763 350.324 166.126 354.025 164.181C351.906 167.321 349.799 171.15 347.193 173.887C346.353 174.769 345.377 174.247 344.279 174.316C343.472 174.366 342.845 174.677 342.336 175.318C334.702 184.935 328.067 204.322 329.441 216.475C314.432 211.737 299.129 210.324 283.49 209.34C272.564 208.652 261.825 208.241 250.875 208.248Q233.306 208.143 215.781 209.385C204.119 210.126 192.19 211.07 180.764 213.602C177.383 214.352 174.061 215.429 170.747 216.43Q170.908 213.374 170.705 210.32Q170.503 207.266 169.94 204.258Q169.275 200.848 168.32 197.508Q167.364 194.168 166.124 190.922Q164.884 187.677 163.369 184.55Q161.854 181.424 160.076 178.439C159.373 177.276 158.447 175.398 157.281 174.681C156.075 173.939 154.556 174.285 153.262 174.532C151.312 171.032 148.615 167.548 146.228 164.325L157.436 169.662C157.462 171.172 157.678 172.326 158.202 173.757C162.106 176.322 165.998 180.105 170.387 181.734C172.092 182.366 173.952 181.849 175.545 181.129C179.259 179.45 180.233 177.329 181.537 173.739C182.614 173.56 184.55 174.802 185.648 175.178C188.084 176.012 191.095 175.866 193.39 174.667C195.843 173.386 197.138 171.141 197.881 168.568C198.789 165.426 200.127 159.781 198.347 156.798C197.193 154.864 195.55 154.332 193.507 153.777C193.952 149.356 194.755 144.249 194.354 139.843C197.472 143.321 200.028 147.656 202.671 151.522C201.904 152.244 201.008 153.053 200.437 153.942C199.692 155.101 199.66 156.43 199.957 157.742C200.824 161.565 204.591 166.354 207.904 168.412C210.799 170.211 214.737 170.395 217.988 169.529C221.505 168.591 223.65 166.265 225.391 163.212C226.997 165.421 229.305 167.135 231.96 167.851C235.074 168.692 239.422 168.279 242.223 166.655C246.876 163.958 248.353 157.427 249.689 152.619C248.541 150.259 247.071 149.409 244.813 148.239L249.804 135.422Z"/>
	<path fill="#FEFEFE" d="M179.183 181.068C181.563 180.828 183.825 182.115 185.847 183.213C183.913 183.657 181.912 183.75 179.938 183.892C177.695 183.825 175.681 183.579 173.508 183.005C175.384 182.076 177.107 181.396 179.183 181.068Z"/>
	<path fill="#FEFEFE" d="M319.707 181.04C322.382 181.136 324.305 181.849 326.683 182.997C324.802 183.394 322.982 183.731 321.063 183.868C318.854 184.022 316.487 183.68 314.333 183.213C316.068 182.166 317.737 181.491 319.707 181.04Z"/>
	<path fill="#FEFEFE" d="M194.501 175.298C194.725 175.375 194.575 175.307 194.878 175.62C194.808 175.943 194.81 176 194.65 176.346C193.136 179.635 189.708 181.699 186.512 183.005C186.191 182.8 186.23 182.912 186.15 182.577C185.932 181.666 186.331 180.942 186.791 180.184C188.518 177.338 191.411 176.064 194.501 175.298Z"/>
	<path fill="#FEFEFE" d="M304.999 175.229C306.878 175.48 308.921 176.05 310.508 177.104C312.727 178.579 313.653 180.69 314.104 183.234C312.432 182.71 310.87 181.981 309.442 180.964C307.649 179.688 305.365 177.486 304.999 175.229Z"/>
	<path fill="#FEFEFE" d="M262.924 169.368C263.04 169.344 263.154 169.31 263.272 169.297C266.156 168.963 269.389 170.387 271.457 172.3C272.186 172.973 272.893 173.678 272.95 174.714C272.423 175.125 272.019 174.909 271.38 174.831Q269.129 174.337 266.967 173.539Q264.805 172.741 262.773 171.655C261.904 171.198 261.014 170.795 260.705 169.813C261.396 169.318 262.086 169.424 262.924 169.368Z"/>
	<path fill="#FEFEFE" d="M234.546 169.328C236.596 169.22 238.643 169.249 240.694 169.269C237.984 171.821 235.079 173.22 231.56 174.325C230.018 174.748 228.437 174.96 226.859 175.203Q227.252 174.567 227.668 173.946C229.447 171.252 231.402 169.971 234.546 169.328Z"/>
	<path fill="#FEFEFE" d="M216.033 170.819C217.626 170.69 219.163 170.618 220.729 171.002C223.124 171.589 225.342 173.012 226.633 175.137L223.492 175.521C222.169 175.453 220.804 175.302 219.509 175.024C217.734 174.643 213.956 173.815 212.922 172.239L213.049 171.75C213.916 171.097 214.99 171.014 216.033 170.819Z"/>
	<path fill="#FEFEFE" d="M280.676 171.047C283.975 170.867 286.855 171.313 289.968 172.394C287.371 173.695 284.873 174.566 282.054 175.273C279.157 175.795 276.464 175.583 273.556 175.35C275.73 173.186 277.682 171.856 280.676 171.047Z"/>
</svg>
