<?xml version="1.0" encoding="utf-8" ?>
<svg xmlns="http://www.w3.org/2000/svg" xmlns:xlink="http://www.w3.org/1999/xlink" width="762" height="762">
	<path fill="#C89F23" transform="scale(1.48828 1.48828)" d="M255.177 44.0699Q255.487 44.0594 255.797 44.0592C258.121 44.0641 260.428 44.8661 262.06 46.5648C263.148 47.6979 263.717 48.9972 263.963 50.5368C264.774 55.6088 264.239 62.0829 264.233 67.3358L264.255 98.3888C266.82 95.8537 272.79 90.3026 276.137 89.2338Q276.528 89.1111 276.93 89.028Q277.332 88.9448 277.74 88.902Q278.148 88.8592 278.558 88.8571Q278.968 88.855 279.376 88.8937Q279.785 88.9323 280.187 89.0114Q280.59 89.0905 280.982 89.2091Q281.375 89.3278 281.754 89.4849Q282.133 89.6419 282.494 89.8359Q282.854 90.0233 283.194 90.2459Q283.534 90.4685 283.85 90.7242Q284.165 90.9798 284.454 91.2659Q284.742 91.552 285 91.8656Q285.259 92.1792 285.484 92.5172Q285.709 92.8552 285.9 93.2141Q286.09 93.573 286.243 93.9492Q286.396 94.3254 286.511 94.7151C287.033 96.5373 286.909 98.8674 285.926 100.519C285.21 101.721 284.199 102.809 283.175 103.76C279.42 107.249 275.182 110.416 271.215 113.676C267.708 116.557 264.235 119.809 260.459 122.315C259.332 123.063 258.275 123.502 256.971 123.871C254.675 123.829 253.093 123.413 251.148 122.082C247.423 119.532 243.939 116.293 240.418 113.442C236.08 109.93 230.758 106.275 227.009 102.235C226.02 101.169 225.319 100.21 225.066 98.7489C224.663 96.4256 225.29 93.8866 226.665 91.9792Q226.899 91.6595 227.165 91.3656Q227.431 91.0718 227.726 90.8071Q228.021 90.5423 228.342 90.3094Q228.663 90.0765 229.006 89.878Q229.349 89.6795 229.711 89.5175Q230.072 89.3555 230.449 89.2317Q230.825 89.1079 231.213 89.0237Q231.6 88.9395 231.994 88.8957C237.348 88.2994 243.99 95.238 247.988 98.459L247.958 67.4418C247.953 62.0999 247.492 56.2796 248.183 50.9885C248.365 49.5919 248.727 48.4226 249.539 47.2545C250.928 45.2588 252.9 44.5122 255.177 44.0699Z"/>
	<path fill="#C89F23" transform="scale(1.48828 1.48828)" d="M254.783 388.319C254.86 388.316 254.937 388.311 255.014 388.309C256.454 388.283 257.968 388.392 259.28 389.042C262.363 390.568 281.287 406.146 284.358 409.149C286.046 410.8 287.011 412.61 286.99 415.028Q286.987 415.44 286.942 415.85Q286.898 416.26 286.814 416.664Q286.73 417.067 286.606 417.46Q286.482 417.854 286.32 418.233Q286.159 418.612 285.96 418.973Q285.762 419.335 285.529 419.675Q285.295 420.015 285.03 420.33Q284.764 420.645 284.469 420.933C282.933 422.419 280.881 423.282 278.732 423.172C274.662 422.962 266.963 416.472 264.126 413.336C263.871 424.08 264.044 434.865 264.046 445.614C264.046 450.327 264.34 455.249 263.947 459.94C263.839 461.224 263.665 462.523 263.049 463.674C261.853 465.905 259.927 467.161 257.566 467.914C257.404 467.928 257.243 467.946 257.08 467.957C254.474 468.133 252.038 467.541 250.106 465.676C249.033 464.641 248.415 463.533 248.133 462.082C247.206 457.302 247.753 450.211 247.758 445.185L247.768 413.822C244.135 416.535 239.377 421.768 235.12 422.967Q234.76 423.066 234.393 423.129Q234.025 423.192 233.653 423.219Q233.281 423.246 232.908 423.236Q232.536 423.226 232.166 423.179Q231.796 423.133 231.432 423.05Q231.068 422.967 230.714 422.849Q230.361 422.731 230.02 422.578Q229.68 422.426 229.356 422.241Q228.993 422.036 228.652 421.796Q228.311 421.556 227.996 421.283Q227.681 421.01 227.395 420.706Q227.109 420.403 226.855 420.072Q226.601 419.741 226.382 419.387Q226.163 419.032 225.98 418.657Q225.798 418.282 225.654 417.891Q225.51 417.5 225.406 417.096C224.908 415.098 225.191 412.523 226.352 410.789C228.12 408.15 248.206 391.736 251.611 389.549C252.648 388.882 253.583 388.577 254.783 388.319Z"/>
	<path fill="#C89F23" transform="scale(1.48828 1.48828)" d="M413.975 225.068C416.31 224.99 418.329 225.346 420.175 226.861C421.851 228.237 422.994 230.055 423.151 232.248C423.515 237.355 416.764 244.208 413.457 247.894C417.436 248.104 421.507 247.934 425.494 247.928L448.229 247.899C452.534 247.895 457.751 247.387 461.954 248.329C463.292 248.629 464.579 249.422 465.565 250.361Q465.857 250.638 466.119 250.943Q466.381 251.248 466.609 251.579Q466.838 251.91 467.032 252.263Q467.225 252.615 467.381 252.986Q467.537 253.357 467.654 253.742Q467.771 254.127 467.847 254.522Q467.924 254.916 467.959 255.317Q467.994 255.718 467.988 256.12Q467.983 256.528 467.938 256.934Q467.892 257.34 467.807 257.74Q467.721 258.139 467.597 258.528Q467.472 258.917 467.309 259.292Q467.147 259.667 466.948 260.023Q466.749 260.38 466.515 260.715Q466.282 261.051 466.016 261.361Q465.751 261.671 465.456 261.954C464.412 262.943 463.011 263.782 461.583 264.047C457.128 264.875 451.981 264.394 447.424 264.389L420.812 264.328C418.389 264.343 416.008 264.349 413.593 264.097C416.042 266.716 421.762 273.039 422.789 276.322Q422.911 276.712 422.993 277.112Q423.075 277.512 423.116 277.918Q423.156 278.325 423.156 278.733Q423.155 279.142 423.114 279.548Q423.072 279.954 422.989 280.354Q422.906 280.754 422.783 281.144Q422.66 281.533 422.499 281.908Q422.337 282.283 422.138 282.64Q421.935 283 421.697 283.337Q421.46 283.675 421.19 283.988Q420.92 284.301 420.621 284.585Q420.321 284.87 419.995 285.124Q419.67 285.377 419.32 285.598Q418.971 285.818 418.601 286.003Q418.232 286.187 417.846 286.335Q417.46 286.482 417.062 286.591C414.919 287.173 412.696 286.793 410.826 285.612C409.88 285.014 409.045 284.217 408.294 283.391C404.666 279.395 401.403 274.921 397.967 270.752C395.365 267.597 392.302 264.492 390.028 261.109C389.288 260.007 388.614 258.816 388.349 257.501C387.93 255.422 388.646 253.194 389.76 251.45C391.879 248.13 408.151 228.08 410.412 226.359C411.446 225.572 412.735 225.336 413.975 225.068Z"/>
	<path fill="#C89F23" transform="scale(1.48828 1.48828)" d="M95.1822 225.342C96.3061 225.25 97.395 225.167 98.5055 225.417C100.113 225.78 101.594 226.72 102.799 227.819C106.73 231.403 110.029 236.431 113.416 240.555C116.252 244.009 119.685 247.37 122.1 251.116C123.182 252.795 124.135 255.257 123.629 257.282C123.285 258.657 122.505 260.003 121.715 261.176C119.115 265.034 115.785 268.65 112.841 272.264C109.801 275.994 106.877 279.986 103.618 283.514C102.697 284.51 101.573 285.641 100.385 286.305C98.6416 287.278 96.3023 287.257 94.4468 286.652C92.2724 285.944 90.3797 284.32 89.4397 282.221C86.9013 276.553 92.4893 271.223 95.8054 267.287C96.5687 266.381 97.527 265.484 97.9722 264.377C97.1015 263.986 95.894 264.153 94.9376 264.154C85.0403 264.046 75.1252 264.155 65.2263 264.164C60.4323 264.168 55.0125 264.686 50.3164 263.782C48.7265 263.476 47.2814 262.656 46.1399 261.51C44.5801 259.944 43.9409 257.862 44.0107 255.682Q44.0239 255.266 44.0784 254.852Q44.1328 254.439 44.2281 254.034Q44.3233 253.628 44.4583 253.234Q44.5933 252.84 44.7668 252.461Q44.9403 252.082 45.1506 251.722Q45.3608 251.362 45.6058 251.025Q45.8507 250.688 46.1279 250.377Q46.4051 250.066 46.7118 249.784C47.8916 248.702 49.0552 248.226 50.6132 247.98C56.2729 247.089 63.4115 247.673 69.219 247.671C78.9155 247.668 88.7109 247.365 98.3951 247.817C95.8689 245.301 90.1562 238.905 89.2027 235.471C88.635 233.427 88.7555 230.94 89.8267 229.076C90.9589 227.105 93.0787 225.961 95.1822 225.342Z"/>
	<path fill="#C89F23" transform="scale(1.48828 1.48828)" d="M303.12 25.8659C312.148 24.7546 342.479 36.4872 351.768 40.618Q354.417 41.7986 357.037 43.0439Q359.656 44.2892 362.244 45.5984Q364.832 46.9077 367.387 48.2802Q369.942 49.6526 372.463 51.0874Q374.983 52.5222 377.468 54.0185Q379.953 55.5148 382.4 57.0716Q384.847 58.6285 387.255 60.245Q389.663 61.8615 392.031 63.5367Q394.398 65.2119 396.724 66.9447Q399.05 68.6775 401.333 70.467Q403.615 72.2564 405.853 74.1014Q408.091 75.9464 410.283 77.8458Q412.475 79.7451 414.619 81.6978Q416.764 83.6505 418.86 85.6552Q420.956 87.66 423.002 89.7156Q425.048 91.7712 427.043 93.8765Q429.038 95.9818 430.98 98.1354Q432.923 100.289 434.812 102.49Q436.701 104.691 438.536 106.937Q440.37 109.183 442.149 111.474Q443.928 113.765 445.65 116.099Q447.372 118.433 449.036 120.808Q450.7 123.184 452.305 125.599Q453.911 128.015 455.456 130.469Q457.002 132.924 458.486 135.415Q459.971 137.907 461.394 140.434Q462.817 142.961 464.178 145.523Q465.538 148.084 466.835 150.678Q468.133 153.272 469.366 155.897Q470.599 158.523 471.767 161.177Q472.935 163.832 474.038 166.515Q475.141 169.197 476.177 171.906Q480.832 184.035 484.099 196.609C484.918 199.655 485.978 202.867 486.201 206.017C486.314 207.619 486.135 209.166 485.441 210.627C484.344 212.934 482.349 214.132 480.037 214.97C478.31 215.172 476.604 215.122 474.975 214.456C473.473 213.841 471.894 212.568 471.157 211.102C469.906 208.61 469.465 205.504 468.796 202.808Q467.715 198.432 466.444 194.107Q462.374 180.239 456.476 167.044Q455.426 164.674 454.321 162.329Q453.215 159.985 452.054 157.667Q450.893 155.349 449.678 153.059Q448.463 150.77 447.194 148.509Q445.925 146.249 444.603 144.019Q443.281 141.79 441.906 139.592Q440.531 137.394 439.105 135.229Q437.679 133.065 436.202 130.934Q434.726 128.804 433.199 126.709Q431.672 124.614 430.096 122.556Q428.52 120.498 426.896 118.478Q425.272 116.457 423.6 114.476Q421.929 112.495 420.211 110.554Q418.493 108.612 416.73 106.712Q414.966 104.812 413.159 102.954Q411.351 101.096 409.5 99.2818Q407.649 97.4672 405.755 95.6969Q403.862 93.9266 401.927 92.2016Q399.992 90.4765 398.017 88.7977Q396.041 87.1189 394.027 85.4873Q392.013 83.8557 389.961 82.2721Q387.908 80.6886 385.819 79.154Q383.73 77.6194 381.605 76.1347Q379.48 74.65 377.321 73.2159Q375.161 71.7818 372.969 70.3992Q370.776 69.0166 368.551 67.6862Q366.327 66.3558 364.071 65.0784Q361.815 63.801 359.53 62.5773Q357.245 61.3536 354.931 60.1843Q352.618 59.0149 350.277 57.9007Q347.937 56.7864 345.571 55.7277Q343.205 54.6691 340.814 53.6667Q329.108 48.7158 316.892 45.2048C312.206 43.8888 307.045 43.181 302.537 41.4002C300.346 40.5346 298.507 39.1759 297.608 36.9329C296.747 34.7852 296.936 32.2709 297.938 30.2042C299.036 27.9421 300.767 26.6241 303.12 25.8659Z"/>
	<path fill="#C89F23" transform="scale(1.48828 1.48828)" d="M205.533 25.8177C207.067 25.5652 208.601 25.7489 210.063 26.277C212.153 27.0318 213.631 28.7026 214.47 30.7343Q214.622 31.1064 214.736 31.4916Q214.85 31.8768 214.925 32.2714Q215.001 32.666 215.037 33.0662Q215.073 33.4663 215.069 33.8681Q215.066 34.2698 215.023 34.6692Q214.98 35.0687 214.897 35.4619Q214.815 35.8551 214.694 36.2383Q214.573 36.6214 214.415 36.9908C213.813 38.3863 212.667 39.9349 211.301 40.6515C207.411 42.6917 200.273 43.8751 195.858 45.1095Q185.428 48.0572 175.343 52.0259Q172.87 53.014 170.422 54.0614Q167.974 55.1088 165.552 56.2149Q163.13 57.3209 160.735 58.485Q158.34 59.649 155.974 60.8704Q153.608 62.0918 151.272 63.3698Q148.935 64.6478 146.631 65.9817Q144.326 67.3156 142.054 68.7045Q139.783 70.0935 137.545 71.5368Q135.307 72.9801 133.105 74.4769Q130.903 75.9736 128.737 77.5229Q126.571 79.0723 124.444 80.6733Q122.316 82.2744 120.227 83.9262Q118.139 85.578 116.091 87.2797Q114.043 88.9813 112.036 90.7317Q110.029 92.4822 108.066 94.2805Q106.102 96.0787 104.182 97.9237Q102.262 99.7688 100.387 101.66Q98.5118 103.55 96.6829 105.486Q94.8539 107.421 93.0721 109.4Q91.2904 111.378 89.5567 113.4Q87.8231 115.421 86.1386 117.483Q84.4542 119.545 82.8199 121.648Q81.1856 123.75 79.6024 125.891Q78.0191 128.032 76.4879 130.21Q74.9567 132.389 73.4784 134.604Q72.0001 136.818 70.5756 139.068Q69.1511 141.318 67.7811 143.601Q66.4111 145.884 65.0966 148.2Q63.782 150.516 62.5235 152.862Q61.2651 155.209 60.0635 157.585Q58.862 159.962 57.718 162.366Q56.574 164.771 55.4882 167.202Q49.6375 180.182 45.5326 193.815Q44.1877 198.376 43.0842 203.002C42.5064 205.375 42.0646 208.05 41.0373 210.278C39.888 212.771 37.8314 214.014 35.3364 214.852C33.1524 215.068 30.9156 214.832 29.0628 213.543C27.3119 212.325 26.2387 210.453 25.9029 208.362C25.193 203.943 27.4236 197.836 28.5944 193.569Q29.932 188.593 31.4909 183.682Q33.0498 178.771 34.8269 173.935Q36.604 169.098 38.5958 164.346Q40.5875 159.594 42.7899 154.936Q44.9923 150.278 47.4009 145.723Q49.8096 141.168 52.4196 136.726Q55.0297 132.283 57.8359 127.962Q60.6421 123.64 63.6389 119.449Q64.9746 117.591 66.3455 115.759Q67.7165 113.927 69.1222 112.121Q70.528 110.315 71.968 108.537Q73.408 106.758 74.8817 105.008Q76.3555 103.257 77.8624 101.535Q79.3694 99.8132 80.909 98.1203Q82.4486 96.4274 84.0202 94.7642Q85.5919 93.101 87.1951 91.4681Q88.7983 89.8353 90.4324 88.2334Q92.0666 86.6315 93.731 85.0612Q95.3955 83.4908 97.0896 81.9526Q98.7838 80.4143 100.507 78.9088Q102.23 77.4032 103.982 75.9308Q105.734 74.4585 107.513 73.0199Q109.293 71.5813 111.1 70.177Q112.906 68.7727 114.74 67.4032Q116.573 66.0338 118.432 64.6996Q120.291 63.3654 122.176 62.067Q124.06 60.7686 125.969 59.5064Q127.877 58.2443 129.81 57.0189Q131.742 55.7935 133.698 54.6052Q135.654 53.417 137.632 52.2663Q139.61 51.1157 141.609 50.0031Q143.609 48.8905 145.629 47.8163Q147.65 46.7422 149.691 45.7068Q151.731 44.6715 153.792 43.6754Q155.852 42.6792 157.93 41.7227Q160.009 40.7661 162.106 39.8495Q164.203 38.9328 166.317 38.0564Q168.43 37.18 170.561 36.3442Q172.691 35.5084 174.837 34.7135Q176.982 33.9186 179.143 33.1648C187.657 30.2259 196.64 27.3274 205.533 25.8177Z"/>
	<path fill="#C89F23" transform="scale(1.48828 1.48828)" d="M476.092 297.35C478.425 296.966 480.661 297.241 482.714 298.483C484.369 299.485 485.577 301.012 486 302.915C486.962 307.246 484.816 313.112 483.684 317.318Q482.439 321.965 481.006 326.557Q479.572 331.149 477.952 335.678Q476.332 340.208 474.529 344.668Q472.725 349.128 470.741 353.51Q468.757 357.892 466.595 362.19Q464.433 366.487 462.098 370.693Q459.762 374.898 457.257 379.005Q454.752 383.112 452.081 387.113Q449.77 390.593 447.335 393.988Q444.9 397.383 442.345 400.688Q439.789 403.993 437.117 407.204Q434.444 410.415 431.658 413.528Q428.871 416.641 425.975 419.651Q423.078 422.662 420.075 425.566Q417.072 428.471 413.967 431.265Q410.862 434.06 407.658 436.741Q404.454 439.422 401.156 441.987Q397.857 444.551 394.469 446.995Q391.081 449.439 387.607 451.759Q384.133 454.08 380.578 456.274Q377.023 458.468 373.391 460.533Q369.759 462.598 366.055 464.53Q362.352 466.463 358.581 468.262Q354.81 470.06 350.977 471.722C336.826 478.001 321.76 483.229 306.561 486.265C305.008 486.618 303.41 486.452 301.932 485.854C299.917 485.039 298.255 483.318 297.464 481.301C296.63 479.175 296.773 476.609 297.741 474.551C298.467 473.008 299.703 471.812 301.222 471.055C304.378 469.483 308.339 469.094 311.741 468.204C316.954 466.842 322.216 465.309 327.295 463.51Q329.95 462.584 332.58 461.592Q335.211 460.599 337.815 459.54Q340.42 458.481 342.997 457.357Q345.574 456.232 348.122 455.043Q350.669 453.854 353.186 452.6Q355.703 451.347 358.187 450.03Q360.671 448.713 363.121 447.334Q365.571 445.955 367.985 444.514Q370.4 443.073 372.777 441.572Q375.154 440.07 377.492 438.509Q379.83 436.948 382.128 435.328Q384.426 433.708 386.683 432.03Q388.939 430.353 391.152 428.619Q393.365 426.884 395.534 425.095Q397.702 423.305 399.825 421.461Q401.947 419.617 404.022 417.72Q406.097 415.823 408.124 413.874Q410.15 411.925 412.127 409.926Q414.103 407.926 416.028 405.877Q417.953 403.828 419.826 401.73Q421.699 399.633 423.518 397.489Q425.337 395.346 427.101 393.156Q428.865 390.967 430.573 388.734Q432.281 386.501 433.932 384.225Q435.583 381.949 437.176 379.632Q438.769 377.315 440.303 374.959Q441.836 372.603 443.31 370.208Q444.784 367.814 446.196 365.383Q447.608 362.952 448.959 360.486Q450.309 358.02 451.597 355.52Q452.885 353.021 454.109 350.49Q455.333 347.958 456.492 345.397Q462.415 332.048 466.503 318.028C467.775 313.651 469.362 304.881 471.143 301.328C472.24 299.139 473.843 298.13 476.092 297.35Z"/>
	<path fill="#C89F23" transform="scale(1.48828 1.48828)" d="M32.2119 297.055C33.9508 296.92 35.6075 296.99 37.2246 297.717C38.8006 298.426 40.1051 299.731 40.8922 301.263C42.685 304.752 43.5958 311.007 44.6539 314.97C45.9983 320.004 47.6726 325.004 49.4343 329.907Q50.3953 332.546 51.4225 335.16Q52.4498 337.773 53.5427 340.36Q54.6356 342.947 55.7934 345.506Q56.9512 348.065 58.1732 350.593Q59.3952 353.122 60.6806 355.619Q61.966 358.116 63.314 360.579Q64.662 363.043 66.0717 365.472Q67.4815 367.901 68.9521 370.293Q70.4226 372.686 71.9531 375.041Q73.4836 377.395 75.073 379.711Q76.6624 382.026 78.3097 384.301Q79.957 386.575 81.6612 388.807Q83.3654 391.04 85.1254 393.228Q86.8853 395.417 88.7 397.56Q90.5146 399.703 92.3827 401.8Q94.2508 403.897 96.1713 405.946Q98.0917 407.995 100.063 409.995Q102.035 411.995 104.056 413.945Q106.078 415.895 108.147 417.793Q110.217 419.691 112.335 421.536Q114.452 423.381 116.615 425.172Q118.778 426.963 120.985 428.699Q123.193 430.435 125.443 432.115Q127.694 433.795 129.986 435.417Q132.279 437.04 134.611 438.604Q136.944 440.168 139.315 441.673Q141.686 443.178 144.095 444.622Q146.503 446.066 148.947 447.45Q151.391 448.833 153.87 450.154Q156.348 451.475 158.859 452.733Q161.369 453.991 163.911 455.186Q166.453 456.38 169.024 457.51Q181.565 462.958 194.703 466.743C199.187 468.015 206.575 469.179 210.423 471.098C212.37 472.069 213.865 473.629 214.523 475.725Q214.643 476.118 214.723 476.522Q214.803 476.925 214.843 477.334Q214.882 477.743 214.881 478.154Q214.879 478.565 214.837 478.974Q214.794 479.383 214.711 479.786Q214.629 480.189 214.506 480.581Q214.383 480.973 214.222 481.352Q214.061 481.73 213.863 482.09C212.663 484.278 210.813 485.545 208.467 486.249C205.23 486.874 200.854 485.342 197.656 484.519Q191.206 482.858 184.855 480.851Q178.504 478.844 172.271 476.497Q166.037 474.149 159.94 471.468Q153.843 468.787 147.9 465.78Q145.323 464.449 142.779 463.055Q140.235 461.661 137.727 460.205Q135.218 458.749 132.746 457.231Q130.274 455.714 127.84 454.136Q125.406 452.558 123.011 450.921Q120.617 449.283 118.264 447.587Q115.91 445.892 113.599 444.138Q111.289 442.385 109.021 440.576Q106.754 438.766 104.533 436.901Q102.311 435.037 100.136 433.118Q97.9603 431.199 95.8329 429.227Q93.7056 427.255 91.6274 425.231Q89.5492 423.208 87.5215 421.134Q85.4938 419.059 83.5177 416.936Q81.5416 414.812 79.6184 412.641Q77.6952 410.469 75.8261 408.251Q73.9569 406.033 72.1429 403.77Q70.3289 401.506 68.5712 399.199Q66.8134 396.891 65.113 394.541Q63.4126 392.191 61.7706 389.8Q60.1285 387.409 58.5458 384.978Q56.9631 382.547 55.4408 380.078Q53.9184 377.609 52.4572 375.103Q50.9961 372.598 49.5971 370.057Q48.1981 367.516 46.862 364.941Q45.526 362.366 44.2537 359.76Q42.9814 357.153 41.7737 354.515Q40.566 351.878 39.4235 349.212Q38.2811 346.546 37.2046 343.852Q36.1282 341.159 35.1183 338.439Q34.1085 335.72 33.1659 332.977Q32.2233 330.234 31.3485 327.468C29.5345 321.794 25.7861 310.579 25.748 304.911C25.7387 303.529 26.0535 302.114 26.7212 300.899C27.9354 298.69 29.8674 297.689 32.2119 297.055Z"/>
	<path fill="#C89F23" transform="scale(1.48828 1.48828)" d="M253.886 144.603Q255.76 144.538 257.634 144.595Q259.508 144.651 261.375 144.83Q263.242 145.008 265.093 145.307Q266.944 145.607 268.772 146.025Q270.599 146.444 272.396 146.981Q274.193 147.518 275.951 148.17Q277.709 148.822 279.42 149.587Q281.132 150.352 282.791 151.227Q284.041 151.887 285.257 152.608Q286.473 153.329 287.651 154.109Q288.83 154.889 289.969 155.726Q291.109 156.563 292.205 157.455Q293.302 158.348 294.353 159.293Q295.404 160.237 296.408 161.233Q297.411 162.229 298.364 163.272Q299.318 164.316 300.218 165.406Q301.119 166.495 301.965 167.627Q302.811 168.76 303.6 169.933Q304.39 171.105 305.12 172.315Q305.851 173.526 306.521 174.77Q307.191 176.015 307.799 177.291Q308.407 178.567 308.952 179.871Q309.496 181.176 309.976 182.506Q310.455 183.835 310.869 185.187C315.616 200.772 313.279 216.394 305.65 230.586C309.216 231.221 312.745 232.18 316.262 233.041C327.563 235.807 336.89 238.909 345.443 247.281C355.573 257.196 360.15 269.73 360.258 283.743L360.288 309.836C360.288 314.22 360.811 319.331 359.982 323.614C359.683 325.16 358.753 326.59 357.63 327.672C356.064 329.179 354.514 329.542 352.421 329.783C348.874 330.193 345.123 329.974 341.552 329.974L322.441 329.974L259.312 329.963L193.694 329.964L172.618 329.977C168.829 329.98 164.946 330.145 161.167 329.918C159.41 329.812 156.936 329.609 155.463 328.608C153.504 327.276 152.439 325.068 152.082 322.781C151.401 318.427 151.919 309.172 151.938 304.341C151.969 296.143 151.531 287.729 152.05 279.557Q152.29 275.327 153.234 271.196Q153.818 268.698 154.658 266.275Q155.497 263.851 156.584 261.528Q157.671 259.204 158.993 257.006Q160.315 254.808 161.858 252.759C170.636 240.98 181.216 236.665 194.983 233.289C198.795 232.355 202.627 231.318 206.512 230.736C202.508 223.394 199.775 215.415 199.106 207.045Q198.977 205.61 198.92 204.171Q198.863 202.731 198.878 201.291Q198.893 199.85 198.98 198.412Q199.067 196.974 199.226 195.543Q199.385 194.111 199.615 192.689Q199.845 191.267 200.146 189.858Q200.447 188.449 200.818 187.057Q201.189 185.665 201.629 184.294Q202.069 182.922 202.577 181.574Q203.085 180.226 203.66 178.905Q204.235 177.584 204.876 176.294Q205.516 175.003 206.22 173.746Q206.924 172.49 207.69 171.27Q208.456 170.049 209.282 168.869Q210.107 167.689 210.991 166.551Q211.875 165.414 212.815 164.322C223.392 151.94 237.889 145.82 253.886 144.603ZM294.532 244.819L294.091 245.064C290.635 247.035 287.686 249.96 284.168 251.985C271.463 259.299 255.811 261.129 241.663 257.472Q239.348 256.885 237.093 256.097Q234.839 255.308 232.662 254.325Q230.486 253.341 228.404 252.17Q226.322 250.999 224.352 249.649C222.442 248.335 220.114 246.012 217.968 245.205C216.206 244.542 193.374 250.491 190.502 251.444Q187.307 252.493 184.407 254.195Q183.718 254.595 183.049 255.028Q182.381 255.461 181.734 255.926Q181.088 256.392 180.465 256.889Q179.843 257.386 179.245 257.913Q178.648 258.441 178.078 258.997Q177.507 259.553 176.965 260.136Q176.423 260.72 175.91 261.33Q175.397 261.939 174.915 262.574Q174.433 263.208 173.983 263.865Q173.533 264.523 173.116 265.201Q172.699 265.88 172.316 266.579Q171.933 267.277 171.586 267.994Q171.238 268.711 170.926 269.444Q170.613 270.177 170.338 270.924Q170.063 271.672 169.824 272.432Q169.586 273.192 169.386 273.963C167.794 280.061 168.165 286.499 168.169 292.748C168.172 299.627 168.269 306.517 168.131 313.394Q185.628 313.545 203.125 313.478L343.968 313.481Q344.053 303.667 344.037 293.852C344.045 280.722 344.509 269.743 334.641 259.591Q333.563 258.482 332.385 257.481Q331.208 256.479 329.941 255.593Q328.673 254.707 327.328 253.945Q325.983 253.183 324.572 252.551C319.046 250.02 312.405 248.977 306.497 247.544C302.568 246.591 298.542 245.322 294.532 244.819ZM253.639 161.112C241.552 162.442 231.766 166.685 224.033 176.401Q223.413 177.185 222.831 177.999Q222.249 178.812 221.708 179.653Q221.167 180.494 220.667 181.36Q220.167 182.226 219.71 183.116Q219.253 184.005 218.84 184.916Q218.427 185.826 218.059 186.756Q217.69 187.685 217.367 188.632Q217.045 189.578 216.768 190.539Q216.492 191.5 216.263 192.474Q216.034 193.447 215.852 194.43Q215.67 195.414 215.537 196.405Q215.403 197.396 215.318 198.392Q215.233 199.388 215.196 200.388Q215.16 201.387 215.172 202.387Q215.184 203.387 215.244 204.385Q215.305 205.383 215.414 206.377C216.698 217.545 222.226 227.084 231.053 233.99C239.206 240.368 248.799 242.981 259.057 242.452C270.897 241.327 280.796 236.058 288.386 226.824C294.899 218.899 297.847 207.973 296.799 197.826Q296.699 196.811 296.549 195.803Q296.399 194.794 296.198 193.794Q295.998 192.794 295.748 191.806Q295.498 190.817 295.199 189.842Q294.9 188.867 294.553 187.908Q294.206 186.949 293.811 186.009Q293.416 185.069 292.975 184.15Q292.534 183.23 292.048 182.334Q291.561 181.438 291.031 180.567Q290.5 179.696 289.927 178.852Q289.354 178.009 288.739 177.195Q288.125 176.382 287.47 175.6Q286.816 174.818 286.123 174.069Q285.43 173.321 284.701 172.608Q283.972 171.895 283.208 171.219Q282.445 170.544 281.648 169.907Q280.915 169.321 280.155 168.769Q279.396 168.217 278.611 167.701Q277.827 167.185 277.02 166.705Q276.212 166.226 275.384 165.785Q274.555 165.343 273.707 164.941Q272.858 164.538 271.993 164.175Q271.127 163.812 270.245 163.49Q269.363 163.167 268.467 162.886Q267.571 162.605 266.664 162.365Q265.756 162.126 264.838 161.929Q263.92 161.731 262.994 161.577Q262.068 161.422 261.135 161.311Q260.203 161.199 259.267 161.131Q258.33 161.062 257.392 161.038Q256.453 161.013 255.515 161.031Q254.576 161.05 253.639 161.112Z"/>
</svg>
