<?xml version="1.0" encoding="utf-8" ?>
<svg xmlns="http://www.w3.org/2000/svg" xmlns:xlink="http://www.w3.org/1999/xlink" width="653" height="653">
	<path fill="#C89F23" transform="matrix(1.27539 0 0 1.27539 6.10352e-05 0)" d="M79.2324 8.09407Q79.5375 8.07572 79.843 8.06513C87.0644 7.77089 94.3652 7.9837 101.594 7.98898L140.095 7.9914L259.113 7.98969L363.51 7.98787L397.449 7.98335C403.286 7.98017 409.205 7.73453 415.027 8.03485C417.504 8.1626 419.721 8.55186 421.58 10.3402C423.009 11.7153 423.734 13.417 423.904 15.3845C424.195 18.7509 424.028 22.243 424.027 25.6258L424.012 43.5341L424.012 100.466L424.012 279.944L472.552 279.993C479.974 279.99 487.549 279.667 494.956 280.031C497.848 280.173 500.308 280.737 502.266 283.035C503.444 284.419 503.841 286.419 503.953 288.183C504.496 296.773 504.01 306.63 504.008 315.378L504.008 369.387L504.017 411.293C504.025 417.869 504.519 426.155 503.889 432.491C503.653 434.868 502.735 436.824 500.836 438.308C499.567 439.299 498.198 439.765 496.608 439.921C491.773 440.395 486.692 440.11 481.827 440.108L455.481 440.103L435.852 440.126C431.999 440.148 427.855 440.492 424.037 439.984L424.026 456.683C424.035 468.375 423.432 476.865 416.704 486.879Q415.032 489.253 413.034 491.36C405.381 499.482 395.437 503.691 384.353 504.035C375.266 504.317 366.128 504.109 357.035 504.105L308.459 504.103L159.112 504.108L80.4296 504.094L58.3636 504.104C53.1958 504.115 47.8343 504.334 42.7007 503.658Q41.1625 503.456 39.6449 503.133Q38.1274 502.81 36.6401 502.368Q35.1527 501.927 33.7047 501.369Q32.2568 500.812 30.8572 500.142Q29.4577 499.473 28.1152 498.695Q26.7728 497.917 25.4957 497.036Q24.2187 496.155 23.0151 495.176Q21.8115 494.197 20.6887 493.126C12.561 485.435 8.35956 475.66 8.03582 464.503C7.86912 458.758 8.00526 452.977 8.00567 447.228L8.00724 414.865L8.01091 317.241L8.01219 254.448L7.9945 235.421C7.98348 231.586 7.79486 227.642 8.09614 223.817C8.29022 221.353 9.0584 219.566 10.807 217.795C11.9719 216.615 14.1959 216.311 15.8047 216.134C21.5813 215.501 28.6101 215.975 34.5012 215.976L71.9593 215.976L72.0131 76.9582L71.997 37.8169C71.9904 30.8711 71.6881 23.8 72.0513 16.8743C72.1558 14.8827 72.3757 12.7469 73.6038 11.1011C75.027 9.19386 76.9842 8.48243 79.2324 8.09407ZM88.0821 23.9801C87.6791 36.5435 88.0088 49.2186 88.0131 61.7925L88.0157 132.48L88.0125 347.626L88.0121 428.21L88.0249 452.414C88.0271 457.692 88.2523 463.078 87.6735 468.329Q87.5289 469.66 87.2938 470.977Q87.0587 472.295 86.7343 473.594Q86.4098 474.892 85.9975 476.166Q85.5852 477.439 85.087 478.682Q84.5887 479.924 84.0068 481.13Q83.425 482.335 82.7622 483.498Q82.0995 484.661 81.3589 485.776Q80.6183 486.891 79.8034 487.953C103.813 488.229 127.849 487.99 151.863 487.988L288.098 487.984L354.51 487.987L374.526 487.997C378.628 487.997 382.923 488.225 386.993 487.712Q387.971 487.592 388.936 487.392Q389.901 487.192 390.846 486.912Q391.791 486.633 392.71 486.276Q393.628 485.919 394.514 485.487Q395.4 485.055 396.247 484.551Q397.094 484.047 397.896 483.474Q398.698 482.902 399.45 482.265Q400.202 481.628 400.899 480.931C406.747 475.168 408.024 468.166 408.029 460.262C408.033 453.574 407.883 446.861 408.056 440.177C403.864 440.172 397.291 440.895 394.123 437.576C391.113 434.422 391.961 428.213 392.054 424.185C386.514 424.134 374.179 423.415 369.449 424.545C366.115 425.341 362.558 427.645 359.476 429.2L345.525 436.206C343.12 437.435 340.439 439.274 337.759 439.737C333.007 440.558 327.607 440.105 322.778 440.107L295.38 440.114L256.744 440.114C250.099 440.114 241.225 440.766 234.839 439.506C230.386 438.627 225.95 436.005 222.812 432.768C221.579 431.495 220.524 430.076 219.514 428.624C217.73 425.413 216.555 422.355 216.196 418.675C215.702 413.633 215.996 408.367 215.997 403.296L216.008 376.324L215.999 339.669C215.997 332.783 215.232 319.429 216.939 313.384Q217.096 312.816 217.282 312.256Q217.467 311.696 217.68 311.146Q217.894 310.596 218.134 310.057Q218.374 309.518 218.641 308.992Q218.908 308.466 219.201 307.954Q219.494 307.442 219.812 306.945Q220.13 306.448 220.472 305.968Q220.814 305.488 221.18 305.025Q221.546 304.562 221.934 304.118Q222.323 303.675 222.733 303.251Q223.143 302.827 223.574 302.424Q224.005 302.021 224.455 301.64Q224.905 301.259 225.374 300.901Q225.843 300.543 226.329 300.209Q226.815 299.874 227.317 299.565Q227.819 299.255 228.336 298.971C230.963 297.526 233.67 296.665 236.64 296.282C242.809 295.488 249.471 295.982 255.7 295.989C269.108 296.003 282.558 296.217 295.961 295.977L296.012 264.502C296.011 256.766 295.176 246.96 297.144 239.555Q297.423 238.521 297.771 237.509Q298.119 236.496 298.534 235.509Q298.95 234.522 299.43 233.566Q299.911 232.609 300.454 231.686Q300.998 230.764 301.602 229.88Q302.207 228.996 302.869 228.155Q303.531 227.314 304.249 226.519Q304.966 225.724 305.735 224.979C313.668 217.217 323.147 215.751 333.788 215.953C336.664 216.007 339.82 216.362 341.881 218.603C343.026 219.849 343.581 221.377 343.843 223.026C344.499 227.142 344.018 231.806 344.009 235.993C343.985 246.644 343.571 258.115 344.072 268.682C349.889 274.787 355.973 280.674 361.939 286.635C364.938 289.632 367.959 293.291 371.339 295.805C378.049 296.496 385.207 295.999 391.961 295.978C391.959 291.927 391.187 285.461 394.263 282.329C397.38 279.154 403.854 279.953 407.96 279.972L408.007 102.051L408.006 51.1025C408.006 42.1454 407.798 33.1291 408.056 24.1782L178.068 24.098L115.517 24.1024L97.9187 24.1243C94.6868 24.135 91.2787 24.4432 88.0821 23.9801ZM326.131 232.334C321.814 232.828 318.181 234.619 315.457 238.059Q314.901 238.752 314.432 239.505Q313.962 240.259 313.585 241.063Q313.208 241.867 312.929 242.71Q312.651 243.553 312.474 244.423C311.569 248.96 311.998 253.973 312.003 258.591L312.034 288.747C312.038 293.687 312.47 299.051 311.92 303.938C311.746 305.486 311.359 307.012 310.61 308.386C309.341 310.715 306.963 311.551 304.452 311.912C299.633 312.605 293.046 312.114 287.993 312.115L253.347 312.087C248.689 312.078 243.414 311.596 238.827 312.366C237.048 312.665 235.024 313.352 233.875 314.825C231.22 318.231 231.969 323.889 232.009 327.972L272.496 327.987C280.33 327.988 288.188 327.865 296.019 328.061L296.019 344.044C281.631 344.299 267.216 344.11 252.825 344.108L240.002 344.145C237.41 344.162 234.663 344.351 232.093 344.013C231.84 349.311 232.05 354.643 232.009 359.948C253.328 360.067 274.713 359.549 296.019 360.061L296.019 376.044C281.57 376.294 267.095 376.11 252.643 376.108L239.943 376.146C237.372 376.162 234.643 376.352 232.093 376.012C231.84 381.31 232.05 386.642 232.01 391.946L266.375 391.987C276.245 391.985 286.154 391.793 296.019 392.061L296.02 408.044C281.576 408.301 267.104 408.111 252.658 408.109L239.934 408.144C237.338 408.158 234.6 408.346 232.029 407.984C231.968 412.119 231.094 418.114 234.151 421.397C236.739 424.177 240.354 423.973 243.843 423.995L305.144 423.978L323.173 424.011C326.432 424.017 330.025 424.322 333.235 423.802C336.092 423.34 338.813 421.622 341.374 420.326L355.678 413.097C358.919 411.46 362.378 409.303 365.904 408.431C369.224 407.609 373.033 407.955 376.431 407.966C381.601 407.983 386.792 408.085 391.961 407.977L392.008 342.421C392.007 332.35 391.841 322.245 392.056 312.178Q384.853 312.095 377.65 312.139C373.722 312.155 369.716 312.387 365.838 311.665C365.73 311.645 365.621 311.629 365.513 311.607C364.259 311.349 362.871 310.054 361.92 309.207C355.798 303.753 349.74 297.081 343.887 291.234C340.395 287.745 331.262 279.389 328.89 275.688C326.741 272.335 328.916 234.109 327.897 232.442C327.797 232.278 327.556 232.265 327.386 232.177L326.131 232.334ZM24.0827 231.983C23.8753 238.491 24.0025 245.025 24.0063 251.538L24.0158 284.309L24.014 385.735L24.0133 440.941L24.0115 457.229C24.0138 460.597 23.8317 464.115 24.2729 467.458C24.9099 472.284 27.2392 476.956 30.5801 480.484Q30.9868 480.913 31.4143 481.321Q31.8418 481.729 32.289 482.116Q32.7363 482.502 33.2022 482.866Q33.6681 483.23 34.1514 483.57Q34.6348 483.91 35.1345 484.226Q35.6342 484.542 36.1489 484.833Q36.6636 485.123 37.1922 485.388Q37.7207 485.653 38.2617 485.891Q38.8027 486.129 39.3549 486.34Q39.9071 486.551 40.4691 486.734Q41.0311 486.917 41.6014 487.072Q42.1718 487.228 42.7492 487.354Q43.3266 487.481 43.9096 487.579Q44.4925 487.676 45.0796 487.745Q45.6667 487.814 46.2565 487.853Q46.8463 487.893 47.4373 487.903C53.9333 488.05 60.021 485.583 64.7087 481.105Q64.9352 480.888 65.1557 480.665C68.6115 476.908 70.8922 472.666 71.6339 467.578C72.6267 460.767 72.0149 451.821 72.0086 444.752L72.0042 401.886L72.002 289.954C72.0021 270.726 71.5898 251.397 72.0556 232.178Q55.7545 232.052 39.4529 232.116C34.7819 232.121 28.5657 232.648 24.0827 231.983ZM408.081 295.975C407.712 308.49 408.006 321.09 408.01 333.614C408.021 363.715 408.312 393.848 408.011 423.945L459.775 423.997C469.133 423.997 478.622 424.318 487.962 423.958L488.007 336.116C488.007 322.817 487.78 309.475 488.055 296.18L431.868 296.099L416.809 296.113C413.944 296.126 410.913 296.406 408.081 295.975Z"/>
	<path fill="#C89F23" transform="matrix(1.27539 0 0 1.27539 6.10352e-05 0)" d="M194.138 330.584C196.359 331.482 203.382 339.356 205.566 341.537C200.871 346.911 195.401 351.841 190.341 356.883C188.253 358.964 185.729 361.112 184.076 363.553C183.837 368.21 184.013 372.956 184.014 377.624L184.003 402.25C184.01 406.931 184.591 412.363 183.825 416.959C183.516 418.815 182.878 420.385 181.519 421.717C180.054 423.152 178.306 423.726 176.306 423.98C173.88 424.287 171.283 424.11 168.839 424.099L156.895 424.097L114.625 424.125C113.509 424.094 112.381 424.077 111.273 423.925C108.909 423.602 106.644 422.593 105.247 420.584C104.334 419.271 104.147 416.88 104.054 415.285C103.789 410.771 104.006 406.134 104.004 401.608L103.992 375.004L103.993 359.377C103.994 356.545 103.708 353.357 104.241 350.586C104.65 348.461 105.785 346.35 107.668 345.167C108.82 344.443 110.317 344.208 111.653 344.101C115.354 343.803 119.178 343.98 122.894 343.978L143.34 343.973L163.003 343.979C168.584 343.982 174.434 343.568 179.9 344.791C184.517 339.942 189.366 335.28 194.138 330.584ZM120.084 359.983C119.57 375.941 120.191 391.978 120.01 407.948C135.97 408.04 152.004 408.266 167.961 407.976L168.02 389.293C168.021 385.994 168.141 382.64 167.948 379.347L156.292 390.999C153.738 393.572 151.188 396.553 148.226 398.649C147.195 399.379 146.179 399.736 144.959 400.011C143.468 399.996 142.245 399.946 140.876 399.255C137.093 397.346 126.447 385.907 122.968 382.254C122.773 382.049 122.592 381.835 122.41 381.619Q127.816 375.95 133.467 370.525C133.546 370.582 133.625 370.638 133.703 370.696C136.974 373.143 140.533 378.371 143.798 380.043C146.454 379.523 160.879 363.056 164.796 360.142C154.308 359.881 143.766 360.098 133.273 360.12C129.036 360.129 124.255 360.601 120.084 359.983Z"/>
	<path fill="#C89F23" transform="matrix(1.27539 0 0 1.27539 6.10352e-05 0)" d="M194.139 234.584C196.306 235.461 203.476 243.445 205.563 245.537C200.862 250.95 195.338 255.905 190.253 260.971C188.191 263.026 185.707 265.144 184.077 267.553C183.845 272.29 184.012 277.11 184.014 281.857L184.003 306.272C184.009 310.847 184.58 316.496 183.824 320.951C183.51 322.801 182.885 324.391 181.525 325.719C180.066 327.145 178.294 327.725 176.306 327.979C173.843 328.293 171.202 328.109 168.719 328.098L157.246 328.101L114.628 328.128C113.511 328.096 112.381 328.077 111.273 327.925C108.909 327.601 106.644 326.593 105.247 324.584C104.334 323.271 104.147 320.88 104.054 319.285C103.789 314.771 104.006 310.134 104.004 305.608L103.992 279.004L103.993 263.377C103.994 260.546 103.708 257.357 104.241 254.586C104.65 252.461 105.785 250.35 107.668 249.167C108.821 248.443 110.317 248.209 111.653 248.101C115.354 247.803 119.178 247.98 122.894 247.978L143.34 247.974L163.003 247.98C168.576 247.983 174.411 247.571 179.87 248.785Q186.955 241.635 194.139 234.584ZM120.084 263.984C119.554 279.938 120.191 295.98 120.01 311.948C135.969 312.04 152.007 312.275 167.962 311.976L168.02 293.441C168.021 290.093 168.145 286.689 167.948 283.347L156.292 294.999C153.738 297.572 151.188 300.553 148.226 302.649C147.192 303.381 146.177 303.737 144.953 304.011C143.316 303.988 142.063 303.907 140.579 303.104C136.902 301.115 126.45 289.914 122.968 286.254C122.773 286.049 122.593 285.836 122.41 285.62Q127.815 279.949 133.467 274.525C133.546 274.582 133.625 274.638 133.703 274.696C136.956 277.13 140.558 282.398 143.798 284.041C146.632 283.274 160.721 267.258 164.798 264.14C154.301 263.893 143.756 264.098 133.253 264.119C129.021 264.127 124.251 264.598 120.084 263.984Z"/>
	<path fill="#C89F23" transform="matrix(1.27539 0 0 1.27539 6.10352e-05 0)" d="M247.174 40.0643C248.987 40.0646 250.289 40.3541 251.906 41.192C255.279 42.9393 258.315 45.7963 261.452 47.971C266.697 51.6067 272.377 54.8509 278.097 57.676Q281.307 59.2558 284.594 60.6681Q287.881 62.0805 291.237 63.3216Q294.592 64.5628 298.007 65.6294Q301.422 66.6961 304.887 67.5854Q308.353 68.4747 311.859 69.1844Q315.366 69.894 318.904 70.4221Q322.443 70.9502 326.004 71.2953Q329.565 71.6404 333.139 71.8016C337.329 72.0052 344.675 71.2004 348.15 73.2391C349.953 74.2973 351.082 75.896 351.605 77.9127C352.771 82.401 351.804 88.4429 351.452 93.029Q351.102 98.0197 350.471 102.983Q349.839 107.946 348.928 112.865Q348.017 117.784 346.829 122.644Q345.641 127.504 344.181 132.289Q342.72 137.074 340.99 141.768Q339.261 146.463 337.269 151.052Q335.277 155.642 333.029 160.111Q330.781 164.58 328.283 168.915Q325.01 174.625 321.325 180.078Q317.64 185.532 313.564 190.699Q309.488 195.867 305.043 200.72Q300.597 205.574 295.807 210.087C286.491 218.816 276.341 226.726 266.565 234.936C262.433 238.407 253.86 246.713 249.14 247.999C246.733 247.999 245.212 247.605 243.162 246.278C240.243 244.39 237.562 241.817 234.9 239.574L221.094 228.023C211.99 220.447 202.764 213.018 194.467 204.543Q192.278 202.289 190.169 199.96Q188.06 197.631 186.035 195.229Q184.01 192.827 182.07 190.355Q180.131 187.883 178.279 185.345Q176.428 182.806 174.667 180.204Q172.906 177.602 171.238 174.94Q169.57 172.277 167.996 169.558Q166.423 166.838 164.946 164.065Q163.469 161.292 162.091 158.469Q160.712 155.645 159.434 152.775Q158.156 149.905 156.98 146.991Q155.804 144.078 154.731 141.125Q153.658 138.172 152.689 135.183Q151.721 132.194 150.858 129.173Q149.995 126.152 149.24 123.102Q148.484 120.052 147.836 116.978C146.351 109.745 141.545 80.9606 145.419 75.448C147.871 71.9588 151.268 72.0633 155.102 71.975C160.186 71.8579 165.273 71.767 170.337 71.2651Q174.242 70.8782 178.119 70.2697Q181.995 69.6612 185.831 68.8332Q189.667 68.0051 193.449 66.9603Q197.232 65.9154 200.949 64.657Q204.666 63.3986 208.305 61.9308Q211.944 60.463 215.494 58.7906Q219.044 57.1181 222.493 55.2464Q225.942 53.3748 229.279 51.3099Q233.367 48.7409 237.268 45.8959C239.608 44.1717 242.041 42.0226 244.664 40.7548C245.445 40.3772 246.327 40.2221 247.174 40.0643ZM247.566 58.4479C242.718 61.7534 237.883 65.0316 232.765 67.9126C211.005 80.1606 185.306 88.0306 160.2 88.0896C160.77 96.3554 161.64 104.467 163.285 112.596Q163.948 115.851 164.743 119.075Q165.538 122.3 166.465 125.49Q167.392 128.679 168.448 131.828Q169.504 134.977 170.688 138.08Q171.873 141.184 173.183 144.236Q174.493 147.288 175.927 150.284Q177.361 153.28 178.916 156.214Q180.472 159.149 182.146 162.018Q183.82 164.886 185.61 167.684Q187.4 170.482 189.303 173.204Q191.206 175.926 193.219 178.568Q195.232 181.21 197.351 183.768Q199.471 186.325 201.693 188.794Q203.915 191.262 206.236 193.638Q208.557 196.014 210.974 198.292Q213.39 200.571 215.898 202.749C222.281 208.319 228.891 213.638 235.382 219.082C239.112 222.21 242.938 226.001 247.007 228.647C247.464 228.944 247.882 229.1 248.429 229.088C248.505 229.087 248.579 229.074 248.655 229.067C259.634 219.379 271.454 210.6 282.255 200.717Q284.563 198.645 286.79 196.486Q289.017 194.328 291.16 192.085Q293.302 189.842 295.357 187.519Q297.411 185.195 299.376 182.795Q301.34 180.394 303.21 177.92Q305.08 175.446 306.854 172.902Q308.629 170.358 310.304 167.747Q311.979 165.137 313.552 162.464Q315.126 159.792 316.596 157.06Q318.066 154.329 319.429 151.543Q320.793 148.758 322.049 145.922Q323.305 143.086 324.451 140.204Q325.597 137.322 326.632 134.398Q327.667 131.474 328.588 128.512Q329.51 125.551 330.317 122.556Q331.124 119.562 331.816 116.538Q333.994 107.161 334.99 97.5865C335.33 94.4783 335.265 91.1889 335.866 88.1331C310.937 86.865 288.173 81.399 266.086 69.5243Q260.746 66.6866 255.7 63.3552C253.533 61.9302 251.39 60.2472 249.128 58.9939C248.6 58.7015 248.182 58.4821 247.566 58.4479Z"/>
	<path fill="#C89F23" transform="matrix(1.27539 0 0 1.27539 6.10352e-05 0)" d="M247.179 80.0642C248.407 80.0294 249.9 80.1598 251.031 80.667C253.753 81.8874 256.394 84.28 258.797 86.0357Q263.448 89.4946 268.476 92.3774Q270.361 93.4507 272.296 94.4299Q274.231 95.4092 276.213 96.2921Q278.194 97.175 280.216 97.9594Q282.238 98.7437 284.296 99.4277Q286.355 100.112 288.444 100.694Q290.534 101.275 292.649 101.754Q294.765 102.232 296.901 102.606Q299.038 102.98 301.19 103.248C305.195 103.756 312.192 103.245 315.619 104.941C317.404 105.825 318.923 107.547 319.5 109.456C320.548 112.925 319.094 117.216 318.173 120.602Q317.131 124.579 315.833 128.48Q314.536 132.381 312.988 136.189Q311.44 139.998 309.649 143.698Q307.857 147.399 305.83 150.975C294.179 171.594 280.678 182.49 263.078 197.613C259.397 200.777 253.727 206.749 249.19 208.009C246.896 208.056 245.39 207.704 243.429 206.469C240.965 204.918 238.791 202.765 236.601 200.857L227.129 192.71C220.271 186.837 213.443 181.102 207.244 174.511Q205.824 172.972 204.455 171.386Q203.087 169.801 201.771 168.171Q200.455 166.541 199.194 164.869Q197.933 163.197 196.727 161.484Q195.522 159.771 194.374 158.02Q193.225 156.268 192.135 154.48Q191.045 152.691 190.015 150.868Q188.984 149.044 188.014 147.188Q187.044 145.331 186.136 143.444Q185.228 141.557 184.383 139.64Q183.537 137.724 182.755 135.781Q181.973 133.838 181.256 131.87Q180.539 129.902 179.886 127.912Q179.234 125.922 178.648 123.911Q178.062 121.9 177.542 119.871Q177.023 117.842 176.57 115.797C175.958 113.022 175.703 110.042 177.372 107.563C178.093 106.49 179.113 105.464 180.288 104.897C183.66 103.268 191.428 103.698 195.545 103.129Q197.996 102.805 200.424 102.343Q202.852 101.88 205.251 101.282Q207.649 100.683 210.01 99.9499Q212.37 99.2167 214.686 98.3513Q217.001 97.4859 219.264 96.491Q221.527 95.4962 223.73 94.3751Q225.933 93.2539 228.069 92.0101Q230.206 90.7663 232.268 89.4038C236.175 86.7908 239.792 83.5163 243.853 81.1914C244.948 80.5647 245.953 80.2946 247.179 80.0642ZM247.502 98.4569C243.249 101.387 239.016 104.298 234.509 106.83C222.459 113.599 208.125 118.426 194.313 119.608C198.362 136.752 209.836 154.382 222.138 166.806C226.56 171.272 231.465 175.311 236.246 179.384C238.964 181.7 244.521 187.113 247.28 188.692C247.729 188.949 248.021 189.012 248.522 189.079C256.836 181.391 266.018 174.574 274.042 166.583Q276.001 164.611 277.858 162.543Q279.716 160.476 281.468 158.318Q283.221 156.16 284.863 153.918Q286.505 151.675 288.034 149.354Q289.562 147.032 290.972 144.637Q292.383 142.242 293.672 139.779Q294.961 137.317 296.125 134.793Q297.29 132.269 298.327 129.69C299.64 126.452 301.003 122.97 301.71 119.545C288.828 118.177 275.576 114.404 264.11 108.318C261.181 106.763 258.263 105.085 255.499 103.252C253.32 101.808 251.167 100.118 248.91 98.822C248.427 98.5446 248.054 98.453 247.502 98.4569Z"/>
</svg>
