<?xml version="1.0" encoding="utf-8" ?>
<svg xmlns="http://www.w3.org/2000/svg" xmlns:xlink="http://www.w3.org/1999/xlink" width="766" height="749">
	<path fill="#1C001A" transform="matrix(4.25556 0 0 4.25568 0 -7.62939e-06)" d="M0 0L27.2966 0L49.7541 0L73.2923 0L96.6601 0L168.951 0L179.562 0C180.338 1.2387 180.245 9.07907 179.875 10.6523C179.841 10.7975 179.791 10.9399 179.738 11.079C180.502 13.3244 180.005 38.248 180.005 42.3082L180.003 134.427C180.002 138.443 180.406 174.334 179.743 175.68C179.688 175.793 179.63 175.893 179.562 176L34.5481 176L0 176L0 137.923L0 115.039L0 91.4468L0 68.7799L0 45.4021L0 22.3974L0 1.72698L0 0.836037L0 0ZM100.925 5.62858L33.9679 5.69592L14.2676 5.72108C11.4241 5.73523 8.34751 6.09084 5.53356 5.78336C5.91948 17.4503 5.67352 29.189 5.68717 40.8651L5.75774 103.498L5.76219 125.097C5.76314 131.255 5.39757 137.735 6.70562 143.788Q6.98531 145.034 7.35695 146.256Q7.7286 147.478 8.19013 148.669Q8.65167 149.859 9.20054 151.012Q9.7494 152.166 10.3826 153.275Q11.0157 154.384 11.7297 155.443Q12.4436 156.502 13.2343 157.504Q14.0251 158.507 14.8883 159.448Q15.7515 160.39 16.6823 161.264C27.8578 171.709 39.5468 170.549 53.7275 170.535L78.875 170.504L145.651 170.46L164.57 170.427C167.792 170.413 171.34 170.089 174.513 170.497L174.398 60.5052L174.37 28.4882C174.367 23.0811 174.783 17.2614 174.18 11.9053C173.998 10.2852 173.192 8.81308 172.046 7.66947C170.685 6.31138 169.259 5.97056 167.4 5.73582C164.614 5.38395 161.701 5.5373 158.895 5.53858L145.285 5.55124L101.411 5.62381L100.925 5.62858ZM0 137.923L0 176L34.5481 176C33.0912 175.157 30.6 174.827 28.9524 174.354Q27.1242 173.841 25.3567 173.147Q23.5892 172.454 21.9001 171.586Q20.211 170.719 18.6175 169.686Q17.0239 168.654 15.5419 167.467C6.55866 160.312 1.81596 150.607 0.544868 139.328L0 137.923ZM168.951 0C173.407 2.02616 177.015 3.34149 178.889 8.30527C179.225 9.19571 179.534 10.1483 179.738 11.079C179.791 10.9399 179.841 10.7975 179.875 10.6523C180.245 9.07907 180.338 1.2387 179.562 0L168.951 0ZM0 68.7799L0 91.4468L0 115.039L0 137.923L0.544868 139.328L0.493485 137.048C0.755014 129.545 0.559748 121.985 0.552163 114.477L0.488496 70.7646L0.276167 68.8436L0 68.7799ZM49.7541 0L49.7502 0.303186C44.6456 0.434567 39.5297 0.345706 34.4236 0.33265C32.1035 0.326717 29.4011 0.0695252 27.1264 0.465679C29.774 0.734326 32.5884 0.563283 35.2545 0.566512L52.168 0.515799L78.0007 0.390878C83.568 0.387533 89.1976 0.580833 94.7582 0.36426C95.4318 0.338022 96.0277 0.24173 96.6601 0L73.2923 0L49.7541 0ZM0 0L0 0.836037L1.55373 0.26935C4.88448 0.844864 8.8019 0.518422 12.1933 0.51559C17.1568 0.511445 22.1681 0.6427 27.1264 0.465679C29.4011 0.0695252 32.1035 0.326717 34.4236 0.33265C39.5297 0.345706 44.6456 0.434567 49.7502 0.303186L49.7541 0L27.2966 0L0 0ZM0 22.3974L0 45.4021L0 68.7799L0.276167 68.8436L0.488496 70.7646C0.796311 68.0371 0.555473 65.059 0.554749 62.3053Q0.592817 54.0359 0.492523 45.767C0.0563757 44.2217 0.229515 42.2014 0.240532 40.5974C0.268419 36.5374 0.931218 25.6633 0 22.3974ZM0 1.72698L0 22.3974C0.931218 25.6633 0.268419 36.5374 0.240532 40.5974C0.229515 42.2014 0.0563757 44.2217 0.492523 45.767C0.671864 42.8117 0.554805 39.7874 0.559015 36.825Q0.602483 27.2234 0.436946 17.6232C0.404667 14.3122 0.754258 4.43804 0 1.72698Z"/>
	<path fill="#1C001A" fill-opacity="0.88627452" transform="matrix(4.25556 0 0 4.25568 0 -7.62939e-06)" d="M0 1.72698C0.754258 4.43804 0.404667 14.3122 0.436946 17.6232Q0.602475 27.2234 0.559015 36.825C0.554805 39.7874 0.671864 42.8117 0.492523 45.767C0.0563757 44.2217 0.229515 42.2014 0.240532 40.5974C0.268419 36.5374 0.931218 25.6633 0 22.3974L0 1.72698Z"/>
	<path fill="#1C001A" fill-opacity="0.78431374" transform="matrix(4.25556 0 0 4.25568 0 -7.62939e-06)" d="M0 22.3974C0.931218 25.6633 0.268419 36.5374 0.240532 40.5974C0.229515 42.2014 0.0563757 44.2217 0.492523 45.767Q0.592861 54.0359 0.554749 62.3053C0.555473 65.059 0.796311 68.0371 0.488496 70.7646L0.276167 68.8436L0 68.7799L0 45.4021L0 22.3974ZM0 45.4021L0 68.7799L0.276167 68.8436C0.131992 63.979 0.957 48.9163 0 45.4021Z"/>
	<path fill="#1C001A" fill-opacity="0.67058825" transform="matrix(4.25556 0 0 4.25568 0 -7.62939e-06)" d="M0 45.4021C0.957 48.9163 0.131992 63.979 0.276167 68.8436L0 68.7799L0 45.4021Z"/>
	<path fill="#1C001A" fill-opacity="0.60392159" transform="matrix(4.25556 0 0 4.25568 0 -7.62939e-06)" d="M0 0L27.2966 0L49.7541 0L49.7502 0.303186C44.6456 0.434567 39.5297 0.345706 34.4236 0.33265C32.1035 0.326717 29.4011 0.0695252 27.1264 0.465679C22.1681 0.6427 17.1568 0.511445 12.1933 0.51559C8.8019 0.518422 4.88448 0.844864 1.55373 0.26935L0 0.836037L0 0ZM0 0L0 0.836037L1.55373 0.26935C3.42348 -0.0725366 5.58806 0.125681 7.4849 0.155304C12.1783 0.2286 23.313 0.853552 27.2966 0L0 0Z"/>
	<path fill="#1C001A" fill-opacity="0.50588238" transform="matrix(4.25556 0 0 4.25568 0 -7.62939e-06)" d="M0 0L27.2966 0C23.313 0.853552 12.1783 0.2286 7.4849 0.155304C5.58806 0.125681 3.42348 -0.0725366 1.55373 0.26935L0 0.836037L0 0Z"/>
	<path fill="#1C001A" fill-opacity="0.85490197" transform="matrix(4.25556 0 0 4.25568 0 -7.62939e-06)" d="M49.7541 0L73.2923 0L96.6601 0C96.0277 0.24173 95.4318 0.338022 94.7582 0.36426C89.1976 0.580833 83.568 0.387533 78.0007 0.390878L52.168 0.515799L35.2545 0.566512C32.5884 0.563283 29.774 0.734326 27.1264 0.465679C29.4011 0.0695252 32.1035 0.326717 34.4236 0.33265C39.5297 0.345706 44.6456 0.434567 49.7502 0.303186L49.7541 0ZM49.7541 0L49.7502 0.303186C55.1967 -0.0972175 60.892 0.273126 66.3629 0.292254C68.5791 0.300002 71.1425 0.543279 73.2923 0L49.7541 0Z"/>
	<path fill="#1C001A" fill-opacity="0.73725492" transform="matrix(4.25556 0 0 4.25568 0 -7.62939e-06)" d="M49.7541 0L73.2923 0C71.1425 0.543279 68.5791 0.300002 66.3629 0.292254C60.892 0.273126 55.1967 -0.0972175 49.7502 0.303186L49.7541 0Z"/>
	<path fill="#1C001A" fill-opacity="0.55686277" transform="matrix(4.25556 0 0 4.25568 0 -7.62939e-06)" d="M0 68.7799L0.276167 68.8436L0.488496 70.7646L0.552163 114.477C0.559748 121.985 0.755014 129.545 0.493485 137.048L0.544868 139.328L0 137.923L0 115.039L0 91.4468L0 68.7799ZM0 115.039L0 137.923L0.544868 139.328L0.493485 137.048C0.0119047 135.076 0.293515 132.465 0.302234 130.413C0.323806 125.337 0.555191 120.162 0.234655 115.097L0 115.039ZM0 91.4468L0 115.039L0.234655 115.097L0.267723 99.9418C0.271939 97.2395 0.584672 94.0689 0 91.4468Z"/>
	<path fill="#1C001A" fill-opacity="0.4509804" transform="matrix(4.25556 0 0 4.25568 0 -7.62939e-06)" d="M0 91.4468C0.584672 94.0689 0.271939 97.2395 0.267723 99.9418L0.234655 115.097L0 115.039L0 91.4468Z"/>
	<path fill="#1C001A" fill-opacity="0.34117648" transform="matrix(4.25556 0 0 4.25568 0 -7.62939e-06)" d="M0 115.039L0.234655 115.097C0.555191 120.162 0.323806 125.337 0.302234 130.413C0.293515 132.465 0.0119047 135.076 0.493485 137.048L0.544868 139.328L0 137.923L0 115.039Z"/>
	<path fill="#1C001A" fill-opacity="0.97254902" transform="matrix(4.25556 0 0 4.25568 0 -7.62939e-06)" d="M103.098 122.324C103.823 122.306 104.719 122.168 105.346 122.584C105.857 123.962 105.783 138.076 105.245 139.599C104.385 137.836 105.21 126.312 104.919 123.265C104.523 122.677 103.759 122.562 103.098 122.324Z"/>
	<path fill="#1C001A" fill-opacity="0.97254902" transform="matrix(4.25556 0 0 4.25568 0 -7.62939e-06)" d="M151.046 111.889C151.256 112.441 151.608 113.092 151.392 113.677C149.998 113.917 134.816 114.055 134.145 113.545C133.905 113.363 133.664 112.506 133.578 112.201C133.873 112.573 134.174 112.922 134.646 113.06C135.819 113.403 149.965 113.493 150.633 113.101C150.922 112.931 150.97 112.22 151.046 111.889Z"/>
	<path fill="#1C001A" fill-opacity="0.97254902" transform="matrix(4.25556 0 0 4.25568 0 -7.62939e-06)" d="M20.8285 113.93C20.4824 93.1911 20.7775 72.4006 20.7822 51.6566C20.7829 48.5643 20.4145 32.2652 20.9259 30.7C21.081 30.2253 21.335 30.1855 21.7537 29.9699C20.7682 33.8097 21.3309 40.5762 21.3353 44.7032L21.3521 69.1272L21.3429 98.0946C21.3417 103.094 21.0982 108.248 21.4151 113.235C25.2048 113.247 43.8483 112.703 46.0802 113.495C43.4268 113.872 40.6245 113.765 37.9467 113.769C32.2654 113.778 26.496 113.556 20.8285 113.93Z"/>
	<path fill="#1C001A" transform="matrix(4.25556 0 0 4.25568 0 -7.62939e-06)" d="M131.04 122.225C132.404 122.214 133.786 122.357 135.148 122.447C135.249 125.412 135.826 142.114 134.924 143.664C133.642 143.557 132.386 143.655 131.106 143.746C130.628 136.614 130.782 129.366 131.04 122.225Z"/>
	<path fill="#1C001A" transform="matrix(4.25556 0 0 4.25568 0 -7.62939e-06)" d="M121.222 122.219Q123.248 122.303 125.274 122.367C125.241 128.371 125.932 134.833 125.131 140.781C126.588 140.715 128.226 140.383 129.402 141.369C129.706 142.135 129.637 142.782 129.564 143.58C126.785 143.376 123.875 143.528 121.096 143.726C120.77 139.911 120.526 125.473 121.222 122.219Z"/>
	<path fill="#1C001A" transform="matrix(4.25556 0 0 4.25568 0 -7.62939e-06)" d="M21.1221 122.248C23.2571 122.334 27.2393 122.097 29.173 122.507C29.6853 122.616 29.7796 122.807 30.0271 123.245C29.9703 123.951 30.0099 124.363 29.5987 124.968C28.2522 125.378 26.6756 125.194 25.2786 125.152C25.522 127.111 25.5103 129.071 25.5229 131.042Q25.8728 131.067 26.2221 131.101C27.0904 131.186 27.9651 131.222 28.5534 131.941C28.746 132.594 28.5842 132.969 28.3297 133.577C27.479 134.136 26.6947 133.937 25.7456 134.228C25.2736 134.788 25.4612 135.909 25.479 136.611L25.4937 143.692C24.0138 143.557 22.542 143.608 21.0593 143.647C21.4462 136.542 20.7818 129.364 21.1221 122.248Z"/>
	<path fill="#1C001A" transform="matrix(4.25556 0 0 4.25568 0 -7.62939e-06)" d="M111.482 122.283C112.58 122.25 113.6 122.19 114.663 122.521C115.729 123.398 118.872 140.635 119.775 143.666Q117.64 143.634 115.504 143.651L114.359 139.557C114.217 139.204 113.757 138.896 113.472 138.646C113.19 138.655 112.989 138.619 112.747 138.776C111.463 139.608 111.13 142.125 110.819 143.51L106.571 143.73C107.573 139.231 109.898 125.521 111.482 122.283ZM112.75 129.367C112.662 130.989 111.751 135.199 112.632 136.402C113.037 136.53 113.441 136.664 113.853 136.772C114.273 135.619 113.958 131.005 113.371 129.927C113.197 129.608 113.052 129.543 112.75 129.367Z"/>
	<path fill="#1C001A" transform="matrix(4.25556 0 0 4.25568 0 -7.62939e-06)" d="M97.4675 122.33C97.4656 126.936 97.0131 134.284 97.5761 138.483C97.6983 139.395 97.9113 140.237 98.6699 140.812C99.2966 140.91 99.5744 140.93 100.169 140.646C102.715 139.433 100.435 125.7 101.579 122.66C102.133 122.186 102.386 122.311 103.098 122.324C103.759 122.562 104.523 122.677 104.919 123.265C105.21 126.312 104.385 137.836 105.245 139.599C104.981 140.618 104.511 141.616 103.768 142.375C102.634 143.535 101.07 144.096 99.4664 144.114C97.8615 144.132 96.2601 143.585 95.1073 142.445C94.2808 141.628 93.7209 140.54 93.4701 139.409C92.683 135.859 93.2475 126.447 93.2554 122.287L97.4675 122.33Z"/>
	<path fill="#1C001A" transform="matrix(4.25556 0 0 4.25568 0 -7.62939e-06)" d="M60.0723 122.227C62.7466 122.258 66.0214 121.948 68.5524 122.943C70.073 123.541 70.7252 124.508 71.3438 125.934C71.9204 130.182 71.8693 135.535 71.3779 139.813C71.0305 140.603 70.6915 141.38 70.0618 141.991C67.7513 144.236 63.0485 143.623 60.0579 143.616C59.8602 136.509 60.1732 129.347 60.0723 122.227ZM64.6762 125.073C64.5809 126.978 64.2736 139.867 64.9726 140.653C65.5731 140.739 66.0799 140.715 66.6797 140.631C67.7708 139.079 67.5403 128.846 67.1571 126.773C67.0457 126.17 66.8336 125.844 66.3178 125.518C65.8847 125.244 65.1871 125.116 64.6762 125.073ZM71.3438 125.934C70.7189 127.235 70.6552 137.801 71.2104 139.369C71.2634 139.519 71.3275 139.662 71.3779 139.813C71.8693 135.535 71.9204 130.182 71.3438 125.934Z"/>
	<path fill="#1C001A" fill-opacity="0.97254902" transform="matrix(4.25556 0 0 4.25568 0 -7.62939e-06)" d="M71.3438 125.934C71.9204 130.182 71.8693 135.535 71.3779 139.813C71.3275 139.662 71.2634 139.519 71.2104 139.369C70.6552 137.801 70.7189 127.235 71.3438 125.934Z"/>
	<path fill="#1C001A" transform="matrix(4.25556 0 0 4.25568 0 -7.62939e-06)" d="M155.632 122.307L159.523 122.275C157.948 127.016 156.077 132.585 155.573 137.552C155.368 139.568 155.477 141.657 155.507 143.682C154.099 143.56 152.787 143.614 151.382 143.752C151.46 141.548 151.374 139.388 151.237 137.188Q151.209 137.02 151.18 136.853C150.922 135.387 148.157 124.284 147.521 123.839C146.07 126.076 145.892 124.964 144.099 126.2C143.969 126.395 143.85 126.605 143.836 126.844C143.765 128.046 144.084 129.422 144.091 130.656L144.041 143.568C142.625 143.515 141.207 143.622 139.793 143.702C139.733 140.834 140.229 126.733 139.343 125.42L137.595 125.498C137.084 125.221 136.736 125.046 136.573 124.437C136.414 123.842 136.624 123.251 136.89 122.727C137.817 122.233 139.358 122.385 140.41 122.368C143.745 121.975 147.968 122.364 151.414 122.346C151.597 123.58 152.694 130.079 153.189 130.535C154.254 129.688 155.052 123.975 155.632 122.307Z"/>
	<path fill="#1C001A" transform="matrix(4.25556 0 0 4.25568 0 -7.62939e-06)" d="M51.1645 121.822C52.292 121.884 53.4051 121.968 54.4403 122.465C55.8564 123.145 56.877 124.55 57.3629 126.016C58.3446 128.977 58.386 138.253 56.985 140.95C55.9934 142.859 54.4314 143.479 52.4839 144.076C50.8836 144.112 49.3016 143.908 47.9525 142.981C46.4929 141.978 45.8675 140.397 45.5801 138.719C45.0584 135.673 44.9847 126.543 46.7263 124.138C47.8362 122.606 49.3829 122.13 51.1645 121.822ZM51.182 124.973C49.9993 125.976 49.8519 127.108 49.7342 128.572C49.5081 131.385 49.033 137.59 50.2119 139.992C50.7702 140.587 51.4113 140.776 52.1602 141.025C53.4291 139.851 53.481 138.572 53.5435 136.943C53.6434 134.342 54.3314 127.477 52.5873 125.547C52.3014 125.231 51.6066 125.056 51.182 124.973Z"/>
	<path fill="#1C001A" transform="matrix(4.25556 0 0 4.25568 0 -7.62939e-06)" d="M36.9584 121.823C38.075 121.9 39.1587 122.01 40.1675 122.542C41.5739 123.283 42.5441 124.757 43.0163 126.24C44.0771 129.572 44.0142 138.135 42.3773 141.202C41.3867 143.058 39.9503 143.513 38.0688 144.083C36.4208 144.077 34.7604 143.933 33.3807 142.924C31.9489 141.877 31.4901 140.242 31.2137 138.573C30.6796 135.347 30.3765 126.609 32.3484 123.968C33.4937 122.434 35.1931 122.1 36.9584 121.823ZM36.8509 124.849C36.4463 125.29 35.9677 125.802 35.7673 126.375C34.9023 128.848 35.1694 133.757 35.2774 136.462C35.3262 137.687 35.3993 139.608 36.3625 140.489C36.6754 140.775 37.3954 140.881 37.82 140.954C39.9088 138.56 39.4091 132.408 39.187 129.292C39.0997 128.067 38.9347 126.194 37.935 125.346C37.6488 125.103 37.21 124.952 36.8509 124.849Z"/>
	<path fill="#1C001A" transform="matrix(4.25556 0 0 4.25568 0 -7.62939e-06)" d="M84.4293 121.823C85.4647 121.863 86.6886 122.035 87.6256 122.491C89.0469 123.182 90.0463 124.566 90.5302 126.041C91.5084 129.022 91.5203 137.262 90.4341 140.226C90.073 141.211 89.0896 142.041 88.5936 143.008C88.9776 143.935 90.1547 143.905 90.5885 144.915C90.6401 145.502 90.5842 145.804 90.301 146.322C89.5535 146.454 89.0735 146.176 88.3751 145.925C87.676 145.529 86.9896 145.042 86.239 144.75C84.4291 144.047 82.398 143.864 80.7746 142.705C79.3708 141.702 78.8852 139.88 78.6212 138.258C78.0511 134.755 77.8675 126.99 79.9611 124.128C81.1513 122.502 82.5421 122.102 84.4293 121.823ZM84.4634 124.831C83.0832 125.993 82.8726 127.282 82.7243 128.988C82.5058 131.503 81.947 138.268 83.5984 140.236C83.9326 140.634 84.487 140.894 84.9422 141.131C85.9988 140.315 86.3286 139.735 86.4899 138.434C86.8006 135.927 87.2628 127.36 85.7483 125.551C85.4374 125.179 84.9056 124.997 84.4634 124.831Z"/>
	<path fill="#1C001A" transform="matrix(4.25556 0 0 4.25568 0 -7.62939e-06)" d="M88.6437 33.3519C92.1587 33.169 95.7709 33.5369 99.2773 33.8073C99.6762 37.6934 99.4662 41.7952 99.4956 45.7148L98.6103 45.6181C96.9383 45.4404 94.3671 44.954 92.9805 46.1287C91.3909 47.4754 91.5989 50.9982 91.4612 52.8825C94.0472 52.7819 96.6626 52.8692 99.2498 52.9178C99.3492 56.4413 99.2865 59.9713 99.3832 63.4973C96.7568 63.3325 94.1115 63.5529 91.4743 63.4011C91.8189 67.5455 91.6257 71.8033 91.6238 75.9642L91.6032 99.9867C91.5989 104.554 91.4185 109.2 91.7176 113.757C89.8943 114.293 79.0386 113.667 75.8308 113.943C75.5087 97.1803 75.6124 80.2746 75.7913 63.508L72.5424 63.3828C72.4095 60.0637 72.3856 56.7657 72.6353 53.4514C73.5001 53.0137 74.4303 52.6532 75.3183 52.261C76.5441 47.1154 76.2405 41.3331 79.8935 37.0932C82.2757 34.3282 85.1577 33.6248 88.6437 33.3519Z"/>
	<path fill="#1C001A" transform="matrix(4.25556 0 0 4.25568 0 -7.62939e-06)" d="M104.593 30.0434C115.013 30.4339 126.521 28.7667 136.544 32.1198C141.387 33.7398 145.436 36.7667 147.735 41.3988C150.548 47.068 150.671 56.5596 148.639 62.5453C146.805 67.945 143.212 71.1295 138.232 73.5829C140.345 77.529 141.386 82.5694 142.77 86.8524Q146.808 99.4038 151.046 111.889C150.97 112.22 150.922 112.931 150.633 113.101C149.965 113.493 135.819 113.403 134.646 113.06C134.174 112.922 133.873 112.573 133.578 112.201Q133.549 112.061 133.519 111.921C131.961 104.657 129.91 97.4224 128.101 90.2106C126.99 85.7845 126.175 80.8356 124.546 76.6062C124.324 76.031 124.056 75.6613 123.539 75.3268C122.83 75.2642 122.62 75.3338 121.969 75.6164C121.036 76.86 121.494 109.56 121.618 113.945C116.557 113.582 109.525 113.321 104.562 114.028C104.272 98.5296 104.509 82.9858 104.512 67.4833C104.515 55.0272 104.208 42.4879 104.593 30.0434ZM121.39 42.7001C121.79 46.308 121.959 62.26 121.352 65.0089C123.213 65.0157 125.246 65.1677 127.082 64.874C128.653 64.6226 129.838 63.7034 130.735 62.4321C133.149 59.0157 133.298 53.4901 132.608 49.5244C132.117 46.7045 131.071 44.4687 128.703 42.8134C126.371 42.5565 123.73 42.5315 121.39 42.7001ZM121.352 65.0089C121.959 62.26 121.79 46.308 121.39 42.7001C120.684 44.7615 120.589 63.1445 121.352 65.0089Z"/>
	<path fill="#1C001A" fill-opacity="0.97254902" transform="matrix(4.25556 0 0 4.25568 0 -7.62939e-06)" d="M121.352 65.0089C120.589 63.1445 120.684 44.7615 121.39 42.7001C121.79 46.308 121.959 62.26 121.352 65.0089Z"/>
	<path fill="#1C001A" transform="matrix(4.25556 0 0 4.25568 0 -7.62939e-06)" d="M21.7537 29.9699C33.1417 31.0359 51.3991 27.064 59.7367 37.1734C63.4889 41.7231 64.5382 48.6525 63.9758 54.3956C63.5893 58.3415 61.969 61.6732 58.8824 64.2004C56.5073 66.145 53.6871 67.3255 50.7231 68.0278C55.7848 69.1394 60.2187 71.4487 63.0778 75.9278C66.903 81.9201 67.0888 90.6926 65.5527 97.5052C64.3865 102.677 61.7579 107.28 57.2102 110.166C54.3168 112.002 49.5863 113.746 46.0802 113.495C43.8483 112.703 25.2048 113.247 21.4151 113.235C21.0982 108.248 21.3417 103.094 21.3429 98.0946L21.3521 69.1272L21.3353 44.7032C21.3309 40.5762 20.7682 33.8097 21.7537 29.9699ZM37.9777 74.1316C37.9827 83.3507 38.3501 92.7082 37.895 101.907C41.2173 101.769 44.3864 101.874 47.1328 99.7279C50.2671 95.8497 50.1424 89.3517 49.6421 84.5656C49.3358 81.6346 48.4667 78.2142 46.0672 76.2677C43.7644 74.3996 40.794 74.3781 37.9777 74.1316ZM37.9616 41.4515C37.98 48.6107 38.3984 56.031 37.9047 63.1631C40.8062 63.0795 43.7474 63.3034 45.9818 61.1325C48.7042 57.4776 49.0175 52.1447 48.3593 47.7365C48.1034 46.0228 47.4768 44.0165 45.996 42.9641C43.7061 41.3365 40.6046 41.8 37.9616 41.4515Z"/>
</svg>
