<?xml version="1.0" encoding="utf-8" ?>
<svg xmlns="http://www.w3.org/2000/svg" xmlns:xlink="http://www.w3.org/1999/xlink" width="741" height="724">
	<path transform="matrix(4.11667 0 0 4.11364 -6.10352e-05 0)" d="M0 0L27.1372 0L49.757 0L73.2923 0L96.6608 0L168.951 0L179.562 0C180.339 1.23881 180.245 9.07895 179.875 10.6524C179.841 10.7976 179.791 10.9401 179.738 11.0791C180.502 13.3244 180.005 38.2481 180.005 42.3082L180.003 134.427C180.002 138.443 180.406 174.334 179.743 175.68C179.688 175.793 179.63 175.893 179.562 176L34.5465 176L0 176L0 137.923L0 115.039L0 91.4457L0 68.7804L0 45.3972L0 22.396L0 1.72688L0 0.837251L0 0ZM101.17 5.62774L34.0929 5.69595L14.4072 5.72036C11.5204 5.73389 8.38941 6.09726 5.53347 5.78292C5.91925 17.4359 5.67343 29.1606 5.6871 40.8228L5.75815 103.343L5.76278 124.737C5.7658 131.07 5.37661 137.713 6.73575 143.936C8.16128 150.462 11.7805 156.679 16.6533 161.236C28.0102 171.855 40.018 170.545 54.3722 170.525L78.875 170.504L145.729 170.46L164.589 170.427C167.803 170.413 171.348 170.09 174.513 170.497L174.399 61.241L174.363 28.6815C174.358 23.2881 174.758 17.5153 174.208 12.1551C174.023 10.3542 173.246 8.85768 171.967 7.58681C170.555 6.18352 168.891 5.90415 166.976 5.68373C164.379 5.38492 161.662 5.53501 159.046 5.53632L145.353 5.55538L101.728 5.62202L101.17 5.62774ZM0 137.923L0 176L34.5465 176C33.1009 175.156 30.5923 174.825 28.9523 174.353Q27.1241 173.84 25.3566 173.147Q23.5891 172.453 21.9 171.586Q20.211 170.719 18.6174 169.686Q17.0239 168.654 15.5419 167.467C6.55921 160.312 1.81539 150.607 0.544853 139.328L0 137.923ZM168.951 0C173.408 2.02633 177.015 3.34127 178.889 8.30527C179.225 9.19574 179.534 10.1484 179.738 11.0791C179.791 10.9401 179.841 10.7976 179.875 10.6524C180.245 9.07895 180.339 1.23881 179.562 0L168.951 0ZM0 68.7804L0 91.4457L0 115.039L0 137.923L0.544853 139.328L0.493364 137.048C0.757467 129.546 0.560019 121.985 0.552314 114.477L0.488387 70.7602L0.276322 68.8442L0 68.7804ZM49.757 0L49.7502 0.303471C44.6456 0.435375 39.5296 0.345761 34.4235 0.332413C32.1035 0.326348 29.4019 0.0695065 27.1271 0.465811C29.7596 0.731278 32.5552 0.562802 35.2059 0.566097L52.0423 0.51583L78.0056 0.389511C83.5667 0.386004 89.185 0.573121 94.7397 0.364909C95.4224 0.339318 96.0202 0.245644 96.6608 0L73.2923 0L49.757 0ZM0 0L0 0.837251L1.51432 0.26898C4.91932 0.837084 8.876 0.51751 12.3381 0.514651C17.2538 0.510591 22.2166 0.640711 27.1271 0.465811C29.4019 0.0695065 32.1035 0.326348 34.4235 0.332413C39.5296 0.345761 44.6456 0.435375 49.7502 0.303471L49.757 0L27.1372 0L0 0ZM0 22.396L0 45.3972L0 68.7804L0.276322 68.8442L0.488387 70.7602C0.795695 68.0542 0.555463 65.09 0.554709 62.3587Q0.592403 54.0618 0.492431 45.7654C0.0569478 44.2042 0.232767 42.1717 0.244005 40.5508C0.272 36.5128 0.924712 25.6406 0 22.396ZM0 1.72688L0 22.396C0.924712 25.6406 0.272 36.5128 0.244005 40.5508C0.232767 42.1717 0.0569478 44.2042 0.492431 45.7654C0.67295 42.8084 0.554802 39.7814 0.558942 36.8173Q0.602459 27.2821 0.437475 17.7482C0.40513 14.416 0.76183 4.4631 0 1.72688Z"/>
	<path transform="matrix(4.11667 0 0 4.11364 -6.10352e-05 0)" d="M0 1.72688C0.76183 4.4631 0.40513 14.416 0.437475 17.7482Q0.602459 27.2821 0.558942 36.8173C0.554802 39.7814 0.67295 42.8084 0.492431 45.7654C0.0569478 44.2042 0.232767 42.1717 0.244005 40.5508C0.272 36.5128 0.924712 25.6406 0 22.396L0 1.72688Z"/>
	<path transform="matrix(4.11667 0 0 4.11364 -6.10352e-05 0)" d="M0 22.396C0.924712 25.6406 0.272 36.5128 0.244005 40.5508C0.232767 42.1717 0.0569478 44.2042 0.492431 45.7654Q0.59245 54.0618 0.554709 62.3587C0.555463 65.09 0.795695 68.0542 0.488387 70.7602L0.276322 68.8442L0 68.7804L0 45.3972L0 22.396ZM0 45.3972L0 68.7804L0.276322 68.8442C0.127236 63.9836 0.957497 48.8969 0 45.3972Z"/>
	<path transform="matrix(4.11667 0 0 4.11364 -6.10352e-05 0)" d="M0 45.3972C0.957497 48.8969 0.127236 63.9836 0.276322 68.8442L0 68.7804L0 45.3972Z"/>
	<path transform="matrix(4.11667 0 0 4.11364 -6.10352e-05 0)" d="M0 0L27.1372 0L49.757 0L49.7502 0.303471C44.6456 0.435375 39.5296 0.345761 34.4235 0.332413C32.1035 0.326348 29.4019 0.0695065 27.1271 0.465811C22.2166 0.640711 17.2538 0.510591 12.3381 0.514651C8.876 0.51751 4.91932 0.837084 1.51432 0.26898L0 0.837251L0 0ZM0 0L0 0.837251L1.51432 0.26898C3.38525 -0.0536665 5.52612 0.119916 7.42012 0.146977C12.1121 0.214016 23.132 0.850715 27.1372 0L0 0Z"/>
	<path transform="matrix(4.11667 0 0 4.11364 -6.10352e-05 0)" d="M0 0L27.1372 0C23.132 0.850715 12.1121 0.214016 7.42012 0.146977C5.52612 0.119916 3.38525 -0.0536665 1.51432 0.26898L0 0.837251L0 0Z"/>
	<path transform="matrix(4.11667 0 0 4.11364 -6.10352e-05 0)" d="M49.757 0L73.2923 0L96.6608 0C96.0202 0.245644 95.4224 0.339318 94.7397 0.364909C89.185 0.573121 83.5667 0.386004 78.0056 0.389511L52.0423 0.51583L35.2059 0.566097C32.5552 0.562802 29.7596 0.731278 27.1271 0.465811C29.4019 0.0695065 32.1035 0.326348 34.4235 0.332413C39.5296 0.345761 44.6456 0.435375 49.7502 0.303471L49.757 0ZM49.757 0L49.7502 0.303471C55.1963 -0.0987053 60.8923 0.273016 66.3629 0.292477C68.5791 0.300361 71.1425 0.543243 73.2923 0L49.757 0Z"/>
	<path transform="matrix(4.11667 0 0 4.11364 -6.10352e-05 0)" d="M49.757 0L73.2923 0C71.1425 0.543243 68.5791 0.300361 66.3629 0.292477C60.8923 0.273016 55.1963 -0.0987053 49.7502 0.303471L49.757 0Z"/>
	<path transform="matrix(4.11667 0 0 4.11364 -6.10352e-05 0)" d="M0 68.7804L0.276322 68.8442L0.488387 70.7602L0.552314 114.477C0.560019 121.985 0.757467 129.546 0.493364 137.048L0.544853 139.328L0 137.923L0 115.039L0 91.4457L0 68.7804ZM0 115.039L0 137.923L0.544853 139.328L0.493364 137.048C0.0240137 135.119 0.294876 132.582 0.302705 130.577C0.322718 125.452 0.572227 120.21 0.235245 115.097L0 115.039ZM0 91.4457L0 115.039L0.235245 115.097L0.268505 99.9419C0.272791 97.2299 0.580403 94.0814 0 91.4457Z"/>
	<path transform="matrix(4.11667 0 0 4.11364 -6.10352e-05 0)" d="M0 91.4457C0.580403 94.0814 0.272791 97.2299 0.268505 99.9419L0.235245 115.097L0 115.039L0 91.4457Z"/>
	<path transform="matrix(4.11667 0 0 4.11364 -6.10352e-05 0)" d="M0 115.039L0.235245 115.097C0.572227 120.21 0.322718 125.452 0.302705 130.577C0.294876 132.582 0.0240137 135.119 0.493364 137.048L0.544853 139.328L0 137.923L0 115.039Z"/>
	<path transform="matrix(4.11667 0 0 4.11364 -6.10352e-05 0)" d="M147.513 62.4538C148.881 59.5029 147.525 50.9252 148.348 46.8747C148.536 49.3322 149.084 60.7326 148.221 62.2626C147.994 62.3414 147.756 62.4518 147.513 62.4538Z"/>
	<path transform="matrix(4.11667 0 0 4.11364 -6.10352e-05 0)" d="M67.198 106.313L74.0594 106.476C73.9595 108.718 74.3633 111.271 73.8725 113.445L66.922 113.463C66.9028 111.37 66.5363 108.265 67.198 106.313Z"/>
	<path transform="matrix(4.11667 0 0 4.11364 -6.10352e-05 0)" d="M105.411 106.344Q108.83 106.395 112.25 106.402C112.258 107.812 112.697 112.525 111.937 113.475L105.063 113.487C105.021 111.784 104.542 107.727 105.411 106.344Z"/>
	<path transform="matrix(4.11667 0 0 4.11364 -6.10352e-05 0)" d="M127.261 106.276C129.662 106.365 132.046 106.463 134.448 106.328Q134.293 109.695 134.378 113.065C133.48 113.929 128.448 113.492 126.997 113.485C127.066 111.273 126.666 108.365 127.261 106.276Z"/>
	<path transform="matrix(4.11667 0 0 4.11364 -6.10352e-05 0)" d="M146.764 125.561L150.098 125.656C150.213 131.748 150.555 138.014 149.962 144.08C148.818 144.173 147.651 144.127 146.503 144.12C146.483 141.137 145.91 127.348 146.764 125.561Z"/>
	<path transform="matrix(4.11667 0 0 4.11364 -6.10352e-05 0)" d="M137.795 125.585C139.204 125.678 140.63 125.627 142.043 125.684C143.225 125.732 144.401 125.776 145.24 126.684C145.172 126.898 145.155 127.061 144.99 127.219C143.839 128.326 142.574 128.114 141.09 128.068L141.239 133.057C141.67 133.12 142.116 133.178 142.538 133.286C143.178 133.451 143.433 133.764 143.757 134.294L143.585 134.875C142.968 135.623 142.143 135.791 141.252 136.051C141.176 137.886 141.035 139.744 141.09 141.579C141.781 141.559 142.498 141.528 143.188 141.572C143.867 141.614 144.447 141.882 144.883 142.408C145.148 142.728 145.074 142.839 145.032 143.239C143.624 144.576 139.339 144.094 137.464 144.109C137.453 141.682 136.939 126.582 137.795 125.585Z"/>
	<path transform="matrix(4.11667 0 0 4.11364 -6.10352e-05 0)" d="M114.475 125.482C116.724 125.528 119.827 125.254 121.774 126.551C122.734 127.19 123.339 128.172 123.558 129.296Q123.616 129.605 123.643 129.918Q123.67 130.231 123.665 130.545Q123.661 130.859 123.626 131.172Q123.591 131.484 123.525 131.791Q123.46 132.098 123.364 132.398Q123.268 132.697 123.143 132.985Q123.018 133.274 122.866 133.548Q122.713 133.823 122.534 134.081C121.37 135.736 120.039 135.984 118.174 136.32L118.204 139.438L118.186 144.1L114.523 144.122C114.397 138.562 113.803 130.885 114.475 125.482ZM118.226 128.035C118.202 129.653 117.899 131.859 118.448 133.361L118.892 133.599L119.586 133.342C119.891 132.032 120.358 130.099 119.557 128.881C119.178 128.305 118.847 128.247 118.226 128.035Z"/>
	<path transform="matrix(4.11667 0 0 4.11364 -6.10352e-05 0)" d="M17.6164 125.502C19.6476 125.526 22.3026 125.268 24.2169 125.998C25.2322 126.385 25.9547 127.104 26.3683 128.105C27.019 129.68 27.0703 132.063 26.3815 133.63C25.5191 135.593 23.5359 135.707 21.7506 136.426C21.2706 137.026 21.4677 138.068 21.5014 138.8L21.5077 144.119L17.7072 144.046C17.5246 137.91 17.2525 131.63 17.6164 125.502ZM21.847 127.896C21.1895 129.155 21.4463 131.838 21.6207 133.236L21.9049 133.639L22.5608 133.654C23.223 132.37 23.5869 130.742 23.1153 129.333C22.8768 128.62 22.5155 128.23 21.847 127.896Z"/>
	<path transform="matrix(4.11667 0 0 4.11364 -6.10352e-05 0)" d="M155.677 125.481C156.269 125.471 157.098 125.379 157.653 125.582C158.131 125.757 158.428 126.102 158.638 126.557C160.613 130.842 160.685 139.146 162.915 144.038L159.044 144.064L157.965 140.079C157.311 139.97 156.89 139.931 156.27 140.188C155.358 141.124 155.182 142.749 154.87 143.989C153.682 144.095 152.477 144.102 151.285 144.142C152.565 139.965 153.836 128.458 155.677 125.481ZM156.792 131.921C156.487 133.338 155.648 136.517 156.362 137.771L157.22 138.248C158.103 136.955 157.679 134.383 157.386 132.86C157.303 132.43 157.128 132.193 156.792 131.921Z"/>
	<path transform="matrix(4.11667 0 0 4.11364 -6.10352e-05 0)" d="M43.9321 125.461C44.6213 125.46 45.6761 125.383 46.2573 125.785C46.4458 125.915 46.6919 126.112 46.8322 126.294C47.4918 127.148 49.9989 139.856 50.3567 141.686C50.5042 142.441 50.8547 143.311 50.4193 143.958C49.353 144.316 48.2697 144.189 47.252 143.739C46.6058 142.908 46.4145 141.101 46.1716 140.056C46.1224 140.037 46.0387 140.001 45.9823 139.989C45.6245 139.91 45.0319 139.938 44.7164 140.122C43.6804 140.729 43.4192 142.881 43.1507 144C41.9864 144.09 40.8052 144.101 39.6377 144.147C40.6085 139.303 42.0594 129.497 43.9321 125.461ZM45.2406 131.862C44.4965 133.495 44.3799 135.582 44.5337 137.351C44.8199 137.837 44.9646 137.935 45.4325 138.211C46.2696 137.179 45.9719 135.896 45.8408 134.623C45.7554 133.794 45.7395 132.55 45.2406 131.862Z"/>
	<path transform="matrix(4.11667 0 0 4.11364 -6.10352e-05 0)" d="M45.2406 131.862C45.7395 132.55 45.7554 133.794 45.8408 134.623C45.9719 135.896 46.2696 137.179 45.4325 138.211C44.9646 137.935 44.8199 137.837 44.5337 137.351C44.3799 135.582 44.4965 133.495 45.2406 131.862Z"/>
	<path transform="matrix(4.11667 0 0 4.11364 -6.10352e-05 0)" d="M81.9358 125.433C82.7752 125.45 83.4767 125.467 84.2669 125.798C85.6584 126.808 88.2451 141.3 88.8966 144.091C87.6979 144.19 86.4729 144.123 85.2706 144.1C84.802 142.798 84.5078 141.392 84.1532 140.053C84.1066 140.033 84.0266 139.995 83.9725 139.982C83.6254 139.896 83.0237 139.93 82.7183 140.114C81.6832 140.737 81.4358 142.873 81.1809 143.993L77.6141 144.218C78.6226 139.088 79.9435 129.907 81.9358 125.433ZM82.9701 132.078C82.6907 133.713 81.9265 136.445 82.9075 137.87L83.719 138.178C84.2941 137.15 83.8845 133.89 83.5459 132.762C83.4575 132.467 83.2344 132.226 82.9701 132.078Z"/>
	<path transform="matrix(4.11667 0 0 4.11364 -6.10352e-05 0)" d="M93.7963 125.32C95.1747 125.225 96.5821 125.235 97.7605 126.061C99.0517 126.966 99.9822 128.444 100.252 129.996C100.388 130.783 100.342 131.685 99.8393 132.343C99.3435 132.991 98.6642 133.106 97.8988 133.207C95.9366 132.575 96.5681 129.461 95.4314 127.992C94.8027 127.833 94.7603 127.96 94.2174 128.274C93.9015 128.7 93.7838 129.185 93.6783 129.695C93.2061 131.976 92.8779 139.543 94.1637 141.4C94.4438 141.805 94.5751 141.792 95.0478 141.883C95.2715 141.787 95.4882 141.674 95.6677 141.507C96.652 140.591 96.5378 138.496 96.5655 137.261C96.6661 136.857 96.8248 136.731 97.1045 136.434C98.0628 136.18 99.1754 136.53 100.131 136.717C100.155 138.381 100.151 140.292 99.4122 141.819C98.8545 142.972 97.8641 143.746 96.6725 144.173C95.3687 144.641 93.9928 144.76 92.7163 144.118C91.3551 143.434 90.5069 142.101 90.0639 140.684C89.0366 137.399 89.0553 130.631 90.6631 127.583C91.3813 126.222 92.4047 125.744 93.7963 125.32Z"/>
	<path transform="matrix(4.11667 0 0 4.11364 -6.10352e-05 0)" d="M28.5121 125.554C29.3411 125.525 30.7798 125.352 31.5231 125.704C32.7048 126.262 31.5002 131.478 32.099 132.839C32.2054 133.081 32.8752 133.53 33.1316 133.609C33.4886 133.719 33.6504 133.619 33.948 133.456C35.0847 131.989 34.69 127.493 34.7272 125.551C35.9223 125.585 37.1197 125.559 38.3152 125.547C38.3952 128.176 39.0289 142.091 38.3491 143.61C38.2693 143.789 38.0532 144.021 37.9351 144.185L34.6077 144.058L34.6099 143.954C34.6419 141.743 35.1753 137.177 33.5104 135.442C33.3401 135.465 32.9456 135.465 32.8374 135.587C31.3281 137.288 31.9137 141.961 31.9572 144.044L28.4717 144.097C28.3908 140.719 27.6687 127.999 28.5121 125.554Z"/>
	<path transform="matrix(4.11667 0 0 4.11364 -6.10352e-05 0)" d="M52.2189 125.507C53.9119 125.541 55.6786 125.494 57.358 125.704C58.7562 125.879 60.2895 126.338 61.1595 127.523C61.9981 128.665 62.1324 130.33 61.9152 131.699C61.6436 133.411 60.6968 134.439 59.3633 135.421C60.6311 138.213 61.4172 141.333 62.3386 144.26C61.0741 144.233 59.8099 144.129 58.5482 144.043C58.2202 143.253 58.0276 142.383 57.7948 141.56C57.3722 140.065 57.1706 138.485 56.8264 136.967C56.6955 136.39 56.4997 135.889 55.9819 135.562L55.7104 135.845C55.2124 138.313 55.7334 141.546 55.8601 144.063C54.636 144.177 53.3875 144.145 52.1584 144.154Q51.9783 137.797 52.0236 131.437C52.0309 129.523 51.8544 127.387 52.2189 125.507ZM55.9418 127.801C55.6784 129.391 55.4065 131.301 55.8644 132.866C56.1397 133.181 56.203 133.359 56.6535 133.394C57.0004 133.421 57.2546 133.278 57.5515 133.12C58.0351 131.963 58.5341 130.772 58.0465 129.514C57.7781 128.822 57.205 128.261 56.5254 127.973C56.3372 127.894 56.1413 127.842 55.9418 127.801Z"/>
	<path transform="matrix(4.11667 0 0 4.11364 -6.10352e-05 0)" d="M72.1789 125.599C73.5463 125.504 74.9475 125.539 76.3196 125.515C76.5501 130.517 76.6709 135.798 76.5005 140.798C76.4601 141.986 76.3357 143.389 75.4229 144.239C74.772 144.384 74.6673 144.319 74.0585 144.05C73.0787 142.46 73.6629 137.837 73.7026 135.938C73.7389 134.592 73.5946 133.231 73.4987 131.888C72.7714 134.565 72.3828 142.114 71.1076 143.861C70.4346 144.189 70.2814 144.21 69.5327 144.157C69.3552 144.038 68.9709 143.852 68.847 143.697C67.658 142.215 67.0889 134.109 66.5226 131.731C66.3338 133.705 66.4081 142.553 66.18 143.084C65.875 143.795 65.5387 144.135 64.8278 144.427C64.4452 144.336 64.2551 144.353 64.0204 144.014C63.303 142.979 63.2449 127.267 63.6842 125.508Q65.8452 125.536 68.0032 125.653C68.5142 127.974 69.0876 135.715 69.6879 137.056L69.9738 137.074C70.8718 135.84 71.5733 127.876 72.1789 125.599Z"/>
	<path transform="matrix(4.11667 0 0 4.11364 -6.10352e-05 0)" d="M105.775 125.33C106.958 125.234 108.31 125.21 109.396 125.744C110.759 126.414 111.68 127.712 112.127 129.134C113.082 132.17 112.977 139.056 111.486 141.876C110.696 143.371 109.711 143.928 108.159 144.406C106.127 144.625 104.85 144.183 103.155 143.121C102.814 142.512 102.447 141.875 102.222 141.214C101.124 137.983 101.081 130.801 102.607 127.748C103.333 126.296 104.317 125.814 105.775 125.33ZM106.727 127.872C104.75 130.063 105.253 135.285 105.394 138.096C105.449 139.198 105.533 140.688 106.4 141.471C106.698 141.741 107.178 141.806 107.561 141.92C109.347 139.88 108.897 134.143 108.738 131.536C108.666 130.364 108.558 128.985 107.704 128.109L106.727 127.872Z"/>
	<path transform="matrix(4.11667 0 0 4.11364 -6.10352e-05 0)" d="M128.793 125.325C130.038 125.251 131.319 125.207 132.463 125.779C133.752 126.423 134.651 127.677 135.089 129.024C136.081 132.074 135.959 139.02 134.474 141.877C133.689 143.388 132.713 143.914 131.168 144.399C130.012 144.533 128.792 144.551 127.724 144.029C126.378 143.372 125.48 142.046 125.024 140.656C123.975 137.455 124.119 130.585 125.686 127.575C126.409 126.187 127.389 125.768 128.793 125.325ZM129.576 127.908C127.74 130.213 128.089 136.027 128.403 138.894C128.519 139.959 128.693 140.937 129.564 141.65L130.526 141.897C132.335 139.614 132.026 133.713 131.707 130.911C131.592 129.903 131.425 128.872 130.68 128.128C130.317 128.04 129.95 127.93 129.576 127.908Z"/>
	<path transform="matrix(4.11667 0 0 4.11364 -6.10352e-05 0)" d="M20.4364 32.5498C24.4545 32.7695 28.5502 32.6623 32.5756 32.6369C32.5062 33.9737 32.5649 35.3315 32.578 36.6705Q29.3993 36.7533 26.2198 36.7056Q26.3329 40.7387 26.32 44.7733L30.4834 44.9944L30.513 49.0099C29.1102 49.0659 27.6891 49.0205 26.2842 49.0214Q26.3035 53.6414 26.1513 58.259Q29.3659 58.2274 32.5806 58.2551C32.4774 59.581 32.5374 60.9217 32.5639 62.2503C28.5349 62.0371 24.3299 62.2526 20.2975 62.4514L20.2526 42.2321C20.2499 39.1807 19.8429 35.5206 20.4364 32.5498Z"/>
	<path transform="matrix(4.11667 0 0 4.11364 -6.10352e-05 0)" d="M93.8677 32.5337C97.5198 32.5534 103.114 31.7523 105.996 34.3882C107.704 35.9493 108.311 38.2837 108.392 40.5234C108.48 42.9773 107.95 45.5592 106.208 47.3894C104.4 49.2886 102.126 49.6352 99.6228 49.7133L99.736 53.9777Q99.6564 58.2419 99.7822 62.505C97.774 62.3832 95.7813 62.3967 93.7709 62.4221Q93.6325 53.0009 93.6558 43.5794C93.6607 39.9369 93.5225 36.1606 93.8677 32.5337ZM99.9631 36.6719C99.7277 37.9948 99.4225 44.4117 100.072 45.377C100.085 45.3968 100.1 45.4151 100.114 45.4342C100.819 45.4148 101.29 45.1935 101.909 44.8726C102.741 43.2458 102.896 40.5955 102.334 38.8573C102.055 37.9955 101.572 37.3607 100.749 36.9542C100.499 36.8309 100.23 36.7481 99.9631 36.6719Z"/>
	<path transform="matrix(4.11667 0 0 4.11364 -6.10352e-05 0)" d="M121.004 73.365C122.258 73.3645 123.517 73.3029 124.77 73.2698C124.48 80.2537 124.704 87.3439 124.704 94.3392C124.704 100.674 124.429 107.185 124.914 113.497C123.431 113.502 118.233 113.855 117.241 113.194L117.157 83.7355C115.916 83.781 114.537 84.0408 113.541 83.1437C113.012 82.6668 112.64 81.991 112.62 81.2701C112.583 79.8835 113.287 78.467 114.219 77.4705C115.704 75.8822 118.812 73.43 121.004 73.365Z"/>
	<path transform="matrix(4.11667 0 0 4.11364 -6.10352e-05 0)" d="M143.34 32.5244C144.431 32.5229 145.73 32.4262 146.781 32.7417C148.814 33.3518 153.209 46.2857 154.601 48.9033C154.015 43.4969 154.308 37.98 154.296 32.5454C155.892 32.6783 157.521 32.6161 159.122 32.615L159.137 62.3807C157.85 62.4624 156.541 62.3973 155.251 62.3772C153.224 58.8212 151.912 54.5657 150.453 50.7393C149.978 49.4907 149.584 47.8494 148.827 46.7713L148.348 46.8747C147.525 50.9252 148.881 59.5029 147.513 62.4538C146.108 62.2246 144.728 62.3514 143.318 62.4506C143.681 58.3642 143.392 54.0586 143.381 49.9423C143.367 44.1417 143.533 38.3209 143.34 32.5244Z"/>
	<path transform="matrix(4.11667 0 0 4.11364 -6.10352e-05 0)" d="M35.6121 32.6136L40.5138 32.4709C40.5301 35.9238 39.8961 55.9787 41.3283 57.4911C41.8391 58.0304 42.6966 58.2987 43.4208 58.3186C43.927 58.3326 44.2995 58.1267 44.6468 57.778C45.3465 57.0758 45.5546 55.9524 45.6767 54.9997C46.0279 52.2589 45.7613 49.3773 45.7564 46.614C45.7482 41.9454 45.8264 37.2738 45.8754 32.6053L51.9732 32.515C51.7913 34.1514 51.784 35.7932 51.7579 37.4375C51.7109 42.5599 52.6581 54.5137 50.5578 58.8011C49.7209 60.5095 48.3117 61.7876 46.5 62.3841C44.2112 63.1377 41.0349 63.0625 38.8658 61.9621C37.0221 61.0268 35.9035 59.3255 35.2806 57.3994C34.8503 56.0686 34.6412 54.6522 34.5499 53.2597C34.4071 51.0801 34.293 33.7145 34.6452 33.0769C34.8397 32.7247 35.2399 32.7193 35.6121 32.6136Z"/>
	<path transform="matrix(4.11667 0 0 4.11364 -6.10352e-05 0)" d="M55.4418 32.5665C58.1546 32.5371 60.9671 32.4158 63.664 32.7489C65.9505 33.0313 68.3498 33.7529 69.8013 35.667C71.195 37.5049 71.4514 40.1552 71.1207 42.3734C70.7242 45.0318 69.2333 46.6806 67.1479 48.2299C68.9143 52.8701 70.1497 57.7198 71.8569 62.3921C69.7992 62.266 67.6945 62.3368 65.6314 62.3317L64.4845 58.3065C63.9093 55.6089 63.2803 52.8325 62.4969 50.1872C62.344 49.671 62.1659 48.9724 61.6898 48.7176C60.6535 50.3281 61.2559 60.0545 61.2924 62.417Q58.3188 62.3241 55.3461 62.4404Q55.2045 52.18 55.242 41.9186C55.2421 39.0271 54.8427 35.3801 55.4418 32.5665ZM61.4642 36.9498C61.3448 38.5783 60.5564 43.293 61.6458 44.6062C61.8908 44.9016 62.0958 44.9926 62.4772 45.0115C63.0919 45.0419 63.8683 44.569 64.3514 44.2102C65.0469 42.6374 65.615 40.6368 64.969 38.9472C64.6822 38.1971 64.107 37.4954 63.3665 37.1598C62.817 36.9108 62.0602 36.9369 61.4642 36.9498Z"/>
	<path transform="matrix(4.11667 0 0 4.11364 -6.10352e-05 0)" d="M90.3647 55.7042C90.069 56.855 89.677 58.0036 89.1109 59.0518C88.1705 60.7931 86.6902 61.8727 84.8107 62.4232C82.5183 63.0948 79.7466 63.1252 77.611 61.9426C75.6993 60.884 74.4723 59.0513 73.8805 56.9792C72.8537 53.3836 72.887 43.387 73.5154 39.6078Q73.6787 38.5704 74.0212 37.5776Q74.3637 36.5848 74.8748 35.6674C75.9701 33.7399 77.535 32.6887 79.6606 32.1138Q80.0712 32.0003 80.491 31.9284Q80.9109 31.8565 81.3358 31.8269Q81.7607 31.7973 82.1865 31.8102Q82.6122 31.8232 83.0346 31.8786Q83.4569 31.934 83.8716 32.0313Q84.2863 32.1286 84.6892 32.2668Q85.0921 32.405 85.4792 32.5827Q85.8663 32.7605 86.2337 32.976C88.6944 34.4151 89.6414 36.4631 90.3381 39.1183C90.8966 43.0408 91.0161 51.7386 90.3647 55.7042ZM81.5762 36.4023C80.2414 37.3319 79.8168 38.1209 79.5274 39.7312C79.0113 42.6036 78.7171 55.3898 80.0582 57.3375C80.5489 58.0501 81.5133 58.2802 82.309 58.4338C83.2602 57.8852 83.9638 57.4014 84.2611 56.2723C84.8265 54.1248 84.9471 39.7003 83.9222 37.9811Q83.7456 37.6872 83.5132 37.4351Q83.2809 37.183 83.0023 36.9832Q82.7238 36.7833 82.4106 36.6438Q82.0973 36.5044 81.7624 36.4312C81.6808 36.414 81.652 36.4117 81.5762 36.4023ZM90.3381 39.1183C89.5494 41.3065 89.6994 53.4139 90.3647 55.7042C91.0161 51.7386 90.8966 43.0408 90.3381 39.1183Z"/>
	<path transform="matrix(4.11667 0 0 4.11364 -6.10352e-05 0)" d="M90.3381 39.1183C90.8966 43.0408 91.0161 51.7386 90.3647 55.7042C89.6994 53.4139 89.5494 41.3065 90.3381 39.1183Z"/>
	<path transform="matrix(4.11667 0 0 4.11364 -6.10352e-05 0)" d="M24.3549 73.2846C29.8278 73.6451 35.523 73.4622 41.0118 73.424C40.7518 75.3022 40.7484 77.0941 40.8541 78.9795C37.9931 78.9991 35.1129 79.0825 32.257 78.8962C32.4441 82.4536 32.5867 86.3017 32.2605 89.8466C34.2476 89.6962 36.2745 89.8293 38.2652 89.8792Q38.3218 92.7304 38.4661 95.5785C36.4035 95.4483 34.3056 95.5933 32.2323 95.5098C32.5937 99.4522 32.5741 103.991 32.2108 107.937C35.0498 107.642 38.0572 107.661 40.9132 107.622C40.9909 107.53 41.069 107.44 41.1531 107.354C42.5763 105.906 46.6146 106.331 48.5637 106.305C48.5698 108.715 48.5897 111.103 48.7922 113.507Q36.5247 113.366 24.2574 113.522C24.5324 103.844 24.2365 94.067 24.2484 84.379C24.2529 80.7039 24.1103 76.9497 24.3549 73.2846Z"/>
	<path transform="matrix(4.11667 0 0 4.11364 -6.10352e-05 0)" d="M50.9593 73.282C55.6804 73.5689 63.4971 72.0868 67.2316 75.5228C69.5942 77.6966 70.4182 81.1122 70.5206 84.2097C70.6265 87.4144 70.0414 90.9605 67.7502 93.3652C65.4425 95.7872 61.9734 96.3612 58.7774 96.4364C58.9952 98.1713 58.96 99.9411 58.9811 101.688Q58.9047 107.575 59.0191 113.461L50.7175 113.483C51.0249 104.209 50.7481 94.8422 50.7478 85.5589C50.7477 81.5568 50.4453 77.2428 50.9593 73.282ZM59.2869 78.8941C58.6107 81.2838 58.7349 88.0632 59.2472 90.5213L59.5604 90.6948C60.2946 90.4735 60.9947 90.2579 61.6813 89.9079C62.96 88.1204 63.1517 85.1432 62.796 83.0257C62.6121 81.9309 62.2061 80.3672 61.2495 79.7016C60.7221 79.3347 59.9032 79.0775 59.2869 78.8941Z"/>
	<path transform="matrix(4.11667 0 0 4.11364 -6.10352e-05 0)" d="M130.012 32.592C131.688 32.5404 133.328 32.5547 135.002 32.6339C135.791 35.1526 136.251 37.9029 136.803 40.4868L139.759 54.3988C140.33 57.0626 140.786 59.8763 141.752 62.4266L135.728 62.3963Q134.853 59.0764 134.138 55.7182C132.985 55.8726 131.834 55.8799 130.672 55.8969C130.141 58.0658 129.666 60.2226 129.287 62.4234C123.029 62.2829 116.807 62.1879 110.549 62.4279C110.381 52.4813 110.505 42.5201 110.487 32.5713Q116.657 32.5997 122.825 32.7447C122.733 34.0215 122.783 35.3293 122.78 36.6103Q119.624 36.7275 116.465 36.7115C116.569 39.4018 116.537 42.102 116.545 44.7942C117.973 44.7887 119.301 44.9687 120.706 45.2171L120.963 48.7813C119.41 49.0014 117.938 49.0362 116.371 48.9893C116.701 51.7998 116.793 55.2705 116.386 58.0775C117.69 58.6302 119.994 58.2556 121.352 58.0745C121.561 58.0465 122.042 58.004 122.199 58.136C123.24 59.0116 122.972 61.8317 123.04 63.1183C123.877 60.6686 124.308 58.0481 124.847 55.5206C126.348 48.4845 127.803 39.1196 130.012 32.592ZM132.298 42.6543C131.82 45.6389 130.972 49.3844 131.086 52.3821L132.937 52.3108L133.545 52.3547C134.139 51.4713 133.022 44.8112 132.751 43.4051C132.688 43.0787 132.553 42.8679 132.298 42.6543ZM116.386 58.0775C116.793 55.2705 116.701 51.7998 116.371 48.9893C115.638 50.9439 115.562 56.1434 116.386 58.0775Z"/>
	<path transform="matrix(4.11667 0 0 4.11364 -6.10352e-05 0)" d="M116.386 58.0775C115.562 56.1434 115.638 50.9439 116.371 48.9893C116.701 51.7998 116.793 55.2705 116.386 58.0775Z"/>
	<path transform="matrix(4.11667 0 0 4.11364 -6.10352e-05 0)" d="M92.1292 72.5858Q92.792 72.5453 93.4561 72.5397C96.149 72.5269 98.9033 73.4981 100.822 75.4185C102.942 77.5398 103.815 80.4257 103.815 83.3766C103.816 87.0195 102.485 89.6215 99.9614 92.1629C102.429 94.3437 103.475 96.8258 103.724 100.097C104.011 103.856 103.636 108.002 101.054 110.963C99.2122 113.077 96.5546 114.106 93.7979 114.271C90.9441 114.441 88.0164 113.815 85.8474 111.859C82.5705 108.903 82.5343 104.5 82.3034 100.422L85.8337 100.491L90.0486 100.52C90.0009 102.23 90.1014 104.595 90.9593 106.097C91.2721 106.644 91.7176 107.106 92.3451 107.267C92.9252 107.415 93.57 107.244 94.0739 106.944C95.0459 106.367 95.6597 105.317 95.9463 104.247C96.4358 102.42 96.3607 100.103 95.3626 98.453C94.2806 96.664 92.691 96.1305 90.7697 95.6303C90.5244 93.1525 90.5745 90.6805 90.6053 88.1947C92.0231 88.0196 93.4453 87.9629 94.6002 87.0119C95.5156 86.2582 96.0738 85.2243 96.1762 84.0413C96.2896 82.7315 95.8952 81.2628 95.0296 80.2565C94.5649 79.7163 93.897 79.2477 93.1588 79.2295C92.6392 79.2167 92.1239 79.4933 91.7533 79.8401C90.0992 81.3883 90.1917 84.2168 90.1375 86.3003L82.3698 86.2495C82.2617 82.7771 82.3813 79.0731 84.6253 76.2205C86.5494 73.7745 89.1555 72.9516 92.1292 72.5858Z"/>
	<path transform="matrix(4.11667 0 0 4.11364 -6.10352e-05 0)" d="M149.828 97.5748C149.046 97.9171 148.202 98.2191 147.365 98.3959C144.943 98.9075 142.375 98.6707 140.287 97.2675C138.053 95.7658 136.855 93.329 136.353 90.7471C135.493 86.322 135.917 80.7274 138.504 76.9053C139.971 74.7382 142.124 73.2525 144.704 72.7601C147.215 72.2808 150.176 72.7425 152.296 74.2104C155.437 76.3848 156.692 80.0473 157.326 83.6443C157.755 86.9781 157.977 99.6039 157.285 102.554C157.083 105.415 156.104 108.545 154.224 110.757C152.493 112.794 150.051 113.934 147.398 114.123C144.784 114.31 142.146 113.535 140.157 111.802C137.21 109.233 136.62 105.573 136.347 101.886Q140.079 101.753 143.813 101.829C143.996 103.319 144.133 105.433 145.119 106.645C145.526 107.144 146.069 107.462 146.716 107.508C147.212 107.544 147.665 107.376 148.029 107.039C150.055 105.162 149.759 100.1 149.828 97.5748ZM146.304 79.1374C144.784 80.1574 144.31 81.4669 143.964 83.2015C143.494 85.5539 143.343 88.9222 144.729 91.0192C145.231 91.7781 145.79 92.1326 146.68 92.2944C146.837 92.3228 146.976 92.3376 147.135 92.3462C148.175 91.843 148.931 91.2799 149.771 90.4891C149.795 87.5632 150.468 82.2398 148.255 80.0526C147.717 79.52 147.05 79.2359 146.304 79.1374ZM157.326 83.6443C156.517 87.198 156.713 98.807 157.285 102.554C157.977 99.6039 157.755 86.9781 157.326 83.6443Z"/>
	<path transform="matrix(4.11667 0 0 4.11364 -6.10352e-05 0)" d="M157.326 83.6443C157.755 86.9781 157.977 99.6039 157.285 102.554C156.713 98.807 156.517 87.198 157.326 83.6443Z"/>
</svg>
