<?xml version="1.0" encoding="utf-8" ?>
<svg xmlns="http://www.w3.org/2000/svg" xmlns:xlink="http://www.w3.org/1999/xlink" width="656" height="656">
	<path transform="matrix(1.96407 0 0 1.96407 0 -7.62939e-06)" d="M110.226 265.402C110.731 265.458 110.961 265.591 111.38 265.854C112.531 268.098 111.874 297.174 111.779 301.915C110.565 301.928 109.008 302.094 108.096 301.151C106.387 299.384 107.244 293.826 107.259 291.435Q107.207 283.044 107.382 274.655L106.964 274.581C105.091 275.986 101.768 278.44 99.4554 278.753C99.2744 278.601 99.2585 278.602 99.0946 278.384C98.7127 277.875 98.5696 277.191 98.7001 276.573C99.3472 273.51 103.469 272.032 105.535 270.072C107.219 268.474 108.24 266.73 110.226 265.402Z"/>
	<path transform="matrix(1.96407 0 0 1.96407 0 -7.62939e-06)" d="M215.694 265.567C215.875 265.536 215.896 265.528 216.064 265.516C218.428 265.343 221.355 266.657 223.126 268.174C224.905 269.698 226.631 272.317 226.76 274.718C226.9 277.308 224.735 280.242 223.086 282.075C224.767 283.547 226.4 285.011 227.676 286.861C228.101 290.073 228.286 294.173 226.681 297.095C225.487 299.269 222.922 300.753 220.604 301.422C217.543 302.305 212.867 302.389 210.02 300.766C207.335 299.236 205.75 295.569 204.998 292.739C205.833 292.226 207.425 291.159 208.428 291.262C209.936 291.417 211.014 294.646 211.973 295.807L212.169 296.041C212.67 296.579 213.2 297.145 213.782 297.598C214.688 298.302 216.064 298.553 217.182 298.37C219.776 297.944 221.711 295.5 223.18 293.53C223.434 291.862 223.393 290.291 223.216 288.618C222.217 287.107 220.894 285.974 219.555 284.78C217.99 284.804 215.137 285.138 213.839 284.206C213.27 283.797 213.217 283.425 213.078 282.791C214.949 280.559 218.685 280.361 221.175 277.721C221.357 276.593 221.56 275.389 221.47 274.246C221.309 272.191 220.127 271.092 218.649 269.804C217.191 269.675 215.806 269.658 214.345 269.75C212.652 271.107 210.55 275.266 208.973 275.867C208.434 276.073 207.839 276.003 207.327 275.751C206.727 275.456 206.312 274.918 206.107 274.287C205.721 273.095 206.121 271.781 206.732 270.737C208.846 267.123 211.961 266.511 215.694 265.567Z"/>
	<path transform="matrix(1.96407 0 0 1.96407 0 -7.62939e-06)" d="M187.751 266.105C188.584 266.08 189.422 266.053 190.256 266.073C192.992 266.139 195.492 267.16 197.359 269.179C201.505 273.662 201.056 280.986 200.787 286.662C200.562 291.419 199.484 296.25 195.782 299.539C192.499 302.455 188.052 301.969 183.996 301.695C183.924 301.652 183.852 301.61 183.781 301.566C180.663 299.644 178.76 296.921 177.899 293.406C179.586 293.184 181.164 292.874 182.812 293.499C183.851 295.294 184.829 296.779 186.377 298.183Q186.817 298.261 187.26 298.315C189.054 298.529 190.692 298.109 192.114 296.973C195.438 294.316 196.014 289.195 196.491 285.248C194.459 287.59 191.577 289.578 188.396 289.809C186.002 289.983 183.584 289.053 181.791 287.482C179.228 285.236 177.755 281.281 177.556 277.94C177.373 274.87 178.471 271.513 180.543 269.223C182.58 266.974 184.81 266.27 187.751 266.105ZM187.721 269.791C185.544 270.682 184.295 271.494 183.347 273.7C182.764 275.057 182.45 276.53 181.908 277.911C182.795 281.209 183.719 283.286 186.701 285.253C188.139 285.262 189.585 285.303 191.022 285.262C192.633 284.746 194.526 283.048 195.294 281.525C196.279 279.571 196.5 277.173 195.763 275.105C194.908 272.706 193.36 271.281 191.456 269.725C190.213 269.735 188.962 269.716 187.721 269.791Z"/>
	<path transform="matrix(1.96407 0 0 1.96407 0 -7.62939e-06)" d="M159.779 266.119C162.125 266.062 164.577 266.008 166.742 267.057C169.255 268.274 171.215 270.848 172.099 273.45C174.204 279.641 174.062 289.788 171.057 295.65C169.679 298.338 167.589 300.57 164.646 301.478C161.777 302.363 157.651 302.242 154.979 300.781C152.138 299.226 151.1 296.457 150.248 293.528C151.925 293.21 153.479 293.154 155.177 293.303C155.35 293.515 155.328 293.443 155.399 293.662C155.78 294.826 156.072 295.834 156.862 296.801C157.546 297.636 158.34 298.231 159.446 298.332C161.263 298.498 163.166 298.098 164.586 296.912C167.797 294.231 168.189 289.475 168.521 285.613C166.396 287.525 163.846 289.394 160.909 289.68C158.379 289.926 155.889 288.845 153.994 287.224C151.633 285.205 150.419 282.62 150.173 279.548C149.884 275.951 150.021 272.178 152.501 269.32C154.52 266.993 156.801 266.296 159.779 266.119ZM159.401 269.779C157.739 271.234 156.019 272.841 154.763 274.668C154.585 277.626 154.325 280.869 156.476 283.243C157.584 284.466 159.371 285.243 161.015 285.284C161.815 285.305 162.633 285.282 163.43 285.219C165.7 284.012 167.228 282.905 168.013 280.345C168.715 278.058 168.355 275.472 167.228 273.381C166.327 271.709 164.861 270.342 163 269.833C161.846 269.518 160.576 269.69 159.401 269.779Z"/>
	<path transform="matrix(1.96407 0 0 1.96407 0 -7.62939e-06)" d="M133.827 266.13C136.5 265.949 138.968 266.051 141.138 267.806C144.071 270.178 145.353 274.073 145.675 277.711C146.181 283.42 146.501 294.089 142.663 298.546C140.315 301.272 137.572 301.691 134.187 301.938C133.292 301.875 132.382 301.82 131.495 301.686C129.292 301.351 127.136 299.611 125.88 297.84C122.432 292.978 121.856 284.629 122.877 278.956C123.816 273.74 125.333 269.479 129.859 266.33C131.177 266.212 132.505 266.183 133.827 266.13ZM132.373 269.775C129.95 271.887 127.954 274.1 127.734 277.438C127.605 279.395 127.709 281.413 127.725 283.375C127.762 287.643 127.297 293.007 130.345 296.437C131.267 297.475 132.677 298.34 134.09 298.424C134.898 298.473 135.701 298.324 136.49 298.172C139.372 295.962 140.661 293.743 141.126 290.115C141.654 286.002 141.889 275.892 139.468 272.527C138.718 271.485 137.513 270.568 136.528 269.743C135.137 269.694 133.762 269.634 132.373 269.775Z"/>
	<path transform="matrix(1.96407 0 0 1.96407 0 -7.62939e-06)" d="M36.2858 92.3136C47.505 91.984 58.8007 92.263 70.0278 92.262C77.4367 92.2614 85.0541 91.8258 92.4345 92.2674C93.4233 92.3266 94.5504 92.4078 95.3835 92.9921C96.3274 95.4194 95.7842 113.18 95.7768 116.85C91.3622 117.174 86.1526 117.179 81.7501 116.796L81.739 167.271Q88.7385 167.206 95.7379 167.274C95.8041 170.59 96.3956 189.57 95.3605 191.193C94.7567 191.666 94.3162 191.714 93.5625 191.752L60.8204 191.754C55.9532 191.756 37.3467 192.391 33.6994 191.098C32.8554 189.352 33.0766 170.791 33.1665 167.36C37.8209 167.038 42.6041 167.204 47.269 167.304C47.0504 150.467 47.1972 133.577 47.2827 116.739C42.6056 116.739 37.9316 116.891 33.2539 116.834L33.2391 93.4221C34.248 92.9893 35.2234 92.5964 36.2858 92.3136Z"/>
	<path transform="matrix(1.96407 0 0 1.96407 0 -7.62939e-06)" d="M153.706 31.3582C156.219 31.0628 158.962 31.2306 161.498 31.2178C174.046 31.1547 185.858 32.4472 197.873 36.2721C217.636 42.5634 234.931 54.9447 248.207 70.7667C251.107 74.223 254.018 77.5697 256.102 81.5982C255.227 81.7326 254.33 81.8967 253.445 81.9354C252.279 81.9864 251.548 81.5571 250.732 80.7664C247.967 78.0871 246.021 74.4349 243.408 71.5605C240.889 68.7889 238.098 66.0077 235.274 63.5508C233.253 61.7933 231.106 60.1938 229.134 58.3791C225.642 60.5733 221.832 63.0495 218.025 64.6166C220.343 66.8878 229.117 78.0846 229.583 81.0923C229.696 81.8217 229.574 82.092 229.204 82.6728C228.701 82.8865 228.376 82.9483 227.824 82.8951C227.054 82.8209 226.457 82.6129 225.886 82.0773C224.402 80.6864 223.101 78.3426 221.851 76.697Q218 71.5825 213.836 66.7192C209.765 69.4105 200.089 72.1303 195.222 73.2408C196.008 75.6942 198.124 78.377 197.65 81.0218C197.503 81.8431 197.118 82.5935 196.399 83.0412C196.151 83.1957 195.683 83.214 195.399 83.1305C193.245 82.4983 190.986 76.4475 189.857 74.4522C184.634 76.8971 173.053 77.7241 167.188 77.7708C166.865 77.8137 166.337 77.8053 166.068 77.9759C164.816 78.7706 164.836 80.7451 164.518 82.0786C164.248 82.3666 164.159 82.5575 163.754 82.6483C162.501 82.9297 161.306 82.0275 160.283 81.4261L160.293 77.7597C154.243 77.8086 140.44 77.0599 135.166 74.4299C133.842 76.8735 132.553 80.54 130.325 82.2353C129.636 82.7596 129.254 82.8026 128.448 82.7017C127.984 82.4161 127.646 82.1445 127.459 81.6121C126.761 79.6162 129.405 75.8212 130.358 74.0494C127.646 73.0347 124.96 71.9471 122.217 71.016C118.812 69.8598 115.072 68.9435 111.92 67.2174C109.597 69.413 107.559 71.9666 105.599 74.4835C104.228 76.2427 101.308 81.5855 99.4927 82.5094C98.7376 82.8937 97.4358 82.9884 96.6535 82.6634C96.257 82.4987 96.2786 82.3671 96.1084 81.9753C97.6331 76.5945 103.517 68.9165 107.699 65.2636C103.924 63.2127 99.8369 61.2834 96.4824 58.5903C91.2485 62.2283 81.8211 71.5824 78.2302 76.8526C77.1849 78.3868 75.651 81.2521 73.7549 81.6903C72.7348 81.926 70.8584 82.0498 69.9691 81.4714L69.8524 80.9025C70.3537 79.5619 75.2322 73.3539 76.4554 71.8789C79.0428 68.7587 81.9167 65.8976 84.7761 63.0293C104.294 43.4503 126.199 33.8536 153.706 31.3582ZM151.542 48.457C147.4 53.8535 139.419 64.7024 137.035 70.7532C140.485 71.3455 144.024 71.7745 147.445 72.472C151.78 73.063 155.978 73.2579 160.343 73.3005C160.083 65.5072 160.051 57.5465 160.326 49.7545C157.155 49.7856 154.6 48.8998 151.542 48.457ZM171.155 48.8094C169.876 49.0832 165.916 49.5963 165.316 50.6604C164.594 51.9403 164.677 70.5249 165.21 71.982C165.407 72.5195 165.651 72.7739 166.168 72.9933C169.131 74.2512 177.877 72.3649 181.278 71.9523C183.456 71.5395 185.747 71.0587 187.958 70.926C186.265 66.6606 177.074 50.6705 173.003 49.0273C172.401 48.7843 171.792 48.6951 171.155 48.8094ZM184.252 44.7273C182.278 45.392 180.228 45.9625 178.465 47.1001C182.957 52.1838 189.792 63.4949 193.177 69.5353C195.897 68.3985 198.797 67.8674 201.56 66.8539Q205.851 65.2271 210.03 63.3314C203.654 56.6751 195.76 49.8016 187.35 45.8445C186.583 45.4836 185.363 44.7582 184.537 44.7285C184.442 44.7251 184.347 44.7277 184.252 44.7273ZM140.417 45.0517C133.66 47.9546 127.013 52.7324 121.577 57.6853C119.457 59.6168 117.493 61.9652 115.179 63.6431Q119.944 65.462 124.689 67.333C127.216 68.0679 129.957 68.6611 132.385 69.6572C136.745 61.8609 141.375 54.3239 146.62 47.0915C145.282 46.4529 141.778 44.6131 140.417 45.0517ZM157.119 35.0615C150.644 36.0865 145.297 36.215 138.799 38.0983C148.791 44.15 156.729 46.2104 168.473 44.9457C175.397 43.5046 179.901 42.0473 185.945 38.2691C178.035 35.4336 165.548 34.5884 157.119 35.0615ZM132.821 39.5403C130.397 40.0226 128.038 40.9825 125.736 41.8627C116.549 45.3748 108.316 49.9712 100.223 55.5142C102.137 56.8997 104.352 57.9632 106.408 59.1301C107.777 59.845 109.008 60.632 110.14 61.6885C112.188 59.6789 114.459 57.9257 116.641 56.069C120.984 52.3739 125.312 48.5188 130.192 45.5353C131.359 44.8215 135.299 43.0361 135.522 41.7537C135.086 40.9343 134.092 39.8943 133.182 39.6211C133.02 39.5723 132.973 39.5676 132.821 39.5403ZM191.442 39.7112C190.661 40.3399 189.889 40.9898 189.089 41.5931Q193.888 44.1507 198.36 47.2443Q202.832 50.3378 206.918 53.9261C209.714 56.3502 212.102 59.2975 215.257 61.2671C216.618 60.2283 218.005 59.3439 219.476 58.4754C221.277 57.4285 223.105 56.2164 225.045 55.4609C222.603 53.9348 220.295 52.2049 217.849 50.6728Q213.388 47.8479 208.639 45.5412Q203.89 43.2344 198.912 41.4749C196.66 40.6632 193.865 39.5616 191.442 39.7112Z"/>
	<path transform="matrix(1.96407 0 0 1.96407 0 -7.62939e-06)" d="M214.067 216.798C215.71 215.228 217.322 213.629 218.743 211.851C220.619 209.503 224.504 202.71 226.644 201.409C227.383 200.96 228.653 201.194 229.454 201.374C229.793 201.823 229.886 201.914 229.859 202.479C229.73 205.216 224.088 212.651 222.188 214.915C221.054 216.266 219.706 217.477 218.43 218.694C221.919 220.654 226.531 222.662 229.42 225.401C233.983 222.289 241.451 215.052 244.97 210.796C246.859 208.511 250.134 203.294 252.31 201.758C253.014 201.262 254.277 201.192 255.103 201.372C255.789 201.522 256.009 201.697 256.388 202.26C256.132 204.422 246.934 215.219 245.047 217.18C239.064 224.169 231.814 230.177 224.169 235.26Q221.429 237.07 218.584 238.71Q215.739 240.35 212.799 241.813Q209.86 243.277 206.836 244.558Q203.813 245.839 200.717 246.934Q197.621 248.028 194.464 248.932Q191.307 249.836 188.1 250.545Q184.894 251.254 181.65 251.767Q178.407 252.279 175.138 252.593C171.717 252.91 168.205 252.883 164.769 252.937C156.167 253.073 147.943 252.51 139.495 250.797C114.995 245.828 92.265 231.238 76.7664 211.797C74.962 209.533 73.0353 207.256 71.4601 204.829C70.8488 203.886 70.2068 202.83 70.4518 201.674C70.9805 201.184 71.1645 201.089 71.9337 201.113C73.0164 201.147 73.9944 201.545 74.7682 202.288C76.1806 203.645 77.2528 205.429 78.4683 206.963C80.7789 209.878 83.1946 212.821 85.7171 215.555C89.3404 219.481 93.4058 222.134 96.8807 225.7C100.286 223.208 104.087 220.992 107.958 219.307Q107.694 219.063 107.447 218.801C105.315 216.574 96.0646 204.706 96.1535 201.827C96.6403 201.183 97.0482 201.226 97.7945 201.057C102.841 201.727 107.103 213.652 111.434 216.082C112.07 216.439 112.618 216.411 113.315 216.26C115.301 215.83 117.281 214.817 119.198 214.111C123.177 212.644 127.307 211.136 131.394 210.03C130.332 208.323 127.865 204.357 128.203 202.404C128.289 201.908 128.562 201.469 128.994 201.203C129.412 200.945 129.904 200.854 130.383 200.968C132.969 201.585 134.691 207.004 135.933 209.202C136.078 209.152 136.224 209.108 136.365 209.05C139.737 207.679 148.546 206.703 152.409 206.414C154.522 206.256 156.7 206.335 158.795 206.009C159.649 205.876 160.264 205.789 160.9 205.186C161.398 204.018 161.288 202.557 161.315 201.3C162.609 201.187 163.88 200.979 165.061 201.648C165.702 202.5 165.543 203.292 165.811 204.286C166.042 205.142 166.83 205.713 167.652 205.951C169.598 206.513 172.211 206.277 174.258 206.386C177.1 206.538 187.304 207.638 189.471 208.801C189.856 209.008 190.144 209.054 190.58 209.085C192.088 208.588 193.518 204.322 194.486 202.957C195.111 202.076 196.427 201.246 197.512 201.151C198.131 201.097 198.339 201.195 198.777 201.599C199.328 204.104 197.127 206.991 196.88 209.527C197.857 210.938 211.193 215.264 214.067 216.798ZM165.9 210.572C165.384 212.584 165.713 215.459 165.717 217.559C165.727 223.092 165.894 228.668 165.72 234.195C168.694 234.357 171.511 235.236 174.46 235.522C176.846 233.168 178.469 230.262 180.576 227.69C183.658 223.018 186.792 218.315 189.146 213.225C184.158 212.076 179.152 211.178 174.036 210.864C171.372 210.7 168.526 210.944 165.9 210.572ZM151.203 210.896Q144.682 211.674 138.26 213.048C139.683 219.299 146.909 227.701 150.533 233.195C151.202 234.018 151.856 234.825 152.626 235.556C155.471 235.052 158.433 234.329 161.32 234.19Q161.215 222.446 161.277 210.702C157.932 210.714 154.536 210.605 151.203 210.896ZM132.653 214.543C126.753 216.127 121.451 218.414 115.766 220.525C121.427 226.467 128.034 231.961 135.024 236.276C137.091 237.433 139.197 238.438 141.353 239.417C143.512 238.633 145.703 237.907 147.736 236.829C144.429 233.586 135.245 219.208 133.691 214.792C133.223 214.464 133.226 214.488 132.653 214.543ZM194.281 214.373C189.706 220.793 184.594 231.592 179.331 236.851C181.406 237.962 183.545 238.754 185.756 239.549Q189.149 237.607 192.393 235.425C196.114 232.897 200.02 230.42 203.398 227.44C205.986 225.158 208.185 222.411 210.99 220.385C205.493 218.128 199.979 216.071 194.281 214.373ZM159.647 238.855C154.156 239.327 149.454 241.086 144.49 243.359C143.253 243.926 141.483 244.586 140.58 245.619C141.629 247 146.93 247.63 148.746 247.873C152.551 248.383 164.594 249.719 167.953 248.567C174.881 247.982 180.532 248.094 187.194 245.655C179.366 241.87 172.622 238.537 163.741 238.679C162.432 238.7 160.93 238.615 159.647 238.855ZM215.652 222.364C213.895 224.394 211.748 226.031 209.723 227.781C203.46 233.192 197.251 237.866 190.301 242.36L192.837 244.574C195.074 244.106 197.281 243.396 199.441 242.652Q204.643 240.765 209.624 238.356Q214.606 235.947 219.315 233.041C221.625 231.618 223.779 229.958 226.076 228.532C222.642 226.387 219.208 224.303 215.652 222.364ZM111.229 222.523C107.814 224.465 104.392 226.752 100.867 228.455C103.277 230.036 105.56 231.796 107.99 233.346C113.886 237.109 120.827 240.617 127.55 242.629C129.433 243.32 132.739 244.816 134.705 244.2C135.271 243.674 135.366 243.362 135.368 242.539C135.37 241.862 135.036 241.531 134.54 241.13C132.761 239.69 130.496 238.55 128.568 237.298C126.424 235.905 124.441 234.292 122.451 232.691C120.354 231.003 118.324 229.283 116.38 227.418C114.834 225.934 113.013 223.64 111.229 222.523Z"/>
	<path transform="matrix(1.96407 0 0 1.96407 0 -7.62939e-06)" d="M135.711 91.3544C138.572 91.0564 141.552 91.4848 144.39 91.8435C153.74 93.0252 160.88 95.1256 168.994 100.079C168.984 98.4438 168.767 96.1019 169.436 94.6114C172.202 93.6417 186.11 94.2383 189.793 94.2641C190.188 98.2034 189.955 102.35 189.957 106.312L189.957 127.869C183.284 127.641 176.594 127.796 169.917 127.722C167.554 125.974 165.729 123.568 163.503 121.644C158.487 117.307 150.954 115.184 144.506 114.26C140.638 113.705 135.934 112.941 132.603 115.491C131.765 116.132 130.803 117.035 130.716 118.148C130.613 119.449 131.879 120.423 132.884 121.017C136.166 122.954 140.419 123.703 144.078 124.731C152.55 127.113 169.608 131.225 176.837 135.258C180.254 137.164 183.431 139.874 186.002 142.816C191.103 148.653 194.081 156.533 193.509 164.343C192.949 171.983 189.483 179.478 183.592 184.452C177.355 189.718 169.807 191.85 161.88 193.017C158.903 193.456 156.211 193.888 153.187 193.643C143.059 193.055 131.38 189.998 122.863 184.344C122.966 186.166 123.407 188.619 122.609 190.325C122.324 190.935 121.839 191.35 121.188 191.523C118.957 192.117 115.342 190.887 112.894 190.842C110.807 190.804 108.765 191.151 106.701 191.415C105.347 191.588 103.08 192.061 101.868 191.31C100.673 188.538 101.239 161.139 101.182 155.275C107.777 155.014 114.473 154.874 121.061 155.309Q121.377 155.756 121.713 156.188C128.392 164.78 135.133 168.596 145.869 169.94C151.934 170.699 158.562 170.4 163.561 166.512C162.337 164.952 161.295 163.951 159.518 163.014C156.204 161.267 152.377 160.468 148.802 159.406L134.148 155.006C126.295 152.646 118.623 150.556 111.913 145.589C106.069 141.262 101.573 134.21 100.52 126.94C99.3779 119.051 101.35 110.275 106.183 103.882C113.115 94.7124 125.11 92.7488 135.711 91.3544Z"/>
	<path transform="matrix(1.96407 0 0 1.96407 0 -7.62939e-06)" d="M244.265 91.3537C256.437 89.9011 275.122 95.4822 284.773 102.902C294.692 110.528 298.232 121.376 299.778 133.349C300.17 136.385 300.664 139.504 300.648 142.568C300.597 152.54 297.452 167.624 291.288 175.571C281.334 188.404 266.905 191.675 251.561 193.612Q251.294 193.651 251.025 193.679C247.837 194.023 244.492 193.533 241.333 193.121C230.412 191.695 219.684 188.716 210.942 181.672C200.784 173.488 196.825 161.304 195.523 148.752C194.223 136.213 197.224 118.578 205.4 108.551C214.98 96.8002 229.729 92.7918 244.265 91.3537ZM244.118 116.792C240.443 117.527 236.801 119.476 234.657 122.637C230.883 128.198 231.616 149.971 232.986 156.633C233.757 160.379 235.122 163.839 238.411 166.015C242.66 168.826 247.329 168.324 252.171 168.234C255.42 167.535 259.091 166.263 260.993 163.344C265.493 156.438 264.899 135.706 263.143 127.698C262.383 124.233 260.989 120.833 257.878 118.861C253.814 116.284 248.724 116.629 244.118 116.792Z"/>
</svg>
