<?xml version="1.0" encoding="utf-8" ?>
<svg xmlns="http://www.w3.org/2000/svg" xmlns:xlink="http://www.w3.org/1999/xlink" width="740" height="724">
	<path transform="scale(4.11111 4.11364)" d="M0 0L27.1366 0L49.7936 0L73.2911 0L96.6607 0L168.951 0L179.562 0C180.339 1.23881 180.245 9.07895 179.875 10.6524C179.841 10.7976 179.791 10.9401 179.738 11.0791C180.502 13.3244 180.005 38.2481 180.005 42.3082L180.003 134.427C180.002 138.443 180.406 174.334 179.743 175.68C179.688 175.793 179.63 175.893 179.562 176L34.5465 176L0 176L0 137.923L0 115.039L0 91.4453L0 68.7793L0 45.4132L0 22.3939L0 1.72704L0 0.837253L0 0ZM101.17 5.62774L34.0772 5.69586L14.4103 5.72032C11.5225 5.73381 8.39037 6.09737 5.53348 5.78292C5.92029 17.4522 5.67342 29.1938 5.68724 40.8723L5.7574 103.523L5.76264 125.185C5.76392 131.315 5.4031 137.762 6.70569 143.788Q6.98543 145.034 7.3571 146.256Q7.72877 147.478 8.19032 148.668Q8.65187 149.859 9.20074 151.012Q9.74961 152.165 10.3828 153.275Q11.0159 154.384 11.7298 155.443Q12.4437 156.501 13.2344 157.504Q14.0251 158.507 14.8883 159.448Q15.7514 160.39 16.6822 161.264C27.8332 171.686 39.4682 170.549 53.6212 170.535L78.875 170.504L145.678 170.46L164.573 170.427C167.794 170.413 171.342 170.089 174.514 170.497L174.399 61.2452L174.363 28.596C174.358 23.2305 174.757 17.4866 174.209 12.1546C174.024 10.3544 173.245 8.85693 171.967 7.58672C170.554 6.18344 168.891 5.90407 166.975 5.68378C164.379 5.38515 161.662 5.53514 159.045 5.53641L145.384 5.55523L101.729 5.62202L101.17 5.62774ZM0 137.923L0 176L34.5465 176C33.1005 175.156 30.5926 174.825 28.9524 174.353Q27.1242 173.84 25.3567 173.147Q23.5892 172.454 21.9001 171.586Q20.2111 170.719 18.6175 169.687Q17.0239 168.655 15.5419 167.468C6.56015 160.313 1.81358 150.606 0.544886 139.328L0 137.923ZM168.951 0C173.407 2.0263 177.015 3.34132 178.889 8.30526C179.225 9.19573 179.534 10.1484 179.738 11.0791C179.791 10.9401 179.841 10.7976 179.875 10.6524C180.245 9.07895 180.339 1.23881 179.562 0L168.951 0ZM0 68.7793L0 91.4453L0 115.039L0 137.923L0.544886 139.328L0.493546 137.046C0.768115 130.003 0.56512 122.887 0.556613 115.837L0.502652 70.1312L0.274005 68.8442L0 68.7793ZM49.7936 0L49.7507 0.303724Q42.0967 0.4098 34.4423 0.333068C32.1136 0.327389 29.4081 0.0678994 27.1254 0.465631C29.7579 0.732352 32.555 0.563002 35.2059 0.566205L52.0375 0.515308L78.0247 0.393282C83.5795 0.389148 89.1911 0.571815 94.7396 0.364367C95.4223 0.338845 96.02 0.245298 96.6607 0L73.2911 0L49.7936 0ZM0 0L0 0.837253L1.51394 0.268882C4.91877 0.837367 8.87611 0.517494 12.3381 0.514634C17.2529 0.510574 22.2159 0.642302 27.1254 0.465631C29.4081 0.0678994 32.1136 0.327389 34.4423 0.333068Q42.0967 0.409823 49.7507 0.303724L49.7936 0L27.1366 0L0 0ZM0 22.3939L0 45.4132L0 68.7793L0.274005 68.8442L0.502652 70.1312C0.705619 67.1791 0.543325 64.1163 0.544933 61.1537Q0.595718 53.459 0.491962 45.7648C0.0548354 44.205 0.230583 42.171 0.242036 40.5511C0.270546 36.5187 0.924811 25.6302 0 22.3939ZM0 1.72704L0 22.3939C0.924811 25.6302 0.270546 36.5187 0.242036 40.5511C0.230583 42.171 0.0548354 44.205 0.491962 45.7648C1.02189 36.9758 0.523897 26.792 0.437261 17.8733C0.404644 14.5154 0.76832 4.49451 0 1.72704Z"/>
	<path transform="scale(4.11111 4.11364)" d="M0 1.72704C0.76832 4.49451 0.404644 14.5154 0.437261 17.8733C0.523897 26.792 1.02189 36.9758 0.491962 45.7648C0.0548354 44.205 0.230583 42.171 0.242036 40.5511C0.270546 36.5187 0.924811 25.6302 0 22.3939L0 1.72704Z"/>
	<path transform="scale(4.11111 4.11364)" d="M0 22.3939C0.924811 25.6302 0.270546 36.5187 0.242036 40.5511C0.230583 42.171 0.0548354 44.205 0.491962 45.7648Q0.595735 53.459 0.544933 61.1537C0.543325 64.1163 0.705619 67.1791 0.502652 70.1312L0.274005 68.8442L0 68.7793L0 45.4132L0 22.3939ZM0 45.4132L0 68.7793L0.274005 68.8442C0.155774 64.0895 0.931261 48.7996 0 45.4132Z"/>
	<path transform="scale(4.11111 4.11364)" d="M0 45.4132C0.931261 48.7996 0.155774 64.0895 0.274005 68.8442L0 68.7793L0 45.4132Z"/>
	<path transform="scale(4.11111 4.11364)" d="M0 0L27.1366 0L49.7936 0L49.7507 0.303724Q42.0967 0.4098 34.4423 0.333068C32.1136 0.327389 29.4081 0.0678994 27.1254 0.465631C22.2159 0.642302 17.2529 0.510574 12.3381 0.514634C8.87611 0.517494 4.91877 0.837367 1.51394 0.268882L0 0.837253L0 0ZM0 0L0 0.837253L1.51394 0.268882C3.38532 -0.0534969 5.52573 0.120047 7.42011 0.147238C12.1105 0.214559 23.1329 0.850231 27.1366 0L0 0Z"/>
	<path transform="scale(4.11111 4.11364)" d="M0 0L27.1366 0C23.1329 0.850231 12.1105 0.214559 7.42011 0.147238C5.52573 0.120047 3.38532 -0.0534969 1.51394 0.268882L0 0.837253L0 0Z"/>
	<path transform="scale(4.11111 4.11364)" d="M49.7936 0L73.2911 0L96.6607 0C96.02 0.245298 95.4223 0.338845 94.7396 0.364367C89.1911 0.571815 83.5795 0.389148 78.0247 0.393282L52.0375 0.515308L35.2059 0.566205C32.555 0.563002 29.7579 0.732352 27.1254 0.465631C29.4081 0.0678994 32.1136 0.327389 34.4423 0.333068Q42.0967 0.409823 49.7507 0.303724L49.7936 0ZM49.7936 0L49.7507 0.303724C55.1917 -0.10735 60.8965 0.273323 66.3634 0.293045C68.5779 0.301034 71.1437 0.545884 73.2911 0L49.7936 0Z"/>
	<path transform="scale(4.11111 4.11364)" d="M49.7936 0L73.2911 0C71.1437 0.545884 68.5779 0.301034 66.3634 0.293045C60.8965 0.273323 55.1917 -0.10735 49.7507 0.303724L49.7936 0Z"/>
	<path transform="scale(4.11111 4.11364)" d="M0 68.7793L0.274005 68.8442L0.502652 70.1312L0.556613 115.837C0.56512 122.887 0.768115 130.003 0.493546 137.046L0.544886 139.328L0 137.923L0 115.039L0 91.4453L0 68.7793ZM0 115.039L0 137.923L0.544886 139.328L0.493546 137.046C0.0150162 135.097 0.292046 132.518 0.300269 130.49C0.320955 125.389 0.556442 120.186 0.234434 115.096L0 115.039ZM0 91.4453L0 115.039L0.234434 115.096L0.268493 99.9418C0.272729 97.2294 0.579948 94.0815 0 91.4453Z"/>
	<path transform="scale(4.11111 4.11364)" d="M0 91.4453C0.579948 94.0815 0.272729 97.2294 0.268493 99.9418L0.234434 115.096L0 115.039L0 91.4453Z"/>
	<path transform="scale(4.11111 4.11364)" d="M0 115.039L0.234434 115.096C0.556442 120.186 0.320955 125.389 0.300269 130.49C0.292046 132.518 0.0150162 135.097 0.493546 137.046L0.544886 139.328L0 137.923L0 115.039Z"/>
	<path transform="scale(4.11111 4.11364)" d="M119.548 87.2908L119.928 87.5061C120.107 88.2288 120.099 88.6438 120.698 89.1415C122.694 89.3931 132.768 89.7218 133.99 88.7635C134.102 88.6758 134.092 88.6787 134.207 88.5661C134.345 89.0433 134.358 89.1367 134.234 89.6151C132.094 90.3653 123.123 89.7319 120.067 89.899C119.822 89.0228 119.612 88.204 119.548 87.2908Z"/>
	<path transform="scale(4.11111 4.11364)" d="M77.3381 142.923C77.7429 147.149 77.3481 151.395 77.6685 155.621C76.5339 155.582 74.5906 155.866 73.6343 155.336C73.1839 154.601 73.3121 154.023 73.392 153.172C73.61 153.669 73.8214 154.165 74.014 154.672C74.9606 155.167 75.932 154.956 76.989 154.923C76.959 151.156 76.417 146.54 77.3381 142.923Z"/>
	<path transform="scale(4.11111 4.11364)" d="M82.737 96.807L87.7043 96.7257C87.6082 105.319 87.8296 113.941 87.6423 122.527C86.0262 122.351 84.3759 122.411 82.7517 122.415Q82.5339 113.787 82.5911 105.156C82.599 102.435 82.398 99.504 82.737 96.807Z"/>
	<path transform="scale(4.11111 4.11364)" d="M45.743 130.093C49.4088 130.409 53.6927 130.183 57.4427 130.255L57.1914 133.633L54.0707 134.013C53.4933 140.277 53.9067 146.764 53.8226 153.062L54.0531 155.589C52.3761 155.557 50.7057 155.593 49.0296 155.638C48.9451 153.04 49.1879 134.79 48.6198 133.943C47.9099 133.928 47.1266 133.846 46.434 133.683C45.693 133.508 45.4644 133.097 45.0871 132.505C45.0643 131.602 45.2122 130.837 45.743 130.093Z"/>
	<path transform="scale(4.11111 4.11364)" d="M89.3995 96.8603C93.3504 96.7422 97.2935 96.814 101.245 96.8463C101.241 97.8423 101.407 99.3327 100.775 100.148C100.03 100.736 98.8849 100.699 97.9699 100.783C97.5145 107.16 97.7477 113.67 97.7262 120.063L97.9497 122.478C96.2775 122.411 94.598 122.428 92.9245 122.416C92.6474 116.014 92.3389 106.71 92.9639 100.443L89.186 100.606C89.1725 99.5632 88.9324 97.7743 89.3995 96.8603Z"/>
	<path transform="scale(4.11111 4.11364)" d="M140.219 96.7738C141.721 96.668 143.267 96.7355 144.775 96.7297C143.634 100.789 142.621 104.881 141.463 108.938C141.327 110.306 140.794 111.742 140.599 113.138C140.172 116.197 140.194 119.246 140.182 122.326C138.614 122.268 137.066 122.317 135.501 122.383C135.53 119.779 135.62 117.072 135.286 114.487C134.518 108.555 132.216 102.599 130.871 96.7451L135.357 96.7315C136.444 100.483 136.993 104.459 137.879 108.272Q138.894 102.491 140.219 96.7738Z"/>
	<path transform="scale(4.11111 4.11364)" d="M43.0184 96.3188C44.2088 96.3415 45.4622 96.5739 46.5048 97.1698C48.8086 98.4865 49.4698 100.938 50.1037 103.323L44.7906 104.311C44.6664 103.371 44.6207 102.048 44.1091 101.233C43.738 100.643 43.4219 100.468 42.7738 100.319C42.5322 100.459 42.2111 100.591 42.0575 100.821C39.1864 105.137 48.7202 109.383 49.8108 115.048C50.1745 116.936 49.6431 118.833 48.5546 120.399C47.2459 122.281 45.4304 122.608 43.329 122.988C42.2384 122.82 41.1566 122.596 40.1949 122.035C37.6681 120.56 36.9884 117.911 36.3008 115.27C37.7982 114.759 40.1286 114.073 41.7012 114.224C42.312 115.361 41.8272 115.531 41.6822 116.703C41.6151 117.245 41.7309 117.706 42.0965 118.116C42.5465 118.62 43.2979 118.803 43.9427 118.847C44.3366 118.664 44.6702 118.509 44.9294 118.146C47.2162 114.94 37.301 109.098 36.4999 103.968C36.2098 102.111 36.7395 100.44 37.8479 98.9579C39.2182 97.1258 40.846 96.6274 43.0184 96.3188Z"/>
	<path transform="scale(4.11111 4.11364)" d="M37.7651 129.563C39.172 129.475 40.4494 129.653 41.6579 130.413C42.9669 131.236 44.9397 132.906 45.2586 134.506C45.3553 134.991 45.2945 135.452 45.021 135.868C44.1923 137.128 41.5702 137.312 40.1533 137.602C40.0399 136.719 39.95 135.66 39.5673 134.854C39.2575 134.201 38.8189 133.831 38.1563 133.578C37.6688 133.671 37.4513 133.667 37.1444 134.096C34.9892 137.109 41.0683 141.52 42.6375 143.544C43.8534 145.112 44.7144 146.87 45.049 148.834C45.315 150.396 45.2464 152.013 44.2853 153.344C42.9666 155.171 40.6164 156.075 38.482 156.444C37.7746 156.268 37.0294 156.097 36.3706 155.78C33.3891 154.348 32.3624 151.491 31.3299 148.576C33.188 147.991 35.0614 147.635 36.973 147.279C36.9746 148.099 36.957 148.951 37.1233 149.757C37.3321 150.768 37.7811 151.362 38.6381 151.914C39.3162 151.979 39.4452 151.962 40.0197 151.596C42.3115 147.557 32.7063 142.141 31.695 137.602C31.3021 135.839 31.8118 134.142 32.7734 132.663C34.0106 130.761 35.6033 130.017 37.7651 129.563Z"/>
	<path transform="scale(4.11111 4.11364)" d="M62.0958 130.026C63.4601 129.919 64.876 130.017 66.2455 130.043C68.3138 138.459 69.3154 147.347 71.8921 155.602L66.8444 155.549C66.3969 153.876 66.1223 152.123 65.7774 150.424C65.559 150.321 65.3395 150.258 65.1059 150.199C64.6163 150.073 63.8123 149.915 63.3515 150.2C62.065 150.995 61.8221 154.105 61.4999 155.571C59.8679 155.499 58.2295 155.567 56.5971 155.605C58.2446 149.669 59.1733 143.371 60.4052 137.327C60.9003 134.898 61.3049 132.376 62.0958 130.026ZM64.1007 138.652C63.7652 139.958 62.7869 145.753 63.1732 146.836C63.7664 146.928 64.3532 147.018 64.9528 147.056C65.0479 146.928 65.2729 146.693 65.3266 146.553C65.5403 145.998 64.6926 140.401 64.5478 139.39C64.5032 139.079 64.3388 138.849 64.1007 138.652Z"/>
	<path transform="scale(4.11111 4.11364)" d="M106.082 96.7708C107.417 96.6912 108.777 96.7575 110.115 96.7735C111.755 102.602 112.723 108.741 113.962 114.672C114.501 117.254 114.948 119.925 115.834 122.413L110.82 122.387L109.609 117.388C109.366 116.99 108.837 116.606 108.378 116.502C107.97 116.409 107.69 116.434 107.339 116.684C106.054 117.6 105.687 120.929 105.383 122.42C103.751 122.34 102.126 122.336 100.493 122.343C102.144 116.543 103.036 110.352 104.236 104.435C104.747 101.913 105.129 99.1628 106.082 96.7708ZM107.849 105.364C107.731 106.566 106.748 112.975 107.096 113.611L108.668 113.93C109.077 113.52 109.164 113.457 109.163 112.854C109.161 110.737 108.912 107.813 108.379 105.783C108.213 105.643 108.04 105.463 107.849 105.364Z"/>
	<path transform="scale(4.11111 4.11364)" d="M55.7543 96.7712C57.0866 96.7224 58.4286 96.7856 59.7614 96.817C60.5837 99.2457 60.9543 101.944 61.4633 104.454C62.6781 110.445 63.6966 116.613 65.2981 122.506L60.3624 122.41C59.7999 120.607 59.5006 118.672 59.112 116.823C58.6528 116.741 58.0669 116.672 57.6002 116.697C54.5851 116.86 56.4811 120.513 55.0091 121.968C54.1278 122.839 51.361 122.45 50.1391 122.429Q51.91 114.289 53.5293 106.117C54.1451 103.099 54.543 99.5976 55.7543 96.7712ZM57.6002 105.422C57.301 107.253 55.985 112.048 56.8958 113.662C57.3073 113.831 57.7137 113.996 58.1399 114.127C58.6045 113.635 58.754 113.446 58.7258 112.741C58.675 111.472 58.5278 106.205 57.6928 105.483C57.665 105.459 57.6311 105.442 57.6002 105.422Z"/>
	<path transform="scale(4.11111 4.11364)" d="M109.262 129.849C110.438 129.797 111.633 129.955 112.804 130.061C113.819 132.674 114.184 135.93 114.751 138.691Q116.46 147.159 118.306 155.599C116.709 155.519 115.095 155.547 113.495 155.53C112.857 153.784 112.558 151.853 112.162 150.037C111.511 149.983 110.407 149.82 109.853 150.199C108.458 151.153 108.437 153.999 108.171 155.55Q105.717 155.512 103.263 155.564C104.783 148.101 106.201 140.594 107.851 133.159C108.082 132.119 108.299 130.463 109.262 129.849ZM110.787 138.411C110.062 140.846 109.747 143.813 109.623 146.354C110.105 146.865 110.493 146.876 111.163 147.053C111.34 146.947 111.68 146.819 111.732 146.62C112.172 144.911 111.358 140.878 111.182 138.906L110.787 138.411Z"/>
	<path transform="scale(4.11111 4.11364)" d="M73.392 153.172C73.2653 150.241 72.878 131.315 73.796 130.114C74.4611 129.869 75.0595 129.942 75.7328 130.142C76.1558 130.267 76.62 130.48 76.9025 130.831C79.1467 133.623 80.6244 140.321 82.6325 143.958C82.2953 139.23 82.2524 134.591 82.3502 129.856C83.6689 129.959 85.002 129.973 86.3242 130.018C86.5404 138.567 86.2639 147.119 86.4807 155.666C85.3522 155.646 84.226 155.573 83.0994 155.508C81.8918 153.423 78.609 143.119 77.6465 142.473L77.3381 142.923C76.417 146.54 76.959 151.156 76.989 154.923C75.932 154.956 74.9606 155.167 74.014 154.672C73.8214 154.165 73.61 153.669 73.392 153.172Z"/>
	<path transform="scale(4.11111 4.11364)" d="M66.8837 96.7812C67.6356 96.7093 68.6672 96.6076 69.4005 96.8244C71.4978 97.4444 74.5564 107.784 75.9105 110.171C75.6774 105.715 75.7352 101.265 75.7843 96.8064C77.1804 96.7491 78.593 96.7946 79.9909 96.7969C79.6292 100.511 80.2866 120.928 79.7471 122.033C79.5421 122.454 79.0868 122.498 78.6708 122.651C78.0911 122.575 77.5298 122.447 76.9609 122.315C75.1947 121.21 72.1175 110.734 70.7708 108.093C70.7738 112.876 71.1906 117.653 71.1296 122.464L66.9277 122.448C66.3911 114.089 66.5444 105.154 66.8837 96.7812Z"/>
	<path transform="scale(4.11111 4.11364)" d="M117.236 96.6986C118.859 96.7722 120.501 96.7048 122.128 96.7386C124.459 96.7871 127.246 97.0772 128.931 98.8899C130.235 100.293 130.544 102.37 130.45 104.217C130.313 106.924 128.995 108.503 127.051 110.246C128.564 114.148 129.633 118.331 130.954 122.314L125.898 122.317C125.547 121.322 125.263 120.294 124.954 119.285C124.461 117.172 123.803 111.908 122.684 110.332L122.314 110.755L122.318 110.708C121.708 114.319 122.221 118.685 122.257 122.382C120.559 122.288 118.891 122.364 117.196 122.452C117.384 119.335 117.26 116.143 117.266 113.019Q117.311 104.859 117.236 96.6986ZM122.607 100.239C121.955 101.544 121.796 105.072 122.262 106.468C122.352 106.738 122.471 106.98 122.625 107.218C123.269 107.458 123.508 107.406 124.139 107.118C124.276 107.055 124.406 106.979 124.535 106.902C125.261 105.511 125.847 103.951 125.32 102.371C125.074 101.63 124.552 100.907 123.828 100.579C123.445 100.405 123.018 100.32 122.607 100.239Z"/>
	<path transform="scale(4.11111 4.11364)" d="M119.844 129.911C121.763 129.841 123.825 129.864 125.74 129.983C127.886 130.117 130.284 130.628 131.738 132.348C133.053 133.904 133.246 136.082 133.045 138.032C132.798 140.416 131.558 141.948 129.748 143.41C131.064 147.42 132.054 151.759 133.845 155.579L128.462 155.501C128.033 154.349 127.803 153.071 127.512 151.875C126.979 149.444 126.616 145.933 125.207 143.855L124.935 143.946C124.333 146.953 124.762 152.343 124.974 155.527Q122.483 155.521 119.992 155.575C119.358 147.083 119.97 138.429 119.844 129.911ZM125.101 133.317C124.891 135.236 124.036 138.841 125.224 140.425C125.967 140.669 126.49 140.518 127.202 140.162C127.94 138.788 128.47 137.242 127.974 135.679C127.688 134.778 127.089 134.106 126.254 133.675C125.89 133.488 125.5 133.395 125.101 133.317Z"/>
	<path transform="scale(4.11111 4.11364)" d="M89.2693 129.923C92.5741 129.95 97.4862 129.509 100.27 131.531C101.499 132.423 101.968 134.173 102.198 135.607C102.762 139.127 102.899 147.604 102.008 150.977C101.739 151.995 101.279 152.789 100.662 153.634C97.4114 156.142 92.958 155.577 89.0791 155.554C89.3931 152.431 89.2447 149.207 89.2392 146.07Q89.1856 137.996 89.2693 129.923ZM94.278 133.324C94.0892 139.543 94.4773 145.855 94.0541 152.053L96.8873 151.648C97.6661 150.179 97.7849 136.761 97.2573 134.998C97.0847 134.421 96.6887 134.128 96.1703 133.865C95.6187 133.585 94.8812 133.468 94.278 133.324Z"/>
	<path transform="scale(4.11111 4.11364)" d="M135.415 129.772C138.628 129.947 143.868 129.384 146.442 131.564C147.91 132.807 148.497 135.052 148.66 136.891C148.975 140.459 149.188 148.189 148.06 151.44C147.758 152.311 147.137 153.013 146.551 153.708C143.414 156.058 138.917 155.533 135.2 155.553C135.649 149.396 135.249 143.032 135.243 136.851C135.241 134.557 135.072 132.033 135.415 129.772ZM140.285 133.331L140.225 145.059C140.217 147.185 140.04 149.473 140.329 151.579C141.186 152.047 142.261 151.716 143.146 151.464C143.734 149.793 143.791 135.808 143.17 134.553C142.988 134.184 142.564 133.891 142.176 133.762C141.577 133.562 140.907 133.435 140.285 133.331Z"/>
	<path transform="scale(4.11111 4.11364)" d="M65.675 19.8203C67.625 19.6479 69.4695 19.7022 71.3931 20.0978C76.3714 21.1215 81.2656 23.5818 84.099 27.9323C86.8982 32.2304 87.7151 38.0412 86.6587 43.0176C85.743 47.331 83.3885 50.9892 79.6844 53.3971C80.2792 53.8136 80.8661 54.2699 81.4049 54.7573C85.2216 58.2102 86.8459 63.6376 87.0936 68.6297C87.383 74.4616 86.2315 81.2136 82.1993 85.6447C78.7581 89.4264 73.8873 91.0039 68.888 91.2407C63.6225 91.4901 57.9064 90.4694 53.9138 86.786C48.5422 81.8306 48.479 74.5255 48.213 67.7659L53.6875 67.7576L62.1154 67.7358C62.2396 70.7999 62.0209 74.9755 63.8307 77.6141C64.519 78.6175 65.4836 79.2598 66.6858 79.4723C67.9492 79.6955 69.3291 79.4974 70.3902 78.7455C71.8449 77.7146 72.5223 75.9842 72.8259 74.2905C73.4435 70.8461 73.2694 66.0538 71.1861 63.0838C69.3439 60.4577 66.0309 60.2336 63.1283 59.7101C62.7045 55.4574 63.4361 51.083 63.0412 46.7893C65.7744 46.7453 68.9274 46.5431 71.0407 44.5826C72.4648 43.2615 73.0434 41.4534 73.1104 39.5512C73.1881 37.3475 72.7081 34.8582 71.1421 33.2098C70.2388 32.259 68.9732 31.5862 67.6427 31.5667C66.5101 31.5501 65.4779 32.0767 64.6749 32.8484C61.9593 35.4583 62.2443 40.0516 62.1803 43.5125Q55.1751 43.4541 48.1699 43.5083C48.2115 37.6806 48.094 31.9292 51.7313 27.0034C54.9882 22.5928 60.4209 20.6091 65.675 19.8203Z"/>
	<path transform="scale(4.11111 4.11364)" d="M105.935 21.4806Q112.352 21.4085 118.768 21.5414L129.168 66.9117C130.817 74.0986 132.22 81.4759 134.207 88.5661C134.092 88.6787 134.102 88.6758 133.99 88.7635C132.768 89.7218 122.694 89.3931 120.698 89.1415C120.099 88.6438 120.107 88.2288 119.928 87.5061L119.548 87.2908C118.492 83.4348 117.525 79.1437 117.143 75.1673C113.994 75.2799 110.589 75.637 107.465 75.3075C107.094 77.7189 105.819 88.164 104.332 89.2966C102.837 90.4359 92.731 89.7696 90.3181 89.9876C90.9741 85.579 92.2038 81.1634 93.1931 76.816L98.64 52.9143L103.159 33.0159C104.02 29.209 104.71 25.1844 105.935 21.4806ZM112.124 42.6723L110.024 57.2341C109.559 60.3845 109.232 63.6663 108.343 66.7274C109.582 66.6763 110.837 66.5831 112.077 66.599C113.447 66.6111 114.811 66.6174 116.176 66.7453C115.323 63.6605 113.024 43.2783 112.124 42.6723Z"/>
</svg>
