<?xml version="1.0" encoding="utf-8" ?>
<svg xmlns="http://www.w3.org/2000/svg" xmlns:xlink="http://www.w3.org/1999/xlink" width="1023" height="649">
	<path transform="matrix(3.62766 0 0 3.6257 0 -7.62939e-06)" d="M0 0L35.5184 0L246.262 0L281.562 0C281.816 0.404119 281.937 0.76193 281.967 1.23706C282.431 8.66789 282.017 16.7955 282.013 24.2921C282.012 27.0085 282.44 33.8465 281.897 36.1446C281.845 36.3649 281.758 36.5696 281.655 36.7699C281.918 37.3392 281.972 37.8099 281.986 38.4264C282.143 45.5661 282.007 52.734 282.008 59.8771L282.011 101.316C282.01 107.079 282.443 139.987 281.749 141.908C282.313 143.869 282.196 173.624 281.98 177.656C281.956 178.092 281.867 178.494 281.641 178.874C281.616 178.917 281.589 178.958 281.562 179L244.952 179L36.3561 179L0 179L0 142.925L0 35.6523L0 0Z"/>
	<path fill="#BBB" transform="matrix(3.62766 0 0 3.6257 0 -7.62939e-06)" d="M0 0L35.5184 0C35.4818 0.0240084 35.4456 0.0487708 35.4085 0.0720253C34.5041 0.638917 27.8874 1.83037 25.9984 2.49858C14.5692 6.54159 4.68647 17.1188 1.63126 28.8687C1.09434 30.9336 0.933682 33.7771 0 35.6523L0 0Z"/>
	<path fill="#BBB" transform="matrix(3.62766 0 0 3.6257 0 -7.62939e-06)" d="M0 142.925C0.815688 145.682 1.07202 148.561 1.95849 151.313Q2.25727 152.218 2.59851 153.108Q2.93975 153.998 3.3227 154.871Q3.70565 155.744 4.12944 156.598Q4.55323 157.452 5.01691 158.285Q5.4806 159.118 5.98315 159.928Q6.4857 160.738 7.02598 161.523Q7.56627 162.309 8.14308 163.068Q8.71989 163.827 9.33194 164.557Q9.94399 165.288 10.5899 165.989Q11.2358 166.69 11.9142 167.36Q12.5925 168.03 13.3018 168.667Q14.011 169.304 14.7496 169.906Q15.4881 170.509 16.2544 171.076Q17.0206 171.643 17.8128 172.173Q18.605 172.704 19.4214 173.196Q20.2378 173.688 21.0765 174.141Q23.4879 175.47 26.0718 176.42Q28.6556 177.371 31.3531 177.922C32.9628 178.266 34.8315 178.418 36.3561 179L0 179L0 142.925Z"/>
	<path fill="#BBB" transform="matrix(3.62766 0 0 3.6257 0 -7.62939e-06)" d="M246.262 0L281.562 0C281.816 0.404119 281.937 0.76193 281.967 1.23706C282.431 8.66789 282.017 16.7955 282.013 24.2921C282.012 27.0085 282.44 33.8465 281.897 36.1446C281.845 36.3649 281.758 36.5696 281.655 36.7699C282.019 35.0203 281.123 31.6947 280.648 29.9554C277.285 17.6149 268.164 6.91222 255.983 2.57359C254.333 1.98593 246.814 0.340537 246.368 0.0674814C246.332 0.0457064 246.297 0.0224938 246.262 0Z"/>
	<path fill="#BBB" transform="matrix(3.62766 0 0 3.6257 0 -7.62939e-06)" d="M281.749 141.908C282.313 143.869 282.196 173.624 281.98 177.656C281.956 178.092 281.867 178.494 281.641 178.874C281.616 178.917 281.589 178.958 281.562 179L244.952 179C246.666 178.321 248.94 178.208 250.774 177.823Q252.707 177.418 254.587 176.813Q256.467 176.207 258.273 175.408Q260.079 174.608 261.791 173.623Q263.503 172.638 265.102 171.478C272.377 166.233 278.048 158.485 280.374 149.777C281.074 147.154 281.319 144.568 281.749 141.908Z"/>
	<path fill="#BBB" transform="matrix(3.62766 0 0 3.6257 0 -7.62939e-06)" d="M69.1742 104.795Q73.8042 104.763 78.4341 104.803L78.436 151.959C75.3628 151.871 72.2678 151.945 69.1922 151.943L69.1742 104.795Z"/>
	<path fill="#BBB" transform="matrix(3.62766 0 0 3.6257 0 -7.62939e-06)" d="M246.924 104.874C250.103 104.608 253.378 104.764 256.569 104.771C256.738 105.046 256.862 105.324 256.927 105.642C257.417 108.016 257.001 115.591 257.003 118.378C257.009 128.834 257.416 140.091 256.973 150.406C256.95 150.941 256.875 151.312 256.554 151.753C255.586 152.331 248.393 151.941 246.803 151.929C246.825 151.89 246.848 151.852 246.868 151.814C247.056 151.469 247.129 151.109 247.146 150.72C247.529 141.75 247.174 132.608 247.174 123.622C247.174 120.198 247.629 107.35 246.924 104.874Z"/>
	<path fill="#BBB" transform="matrix(3.62766 0 0 3.6257 0 -7.62939e-06)" d="M166.636 116.358C169.426 116.181 172.497 116.564 175.107 117.553C177.938 118.624 180.812 120.74 182.074 123.571C182.62 124.797 183.115 127.003 182.639 128.267L174.266 128.305C173.926 127.13 173.584 125.898 172.689 125.014C171.441 123.779 169.723 123.305 168.009 123.322C166.24 123.339 164.223 123.831 162.974 125.165C162.504 125.668 162.298 126.134 162.325 126.824C162.436 129.649 177.447 131.354 180.778 134.436C182.734 136.246 183.864 138.466 183.944 141.151Q183.957 141.703 183.916 142.254Q183.875 142.805 183.779 143.349Q183.684 143.893 183.535 144.425Q183.386 144.957 183.186 145.472Q182.985 145.986 182.735 146.479Q182.485 146.971 182.187 147.437Q181.889 147.902 181.547 148.336Q181.205 148.769 180.822 149.167C177.707 152.458 173.309 153.196 168.982 153.325C164.847 153.389 160.085 152.987 156.588 150.556C153.341 148.3 152.527 145.208 151.874 141.53L160.945 141.51C161.295 142.641 161.697 143.876 162.591 144.697C164.248 146.219 166.557 146.532 168.717 146.443C170.465 146.37 172.635 145.984 173.853 144.608C174.351 144.046 174.627 143.295 174.569 142.54C174.322 139.345 159.558 137.328 156.107 134.38C154.345 132.875 153.277 130.827 153.107 128.513Q153.074 127.997 153.091 127.48Q153.109 126.963 153.177 126.45Q153.245 125.937 153.363 125.434Q153.48 124.93 153.647 124.44Q153.813 123.951 154.027 123.48Q154.241 123.009 154.5 122.561Q154.758 122.113 155.06 121.692Q155.361 121.272 155.702 120.883C158.517 117.654 162.524 116.625 166.636 116.358Z"/>
	<path fill="#BBB" transform="matrix(3.62766 0 0 3.6257 0 -7.62939e-06)" d="M132.159 116.356C136.555 116.302 141.139 116.772 144.657 119.686C147.396 121.954 148.344 124.843 148.651 128.278C146.327 128.313 143.97 128.417 141.648 128.308C138.727 128.171 139.678 126.283 138.105 124.621C136.935 123.385 135.083 123.403 133.498 123.37C131.874 123.336 130.234 123.483 129.02 124.709C128.538 125.194 128.067 126.101 128.104 126.796C128.254 129.664 143.01 131.315 146.757 134.646C148.53 136.221 149.44 138.374 149.555 140.721C149.717 144.018 148.766 146.747 146.541 149.19C143.6 152.42 139.361 153.102 135.203 153.318C130.733 153.376 125.694 153.075 121.963 150.319C118.967 148.106 118.141 145.049 117.62 141.553L126.715 141.513C126.964 142.417 127.209 143.362 127.768 144.13C128.705 145.418 130.318 146.13 131.856 146.354C134.195 146.696 137.249 146.396 139.182 144.909C139.931 144.333 140.314 143.743 140.444 142.81C139.725 138.952 125.102 137.378 121.52 134.229C119.851 132.761 119.145 130.794 119.002 128.618C118.812 125.744 119.521 122.951 121.447 120.759C124.168 117.663 128.192 116.614 132.159 116.356Z"/>
	<path fill="#BBB" transform="matrix(3.62766 0 0 3.6257 0 -7.62939e-06)" d="M232.072 104.78Q237.022 104.798 241.971 104.753C242.002 104.913 242.026 105.071 242.033 105.234C242.093 106.636 239.749 113.147 238.872 114.126C238.91 114.238 238.939 114.35 238.953 114.469C239.045 115.253 226.832 150.896 225.9 151.977C223.138 151.816 220.299 151.969 217.529 151.989C217.636 151.684 217.676 151.331 217.599 151.015C217.091 148.936 216.232 146.842 215.545 144.806L211.496 132.812C208.36 123.528 205.539 113.981 201.962 104.874C205.173 104.689 208.42 104.772 211.636 104.765C211.747 104.865 211.857 104.975 211.935 105.102C212.652 106.276 221.197 135.118 221.96 138.653C222.067 139.15 222.043 139.667 221.936 140.162C222.088 139.987 222.236 139.803 222.356 139.605C222.833 138.818 231.513 108.461 232.132 105.706C232.203 105.391 232.152 105.087 232.072 104.78Z"/>
	<path fill="#BBB" transform="matrix(3.62766 0 0 3.6257 0 -7.62939e-06)" d="M98.1826 116.358C100.399 116.353 102.593 116.399 104.776 116.841C113.357 118.579 113.827 124.336 113.772 131.858L113.686 142.176C113.671 144.106 113.502 146.365 114.101 148.214C114.482 149.392 115.512 150.664 116.203 151.703C112.503 151.914 108.831 152.067 105.135 151.711C104.908 150.661 104.771 149.598 104.622 148.535C103.885 149.219 103.085 149.865 102.282 150.47C99.3986 152.645 95.7461 153.758 92.1461 153.249C89.0274 152.808 86.8611 151.269 85.0023 148.793C83.4521 146.145 82.8872 142.718 83.6632 139.733C85.3142 133.383 91.7355 132.02 97.3595 131.192C99.253 130.913 101.436 130.795 103.113 129.776C103.714 129.411 104.305 128.837 104.461 128.126C104.629 127.359 104.436 126.584 104.015 125.933C103.294 124.816 102.037 124.192 100.774 123.905C98.9903 123.498 96.9301 123.542 95.3601 124.574C93.765 125.622 93.4538 126.821 93.0821 128.566L84.1109 128.505C84.5318 125.533 85.1813 122.817 87.2335 120.516C90.0646 117.343 94.1414 116.6 98.1826 116.358Z"/>
	<path transform="matrix(3.62766 0 0 3.6257 0 -7.62939e-06)" d="M103.99 135.808C104.179 135.816 104.309 135.905 104.475 135.989C104.548 137.907 104.503 139.895 103.779 141.698C103.126 143.325 101.944 144.706 100.299 145.384C98.2588 146.225 96.2089 145.866 94.2489 145.02C93.4044 144.306 92.7928 143.217 92.497 142.155C92.2966 141.435 92.3949 140.69 92.7902 140.055C94.7433 136.921 100.655 136.55 103.99 135.808Z"/>
	<path fill="#BBB" transform="matrix(3.62766 0 0 3.6257 0 -7.62939e-06)" d="M42.3226 104.103C47.4068 103.686 52.7452 104.613 56.971 107.593C61.6199 110.871 63.3405 115.394 64.2787 120.782C61.0347 120.752 57.786 120.808 54.5417 120.828C54.3493 120.002 54.1077 119.205 53.7933 118.416C52.8618 116.08 51.228 114.067 48.8713 113.081C46.2791 111.997 42.7616 112.094 40.1795 113.166C37.2718 114.373 35.276 116.841 34.0976 119.7C31.8919 125.05 31.8858 132.796 34.1336 138.139C35.2544 140.803 37.0273 143.082 39.7655 144.175C42.673 145.335 45.9486 145.558 48.8625 144.279C51.6996 143.034 53.0356 140.826 54.1145 138.046L54.5519 135.629C57.8199 135.814 61.1572 135.708 64.4338 135.736C63.8771 139.73 63.076 143.274 60.4672 146.479C57.1643 150.536 52.0851 152.7 46.9637 153.229C41.1958 153.824 35.3277 152.78 30.7668 149.024C25.7353 144.879 23.3614 138.701 22.7586 132.346C22.0623 125.006 23.3018 116.84 28.1285 111.032C31.8352 106.572 36.6664 104.62 42.3226 104.103Z"/>
	<path fill="#BBB" transform="matrix(3.62766 0 0 3.6257 0 -7.62939e-06)" d="M46.4627 13.8717C60.3112 13.6283 74.2084 13.8613 88.0609 13.8619L170.404 13.8657L215.36 13.8648C223.505 13.8583 232.022 13.3469 240.12 14.1102C244.408 14.5144 248.775 15.8701 252.455 18.1294Q253.102 18.5185 253.728 18.9392Q254.355 19.3599 254.96 19.8111Q255.565 20.2623 256.147 20.7429Q256.729 21.2234 257.287 21.7322Q257.844 22.241 258.376 22.7768Q258.908 23.3126 259.412 23.874Q259.917 24.4355 260.393 25.0212Q260.869 25.6069 261.315 26.2155Q261.762 26.824 262.178 27.4539Q262.593 28.0839 262.977 28.7336Q263.362 29.3833 263.713 30.0513Q264.065 30.7192 264.383 31.4037Q264.701 32.0883 264.984 32.7877Q265.268 33.4871 265.517 34.1997Q265.766 34.9124 265.979 35.6364Q266.192 36.3605 266.369 37.0942Q267.104 40.3734 267.236 43.7314C267.579 51.4851 267.263 59.3562 267.273 67.1259C267.281 73.7357 267.672 80.5788 267.237 87.1641C267.203 87.6802 267.087 88.075 266.812 88.518C256.042 88.2764 245.214 88.5112 234.438 88.5103L14.3399 88.4902C14.5712 84.7018 14.3681 80.7721 14.3686 76.9703L14.3591 54.2995C14.3451 48.7878 13.929 42.8422 15.1685 37.4555Q15.3927 36.4736 15.6816 35.5088Q15.9706 34.5439 16.323 33.6004Q16.6754 32.6569 17.0897 31.7389Q17.5041 30.8209 17.9785 29.9325Q18.4529 29.0441 18.9853 28.1891Q19.5177 27.3342 20.1058 26.5165Q20.6938 25.6988 21.3349 24.9221Q21.976 24.1453 22.6673 23.4128C29.2405 16.4391 37.1664 14.1274 46.4627 13.8717Z"/>
	<path transform="matrix(3.62766 0 0 3.6257 0 -7.62939e-06)" d="M62.278 21.3658C66.186 21.666 70.2916 21.447 74.2198 21.4545L74.2041 48.9787C74.2026 53.8631 73.6388 59.5157 74.6342 64.2809C74.9359 65.7256 75.7447 67.0376 76.7702 68.0882C78.9979 70.3703 82.1769 70.8716 85.2335 70.8939C88.1872 70.9155 91.5033 70.2725 93.6741 68.1146C95.1132 66.6842 95.6256 64.8291 95.9426 62.8756C96.6944 58.2429 96.2529 53.0214 96.2512 48.3243L96.232 21.4626C100.18 21.3988 104.138 21.456 108.087 21.4624L108.084 31.5603L108.089 51.2276C108.088 56.0994 108.514 61.3578 107.439 66.1272C106.733 69.263 105.303 72.2267 103.048 74.5431C98.5742 79.1396 91.8319 80.8252 85.5993 80.8823C79.1824 80.941 72.1928 79.3408 67.5021 74.6929C65.2364 72.4479 63.6724 69.4524 62.978 66.3492C61.6433 60.3846 62.273 53.5862 62.2774 47.4726L62.278 21.3658Z"/>
	<path transform="matrix(3.62766 0 0 3.6257 0 -7.62939e-06)" d="M136.922 20.6019Q137.266 20.569 137.611 20.5456C144.365 20.0786 152.407 21.0541 157.668 25.6706C161.623 29.1413 162.799 33.9527 163.129 38.9933Q157.567 39.0255 152.005 39.0018C151.636 36.4726 151.003 34.301 149.05 32.5204C146.455 30.1543 142.519 29.5758 139.135 29.7427C136.227 29.886 133.188 30.7646 131.183 32.9929C130.138 34.1548 129.443 35.6923 129.546 37.2795C130.171 46.8281 152.562 43.7925 160.539 51.0231C163.402 53.6184 164.558 57.2881 164.746 61.0616C164.992 66.0217 163.774 70.7052 160.374 74.4336C155.834 79.4128 148.934 80.5361 142.547 80.8574C136.426 81.4144 128.825 79.8248 124.029 75.965C119.573 72.3779 117.999 67.44 117.419 61.9511C121.202 61.7586 125.024 61.8303 128.813 61.7979C129.298 64.579 130.094 67.0091 132.346 68.8717C135.588 71.5536 140.287 71.9227 144.31 71.5205C147.295 71.222 150.386 70.2752 152.338 67.8522C153.463 66.4557 153.837 64.7132 153.633 62.9536C152.445 52.6622 131.702 56.0562 123.109 49.1072C120.401 46.9178 119.058 43.8151 118.71 40.3986C118.237 35.7522 119.121 30.839 122.148 27.1707C125.82 22.7206 131.394 21.1489 136.922 20.6019Z"/>
	<path transform="matrix(3.62766 0 0 3.6257 0 -7.62939e-06)" d="M174.728 21.3701C177.155 21.6259 179.756 21.4525 182.202 21.449L196.457 21.4199C199.542 21.4145 202.668 21.3145 205.708 21.9327C208.897 22.5813 211.882 23.8176 214.212 26.1475C217.675 29.6106 218.817 34.5853 218.803 39.3385C218.788 44.6714 217.333 50.1268 213.438 53.9578C208.847 58.4741 203.468 58.5 197.437 58.4667L186.14 58.4868C186.248 58.6467 186.35 58.8186 186.404 59.0057C186.871 60.6159 186.688 75.4946 186.469 77.9016C186.43 78.3268 186.286 78.6848 186.067 79.0488C182.284 79.0986 178.497 79.1851 174.715 79.052L174.728 21.3701Z"/>
	<path fill="#BBB" transform="matrix(3.62766 0 0 3.6257 0 -7.62939e-06)" d="M186.371 31.3702C190.004 30.9146 197.652 30.9082 201.077 31.6361C202.951 32.0342 204.427 32.863 205.477 34.5072C206.944 36.8042 207.263 40.043 206.669 42.6671C206.328 44.1722 205.698 45.5394 204.355 46.3917C204.275 46.5562 204.181 46.7104 204.054 46.8435C201.383 49.6385 190.094 48.7307 186.11 48.7183C186.908 47.4278 186.767 33.4515 186.371 31.3702Z"/>
</svg>
