<?xml version="1.0" encoding="utf-8" ?>
<svg xmlns="http://www.w3.org/2000/svg" xmlns:xlink="http://www.w3.org/1999/xlink" width="744" height="472">
	<path transform="matrix(0.727273 0 0 0.727273 0 1.52588e-05)" d="M0 0L128.968 0L893.371 0L1022.13 0C1022.84 1.13787 1022.92 2.02115 1022.97 3.34165C1023.3 13.6637 1023.01 24.0904 1023.02 34.4217L1023.02 94.384C1023.02 100.72 1023.83 127.464 1022.78 131.953C1022.69 132.315 1022.57 132.579 1022.44 132.934C1023.93 136.944 1023.01 218.708 1023.01 231.992L1022.99 509.968C1022.98 511.456 1023.06 512.919 1022.44 514.309C1022.41 514.392 1022.36 514.473 1022.32 514.555C1022.73 515.49 1022.92 516.301 1022.96 517.313C1023.42 529.862 1023.6 645.479 1022.69 647.876C1022.54 648.281 1022.36 648.635 1022.13 649L888.846 649L131.627 649L0 649L0 518.371L0 129.309L0 0ZM815.954 49.7115Q602.771 51.3199 389.585 50.345L238.203 49.9538L194.962 49.9395C177.746 49.9336 160.221 49.7918 143.206 52.682C120.027 56.6193 99.354 67.0655 82.9924 83.9993Q81.7294 85.2947 80.5106 86.6318Q79.2917 87.9689 78.1184 89.3461Q76.9451 90.7233 75.8186 92.1391Q74.6921 93.5548 73.6137 95.0076Q72.5353 96.4604 71.5062 97.9485Q70.4771 99.4366 69.4985 100.958Q68.5199 102.48 67.5928 104.034Q66.6658 105.588 65.7913 107.172Q64.9169 108.756 64.0961 110.368Q63.2752 111.981 62.5089 113.62Q61.7426 115.259 61.0316 116.922Q60.3207 118.586 59.6659 120.273Q59.0112 121.96 58.4134 123.667Q57.8155 125.375 57.2753 127.102Q56.735 128.829 56.253 130.573Q55.7709 132.317 55.3476 134.076C50.3707 154.331 51.9701 175.598 52.0184 196.246L52.0821 274.709C52.1387 290.061 52.963 305.466 51.9514 320.796L202.677 320.836L729.185 320.845L897.392 320.726L943.581 320.702C951.556 320.745 960.333 321.546 968.208 320.639C970.511 316.521 969.907 308.267 970.052 303.435C970.624 284.355 969.548 265.232 969.704 246.155L970.001 187.236C969.967 177.785 970.179 168.241 969.654 158.803C969.122 149.239 967.841 139.336 965.229 130.103Q964.862 128.805 964.464 127.516Q964.066 126.228 963.636 124.949Q963.206 123.671 962.745 122.404Q962.283 121.136 961.791 119.88Q961.299 118.625 960.776 117.381Q960.254 116.138 959.7 114.908Q959.147 113.678 958.564 112.462Q957.981 111.246 957.368 110.044Q956.755 108.843 956.113 107.657Q955.471 106.471 954.8 105.301Q954.129 104.131 953.429 102.978Q952.729 101.825 952.002 100.689Q951.274 99.5537 950.518 98.4364Q949.763 97.3191 948.98 96.2207Q948.198 95.1223 947.389 94.0434Q946.579 92.9646 945.744 91.9059Q944.908 90.8472 944.047 89.8094Q943.186 88.7716 942.299 87.7552Q941.413 86.7389 940.501 85.7446Q939.59 84.7503 938.655 83.7787Q937.719 82.8072 936.76 81.8588Q935.802 80.9105 934.82 79.986Q933.838 79.0615 932.833 78.1614Q931.829 77.2613 930.803 76.3862Q929.777 75.511 928.73 74.6613Q927.682 73.8116 926.615 72.9879Q925.547 72.1642 924.459 71.367Q923.371 70.5698 922.264 69.7995Q921.157 69.0292 920.032 68.2863Q918.906 67.5435 917.763 66.8285Q916.619 66.1135 915.459 65.4268Q914.298 64.7401 913.121 64.0821C883.571 47.6985 848.688 49.325 815.954 49.7115ZM154.354 377.41C132.783 379.63 114.835 386.651 100.882 403.845C83.8599 424.821 79.8749 454.871 82.6677 480.962C85.0954 503.642 93.8841 526.047 112.03 540.697C128.761 554.206 150.372 557.737 171.287 555.466C189.445 553.494 207.877 545.488 219.457 530.983C228.542 519.604 231.664 506.269 233.805 492.158C221.796 492.043 209.824 492.145 197.821 491.658C197.361 494.243 196.964 496.86 196.36 499.415C193.134 508.798 188.193 517.698 178.929 522.252C169.112 527.077 157.275 527.342 147.014 523.801C136.713 520.246 129.495 512.608 124.868 502.921C115.705 483.738 115.401 457.112 122.516 437.242C126.427 426.316 133.43 416.23 144.155 411.125C153.41 406.719 166.015 405.842 175.747 409.386C184.336 412.513 190.586 419.425 194.325 427.608Q196.607 432.666 197.763 438.093L233.091 437.987C229.832 418.833 223.189 401.719 206.846 390.136C191.864 379.519 172.401 376.018 154.354 377.41ZM354.642 421.925C340.225 423.267 325.473 425.933 315.66 437.754C309.034 445.737 306.365 455.939 305.144 466.046L337.631 466.198C339.086 460.179 340.876 454.865 346.433 451.379C351.811 448.007 359.034 447.727 365.072 449.146C369.872 450.273 374.797 452.819 377.448 457.138C378.861 459.439 379.549 462.26 378.79 464.91C377.925 467.923 375.421 469.915 372.739 471.273C366.594 474.383 359.395 474.669 352.699 475.632C333.07 478.454 310.932 483.762 303.872 504.9C300.253 515.738 302.875 528.262 307.693 538.216C313.295 546.844 321.318 552.99 331.483 555.114C344.638 557.863 358.15 554.254 369.182 546.899C372.806 544.484 376.214 541.663 379.436 538.737L381.347 549.987C394.455 551.592 408.343 550.782 421.518 550.073C418.769 546.023 415.182 541.602 413.782 536.886C411.748 530.035 412.393 522.11 412.463 515.031L412.691 480.104C412.814 452.638 411.973 429.64 379.357 423.482C371.842 422.063 362.232 420.982 354.642 421.925ZM737.93 379.956C735.902 380.043 733.868 380.173 731.837 380.118C737.657 386.946 764.13 472.234 769.081 486.99C775.319 505.581 782.423 524.11 788.03 542.876C788.734 545.233 789.694 547.924 789.439 550.403C789.415 550.635 789.374 550.864 789.333 551.093C799.187 550.903 809.133 550.466 818.973 551.082C823.077 547.289 865.751 423.359 865.604 419.227C865.596 418.994 865.488 418.63 865.437 418.427C866.639 416.831 866.538 415.263 867.262 413.507C870.279 406.189 878.628 388.708 877.946 381.462C877.889 380.866 877.648 380.312 877.359 379.797C871.835 379.779 844.91 379.015 842.467 379.884C841.509 387.46 838.951 395.093 836.897 402.437L827.266 436.463L814.956 479.051C812.244 488.337 809.805 498.014 806.047 506.94L805.885 507.051C805.418 501.149 803.29 495.054 801.705 489.351Q797.43 474.127 792.933 458.966Q785.565 433.613 777.805 408.378C775.146 399.731 772.749 390.789 769.501 382.352C769.104 381.323 768.652 380.542 767.841 379.774C757.886 379.738 747.876 379.512 737.93 379.956ZM604.808 421.882C589.861 423.124 574.516 426.479 564.384 438.615C558.052 446.2 554.577 456.981 555.562 466.815C556.337 474.547 560.066 482.095 566.14 487.016C569.944 490.098 574.512 492.041 579.07 493.722C592.695 498.749 618.771 504.018 629.715 511.933C631.44 513.181 633.066 514.84 633.24 517.073C633.457 519.833 632.026 522.706 630.153 524.65C625.145 529.848 616.828 530.944 609.96 530.99C602.7 531.038 595.032 529.562 589.731 524.22C586.654 521.12 584.982 517.161 583.955 512.969Q567.478 513.199 551.001 513.054C552.91 525.427 556.608 537.476 567.148 545.276C579.601 554.492 595.882 555.525 610.784 556.018C627.76 555.093 644.8 553.527 656.93 539.889C663.948 532 667.974 521.118 667.247 510.525C666.647 501.795 662.68 493.26 655.939 487.59C645.439 478.758 621.112 474.407 607.472 470.279C602.956 468.913 597.698 467.42 593.634 464.991C591.55 463.745 589.515 461.901 589.251 459.343C589.036 457.254 590.025 455.303 591.377 453.777C595.389 449.245 602.388 447.39 608.218 447.125C614.448 446.842 620.905 448.3 625.584 452.638C629.313 456.095 630.817 460.458 632.227 465.211Q647.271 465.217 662.313 465.05C664.237 461.822 663.111 456.929 662.249 453.51C659.711 443.446 652.997 435.778 644.186 430.51C633.18 423.93 617.566 420.43 604.808 421.882ZM480.043 421.886C465.574 422.961 450.271 426.319 440.389 437.927C433.599 445.902 430.867 456.474 431.722 466.821C432.331 474.187 435.079 481.85 440.888 486.699C452.507 496.399 507.984 505.436 509.276 517.499C509.503 519.627 508.031 522.143 506.648 523.66C501.64 529.15 492.805 530.881 485.72 531.066C478.561 531.253 470.925 529.886 465.62 524.698C462.217 521.369 460.96 517.549 459.722 513.071L426.663 513.159C428.782 525.853 432 537.519 443.065 545.485C455.43 554.386 471.415 555.681 486.149 555.842C501.759 555.442 519.464 553.986 530.863 541.827C538.84 533.319 542.923 522.903 542.524 511.206C542.238 502.841 539.539 494.774 533.296 488.973C528.961 484.945 523.203 482.578 517.695 480.604C504.246 475.783 482.579 471.91 470.99 465.598C468.336 464.152 464.567 461.694 464.404 458.343C464.307 456.347 465.658 454.57 467.011 453.234C472.194 448.111 478.948 447.105 485.934 447.229C492.152 447.34 497.46 448.289 501.964 452.904C508.845 459.956 500.751 464.907 518.013 465.328C525.062 465.5 532.148 465.265 539.198 465.156C537.854 452.515 534.311 441.397 523.992 433.171C512.525 424.029 494.384 420.905 480.043 421.886ZM899.753 379.956C898.587 380.06 896.732 379.873 895.977 380.758C898.316 406.599 896.565 432.727 896.659 458.648L897.037 515.536C897.028 525.573 897.24 535.752 896.542 545.769C896.412 547.636 896.173 549.245 895.205 550.879C904.624 551.155 915.163 552.285 924.47 551.16C926.44 551.054 929.579 551.269 931.048 549.7C934.493 546.022 932.468 444.053 932.462 432.71C932.453 417.703 934.167 399.523 932.365 384.911C932.132 383.013 931.682 381.386 930.518 379.828C920.33 379.688 909.924 379.254 899.753 379.956ZM250.796 379.873C251.437 413.768 250.925 447.756 250.983 481.663L251.059 527.112C251.071 535.001 251.367 543.018 251.028 550.894C262.031 550.688 273.09 550.59 284.087 551.014C284.262 550.786 284.513 550.599 284.61 550.329C285.001 549.243 284.87 391.329 284.566 380.075C273.373 379.704 261.991 379.549 250.796 379.873ZM888.846 649L1022.13 649C1022.36 648.635 1022.54 648.281 1022.69 647.876C1023.6 645.479 1023.42 529.862 1022.96 517.313C1022.92 516.301 1022.73 515.49 1022.32 514.555C1020.63 524.579 1019.34 534.853 1016.55 544.643C1007.72 575.662 986.971 603.715 960.758 622.301C945.703 632.976 928.386 640.937 910.228 644.491C903.517 645.805 895.054 646.171 888.846 649ZM0 518.371L0 649L131.627 649C125.613 646.33 117.991 645.866 111.551 644.509Q107.286 643.611 103.095 642.415Q98.9039 641.219 94.807 639.732Q90.7102 638.245 86.7279 636.473Q82.7456 634.702 78.8975 632.655C46.015 615.483 19.3064 585.316 7.63649 549.923C4.24613 539.641 3.23728 528.692 0 518.371ZM893.371 0L893.879 0.191882C905.417 4.47234 918.042 5.76966 929.726 9.80691C964.909 21.9642 993.828 51.6214 1009.36 84.9328C1014.39 95.7171 1018.34 107.196 1020.49 118.917C1021.23 122.979 1021.29 129.346 1022.44 132.934C1022.57 132.579 1022.69 132.315 1022.78 131.953C1023.83 127.464 1023.02 100.72 1023.02 94.384L1023.02 34.4217C1023.01 24.0904 1023.3 13.6637 1022.97 3.34165C1022.92 2.02115 1022.84 1.13787 1022.13 0L893.371 0ZM0 0L0 129.309C3.3683 123.315 3.86526 114.523 5.30735 107.862Q7.33134 98.7631 10.7833 90.1047C25.5178 53.8475 56.8613 22.4022 93.9541 9.30741C105.337 5.28903 117.824 4.69565 128.968 0L0 0Z"/>
	<path transform="matrix(0.727273 0 0 0.727273 0 1.52588e-05)" d="M375.429 492.73C376.456 492.57 377.326 492.628 378.358 492.741L378.963 493.57C379.827 499.426 378.691 507.617 376.631 513.086C374.395 519.022 370.152 524.193 364.282 526.788C356.913 530.047 349.451 528.768 342.212 525.905C339.199 523.225 336.011 519.018 335.217 514.974C334.671 512.19 335.436 509.495 337.056 507.218C344.447 496.833 363.821 494.841 375.429 492.73Z"/>
	<path transform="matrix(0.727273 0 0 0.727273 0 1.52588e-05)" d="M226.086 77.5287C240.084 78.9513 255.119 78.1046 269.208 77.8525L269.215 173.052C269.11 191.988 266.972 211.922 270.342 230.636C271.464 236.863 273.57 241.746 277.948 246.38C286.108 255.017 297.865 256.837 309.19 257.062C319.784 257.272 331.916 254.711 339.695 247.113C344.787 242.141 346.723 235.617 347.882 228.789C350.977 210.555 349.194 191.764 349.1 173.368C348.939 141.572 348.655 109.697 349.214 77.9078C363.476 77.7592 377.808 77.402 392.064 77.9229L392.028 111.789L392.067 180.177C392.086 192.465 392.567 204.821 392.227 217.101C391.65 237.873 387.244 257.509 371.591 272.255C354.172 288.665 328.58 293.846 305.347 293.142C282.891 292.463 259.35 286.164 243.535 269.284Q242.148 267.778 240.863 266.184Q239.577 264.591 238.398 262.917Q237.219 261.242 236.152 259.495Q235.085 257.747 234.135 255.934Q233.184 254.12 232.354 252.248Q231.524 250.377 230.818 248.455Q230.112 246.533 229.533 244.569Q228.954 242.605 228.504 240.607C222.82 215.791 225.916 188.083 225.933 162.739C225.951 134.383 225.185 105.862 226.086 77.5287Z"/>
	<path transform="matrix(0.727273 0 0 0.727273 0 1.52588e-05)" d="M506.859 74.1878C530.532 74.0364 556.472 77.8862 574.101 95.2084C586.253 107.148 591.313 124.711 591.491 141.397C578.192 141.687 564.825 141.39 551.52 141.348C549.883 132.861 547.885 124.574 541.378 118.377C532.311 109.742 518.353 107.402 506.231 107.772C495.318 108.104 483.607 111.197 475.976 119.453C472.073 123.676 469.539 129.138 469.867 134.971C471.1 156.943 507.415 161.578 524.133 164.766C533.008 166.458 541.914 168.157 550.665 170.416C561.743 173.276 573.91 177.301 582.511 185.192C592.627 194.473 597.08 208.082 597.564 221.506C598.218 239.616 593.992 256.639 581.39 270.142C563.148 289.687 535.265 292.576 510.042 293.443C489.776 293.421 468.123 289.161 451.654 276.641C434.214 263.382 428.88 245.475 426.036 224.629C439.706 223.789 453.604 224.191 467.303 224.132C469.053 233.128 471.594 241.629 478.39 248.204C488.216 257.712 503.26 260.11 516.419 259.795C528.542 259.504 542.432 257.085 551.099 247.844C555.556 243.092 557.717 237.096 557.477 230.596C557.208 223.32 554.265 216.946 548.697 212.222C533.439 199.277 497.148 196.514 477.082 191.411C465.49 188.463 453.44 184.408 444.52 176.089C435.069 167.275 430.93 155.109 430.439 142.474C429.771 125.28 433.418 108.982 445.409 96.0466C461.044 79.1802 484.941 75.0814 506.859 74.1878Z"/>
	<path transform="matrix(0.727273 0 0 0.727273 0 1.52588e-05)" d="M633.882 77.4234C642.917 78.6055 652.503 77.8751 661.609 77.8238L708.625 77.6601C732.407 77.6422 758.521 76.6425 776.831 94.6446C789.128 106.736 793.598 124.513 793.709 141.299C793.837 160.7 788.789 180.888 774.779 195.019C758.672 211.266 739.071 211.795 717.673 211.934C713.127 211.932 677.865 211.15 675.791 212.691Q676.246 214.075 676.449 215.517C678.21 227.202 677.252 244.946 677.05 256.905C676.918 264.761 677.336 273.082 676.443 280.879C676.231 282.731 675.966 284.673 674.82 286.202C669.987 288.021 641.067 286.717 633.861 286.591L633.798 173.101L633.882 77.4234ZM691.54 112.663C686.238 112.969 680.85 113.497 675.543 113.492C677.969 119.379 678.04 169.604 675.433 175.216C675.178 175.766 674.878 176.186 674.488 176.643C687.982 177.004 718.346 178.979 729.788 174.615C736.626 173.365 741.932 169.456 745.839 163.735C751.044 156.116 751.658 145.428 749.911 136.607C748.507 129.517 745.146 122.472 738.949 118.404C727.976 111.2 704.325 112.372 691.54 112.663Z"/>
</svg>
